<svg width="221" height="148" viewBox="0 0 221 148" fill="none" xmlns="http://www.w3.org/2000/svg">
<path d="M26.26 112H28.02L22.68 98H20.74L15.38 112H17.1L18.48 108.34H24.88L26.26 112ZM19.08 106.74L21.68 99.86L24.28 106.74H19.08ZM34.1422 112.26C35.3422 112.26 36.2422 111.94 36.7822 111.52V109.9C36.1022 110.44 35.3022 110.78 34.1422 110.78C32.0622 110.78 30.7022 109.26 30.7022 107.02C30.7022 104.9 32.0822 103.42 34.1422 103.42C35.2822 103.42 36.0822 103.74 36.7822 104.28V102.46C36.2422 102.06 35.3822 101.72 34.1422 101.72C31.0822 101.72 29.1022 104.04 29.1022 107.02C29.1022 110.22 31.0822 112.26 34.1422 112.26ZM43.8377 110.76C42.5577 110.76 41.5777 110.16 41.5777 108.22V103.52H44.9377V102H41.5777V99.64H40.1377C40.0577 101.22 39.9777 101.92 38.5377 102.08L37.8777 102.12V103.52H39.9777V108.74C39.9777 110.94 41.2377 112.26 43.5177 112.26C44.1177 112.26 44.5977 112.2 44.9977 112.04V110.6C44.6777 110.7 44.3177 110.76 43.8377 110.76ZM47.9273 99.92C48.5873 99.92 49.1073 99.48 49.1073 98.76C49.1073 98.1 48.7073 97.62 47.9273 97.62C47.1473 97.62 46.7473 98.1 46.7473 98.76C46.7473 99.48 47.2673 99.92 47.9273 99.92ZM47.1273 112H48.7273V102H47.1273V112ZM58.7916 102L55.6116 110.26L52.5116 102H50.7116L54.7916 112H56.3716L60.4516 102H58.7916ZM63.2203 99.92C63.8803 99.92 64.4003 99.48 64.4003 98.76C64.4003 98.1 64.0003 97.62 63.2203 97.62C62.4403 97.62 62.0403 98.1 62.0403 98.76C62.0403 99.48 62.5603 99.92 63.2203 99.92ZM62.4203 112H64.0203V102H62.4203V112ZM71.8845 110.76C70.6045 110.76 69.6245 110.16 69.6245 108.22V103.52H72.9845V102H69.6245V99.64H68.1845C68.1045 101.22 68.0245 101.92 66.5845 102.08L65.9245 102.12V103.52H68.0245V108.74C68.0245 110.94 69.2845 112.26 71.5645 112.26C72.1645 112.26 72.6445 112.2 73.0445 112.04V110.6C72.7245 110.7 72.3645 110.76 71.8845 110.76ZM75.9742 99.92C76.6342 99.92 77.1542 99.48 77.1542 98.76C77.1542 98.1 76.7542 97.62 75.9742 97.62C75.1942 97.62 74.7942 98.1 74.7942 98.76C74.7942 99.48 75.3142 99.92 75.9742 99.92ZM75.1742 112H76.7742V102H75.1742V112ZM87.9584 106.24C87.9584 103.38 86.3384 101.72 83.8584 101.72C81.1984 101.72 79.2784 103.88 79.2784 107.08C79.2784 110.34 81.1984 112.26 84.1984 112.26C85.5584 112.26 86.6784 111.94 87.5784 111.26V109.64C86.6584 110.48 85.7184 110.82 84.3184 110.82C82.3184 110.82 81.0384 109.64 80.8984 107.38H87.8584C87.9384 107.1 87.9584 106.68 87.9584 106.24ZM83.8184 103.42C85.4384 103.42 86.3584 104.3 86.4184 106.06H80.9584C81.2184 104.42 82.2584 103.42 83.8184 103.42ZM93.0277 112.26C95.2477 112.26 96.6877 111.18 96.6877 109.22C96.6877 105.5 91.3277 106.98 91.3277 104.76C91.3277 103.9 92.0877 103.42 93.5277 103.42C94.5677 103.42 95.5077 103.66 96.2877 104.22V102.46C95.5677 101.96 94.6877 101.72 93.4677 101.72C91.3477 101.72 89.8077 102.82 89.8077 104.7C89.8077 108.54 95.1677 106.76 95.1677 109.28C95.1677 110.32 94.4277 110.82 92.9677 110.82C91.7477 110.82 90.6477 110.44 89.8477 109.88V111.5C90.6077 111.96 91.6677 112.26 93.0277 112.26ZM115.264 111.2L113.104 109.3C113.684 108.22 114.044 106.84 114.064 105.2H112.464C112.464 106.42 112.284 107.46 111.944 108.28L108.644 105.38C108.584 105.32 108.524 105.26 108.444 105.2C110.784 104.2 111.724 102.8 111.724 101.1C111.724 99.04 110.444 97.76 108.244 97.76C105.924 97.76 104.464 99.2 104.464 101.32C104.464 102.64 104.964 103.7 106.004 104.8C104.124 105.78 103.404 107.12 103.404 108.58C103.404 110.9 104.944 112.3 107.784 112.3C109.624 112.3 111.204 111.66 112.324 110.4L114.444 112.24L115.264 111.2ZM108.184 99.46C109.384 99.46 110.124 100.18 110.124 101.34C110.124 102.44 109.684 103.34 107.384 104.2C106.464 103.26 106.004 102.5 106.004 101.5C106.004 100.26 106.864 99.46 108.184 99.46ZM107.784 110.86C105.964 110.86 105.004 109.86 105.004 108.46C105.004 107.38 105.564 106.54 107.064 105.8L111.244 109.44C110.444 110.4 109.264 110.86 107.784 110.86ZM127.195 112.3C131.395 112.3 134.055 108.96 134.055 104.82C134.055 100.74 131.435 97.72 127.195 97.72C122.995 97.72 120.335 100.94 120.335 104.92C120.335 109.18 122.995 112.3 127.195 112.3ZM127.195 110.76C123.955 110.76 122.015 108.22 122.015 104.9C122.015 101.76 123.975 99.48 127.195 99.48C130.395 99.48 132.375 101.82 132.375 104.94C132.375 108.3 130.435 110.76 127.195 110.76ZM143.06 102V107.72C143.06 109.88 141.82 110.74 140.58 110.74C139.1 110.74 138.1 110.12 138.1 107.78V102H136.5V108.4C136.5 110.86 137.64 112.26 139.98 112.26C141.62 112.26 142.64 111.28 143.1 110.2L143.06 112H144.66V102H143.06ZM152.49 110.76C151.21 110.76 150.23 110.16 150.23 108.22V103.52H153.59V102H150.23V99.64H148.79C148.71 101.22 148.63 101.92 147.19 102.08L146.53 102.12V103.52H148.63V108.74C148.63 110.94 149.89 112.26 152.17 112.26C152.77 112.26 153.25 112.2 153.65 112.04V110.6C153.33 110.7 152.97 110.76 152.49 110.76ZM162.963 97.5V103.6C162.223 102.28 160.963 101.72 159.503 101.72C156.983 101.72 154.903 103.72 154.903 107.04C154.903 110.54 157.063 112.26 159.443 112.26C160.943 112.26 162.243 111.58 163.003 110.22L162.963 112H164.563V97.5H162.963ZM159.723 110.82C157.963 110.82 156.503 109.54 156.503 107.08C156.503 104.7 157.943 103.42 159.743 103.42C161.583 103.42 162.983 104.64 162.983 107.08C162.983 109.54 161.543 110.82 159.723 110.82ZM171.972 112.26C174.832 112.26 176.912 110.1 176.912 106.96C176.912 103.72 174.812 101.72 171.972 101.72C169.132 101.72 167.032 103.88 167.032 106.96C167.032 110.26 169.072 112.26 171.972 112.26ZM171.972 110.82C169.932 110.82 168.652 109.32 168.652 106.96C168.652 104.76 170.032 103.42 171.972 103.42C173.892 103.42 175.292 104.68 175.292 106.96C175.292 109.26 174.032 110.82 171.972 110.82ZM183.573 112.26C186.433 112.26 188.513 110.1 188.513 106.96C188.513 103.72 186.413 101.72 183.573 101.72C180.733 101.72 178.633 103.88 178.633 106.96C178.633 110.26 180.673 112.26 183.573 112.26ZM183.573 110.82C181.533 110.82 180.253 109.32 180.253 106.96C180.253 104.76 181.633 103.42 183.573 103.42C185.493 103.42 186.893 104.68 186.893 106.96C186.893 109.26 185.633 110.82 183.573 110.82ZM192.535 104.18L192.575 102H190.975V112H192.575V106.98C192.575 104.6 193.975 103.66 195.635 103.66C195.775 103.66 195.915 103.66 196.055 103.68V101.84C194.055 101.88 192.975 102.86 192.535 104.18ZM200.664 112.26C202.884 112.26 204.324 111.18 204.324 109.22C204.324 105.5 198.964 106.98 198.964 104.76C198.964 103.9 199.724 103.42 201.164 103.42C202.204 103.42 203.144 103.66 203.924 104.22V102.46C203.204 101.96 202.324 101.72 201.104 101.72C198.984 101.72 197.444 102.82 197.444 104.7C197.444 108.54 202.804 106.76 202.804 109.28C202.804 110.32 202.064 110.82 200.604 110.82C199.384 110.82 198.284 110.44 197.484 109.88V111.5C198.244 111.96 199.304 112.26 200.664 112.26Z" fill="black"/>
<path d="M102.189 59.5164C99.3681 58.7103 98.4612 56.6615 98.5284 53.8065C98.6291 48.2645 98.6291 42.6889 98.5284 37.1469C98.4948 35.1653 99.3009 34.4935 101.182 34.5607C106.018 34.695 106.287 33.8553 106.186 39.4981C106.186 39.9683 106.254 40.4385 106.321 40.9088C110.721 39.5317 112.165 40.6065 113.609 44.9057C114.382 47.1897 116.229 49.1042 117.673 51.1195C117.909 51.4218 118.647 51.4553 119.185 51.4553C121.066 51.4889 122.98 51.321 124.861 51.5225C125.768 51.6233 126.977 52.0935 127.347 52.7989C127.683 53.437 127.044 54.5454 126.843 55.4859C126.675 56.1912 126.406 56.8966 126.406 57.5683C126.44 65.0248 126.507 72.4813 126.574 79.9378C126.574 80.4752 126.675 81.0462 126.541 81.55C126.373 82.0538 125.97 82.4905 125.701 82.9943C125.365 82.4905 124.727 82.0203 124.727 81.5164C124.626 77.5867 124.626 73.6569 124.626 69.7271C124.626 65.2599 124.626 60.8263 124.626 56.1576C122.51 56.1576 120.629 56.0233 118.782 56.1912C116.431 56.3928 114.684 55.6874 113.609 53.5042C113.441 53.1683 113.139 52.8996 112.602 52.2279C112.098 55.5531 111.594 58.5088 111.225 61.4981C111.157 61.9347 111.56 62.4386 111.796 62.9088C111.896 63.0767 112.098 63.1775 112.232 63.3118C117.371 68.0477 117.371 68.0477 116.699 75.0004C116.531 76.6126 116.531 78.2584 116.363 79.8706C116.128 81.9867 114.919 83.1287 113.341 82.9607C111.695 82.7928 110.754 81.4493 110.889 79.3668C111.057 77.0157 111.124 74.6309 111.426 72.2798C111.628 70.7683 111.292 69.6935 110.083 68.7531C108.907 67.8798 107.899 66.805 106.589 65.6294C106.421 66.2004 106.287 66.4691 106.254 66.7714C105.615 72.8844 101.451 77.0828 98.0581 81.6844C96.9833 83.1286 95.3039 83.3974 94.1284 82.4233C92.7513 81.2813 92.6841 79.9042 93.6581 78.4599C93.7925 78.2248 93.9604 77.9897 94.1284 77.7882C98.8642 72.6493 101.283 66.5363 102.189 59.5164Z" fill="#2269D8"/>
<path d="M112.096 31.0004C114.414 31.034 116.496 33.2172 116.396 35.5348C116.295 37.8187 114.313 39.7668 112.029 39.7668C109.678 39.7668 107.596 37.6844 107.629 35.3668C107.629 32.9821 109.745 30.9668 112.096 31.0004Z" fill="#2269D8"/>
</svg>
