<svg width="229" height="229" viewBox="0 0 229 229" fill="none" xmlns="http://www.w3.org/2000/svg">
<path d="M114.42 0.191476C144.734 0.191476 175.096 0.191476 205.41 0.191476C208.132 0.191476 210.806 0.238406 213.434 1.13008C220.989 3.66433 225.823 8.73281 227.841 16.4763C228.31 18.3535 228.638 20.2777 228.544 22.2488C228.498 22.8589 228.544 23.469 228.544 24.0321C228.544 84.2439 228.544 144.456 228.544 204.667C228.544 207.389 228.451 210.064 227.794 212.692C225.682 220.952 218.362 227.382 209.868 228.226C207.475 228.461 205.081 228.508 202.688 228.508C179.413 228.508 156.137 228.508 132.862 228.508C97.1045 228.508 61.3937 228.508 25.6361 228.508C23.2428 228.508 20.8026 228.461 18.4563 228.179C10.0096 227.241 2.6892 220.718 0.765228 212.411C0.295968 210.346 -0.0793723 208.281 0.0144798 206.169C0.0614059 205.418 0.0144798 204.667 0.0144798 203.916C0.0144798 144.174 0.0144798 84.3847 0.0144798 24.6422C0.0144798 22.108 0.0613372 19.5737 0.530598 17.0395C2.12608 8.73281 9.63426 0.70771 20.2396 0.191476C21.7412 0.0976147 23.2429 0.144545 24.7445 0.144545C54.6364 0.191476 84.5283 0.191476 114.42 0.191476ZM114.608 137.932C87.0154 137.932 59.3759 137.932 31.7834 137.932C30.2818 137.932 28.7801 137.932 27.2785 137.979C21.0842 138.308 16.1101 143.705 15.9224 149.336C15.8754 150.557 15.8754 151.73 15.8754 152.95C15.8754 167.498 15.8754 182.047 15.8754 196.642C15.8754 197.862 15.8754 199.036 15.9224 200.256C16.0162 204.386 19.1134 209.22 24.1814 211.05C26.34 211.801 28.5924 211.801 30.8449 211.801C86.4992 211.801 142.2 211.801 197.855 211.801C198.746 211.801 199.638 211.848 200.577 211.801C208.132 211.331 212.73 205.324 212.683 199.646C212.683 198.754 212.683 197.862 212.683 196.924C212.683 182.235 212.683 167.498 212.683 152.809C212.683 151.589 212.683 150.416 212.59 149.196C212.214 143.188 206.818 138.167 201.046 138.026C199.544 137.979 198.042 137.979 196.541 137.979C169.23 137.932 141.919 137.932 114.608 137.932ZM113.576 17.1803C113.2 18.1658 112.825 19.1514 112.496 20.1369C110.525 26.4256 108.179 32.5735 105.598 38.6744C101.187 49.1868 96.2599 59.4646 91.0511 69.6016C88.3294 74.8578 86.64 80.3956 85.7014 86.2149C84.9506 91.0018 85.2322 95.7887 86.9216 100.388C89.7371 107.897 94.6174 113.435 101.938 116.86C108.601 120.005 115.406 120.568 122.492 118.55C133.331 115.453 140.464 105.973 142.294 97.666C143.28 93.2076 143.28 88.7492 142.529 84.2908C141.684 79.3631 139.995 74.7639 137.696 70.3525C129.155 53.6922 120.849 36.8911 114.843 19.0575C114.655 18.4005 114.42 17.6496 113.576 17.1803Z" fill="#105DAE"/>
<path d="M114.608 137.932C141.919 137.932 169.229 137.932 196.54 137.932C198.042 137.932 199.544 137.932 201.045 137.979C206.817 138.119 212.214 143.141 212.589 149.148C212.683 150.368 212.683 151.542 212.683 152.762C212.683 167.451 212.683 182.187 212.683 196.876C212.683 197.768 212.636 198.66 212.683 199.598C212.73 205.277 208.178 211.284 200.576 211.753C199.685 211.8 198.793 211.753 197.854 211.753C142.2 211.753 86.4988 211.753 30.8445 211.753C28.592 211.753 26.3396 211.753 24.181 211.002C19.0661 209.219 15.9689 204.338 15.922 200.208C15.875 198.988 15.875 197.815 15.875 196.595C15.875 182.046 15.875 167.498 15.875 152.903C15.875 151.682 15.875 150.509 15.922 149.289C16.1566 143.657 21.0838 138.26 27.2781 137.932C28.7797 137.838 30.2814 137.885 31.783 137.885C59.4225 137.932 87.015 137.932 114.608 137.932ZM71.9986 199.974C72.9372 199.974 73.2187 199.974 73.5003 199.974C74.2511 199.927 74.955 199.364 75.1427 198.66C75.8466 195.891 76.5035 193.122 77.1605 190.4C77.2544 189.978 77.3952 189.555 77.5359 189.133C77.5829 189.039 77.7706 188.898 77.7706 188.898C78.0052 189.039 78.4275 189.133 78.4745 189.321C78.9906 191.057 79.413 192.746 79.8822 194.483C80.2577 195.938 80.5862 197.393 80.9616 198.847C81.1493 199.457 81.5716 199.88 82.2285 199.927C82.9794 199.974 83.7302 200.021 84.481 199.974C85.2318 199.927 85.8888 199.364 86.0765 198.613C87.5781 192.371 89.1266 186.082 90.6283 179.841C90.6752 179.559 90.6752 179.23 90.6752 178.949C90.7222 178.62 90.2529 178.01 89.9244 177.963C89.3143 177.916 88.7512 177.869 88.1412 177.869C87.2965 177.916 86.6865 178.386 86.4987 179.137C85.7949 182.046 85.1379 184.956 84.3871 187.866C84.1525 188.757 83.8709 189.602 83.5894 190.447C83.4955 190.635 83.214 190.728 83.0263 190.869C82.9324 190.728 82.7916 190.635 82.7916 190.494C82.4162 189.18 82.0878 187.913 81.7593 186.599C81.1023 183.97 80.4454 181.389 79.7884 178.761C79.6007 178.104 79.0376 177.916 78.3806 177.869C77.2075 177.776 76.6443 178.151 76.3628 179.184C76.0343 180.357 75.7527 181.483 75.4711 182.656C74.8142 185.097 74.1572 187.584 73.5003 190.024C73.4064 190.4 73.1718 190.494 72.8433 190.212C72.7495 190.118 72.5618 190.071 72.5149 189.978C72.3272 189.602 72.0925 189.18 71.9986 188.757C71.3417 185.988 70.7316 183.22 70.0746 180.451C69.9338 179.887 69.7931 179.277 69.5115 178.761C69.3238 178.433 68.9016 178.057 68.5262 177.963C67.963 177.823 67.353 177.869 66.7429 177.916C66.086 177.916 65.5698 178.48 65.6636 179.043C65.7575 179.794 65.8044 180.545 65.9921 181.248C67.1183 186.035 68.2446 190.869 69.4177 195.656C69.6993 196.829 69.9809 198.003 70.4032 199.082C70.544 199.411 71.0132 199.692 71.3886 199.833C71.7171 200.021 72.1863 199.974 71.9986 199.974ZM161.58 157.736C161.534 157.736 161.534 157.736 161.487 157.736C161.487 155.624 161.487 153.513 161.487 151.448C161.487 150.415 161.487 149.336 161.44 148.303C161.393 147.318 160.783 146.802 159.657 146.755C159.187 146.755 158.765 146.755 158.296 146.802C157.451 146.848 156.841 147.412 156.841 148.209C156.794 150.744 156.794 153.325 156.747 155.859C156.747 156.469 156.747 157.079 156.747 157.642C156.747 158.816 156.513 159.191 156.137 159.144C155.621 159.05 155.386 158.722 155.152 158.393C153.04 155.484 150.928 152.527 148.864 149.617C148.347 148.867 147.831 148.116 147.221 147.459C146.94 147.177 146.47 146.895 146.048 146.895C145.016 146.848 143.983 146.895 142.951 146.989C142.716 146.989 142.435 147.318 142.341 147.506C142.2 147.928 142.106 148.35 142.106 148.82C142.106 154.827 142.106 160.834 142.106 166.841C142.106 167.122 142.106 167.451 142.247 167.733C142.341 168.014 142.529 168.39 142.716 168.436C143.842 168.812 145.063 168.906 146.189 168.39C146.423 168.296 146.611 167.92 146.658 167.686C146.752 166.794 146.799 165.902 146.799 165.011C146.846 162.148 146.846 159.332 146.893 156.469C146.893 156.375 147.033 156.235 147.127 156.141C147.409 155.906 147.737 155.953 147.925 156.235C148.817 157.408 149.708 158.628 150.6 159.848C152.524 162.523 154.448 165.198 156.372 167.873C156.747 168.39 157.263 168.671 157.873 168.671C158.624 168.671 159.375 168.671 160.126 168.671C160.267 168.671 160.454 168.671 160.548 168.624C160.83 168.343 161.346 168.014 161.346 167.686C161.487 164.354 161.534 161.021 161.58 157.736ZM146.893 188.945C146.893 190.447 146.893 191.949 146.893 193.45C146.893 195.234 146.94 197.064 147.033 198.847C147.033 199.176 147.503 199.645 147.831 199.786C148.817 200.161 149.896 200.161 150.881 199.786C151.21 199.645 151.632 199.176 151.632 198.8C151.773 197.158 151.726 195.515 151.82 193.873C151.82 193.45 152.008 193.028 152.148 192.606C152.148 192.559 152.477 192.512 152.571 192.559C152.899 192.793 153.275 193.075 153.509 193.403C154.776 195.234 156.043 197.111 157.31 198.988C157.78 199.645 158.437 199.974 159.187 200.021C160.079 200.021 160.97 200.021 161.862 199.974C162.284 199.974 162.754 199.364 162.613 199.082C162.425 198.66 162.238 198.284 162.003 197.909C160.689 195.891 159.375 193.92 158.061 191.902C157.639 191.245 157.639 190.822 158.249 190.353C160.689 188.57 161.487 186.176 161.158 183.266C160.924 181.155 159.797 179.653 157.873 178.761C156.935 178.339 155.903 178.01 154.87 177.963C152.618 177.869 150.365 177.963 148.16 177.963C147.597 177.963 147.033 178.527 146.987 179.09C146.94 179.559 146.893 179.981 146.893 180.451C146.893 183.266 146.893 186.082 146.893 188.945ZM110.29 200.021C110.76 199.974 111.041 199.974 111.323 199.974C112.167 199.927 112.637 199.176 112.308 198.378C109.727 191.996 107.099 185.613 104.518 179.23C104.143 178.245 103.439 177.869 102.454 177.869C100.717 177.823 100.295 178.057 99.685 179.559C97.151 185.801 94.6639 192.042 92.1769 198.331C92.083 198.613 91.9891 198.941 92.036 199.176C92.083 199.411 92.3176 199.786 92.5053 199.833C95.6963 200.302 96.2594 200.302 97.2917 197.393C97.761 196.032 98.7465 195.609 100.107 195.703C100.999 195.75 101.891 195.703 102.782 195.703C106.02 195.797 106.302 195.187 107.756 198.894C107.803 199.035 107.897 199.176 107.991 199.27C108.319 199.504 108.695 199.833 109.07 199.974C109.493 200.021 109.962 199.974 110.29 200.021ZM130.703 188.523C130.656 188.523 130.656 188.523 130.609 188.523C130.609 191.808 130.609 195.14 130.609 198.425C130.609 199.223 131.219 199.927 131.97 199.927C135.255 199.927 138.587 199.927 141.872 199.927C142.012 199.927 142.153 199.833 142.294 199.786C142.482 199.598 142.81 199.364 142.857 199.176C142.951 198.284 142.951 197.393 142.904 196.501C142.904 196.266 142.575 195.985 142.341 195.891C141.918 195.75 141.449 195.703 141.027 195.703C139.666 195.656 138.305 195.656 136.991 195.609C136.24 195.609 135.63 194.952 135.583 194.154C135.537 193.544 135.584 192.981 135.63 192.371C135.677 191.761 136.194 191.292 136.804 191.245C137.273 191.198 137.695 191.198 138.164 191.151C139.197 191.151 140.276 191.151 141.308 191.104C142.622 191.057 143.045 190.588 143.092 189.086C143.092 188.804 143.092 188.476 143.092 188.194C143.045 187.349 142.528 186.833 141.637 186.833C139.994 186.786 138.352 186.739 136.71 186.692C136.24 186.692 135.63 186.035 135.63 185.472C135.584 184.862 135.584 184.252 135.63 183.689C135.677 183.173 136.287 182.469 136.757 182.469C138.399 182.422 140.041 182.375 141.684 182.328C142.529 182.281 143.045 181.765 143.092 180.92C143.092 180.31 143.092 179.7 143.045 179.137C142.998 178.527 142.482 178.01 141.872 178.01C138.587 178.01 135.255 178.01 131.97 178.01C131.407 178.01 130.797 178.62 130.797 179.137C130.703 182.234 130.703 185.378 130.703 188.523ZM136.381 168.671C136.804 168.671 137.132 168.624 137.414 168.624C138.352 168.577 138.728 168.014 138.399 167.122C135.818 160.74 133.19 154.357 130.609 148.022C130.562 147.881 130.515 147.74 130.422 147.599C130.14 146.989 129.577 146.802 128.967 146.708C126.996 146.473 126.339 146.848 125.588 148.726C123.523 153.841 121.459 159.003 119.441 164.166C119.019 165.292 118.549 166.372 118.127 167.498C117.986 167.92 118.315 168.483 118.69 168.53C122.303 168.859 122.35 168.812 123.477 165.996C123.57 165.715 123.758 165.48 123.899 165.198C124.227 164.635 124.697 164.354 125.354 164.307C126.714 164.307 128.028 164.26 129.389 164.26C132.158 164.307 132.392 163.884 133.659 167.122C133.753 167.404 133.894 167.686 134.129 167.873C134.457 168.155 134.833 168.39 135.208 168.53C135.583 168.718 136.053 168.671 136.381 168.671ZM108.507 168.671C108.507 168.718 108.507 168.718 108.507 168.765C110.29 168.718 112.073 168.671 113.857 168.53C114.091 168.53 114.467 168.249 114.561 168.014C114.983 167.029 114.936 165.996 114.608 164.964C114.514 164.729 114.185 164.494 113.951 164.447C113.387 164.307 112.777 164.307 112.167 164.26C110.807 164.213 109.493 164.213 108.132 164.119C107.709 164.072 107.287 163.743 107.287 163.274C107.24 162.523 107.24 161.772 107.24 161.021C107.24 160.411 107.803 159.895 108.366 159.848C110.15 159.754 111.933 159.707 113.716 159.66C114.279 159.66 114.748 159.097 114.795 158.44C114.842 157.83 114.795 157.267 114.748 156.657C114.701 156.094 114.138 155.531 113.575 155.484C111.792 155.39 110.009 155.343 108.226 155.249C107.662 155.202 107.193 154.686 107.193 154.029C107.193 153.419 107.146 152.809 107.24 152.245C107.334 151.823 107.616 151.401 108.132 151.354C108.695 151.26 109.305 151.166 109.915 151.166C111.088 151.119 112.308 151.119 113.481 151.072C114.232 151.025 114.748 150.415 114.795 149.57C114.795 149.101 114.795 148.679 114.795 148.209C114.748 147.412 114.185 146.802 113.387 146.802C110.243 146.802 107.099 146.802 103.955 146.802C103.111 146.802 102.501 147.365 102.501 148.116C102.501 154.404 102.454 160.693 102.501 166.935C102.501 168.249 103.017 168.671 104.518 168.671C105.785 168.671 107.146 168.671 108.507 168.671ZM81.1962 151.776C81.4778 151.917 81.7592 152.058 82.0408 152.199C82.3223 152.339 82.6039 152.433 82.8855 152.527C83.5424 152.762 84.1525 152.386 84.1525 151.729C84.3401 147.599 84.1525 147.506 80.2577 146.614C76.0813 145.675 72.5617 147.036 69.7462 150.181C66.1798 154.123 66.5552 160.458 68.573 163.697C70.0746 166.09 71.9986 167.92 74.7672 168.577C77.5828 169.281 80.4454 169 83.1671 167.92C83.7302 167.686 84.1525 167.216 84.1525 166.559C84.1525 165.527 84.1056 164.494 84.0118 163.462C84.0118 163.274 83.5424 162.993 83.3547 163.039C82.6508 163.18 81.9 163.415 81.2431 163.743C79.9761 164.307 78.6152 164.354 77.2543 164.26C75.5181 164.119 74.1103 163.274 73.1718 161.819C71.5294 159.332 71.6702 155.765 73.4534 153.325C74.2042 152.339 75.1896 151.682 76.4096 151.401C78.0521 150.978 79.6476 151.354 81.1962 151.776ZM117.658 191.104H117.705C117.705 193.028 117.705 194.999 117.705 196.923C117.705 197.533 117.752 198.096 117.799 198.707C117.845 199.27 118.362 199.833 118.925 199.88C119.676 199.927 120.426 199.88 121.177 199.88C121.74 199.88 122.303 199.27 122.303 198.707C122.35 197.205 122.397 195.703 122.397 194.248C122.444 190.822 122.444 187.396 122.444 183.924C122.444 183.407 123.054 182.797 123.57 182.75C124.321 182.703 125.072 182.656 125.823 182.609C127.137 182.469 127.512 181.999 127.512 180.498C127.512 180.357 127.512 180.216 127.512 180.028C127.512 179.888 127.512 179.747 127.512 179.559C127.465 178.386 126.996 177.869 125.917 177.823C122.022 177.823 118.127 177.823 114.279 177.823C113.998 177.823 113.669 177.869 113.434 178.01C113.2 178.151 112.871 178.386 112.871 178.62C112.777 179.512 112.73 180.404 112.73 181.295C112.73 181.812 113.294 182.375 113.904 182.469C114.795 182.563 115.687 182.609 116.578 182.703C117.095 182.75 117.705 183.407 117.705 183.877C117.658 186.364 117.658 188.71 117.658 191.104ZM87.9065 157.783C87.8596 160.177 87.8597 162.57 87.8597 164.964C87.8597 168.671 87.8596 168.671 91.5668 168.671C93.35 168.671 95.1801 168.671 96.9633 168.671C98.6057 168.624 98.9342 168.249 98.9342 166.418C98.9342 166.137 98.9342 165.808 98.9342 165.527C98.8872 164.635 98.4181 164.072 97.6203 164.025C96.2595 163.931 94.9455 163.931 93.5846 163.79C93.2562 163.743 92.8338 163.274 92.7399 162.899C92.5522 162.195 92.5523 161.397 92.5523 160.693C92.5523 157.408 92.5523 154.076 92.5523 150.791C92.5523 149.899 92.5053 149.007 92.5053 148.116C92.4584 147.412 91.8484 146.848 91.0037 146.802C90.8629 146.802 90.7221 146.802 90.5344 146.802C90.2529 146.802 89.9244 146.802 89.6429 146.802C88.4697 146.848 87.9535 147.271 87.9535 148.397C87.9066 151.495 87.9065 154.639 87.9065 157.783Z" fill="#FEFEFE"/>
<path d="M113.575 17.1807C114.42 17.65 114.654 18.3539 114.889 19.0579C120.895 36.8445 129.201 53.6456 137.742 70.3528C140.041 74.8112 141.731 79.4104 142.575 84.2912C143.373 88.7496 143.326 93.2079 142.341 97.6663C140.511 105.973 133.331 115.453 122.538 118.55C115.452 120.568 108.648 120.005 101.984 116.861C94.6637 113.435 89.7365 107.897 86.9679 100.388C85.2316 95.7891 84.997 91.0022 85.7478 86.2153C86.6864 80.3959 88.3757 74.8582 91.0974 69.6019C96.3531 59.465 101.233 49.1872 105.644 38.6748C108.225 32.5738 110.572 26.426 112.543 20.1373C112.824 19.1517 113.2 18.2131 113.575 17.1807ZM96.3531 69.5081C96.0246 70.0243 95.6493 70.4467 95.3677 71.0099C93.2091 75.3275 91.5667 79.7858 90.4405 84.4789C89.1265 90.1105 89.8773 95.5075 92.646 100.576C95.3207 105.457 99.2625 109.023 104.612 110.854C104.706 110.901 104.894 110.807 104.988 110.713C105.034 110.666 105.128 110.478 105.081 110.431C104.143 109.446 103.204 108.507 102.313 107.522C98.6995 103.58 96.2124 99.0742 95.0392 93.818C93.9599 89.0781 94.0068 84.2912 94.8515 79.5512C95.4146 76.4538 96.3061 73.4502 97.057 70.3998C98.3709 68.7572 98.6994 66.6923 99.5441 64.815C99.591 64.7212 99.4503 64.5335 99.3564 64.3457C98.1363 65.9414 96.8693 67.4901 96.3531 69.5081Z" fill="#FEFEFE"/>
<path d="M71.9977 199.975C72.1854 199.975 71.6693 200.022 71.2938 199.881C70.9184 199.74 70.4022 199.458 70.3083 199.13C69.886 198.004 69.6045 196.83 69.323 195.704C68.1498 190.917 67.0236 186.083 65.8973 181.296C65.7096 180.592 65.6627 179.842 65.5689 179.091C65.475 178.528 66.0382 177.964 66.6482 177.964C67.2582 177.964 67.8682 177.87 68.4313 178.011C68.8067 178.105 69.2291 178.434 69.4168 178.809C69.6984 179.325 69.8391 179.935 69.9799 180.499C70.6369 183.267 71.2469 186.036 71.9039 188.805C71.9978 189.228 72.2323 189.65 72.42 190.025C72.4669 190.119 72.6547 190.166 72.7486 190.26C73.0771 190.542 73.3117 190.448 73.4055 190.072C74.0625 187.632 74.7194 185.145 75.3764 182.704C75.7049 181.531 75.9396 180.358 76.2681 179.231C76.5496 178.199 77.1596 177.87 78.2858 177.917C78.8958 177.964 79.5059 178.199 79.6936 178.809C80.3975 181.39 81.0076 184.018 81.6646 186.646C81.993 187.961 82.3684 189.228 82.6969 190.542C82.7438 190.682 82.8846 190.776 82.9315 190.917C83.1192 190.776 83.4477 190.682 83.4946 190.495C83.8231 189.65 84.1046 188.805 84.2923 187.914C84.9962 185.004 85.7001 182.094 86.404 179.185C86.5917 178.434 87.2018 177.964 88.0464 177.917C88.6565 177.917 89.2196 177.964 89.8296 178.011C90.1581 178.058 90.6274 178.668 90.5805 178.997C90.5336 179.278 90.5805 179.607 90.5335 179.888C89.0319 186.13 87.5303 192.419 85.9817 198.661C85.794 199.412 85.137 200.022 84.3862 200.022C83.6354 200.069 82.8846 200.022 82.1338 199.975C81.4768 199.928 81.0075 199.505 80.8667 198.895C80.4913 197.44 80.1629 195.986 79.7875 194.531C79.3652 192.794 78.8959 191.058 78.3797 189.368C78.3328 189.181 77.9105 189.04 77.6758 188.946C77.6289 188.946 77.4412 189.087 77.4412 189.181C77.3004 189.603 77.1596 190.025 77.0658 190.448C76.3619 193.217 75.7049 195.986 75.0479 198.708C74.8602 199.412 74.1563 199.975 73.4055 200.022C73.2178 199.975 72.9363 199.975 71.9977 199.975Z" fill="#105DAE"/>
<path d="M161.58 157.737C161.486 161.022 161.439 164.307 161.298 167.639C161.298 167.968 160.782 168.296 160.501 168.578C160.407 168.672 160.219 168.625 160.078 168.625C159.327 168.625 158.577 168.625 157.826 168.625C157.169 168.625 156.653 168.296 156.324 167.827C154.4 165.152 152.476 162.477 150.552 159.802C149.661 158.582 148.769 157.408 147.877 156.188C147.643 155.907 147.361 155.907 147.08 156.094C146.986 156.188 146.845 156.282 146.845 156.423C146.798 159.286 146.798 162.101 146.751 164.964C146.751 165.856 146.704 166.748 146.61 167.639C146.563 167.921 146.376 168.249 146.141 168.343C145.015 168.859 143.842 168.766 142.669 168.39C142.434 168.343 142.293 167.968 142.199 167.686C142.106 167.405 142.106 167.076 142.059 166.794C142.059 160.787 142.059 154.78 142.059 148.773C142.059 148.351 142.152 147.882 142.293 147.459C142.387 147.224 142.669 146.943 142.903 146.943C143.936 146.849 144.968 146.802 146 146.849C146.423 146.849 146.892 147.131 147.173 147.412C147.784 148.069 148.253 148.82 148.816 149.571C150.928 152.481 152.992 155.437 155.104 158.347C155.339 158.676 155.573 159.004 156.089 159.098C156.512 159.145 156.7 158.769 156.7 157.596C156.7 156.986 156.7 156.376 156.7 155.813C156.7 153.279 156.746 150.697 156.793 148.163C156.793 147.365 157.403 146.849 158.248 146.755C158.717 146.708 159.14 146.708 159.609 146.708C160.782 146.755 161.345 147.224 161.392 148.257C161.439 149.289 161.439 150.369 161.439 151.401C161.439 153.513 161.439 155.625 161.439 157.69C161.533 157.737 161.58 157.737 161.58 157.737Z" fill="#105DAE"/>
<path d="M146.891 188.945C146.891 186.082 146.891 183.267 146.891 180.404C146.891 179.934 146.938 179.512 146.984 179.043C147.031 178.48 147.594 177.916 148.158 177.916C150.41 177.87 152.663 177.823 154.868 177.916C155.9 177.963 156.933 178.292 157.871 178.714C159.748 179.559 160.921 181.108 161.156 183.22C161.485 186.129 160.687 188.523 158.247 190.306C157.637 190.728 157.637 191.198 158.059 191.855C159.373 193.873 160.687 195.844 162.001 197.862C162.235 198.237 162.423 198.66 162.611 199.035C162.752 199.317 162.282 199.927 161.86 199.927C160.968 199.927 160.077 199.974 159.185 199.974C158.387 199.974 157.731 199.645 157.308 198.941C156.041 197.064 154.821 195.234 153.507 193.357C153.273 193.028 152.897 192.793 152.569 192.512C152.475 192.465 152.146 192.512 152.146 192.559C152.006 192.981 151.865 193.404 151.818 193.826C151.724 195.468 151.771 197.111 151.63 198.754C151.583 199.082 151.208 199.598 150.879 199.739C149.894 200.115 148.815 200.115 147.829 199.739C147.501 199.598 147.078 199.129 147.031 198.801C146.937 197.017 146.891 195.234 146.891 193.404C146.891 191.949 146.891 190.447 146.891 188.945ZM153.695 182.046C153.507 182.046 153.366 182.046 153.226 181.999C152.709 181.953 151.959 182.469 151.959 182.985C151.865 184.299 151.677 185.613 152.146 186.927C152.287 187.256 152.475 187.35 152.803 187.443C153.929 187.631 154.868 187.256 155.619 186.505C157.027 185.144 156.417 182.797 154.539 182.234C154.258 182.14 153.976 182.093 153.695 182.046Z" fill="#105DAE"/>
<path d="M110.287 200.021C110.006 199.974 109.537 200.021 109.114 199.927C108.739 199.786 108.363 199.505 108.035 199.223C107.941 199.129 107.847 198.989 107.8 198.848C106.346 195.14 106.064 195.75 102.826 195.657C101.935 195.657 101.043 195.703 100.151 195.657C98.7905 195.563 97.8051 196.032 97.3358 197.346C96.3034 200.256 95.6934 200.256 92.5494 199.786C92.3617 199.74 92.127 199.411 92.0801 199.129C92.0332 198.848 92.0801 198.519 92.2209 198.285C94.708 192.043 97.1951 185.754 99.7291 179.512C100.339 178.011 100.761 177.823 102.498 177.823C103.483 177.823 104.187 178.245 104.562 179.184C107.143 185.567 109.771 191.949 112.352 198.332C112.681 199.129 112.211 199.88 111.367 199.927C111.038 199.974 110.71 199.974 110.287 200.021ZM102.216 191.621C102.732 191.527 103.202 191.48 103.624 191.433C104.046 191.386 104.375 190.823 104.187 190.4C103.671 189.18 103.155 187.96 102.591 186.74C102.498 186.552 102.216 186.411 101.981 186.317C101.935 186.317 101.747 186.505 101.7 186.646C101.137 188.007 100.574 189.368 100.058 190.776C100.011 190.917 100.339 191.339 100.574 191.386C101.137 191.527 101.7 191.527 102.216 191.621Z" fill="#105DAE"/>
<path d="M130.703 188.523C130.703 185.379 130.703 182.235 130.703 179.09C130.703 178.527 131.313 177.964 131.877 177.964C135.161 177.964 138.493 177.964 141.778 177.964C142.388 177.964 142.904 178.48 142.951 179.09C142.998 179.7 143.045 180.263 142.998 180.874C142.998 181.718 142.435 182.235 141.59 182.281C139.948 182.328 138.305 182.375 136.663 182.422C136.194 182.422 135.584 183.126 135.537 183.642C135.49 184.253 135.49 184.863 135.537 185.426C135.584 185.989 136.147 186.646 136.616 186.646C138.258 186.693 139.901 186.74 141.543 186.787C142.388 186.834 142.904 187.35 142.998 188.148C142.998 188.429 143.045 188.758 142.998 189.039C142.951 190.541 142.529 191.011 141.215 191.057C140.182 191.104 139.103 191.057 138.071 191.104C137.602 191.104 137.179 191.151 136.71 191.198C136.1 191.245 135.584 191.714 135.537 192.325C135.49 192.935 135.443 193.498 135.49 194.108C135.537 194.906 136.147 195.516 136.898 195.563C138.258 195.61 139.619 195.61 140.933 195.657C141.356 195.657 141.825 195.704 142.247 195.844C142.482 195.938 142.81 196.22 142.81 196.454C142.857 197.346 142.857 198.238 142.763 199.129C142.763 199.364 142.435 199.552 142.2 199.74C142.106 199.833 141.919 199.88 141.778 199.88C138.493 199.88 135.161 199.927 131.877 199.88C131.126 199.88 130.516 199.176 130.516 198.379C130.516 195.093 130.516 191.761 130.516 188.476C130.656 188.523 130.656 188.523 130.703 188.523Z" fill="#105DAE"/>
<path d="M136.381 168.671C136.053 168.671 135.584 168.718 135.161 168.577C134.786 168.437 134.41 168.202 134.082 167.92C133.847 167.733 133.753 167.404 133.613 167.17C132.299 163.978 132.111 164.354 129.342 164.307C127.982 164.307 126.668 164.307 125.307 164.354C124.65 164.354 124.181 164.682 123.852 165.245C123.711 165.48 123.524 165.762 123.43 166.043C122.304 168.859 122.257 168.906 118.643 168.577C118.268 168.53 117.939 167.967 118.08 167.545C118.502 166.419 118.925 165.292 119.394 164.213C121.459 159.051 123.477 153.935 125.541 148.773C126.292 146.896 126.949 146.52 128.92 146.755C129.53 146.802 130.093 147.036 130.375 147.646C130.422 147.787 130.516 147.928 130.563 148.069C133.143 154.451 135.771 160.787 138.352 167.17C138.728 168.061 138.305 168.624 137.367 168.671C137.085 168.671 136.804 168.671 136.381 168.671ZM128.216 160.412C128.685 160.365 129.108 160.365 129.53 160.318C130.093 160.271 130.516 159.614 130.281 159.004C129.765 157.783 129.249 156.61 128.732 155.39C128.638 155.202 128.357 155.108 128.122 155.015C128.075 155.015 127.888 155.202 127.841 155.296C127.278 156.657 126.762 157.971 126.245 159.332C126.105 159.614 126.621 160.224 126.996 160.271C127.325 160.365 127.794 160.412 128.216 160.412Z" fill="#105DAE"/>
<path d="M108.507 168.671C107.146 168.671 105.832 168.671 104.471 168.671C102.969 168.624 102.453 168.202 102.453 166.935C102.453 160.646 102.453 154.358 102.453 148.116C102.453 147.318 103.063 146.802 103.908 146.802C107.052 146.802 110.196 146.802 113.34 146.802C114.138 146.802 114.701 147.412 114.748 148.21C114.795 148.632 114.795 149.101 114.748 149.571C114.701 150.415 114.185 151.072 113.434 151.072C112.261 151.119 111.041 151.119 109.867 151.166C109.257 151.213 108.694 151.307 108.084 151.354C107.568 151.448 107.287 151.87 107.193 152.246C107.052 152.809 107.099 153.419 107.146 154.029C107.146 154.686 107.615 155.249 108.178 155.249C109.961 155.343 111.745 155.39 113.528 155.484C114.044 155.531 114.654 156.047 114.701 156.657C114.748 157.267 114.748 157.83 114.748 158.44C114.701 159.098 114.232 159.614 113.669 159.661C111.885 159.755 110.102 159.801 108.319 159.848C107.756 159.895 107.193 160.412 107.193 161.022C107.146 161.773 107.146 162.523 107.24 163.274C107.287 163.744 107.662 164.119 108.084 164.119C109.445 164.213 110.759 164.213 112.12 164.26C112.73 164.307 113.34 164.307 113.903 164.448C114.138 164.495 114.466 164.729 114.56 164.964C114.935 165.949 114.982 167.029 114.513 168.014C114.419 168.249 114.091 168.484 113.809 168.531C112.026 168.624 110.243 168.671 108.46 168.765C108.507 168.718 108.507 168.671 108.507 168.671Z" fill="#105DAE"/>
<path d="M81.1961 151.777C79.6476 151.307 78.0521 150.979 76.3627 151.354C75.1427 151.636 74.1572 152.246 73.4064 153.279C71.6232 155.719 71.4824 159.286 73.1248 161.773C74.1102 163.228 75.4712 164.073 77.2074 164.213C78.5683 164.307 79.8822 164.26 81.1961 163.697C81.8531 163.416 82.6039 163.181 83.3078 162.993C83.4955 162.946 83.9647 163.228 83.9647 163.416C84.0586 164.448 84.1055 165.48 84.1055 166.513C84.1055 167.17 83.7301 167.639 83.12 167.874C80.3983 168.953 77.5828 169.235 74.7203 168.531C71.9517 167.827 69.9808 165.997 68.5261 163.65C66.5083 160.459 66.1329 154.123 69.6993 150.134C72.5617 146.99 76.0342 145.629 80.2107 146.568C84.1055 147.459 84.2932 147.553 84.1055 151.683C84.0586 152.34 83.4486 152.715 82.8386 152.481C82.557 152.387 82.2754 152.246 81.9939 152.152C81.7592 152.058 81.4777 151.918 81.1961 151.777Z" fill="#105DAE"/>
<path d="M117.658 191.105C117.658 188.711 117.658 186.318 117.658 183.924C117.658 183.455 117.048 182.798 116.532 182.751C115.64 182.657 114.748 182.61 113.857 182.516C113.294 182.469 112.684 181.906 112.684 181.343C112.684 180.451 112.731 179.56 112.824 178.668C112.871 178.433 113.153 178.199 113.387 178.058C113.622 177.917 113.951 177.87 114.232 177.87C118.127 177.87 122.022 177.87 125.87 177.87C126.949 177.87 127.418 178.433 127.465 179.607C127.465 179.747 127.465 179.888 127.465 180.076C127.465 180.217 127.465 180.357 127.465 180.545C127.465 182.047 127.043 182.516 125.776 182.657C125.025 182.751 124.274 182.751 123.524 182.798C122.96 182.845 122.397 183.455 122.397 183.971C122.397 187.397 122.35 190.823 122.35 194.296C122.35 195.798 122.304 197.299 122.257 198.754C122.257 199.317 121.693 199.927 121.13 199.927C120.379 199.974 119.629 199.974 118.878 199.927C118.315 199.927 117.799 199.317 117.752 198.754C117.705 198.144 117.658 197.581 117.658 196.971C117.658 195.047 117.658 193.076 117.658 191.151C117.705 191.105 117.705 191.105 117.658 191.105Z" fill="#105DAE"/>
<path d="M87.9064 157.784C87.9064 154.639 87.9064 151.495 87.9064 148.351C87.9064 147.271 88.4226 146.802 89.5957 146.755C89.8773 146.755 90.2057 146.755 90.4873 146.755C90.6281 146.755 90.7688 146.755 90.9566 146.755C91.8012 146.802 92.4114 147.365 92.4583 148.069C92.5052 148.961 92.5051 149.853 92.5051 150.744C92.5051 154.029 92.5051 157.361 92.5051 160.647C92.5051 161.397 92.5052 162.148 92.6929 162.852C92.7868 163.181 93.209 163.697 93.5375 163.744C94.8514 163.885 96.2123 163.885 97.5732 163.979C98.3709 164.026 98.8402 164.542 98.8871 165.48C98.8871 165.762 98.9341 166.09 98.8871 166.372C98.8871 168.202 98.5587 168.578 96.9163 168.625C95.1331 168.672 93.3029 168.625 91.5198 168.625C87.7657 168.625 87.8125 168.625 87.8125 164.917C87.8595 162.571 87.8594 160.177 87.9064 157.784Z" fill="#105DAE"/>
<path d="M97.0576 70.3524C96.3068 73.4029 95.4152 76.4064 94.8521 79.5038C93.9605 84.2438 93.9606 89.0307 95.0399 93.7707C96.2131 99.0269 98.7001 103.532 102.313 107.474C103.205 108.46 104.19 109.398 105.082 110.384C105.129 110.431 105.035 110.619 104.988 110.666C104.894 110.759 104.707 110.853 104.613 110.806C99.2632 108.976 95.3214 105.409 92.6466 100.529C89.878 95.4602 89.1272 90.0632 90.4411 84.4315C91.5204 79.7385 93.2098 75.2801 95.3684 70.9625C95.6499 70.4462 96.0253 69.9769 96.3537 69.4607C96.5884 69.7892 96.823 70.0708 97.0576 70.3524Z" fill="#105DAE"/>
<path d="M97.0555 70.3529C96.8208 70.0713 96.5862 69.7897 96.3516 69.5081C96.8677 67.4901 98.1348 65.9414 99.3549 64.2988C99.4488 64.4865 99.5895 64.6743 99.5426 64.7681C98.6979 66.6453 98.3694 68.7103 97.0555 70.3529Z" fill="#1083B8"/>
<path d="M153.697 182.047C153.979 182.094 154.26 182.141 154.542 182.235C156.419 182.798 157.029 185.097 155.621 186.505C154.824 187.303 153.885 187.632 152.806 187.444C152.477 187.397 152.243 187.303 152.149 186.928C151.68 185.614 151.867 184.3 151.961 182.986C152.008 182.516 152.712 182 153.228 182C153.369 182.047 153.557 182.047 153.697 182.047Z" fill="#FEFEFE"/>
<path d="M102.218 191.621C101.702 191.527 101.138 191.527 100.575 191.339C100.341 191.292 100.012 190.87 100.059 190.729C100.575 189.321 101.139 187.96 101.702 186.599C101.749 186.458 101.936 186.271 101.983 186.271C102.218 186.364 102.499 186.505 102.593 186.693C103.156 187.913 103.673 189.133 104.189 190.353C104.376 190.776 104.048 191.339 103.626 191.386C103.203 191.48 102.734 191.527 102.218 191.621Z" fill="#FEFEFE"/>
<path d="M128.218 160.412C127.795 160.365 127.373 160.365 126.904 160.318C126.528 160.271 126.059 159.708 126.153 159.379C126.669 158.018 127.232 156.657 127.748 155.343C127.795 155.203 127.983 155.015 128.03 155.062C128.264 155.156 128.546 155.25 128.64 155.437C129.203 156.611 129.719 157.831 130.188 159.051C130.423 159.614 130.048 160.318 129.438 160.365C129.062 160.365 128.64 160.412 128.218 160.412Z" fill="#FEFEFE"/>
</svg>
