<svg width="229" height="229" viewBox="0 0 229 229" fill="none" xmlns="http://www.w3.org/2000/svg">
<path d="M0.00136586 114.41C0.00136586 84.7032 0.00136586 54.9493 0.00136586 25.2423C0.00136586 23.7406 0.0483031 22.2388 0.00136586 20.737C-0.0925086 13.6036 4.64815 4.07672 15.5845 0.932385C17.6967 0.322289 20.0436 0.322266 22.2496 0.0876144C23.2822 -0.00624647 24.3618 0.0876144 25.3944 0.0876144C84.5353 0.0876144 143.676 0.0876144 202.864 0.0876144C205.258 0.0876144 207.652 0.134568 210.046 0.463081C217.086 1.49555 222.249 5.15612 225.723 11.2571C227.318 14.026 228.21 17.0295 228.257 20.2677C228.257 21.6287 228.304 22.9897 228.304 24.3037C228.304 84.3277 228.304 144.399 228.304 204.423C228.304 205.643 228.304 206.816 228.304 208.036C228.304 216.343 222.343 225.494 212.299 227.888C210.515 228.31 208.778 228.639 206.948 228.592C205.915 228.592 204.835 228.592 203.803 228.592C144.052 228.592 84.3007 228.592 24.5495 228.592C23.3292 228.592 22.1557 228.592 20.9354 228.592C12.8152 228.498 3.05229 223.43 0.376864 211.603C0.142178 210.571 0.0952403 209.538 0.0483031 208.459C0.00136586 206.957 0.00136586 205.455 0.00136586 203.953C0.00136586 174.153 0.00136586 144.258 0.00136586 114.41ZM114.012 211.65C141.47 211.65 168.928 211.65 196.387 211.65C197.889 211.65 199.391 211.603 200.893 211.603C205.633 211.65 210.515 207.708 211.97 203.109C212.627 201.044 212.674 198.979 212.674 196.867C212.674 182.178 212.674 167.442 212.674 152.752C212.674 151.861 212.721 150.969 212.674 150.03C212.345 144.07 208.544 139.612 202.723 138.204C200.94 137.781 199.156 137.781 197.372 137.781C173.951 137.781 150.529 137.781 127.154 137.781C95.4717 137.781 63.836 137.781 32.1534 137.781C30.7922 137.781 29.431 137.688 28.1168 137.828C20.9823 138.345 16.758 142.897 15.7723 148.857C15.5845 150.03 15.6315 151.251 15.6315 152.471C15.6315 167.348 15.6315 182.178 15.6315 197.055C15.6315 197.665 15.6315 198.275 15.6315 198.838C15.5845 200.527 15.96 202.17 16.5702 203.672C18.5416 208.318 21.968 211.134 27.1311 211.556C28.6331 211.697 30.1351 211.603 31.6371 211.603C59.0954 211.65 86.5536 211.65 114.012 211.65ZM114.294 102.396C129.642 102.208 143.958 90.4287 143.958 72.4543C143.958 53.9637 128.609 42.325 114.2 42.7943C99.743 42.2781 84.3945 53.9168 84.3007 72.3605C84.2068 90.5225 98.8512 102.396 114.294 102.396ZM114.153 38.946C114.153 38.993 114.153 38.9929 114.153 39.0399C116.265 39.0399 118.33 39.0399 120.442 39.0399C121.006 39.0399 121.616 38.8991 122.179 38.8052C122.695 38.7113 123.165 37.8666 123.024 37.3973C122.977 37.2565 122.977 37.1157 122.883 36.9749C120.348 31.3902 117.814 25.8055 115.232 20.2208C115.138 19.9861 114.81 19.7515 114.575 19.6576C114.34 19.5637 114.012 19.5637 113.777 19.6576C113.167 19.8923 112.932 20.4554 112.698 21.0186C110.351 26.0402 108.004 31.0617 105.657 36.0833C105.469 36.5056 105.375 36.928 105.235 37.3504C105.094 37.8197 105.61 38.6644 106.08 38.7583C106.502 38.8522 106.971 38.9929 107.394 38.9929C109.647 38.946 111.9 38.946 114.153 38.946ZM151.984 109.623C151.89 109.154 151.796 108.544 151.609 108.028C149.684 102.678 147.76 97.3275 145.835 91.9774C145.695 91.555 145.413 91.1796 145.131 90.8041C144.85 90.3818 143.911 90.241 143.489 90.5695C143.254 90.7572 142.972 90.898 142.784 91.1326C139.499 94.4178 136.166 97.656 132.881 100.941C132.552 101.27 132.364 101.645 132.083 102.02C131.895 102.302 132.036 103.006 132.364 103.241C132.74 103.475 133.068 103.851 133.491 103.992C139.076 106.103 144.709 108.168 150.294 110.233C150.576 110.327 150.905 110.374 151.139 110.28C151.421 110.186 151.656 109.905 151.984 109.623ZM76.9315 110.233C77.2601 110.233 77.5886 110.327 77.8233 110.233C83.4558 108.215 89.0882 106.197 94.6738 104.132C95.0962 103.992 95.4248 103.663 95.8003 103.428C96.1288 103.241 96.3166 102.49 96.1288 102.208C95.988 101.974 95.8472 101.645 95.6595 101.457C92.1861 97.9375 88.7128 94.4178 85.2394 90.9449C85.1455 90.8511 85.0047 90.8041 84.8639 90.7103C84.3007 90.241 83.268 90.4756 82.9864 91.2265C80.7334 97.2336 78.4804 103.241 76.2274 109.295C76.1805 109.435 76.2275 109.623 76.3213 109.717C76.5091 109.905 76.7438 110.093 76.9315 110.233ZM80.7334 72.7828C80.6865 72.7828 80.5926 72.7828 80.5457 72.7828C80.5457 70.8587 80.5457 68.8876 80.5457 66.9635C80.5457 66.2126 80.4987 65.4617 80.4518 64.7108C80.4049 64.0069 79.5131 63.4906 78.7621 63.7253C78.3396 63.8191 77.8703 63.913 77.4948 64.1007C72.4725 66.4003 67.4971 68.7468 62.4748 71.0934C62.0993 71.2811 61.7708 71.6096 61.3953 71.8912C61.1137 72.0789 61.1137 72.8767 61.3953 73.0644C61.7708 73.2991 62.0993 73.6276 62.5218 73.7684C67.6849 76.1618 72.801 78.5084 77.9641 80.8549C78.3866 81.0426 78.809 81.1364 79.2314 81.2772C79.6539 81.418 80.4987 80.8079 80.5926 80.3386C80.6395 79.9163 80.7334 79.447 80.7334 79.0246C80.7334 76.9596 80.7334 74.8478 80.7334 72.7828ZM78.058 34.8631C76.6499 34.7223 76.1336 35.3793 76.3213 35.9425C76.3683 36.0833 76.4152 36.2241 76.4621 36.3649C78.4804 41.8088 80.4987 47.2527 82.517 52.6966C82.6579 53.119 82.9395 53.4944 83.1272 53.8699C83.5027 54.5269 84.4415 54.6677 85.0517 54.0576C88.6189 50.4909 92.1861 46.8772 95.7533 43.2636C95.9411 43.0759 96.1288 42.7474 96.1758 42.4658C96.2227 42.1842 96.1758 41.8088 96.035 41.668C95.6125 41.2925 95.0962 40.8702 94.5799 40.6824C89.4168 38.7583 84.2537 36.8811 79.0437 35.0039C78.4804 34.91 77.8703 34.8631 78.058 34.8631ZM144.38 54.5269C144.568 54.48 144.756 54.4331 144.85 54.3392C145.131 54.0107 145.507 53.6822 145.648 53.2598C147.666 47.7689 149.637 42.325 151.609 36.8342C151.749 36.4118 151.796 35.9425 151.749 35.5201C151.703 35.2854 151.421 34.9569 151.233 34.91C150.811 34.8161 150.294 34.8162 149.919 34.9569C144.333 37.0219 138.701 39.1337 133.115 41.1987C132.834 41.2925 132.646 41.5272 132.411 41.7149C132.177 41.9026 132.036 42.7005 132.271 42.9351C132.646 43.4044 132.975 43.8737 133.397 44.2961C136.448 47.3466 139.546 50.397 142.644 53.4475C143.066 53.8699 143.582 54.1515 144.099 54.48C144.099 54.5738 144.286 54.5269 144.38 54.5269ZM114.528 105.963C114.528 106.01 114.528 106.01 114.528 105.963C112.134 106.01 109.741 105.963 107.347 106.01C105.657 106.057 104.953 106.62 105.657 108.638C105.751 108.919 105.892 109.201 105.986 109.482C108.286 114.363 110.539 119.244 112.838 124.125C113.026 124.547 113.308 124.876 113.543 125.251C113.777 125.58 114.481 125.627 114.716 125.345C114.951 124.969 115.279 124.641 115.467 124.266C117.861 119.103 120.255 113.941 122.601 108.778C122.836 108.262 122.93 107.652 122.977 107.042C122.977 106.807 122.742 106.479 122.555 106.338C122.179 106.15 121.71 106.01 121.287 106.01C119.034 105.963 116.781 105.963 114.528 105.963ZM148.886 63.5845C148.558 63.8661 148.135 64.1007 147.994 64.4762C147.807 64.8516 147.76 65.3209 147.76 65.7902C147.713 70.2486 147.713 74.7539 147.713 79.2123C147.713 79.6347 147.666 80.1509 147.901 80.5264C148.088 80.8549 148.511 81.1365 148.886 81.3242C149.121 81.418 149.496 81.3242 149.731 81.1834C155.317 78.6492 160.855 76.1149 166.394 73.5807C166.629 73.4868 166.863 73.2052 167.004 72.9706C167.098 72.7359 167.145 72.3605 167.051 72.1728C166.816 71.7973 166.488 71.4688 166.112 71.2811C160.996 68.8407 155.88 66.4472 150.717 64.1007C150.154 63.7722 149.543 63.7253 148.886 63.5845Z" fill="#EFA915"/>
<path d="M114.011 211.65C86.5524 211.65 59.0941 211.65 31.6358 211.65C30.1338 211.65 28.6318 211.697 27.1298 211.603C21.9667 211.18 18.5403 208.365 16.569 203.718C15.9118 202.217 15.5833 200.574 15.6302 198.885C15.6302 198.274 15.6302 197.664 15.6302 197.101C15.6302 182.224 15.6302 167.394 15.6302 152.517C15.6302 151.297 15.5833 150.077 15.771 148.904C16.7567 142.944 20.9811 138.391 28.1155 137.875C29.4767 137.781 30.8379 137.828 32.1521 137.828C63.8348 137.828 95.4705 137.828 127.153 137.828C150.575 137.828 173.996 137.828 197.371 137.828C199.155 137.828 200.938 137.828 202.722 138.251C208.495 139.658 212.344 144.117 212.673 150.077C212.72 150.969 212.673 151.86 212.673 152.799C212.673 167.488 212.673 182.224 212.673 196.914C212.673 199.025 212.579 201.09 211.969 203.155C210.561 207.754 205.632 211.697 200.892 211.65C199.39 211.65 197.888 211.697 196.386 211.697C168.927 211.65 141.469 211.65 114.011 211.65ZM157.005 160.073C157.052 160.073 157.052 160.073 157.005 160.073C157.052 157.82 157.052 155.568 157.005 153.315C157.005 152.423 157.005 151.532 156.817 150.64C156.771 150.312 156.348 149.842 155.973 149.748C155.409 149.561 154.799 149.608 154.189 149.608C153.391 149.655 152.734 150.265 152.734 151.016C152.687 152.987 152.687 154.911 152.64 156.882C152.64 157.774 152.64 158.665 152.593 159.604C152.593 160.261 152.265 160.73 151.983 160.589C151.748 160.496 151.42 160.449 151.279 160.261C149.589 157.961 147.899 155.662 146.257 153.362C145.553 152.377 144.848 151.391 144.097 150.499C143.816 150.171 143.393 149.842 142.971 149.795C142.079 149.702 141.187 149.702 140.296 149.795C139.967 149.842 139.591 150.359 139.451 150.734C139.263 151.109 139.31 151.626 139.31 152.048C139.31 157.163 139.31 162.232 139.31 167.347C139.31 167.817 139.357 168.239 139.451 168.661C139.545 168.943 139.732 169.225 139.967 169.365C140.953 169.929 141.985 169.929 142.971 169.459C143.206 169.365 143.44 169.037 143.534 168.802C143.675 168.239 143.722 167.629 143.769 167.019C143.816 164.766 143.769 162.514 143.816 160.261C143.816 159.839 144.004 159.369 144.097 158.947C144.144 158.853 144.332 158.806 144.426 158.759C144.567 158.712 144.802 158.665 144.848 158.712C145.787 159.885 146.726 161.059 147.618 162.279C149.12 164.344 150.622 166.409 152.077 168.521C152.734 169.506 153.673 169.788 154.799 169.741C154.94 169.741 155.081 169.741 155.269 169.741C156.395 169.694 157.005 169.178 157.005 168.145C157.052 165.47 157.005 162.748 157.005 160.073ZM76.0384 188.091H75.9915C75.9915 190.484 75.9915 192.878 75.9915 195.271C75.9915 195.881 76.0384 196.491 76.1793 197.054C76.2262 197.289 76.5078 197.664 76.7425 197.711C79.371 198.274 80.4505 198.181 80.4036 195.646C80.4036 194.285 80.4036 192.971 80.4036 191.61C80.4036 190.249 80.4036 188.935 80.4505 187.574C80.4505 187.34 80.6852 187.105 80.826 186.87C81.0138 186.589 81.577 186.823 81.9525 187.293C82.7505 188.372 83.5484 189.452 84.3463 190.578C85.9422 192.784 87.4911 194.942 89.087 197.148C89.4625 197.664 89.9788 197.946 90.589 197.946C91.1992 197.946 91.8094 197.946 92.3726 197.946C93.2644 197.899 93.7807 197.43 93.7807 196.585C93.7807 190.906 93.7807 185.228 93.7807 179.502C93.7807 179.362 93.7807 179.174 93.7338 179.08C93.4991 178.705 93.4052 178.235 92.842 178.188C92.2318 178.141 91.6685 178.048 91.0584 178.094C90.1665 178.094 89.5564 178.658 89.5564 179.408C89.5094 180.441 89.5094 181.52 89.4625 182.553C89.4625 184.477 89.4625 186.448 89.4156 188.372C89.4156 188.607 89.2278 188.888 89.0401 189.076C88.7584 189.311 88.5238 189.17 88.2891 188.841C86.5993 186.542 84.9565 184.242 83.2668 181.943C82.4688 180.863 81.7178 179.737 80.826 178.705C80.5914 178.376 80.075 178.188 79.6526 178.141C78.9016 178.048 78.1506 178.094 77.3996 178.094C76.6017 178.141 76.0384 178.705 76.0384 179.549C76.0384 182.412 76.0384 185.275 76.0384 188.091ZM143.534 186.964C142.783 186.964 142.032 186.964 141.281 186.964C141 186.964 140.671 186.964 140.389 187.011C140.108 187.058 139.779 187.105 139.545 187.293C139.31 187.434 139.075 187.715 139.028 187.95C138.606 190.062 139.028 190.625 141.093 190.813C141.516 190.86 141.985 190.906 142.408 190.953C142.83 191 143.018 191.563 142.83 191.939C141.798 194.145 137.855 194.238 135.977 192.971C132.363 190.578 132.457 184.993 136.212 182.787C137.902 181.802 139.591 181.567 141.328 182.6C142.079 183.069 142.783 183.632 143.487 184.148C144.004 184.524 144.567 184.43 145.083 183.961C145.412 183.679 145.74 183.351 146.022 183.022C146.444 182.506 146.444 181.896 146.116 181.426C143.487 177.344 137.526 176.499 133.302 179.315C128.937 182.177 127.669 187.199 129.547 192.033C131.237 196.35 134.71 198.415 139.451 198.181C144.051 197.946 147.665 194.473 147.946 189.921C148.087 187.668 148.087 187.058 145.224 187.105C144.755 187.011 144.144 186.964 143.534 186.964ZM112.743 187.762C112.696 187.762 112.696 187.762 112.649 187.762C112.649 190.015 112.649 192.267 112.649 194.473C112.649 194.755 112.649 195.083 112.649 195.365C112.696 195.975 112.696 196.538 112.837 197.148C112.884 197.383 113.213 197.758 113.4 197.758C114.292 197.852 115.184 197.899 116.076 197.758C116.404 197.711 116.78 197.195 116.874 196.867C117.015 196.303 117.015 195.693 117.015 195.083C117.062 194.051 117.062 193.018 117.109 191.939C117.109 191.563 117.296 191.376 117.625 191.423C117.766 191.423 117.953 191.423 118 191.517C119.221 193.206 120.441 194.896 121.615 196.679C122.272 197.664 123.117 198.04 124.243 197.993C124.994 197.946 125.745 197.899 126.449 197.758C126.59 197.711 126.778 197.195 126.731 197.101C125.557 195.177 124.337 193.3 123.163 191.423C122.319 190.109 122.272 189.827 123.445 188.748C124.994 187.293 125.604 185.556 125.557 183.538C125.51 180.582 123.539 178.376 120.629 178.188C118.376 178.047 116.17 178.141 113.917 178.188C113.354 178.188 112.743 178.751 112.743 179.315C112.743 182.084 112.743 184.946 112.743 187.762ZM103.262 159.557C103.262 161.34 103.215 163.171 103.262 164.954C103.262 166.127 103.356 167.347 103.403 168.521C103.45 169.037 104.06 169.647 104.623 169.694C106.407 169.741 108.237 169.788 110.021 169.788C111.241 169.788 112.415 169.741 113.588 169.6C113.917 169.553 114.339 169.037 114.433 168.708C114.574 168.145 114.574 167.535 114.527 166.925C114.527 166.268 114.011 165.752 113.447 165.705C111.945 165.611 110.443 165.564 108.941 165.517C108.331 165.47 107.909 165.001 107.815 164.344C107.815 164.203 107.768 164.062 107.768 163.921C107.768 162.701 108.05 161.903 109.505 161.81C110.866 161.763 112.227 161.716 113.541 161.622C113.917 161.575 114.386 161.246 114.433 160.73C114.48 160.12 114.527 159.557 114.527 158.947C114.527 158.384 113.917 157.727 113.447 157.727C112.086 157.68 110.772 157.633 109.411 157.586C108.284 157.539 107.862 157.023 107.815 155.896C107.768 154.535 108.284 153.925 109.599 153.878C110.96 153.831 112.321 153.831 113.635 153.691C114.011 153.644 114.48 153.315 114.48 152.799C114.527 152.189 114.574 151.626 114.574 151.016C114.574 150.499 113.917 149.795 113.447 149.795C110.443 149.795 107.439 149.795 104.482 149.842C103.966 149.842 103.638 150.312 103.544 150.687C103.356 151.25 103.309 151.86 103.309 152.47C103.262 154.723 103.262 157.117 103.262 159.557ZM134.428 169.788C134.475 169.788 134.616 169.788 134.757 169.788C134.898 169.788 135.039 169.741 135.179 169.741C135.79 169.694 136.306 168.99 136.118 168.474C134.757 165.001 133.349 161.528 131.941 158.102C130.908 155.615 129.875 153.127 128.843 150.64C128.608 150.03 128.045 149.748 127.435 149.655C126.027 149.42 125.041 149.889 124.525 151.156C122.647 155.709 120.864 160.308 119.033 164.86C118.517 166.127 118.047 167.347 117.578 168.615C117.437 168.943 117.86 169.6 118.188 169.647C120.77 170.022 121.427 169.741 122.225 167.957C122.412 167.535 122.6 167.16 122.788 166.737C123.07 166.174 123.586 165.799 124.196 165.799C125.839 165.752 127.482 165.752 129.124 165.752C130.157 165.705 130.767 166.268 131.19 167.16C131.377 167.582 131.565 167.957 131.753 168.38C132.222 169.506 133.161 169.788 134.428 169.788ZM97.6765 187.809C97.6765 188.701 97.6765 189.592 97.6765 190.484C97.6765 192.408 97.6765 194.379 97.7234 196.303C97.7234 197.195 98.2867 197.852 98.9908 197.852C101.995 197.852 104.952 197.852 107.956 197.852C108.097 197.852 108.284 197.805 108.378 197.711C108.566 197.524 108.848 197.336 108.941 197.101C109.082 196.82 109.082 196.538 109.082 196.21C109.129 194.426 108.754 193.91 107.205 193.863C106.031 193.816 104.811 193.816 103.638 193.769C102.652 193.722 102.182 193.112 102.136 191.939C102.136 191.657 102.182 191.329 102.182 191.047C102.182 190.531 102.558 190.202 102.933 190.062C103.356 189.921 103.825 189.921 104.248 189.874C105.421 189.827 106.642 189.827 107.815 189.78C108.613 189.733 109.035 189.217 109.082 188.278C109.176 186.542 108.707 185.979 107.205 185.885C105.844 185.791 104.529 185.744 103.168 185.65C102.652 185.603 102.182 184.993 102.136 184.383C102.089 183.961 102.136 183.491 102.182 183.069C102.182 182.553 102.558 182.224 102.933 182.084C103.356 181.943 103.825 181.943 104.248 181.896C105.421 181.849 106.642 181.849 107.815 181.755C108.566 181.708 109.035 181.098 109.035 180.206C109.035 179.925 109.035 179.596 108.988 179.315C108.941 178.658 108.472 178.141 107.862 178.141C104.858 178.141 101.901 178.094 98.8969 178.141C98.3336 178.141 97.7704 178.751 97.7234 179.315C97.6765 179.925 97.6296 180.488 97.6296 181.098C97.6765 183.304 97.6765 185.556 97.6765 187.809ZM61.4879 188.044H61.441C61.441 189.076 61.441 190.156 61.441 191.188C61.5818 199.213 60.2675 197.805 68.3407 197.946C69.3734 197.946 70.4529 197.899 71.4855 197.899C72.2365 197.852 72.7059 197.289 72.7528 196.35C72.7528 196.21 72.7528 196.069 72.7528 195.881C72.7059 194.52 72.1427 193.863 70.9223 193.816C69.5611 193.769 68.2469 193.675 66.8857 193.628C66.3224 193.628 66.1347 193.159 65.9469 192.784C65.8061 192.549 65.8531 192.22 65.8531 191.892C65.8061 190.39 66.2286 189.874 67.4959 189.827C68.8571 189.78 70.1713 189.78 71.5325 189.733C72.1427 189.733 72.612 189.217 72.7059 188.607C72.7059 188.466 72.7528 188.325 72.7528 188.184C72.7998 186.495 72.3304 185.932 70.8284 185.838C69.4672 185.744 68.153 185.697 66.7918 185.603C66.2755 185.556 66.0878 185.087 65.9469 184.665C65.9 184.524 65.9 184.383 65.9 184.242C65.8061 182.553 66.0408 181.943 67.7306 181.896C69.0917 181.849 70.406 181.802 71.7672 181.708C72.2835 181.661 72.5651 181.286 72.659 180.863C72.7528 180.441 72.7998 179.972 72.7528 179.549C72.7059 178.705 72.1427 178.094 71.3917 178.094C68.5754 178.094 65.7122 178.094 62.8491 178.094C62.0511 178.094 61.4879 178.705 61.4879 179.549C61.4879 182.365 61.4879 185.228 61.4879 188.044ZM81.1546 149.373C78.62 149.326 76.6017 150.171 74.8181 151.72C72.1427 154.066 71.157 157.023 71.2509 160.542C71.3447 165.236 75.8507 170.961 82.6566 169.835C83.6892 169.647 84.6749 169.318 85.7075 169.037C86.3646 168.849 86.5993 168.286 86.6932 167.676C86.7401 167.066 86.7401 166.456 86.6932 165.893C86.6463 164.86 86.13 164.438 85.332 164.719C83.9239 165.236 82.5158 165.705 80.9669 165.611C78.7608 165.517 76.9302 164.203 76.2262 162.138C75.6629 160.542 75.7099 158.9 76.2731 157.304C77.118 154.958 78.9486 153.691 81.4832 153.878C82.375 153.925 83.2198 154.207 84.1116 154.395C84.6749 154.535 85.2381 154.723 85.8483 154.864C86.2238 154.958 86.6932 154.535 86.6932 154.113C86.7401 153.362 86.7871 152.611 86.7401 151.86C86.6932 151.25 86.4585 150.687 85.8483 150.406C84.2525 149.748 82.6566 149.279 81.1546 149.373ZM152.687 178.001C152.218 178.048 151.748 178.094 151.326 178.141C150.95 178.188 150.528 178.798 150.669 179.127C150.997 179.784 151.326 180.488 151.701 181.098C152.828 183.022 153.954 184.993 155.175 186.87C155.832 187.903 156.207 189.029 156.16 190.249C156.113 191.892 156.16 193.535 156.16 195.177C156.16 195.787 156.16 196.397 156.301 196.96C156.395 197.336 156.677 197.758 157.24 197.805C157.85 197.852 158.413 197.899 159.023 197.899C159.868 197.899 160.432 197.336 160.479 196.538C160.525 195.177 160.525 193.863 160.525 192.502C160.572 187.903 160.244 189.123 162.45 185.322C163.436 183.632 164.468 181.99 165.407 180.3C165.642 179.925 165.829 179.502 165.923 179.08C165.97 178.845 165.876 178.423 165.689 178.329C163.858 177.484 161.934 177.954 160.995 179.455C160.291 180.582 159.54 181.755 158.836 182.881C158.601 183.257 157.991 183.304 157.756 182.928C156.864 181.567 156.02 180.159 155.081 178.798C154.846 178.47 154.377 178.235 154.001 178.141C153.579 178.001 153.109 178.048 152.687 178.001ZM90.2135 159.745H90.1666C90.1666 162.56 90.1666 165.423 90.1666 168.239C90.1666 168.99 90.8237 169.694 91.5747 169.694C94.1093 169.694 96.6439 169.694 99.1785 169.647C99.554 169.647 100.023 169.318 100.07 168.802C100.164 168.192 100.211 167.629 100.211 167.019C100.211 166.127 99.7418 165.564 98.9438 165.517C97.7704 165.423 96.55 165.376 95.3766 165.236C95.1419 165.189 94.8603 164.86 94.7664 164.625C94.6256 164.062 94.4848 163.452 94.4848 162.889C94.4378 159.604 94.4848 156.319 94.4378 153.034C94.4378 152.283 94.3909 151.532 94.297 150.781C94.2501 150.265 93.6399 149.702 93.0767 149.655C92.4665 149.608 91.9032 149.655 91.293 149.702C90.6829 149.748 90.1666 150.265 90.1666 150.828C90.2135 153.784 90.2135 156.788 90.2135 159.745Z" fill="#FEFEFE"/>
<path d="M114.29 102.396C98.8479 102.396 84.2034 90.5222 84.2973 72.3602C84.3912 53.9165 99.7397 42.3247 114.196 42.794C128.606 42.3716 143.955 54.0104 143.955 72.454C144.001 90.4284 129.639 102.208 114.29 102.396ZM106.452 97.0925C107.344 95.7315 108.282 94.3706 109.127 92.9626C113.445 85.5946 117.717 78.1796 121.988 70.8115C122.457 70.0137 122.833 69.2159 123.208 68.418C123.302 68.2303 123.114 67.761 122.974 67.7141C121.237 67.2917 119.5 66.9162 117.717 66.4939C116.684 66.2592 115.698 66.0246 114.666 65.743C114.009 65.5553 113.68 64.9452 113.868 64.382C115.135 60.3929 116.449 56.4038 117.717 52.4147C118.139 51.1476 118.562 49.8805 118.749 48.4726C118.468 48.6603 118.186 48.7542 118.092 48.9419C113.915 56.2161 109.784 63.4903 105.607 70.8115C105.325 71.3277 105.137 71.8909 104.95 72.4071C106.217 73.2049 107.531 73.4396 108.845 73.6742C110.301 73.9558 111.756 74.3313 113.211 74.7067C113.398 74.7536 113.633 75.176 113.633 75.3637C113.586 75.9738 113.445 76.537 113.258 77.1002C111.568 81.8871 109.831 86.674 108.188 91.5078C107.531 93.3381 107.015 95.2153 106.452 97.0925L106.358 97.2333C106.358 97.1864 106.452 97.0925 106.452 97.0925Z" fill="#FEFEFE"/>
<path d="M114.153 38.9458C111.9 38.9458 109.647 38.9458 107.394 38.9458C106.971 38.9458 106.502 38.805 106.079 38.7111C105.61 38.6173 105.094 37.7725 105.235 37.3032C105.375 36.8808 105.469 36.4115 105.657 36.0361C108.004 31.0145 110.351 25.993 112.698 20.9714C112.932 20.4082 113.214 19.8451 113.777 19.6104C114.012 19.5166 114.34 19.5166 114.575 19.6104C114.81 19.7043 115.138 19.939 115.232 20.1736C117.814 25.7583 120.348 31.343 122.883 36.9277C122.93 37.0685 122.977 37.2093 123.024 37.3501C123.165 37.8194 122.695 38.6642 122.179 38.758C121.616 38.8519 121.005 38.9927 120.442 38.9927C118.33 39.0396 116.265 38.9927 114.153 38.9927C114.153 38.9927 114.153 38.9927 114.153 38.9458Z" fill="#FEFEFE"/>
<path d="M151.985 109.623C151.609 109.905 151.421 110.186 151.187 110.233C150.905 110.327 150.577 110.28 150.342 110.186C144.709 108.121 139.124 106.056 133.538 103.944C133.116 103.804 132.787 103.475 132.412 103.194C132.13 103.006 131.943 102.255 132.13 101.973C132.412 101.598 132.6 101.222 132.928 100.894C136.214 97.6088 139.499 94.3237 142.832 91.0855C143.02 90.8978 143.301 90.71 143.536 90.5223C143.958 90.1938 144.897 90.3346 145.179 90.757C145.413 91.1324 145.695 91.5079 145.883 91.9302C147.807 97.2803 149.732 102.63 151.656 107.98C151.797 108.544 151.891 109.154 151.985 109.623Z" fill="#FEFEFE"/>
<path d="M76.9333 110.233C76.7456 110.045 76.5109 109.904 76.3701 109.67C76.2762 109.576 76.2293 109.341 76.2762 109.247C78.5292 103.24 80.7353 97.1864 83.0352 91.1793C83.3168 90.4284 84.3494 90.1937 84.9127 90.663C85.0066 90.7569 85.1943 90.8038 85.2882 90.8977C88.7615 94.4174 92.2349 97.8903 95.7082 101.41C95.896 101.598 96.0368 101.926 96.1776 102.161C96.3654 102.443 96.1307 103.147 95.8491 103.381C95.4736 103.616 95.145 103.944 94.7226 104.085C89.0901 106.15 83.5046 108.168 77.8721 110.186C77.5435 110.327 77.2619 110.233 76.9333 110.233Z" fill="#FEFEFE"/>
<path d="M80.729 72.7828C80.729 74.8947 80.729 76.9596 80.729 79.0715C80.729 79.4939 80.6352 79.9632 80.5882 80.3855C80.5413 80.8548 79.6495 81.4649 79.2271 81.3241C78.8046 81.1834 78.3353 81.0895 77.9598 80.9018C72.7967 78.5552 67.6336 76.1618 62.5174 73.8153C62.1419 73.6276 61.7664 73.346 61.3909 73.1113C61.1093 72.9236 61.1093 72.1258 61.3909 71.9381C61.7664 71.6565 62.048 71.328 62.4705 71.1402C67.4458 68.7937 72.4681 66.4472 77.4904 64.1476C77.9128 63.9599 78.3352 63.866 78.7577 63.7722C79.5087 63.5844 80.4005 64.1007 80.4474 64.7577C80.4944 65.5086 80.5413 66.2595 80.5413 67.0104C80.5413 68.9345 80.5413 70.9056 80.5413 72.8297C80.5882 72.7828 80.6821 72.7828 80.729 72.7828Z" fill="#FEFEFE"/>
<path d="M78.0586 34.8626C77.8708 34.8157 78.481 34.8626 78.9973 35.0503C84.1604 36.9276 89.3704 38.8048 94.5335 40.7289C95.0498 40.9167 95.5661 41.339 95.9886 41.7145C96.1763 41.8553 96.1763 42.2776 96.1294 42.5123C96.0825 42.7939 95.8947 43.0755 95.707 43.3101C92.1397 46.9237 88.5725 50.5374 85.0053 54.1041C84.442 54.6673 83.4563 54.5265 83.0808 53.9164C82.8461 53.5409 82.6115 53.1655 82.4706 52.7431C80.4523 47.2992 78.434 41.8553 76.4157 36.4113C76.3688 36.2705 76.3219 36.1297 76.2749 35.9889C76.1341 35.3788 76.6974 34.7688 78.0586 34.8626Z" fill="#FEFEFE"/>
<path d="M144.382 54.527C144.288 54.527 144.1 54.5739 144.006 54.527C143.49 54.1985 142.974 53.9169 142.551 53.4945C139.453 50.4441 136.355 47.3936 133.304 44.3431C132.882 43.9207 132.554 43.4514 132.178 42.9821C131.99 42.7475 132.084 41.9497 132.319 41.7619C132.553 41.5742 132.788 41.3395 133.023 41.2457C138.608 39.1338 144.194 37.0689 149.826 35.0039C150.202 34.8631 150.718 34.8632 151.141 34.957C151.375 35.004 151.657 35.3325 151.657 35.5671C151.704 35.9895 151.657 36.4588 151.516 36.8812C149.545 42.372 147.573 47.8629 145.555 53.3068C145.414 53.6822 145.039 54.0108 144.757 54.3862C144.757 54.4331 144.569 54.4801 144.382 54.527Z" fill="#FEFEFE"/>
<path d="M114.529 105.963C116.782 105.963 119.035 105.963 121.288 105.963C121.71 105.963 122.18 106.104 122.555 106.291C122.79 106.385 123.025 106.761 122.978 106.995C122.931 107.559 122.837 108.169 122.602 108.732C120.255 113.894 117.861 119.056 115.468 124.219C115.28 124.594 114.951 124.97 114.717 125.298C114.482 125.627 113.778 125.533 113.543 125.204C113.309 124.829 113.027 124.5 112.839 124.078C110.539 119.197 108.286 114.316 105.986 109.436C105.845 109.154 105.752 108.873 105.658 108.591C104.954 106.573 105.658 106.01 107.347 105.963C109.741 105.963 112.135 106.01 114.529 105.963C114.529 106.01 114.529 106.01 114.529 105.963Z" fill="#FEFEFE"/>
<path d="M148.884 63.584C149.542 63.7248 150.152 63.7717 150.668 64.0533C155.831 66.4467 160.947 68.8402 166.063 71.2336C166.439 71.4214 166.768 71.7968 167.002 72.1253C167.143 72.313 167.049 72.6885 166.955 72.9231C166.814 73.1578 166.627 73.4394 166.345 73.5332C160.806 76.0675 155.221 78.6017 149.682 81.1359C149.401 81.2298 149.072 81.3706 148.837 81.2767C148.462 81.1359 148.04 80.8544 147.852 80.4789C147.664 80.1035 147.664 79.5872 147.664 79.1649C147.664 74.7065 147.711 70.2012 147.711 65.7428C147.711 65.3204 147.758 64.8042 147.946 64.4287C148.18 64.1002 148.556 63.8656 148.884 63.584Z" fill="#FEFEFE"/>
<path d="M157.008 160.073C157.008 162.795 157.008 165.47 157.008 168.192C157.008 169.225 156.398 169.741 155.271 169.788C155.13 169.788 154.99 169.788 154.802 169.788C153.675 169.835 152.737 169.553 152.079 168.568C150.624 166.503 149.122 164.391 147.62 162.326C146.729 161.106 145.79 159.932 144.851 158.759C144.804 158.712 144.569 158.759 144.429 158.806C144.288 158.853 144.1 158.9 144.1 158.994C143.959 159.416 143.818 159.839 143.818 160.308C143.772 162.561 143.818 164.813 143.772 167.066C143.772 167.676 143.678 168.239 143.537 168.849C143.49 169.084 143.208 169.412 142.974 169.506C141.988 169.975 140.955 169.976 139.97 169.412C139.735 169.272 139.547 168.99 139.453 168.708C139.359 168.286 139.312 167.817 139.312 167.394C139.312 162.279 139.312 157.21 139.312 152.095C139.312 151.626 139.313 151.156 139.453 150.781C139.594 150.406 139.97 149.889 140.298 149.842C141.19 149.702 142.082 149.702 142.974 149.842C143.349 149.889 143.818 150.218 144.1 150.546C144.851 151.485 145.555 152.47 146.259 153.409C147.949 155.709 149.592 158.008 151.281 160.308C151.422 160.496 151.751 160.542 151.986 160.636C152.267 160.73 152.596 160.261 152.596 159.651C152.596 158.759 152.643 157.867 152.643 156.929C152.69 154.958 152.69 153.034 152.737 151.063C152.737 150.312 153.394 149.702 154.192 149.655C154.802 149.655 155.412 149.608 155.975 149.795C156.304 149.889 156.773 150.312 156.82 150.687C156.961 151.579 157.008 152.47 157.008 153.362C157.055 155.568 157.055 157.821 157.008 160.073C157.055 160.073 157.055 160.073 157.008 160.073Z" fill="#EFA915"/>
<path d="M76.0391 188.09C76.0391 185.228 76.0391 182.412 76.0391 179.549C76.0391 178.704 76.6024 178.094 77.4003 178.094C78.1513 178.047 78.9023 178.047 79.6533 178.141C80.0757 178.188 80.592 178.376 80.8267 178.704C81.6716 179.737 82.4695 180.863 83.2675 181.943C84.9572 184.242 86.6 186.542 88.2898 188.841C88.5244 189.123 88.7591 189.311 89.0407 189.076C89.2285 188.935 89.4162 188.607 89.4162 188.372C89.4632 186.448 89.4632 184.477 89.4632 182.553C89.4632 181.52 89.5101 180.441 89.5571 179.408C89.604 178.657 90.2142 178.141 91.059 178.094C91.6692 178.094 92.2325 178.141 92.8427 178.188C93.4059 178.235 93.4998 178.704 93.7345 179.08C93.7814 179.221 93.7814 179.361 93.7814 179.502C93.7814 185.181 93.7814 190.859 93.7814 196.585C93.7814 197.43 93.2651 197.899 92.3733 197.946C91.7631 197.946 91.1529 197.946 90.5897 197.946C89.9326 197.946 89.4162 197.617 89.0877 197.148C87.4918 194.989 85.9429 192.784 84.347 190.578C83.5491 189.498 82.7512 188.372 81.9532 187.293C81.5777 186.823 81.0145 186.589 80.8267 186.87C80.6859 187.105 80.4982 187.34 80.4512 187.574C80.4043 188.935 80.4043 190.249 80.4043 191.61C80.4043 192.971 80.4043 194.285 80.4043 195.646C80.4043 198.181 79.3717 198.274 76.7432 197.711C76.5085 197.664 76.2738 197.336 76.1799 197.054C76.0391 196.491 76.0391 195.881 75.9922 195.271C75.9922 192.877 75.9922 190.484 75.9922 188.09C76.0391 188.09 76.0391 188.09 76.0391 188.09Z" fill="#EFA915"/>
<path d="M143.536 186.964C144.146 186.964 144.756 186.964 145.32 186.964C148.183 186.917 148.183 187.527 148.042 189.78C147.76 194.379 144.146 197.805 139.546 198.04C134.806 198.274 131.286 196.21 129.643 191.892C127.765 187.058 129.033 182.083 133.398 179.174C137.622 176.358 143.536 177.203 146.212 181.286C146.54 181.802 146.54 182.412 146.118 182.881C145.836 183.21 145.507 183.538 145.179 183.82C144.663 184.289 144.052 184.336 143.583 184.008C142.879 183.491 142.175 182.928 141.424 182.459C139.687 181.426 137.998 181.661 136.308 182.647C132.553 184.852 132.459 190.437 136.073 192.831C137.951 194.098 141.846 194.004 142.926 191.798C143.114 191.423 142.926 190.859 142.504 190.813C142.081 190.766 141.612 190.719 141.189 190.672C139.077 190.484 138.702 189.921 139.124 187.809C139.171 187.574 139.406 187.293 139.64 187.152C139.875 187.011 140.204 186.917 140.485 186.87C140.767 186.823 141.095 186.823 141.377 186.823C142.034 186.964 142.785 187.011 143.536 186.964Z" fill="#EFA915"/>
<path d="M112.742 187.762C112.742 184.9 112.742 182.084 112.742 179.221C112.742 178.658 113.352 178.095 113.916 178.095C116.169 178.095 118.422 177.954 120.628 178.095C123.585 178.283 125.509 180.488 125.556 183.445C125.603 185.51 124.993 187.199 123.444 188.654C122.318 189.734 122.364 190.015 123.162 191.329C124.336 193.206 125.556 195.084 126.73 197.008C126.823 197.149 126.589 197.665 126.448 197.665C125.697 197.806 124.993 197.852 124.242 197.899C123.115 197.993 122.224 197.618 121.613 196.585C120.487 194.849 119.22 193.159 117.999 191.423C117.952 191.329 117.765 191.329 117.624 191.329C117.295 191.282 117.107 191.47 117.107 191.845C117.061 192.878 117.061 193.957 117.014 194.99C116.967 195.6 117.014 196.21 116.873 196.773C116.779 197.149 116.356 197.618 116.075 197.665C115.183 197.806 114.291 197.759 113.399 197.665C113.165 197.665 112.883 197.289 112.836 197.055C112.695 196.492 112.695 195.881 112.648 195.271C112.648 194.99 112.648 194.661 112.648 194.38C112.648 192.127 112.648 189.874 112.648 187.669C112.695 187.762 112.695 187.762 112.742 187.762ZM117.107 183.726C117.107 184.243 117.107 184.43 117.107 184.571C117.107 184.712 117.107 184.853 117.154 184.994C117.248 186.073 117.812 186.542 118.891 186.401C120.299 186.167 121.05 185.322 121.05 184.055C121.003 182.788 120.205 181.943 118.844 181.755C117.952 181.615 117.295 182.037 117.248 182.788C117.154 183.257 117.107 183.68 117.107 183.726Z" fill="#EFA915"/>
<path d="M103.266 159.558C103.266 157.164 103.266 154.771 103.266 152.33C103.266 151.72 103.313 151.11 103.5 150.547C103.641 150.172 103.923 149.702 104.439 149.702C107.443 149.655 110.447 149.655 113.404 149.655C113.874 149.655 114.484 150.359 114.531 150.875C114.531 151.486 114.484 152.049 114.437 152.659C114.39 153.175 113.967 153.55 113.592 153.55C112.231 153.691 110.916 153.691 109.555 153.738C108.241 153.785 107.725 154.395 107.772 155.756C107.819 156.929 108.241 157.399 109.368 157.446C110.729 157.493 112.043 157.54 113.404 157.587C113.874 157.587 114.484 158.244 114.484 158.807C114.484 159.417 114.437 159.98 114.39 160.59C114.343 161.106 113.92 161.435 113.498 161.482C112.137 161.623 110.823 161.623 109.461 161.669C108.006 161.763 107.725 162.514 107.725 163.781C107.725 163.922 107.725 164.063 107.772 164.204C107.866 164.861 108.288 165.377 108.898 165.377C110.4 165.471 111.902 165.518 113.404 165.565C113.967 165.612 114.484 166.128 114.484 166.785C114.484 167.395 114.531 168.005 114.39 168.568C114.296 168.944 113.874 169.46 113.545 169.46C112.372 169.601 111.151 169.648 109.978 169.648C108.194 169.648 106.364 169.601 104.58 169.554C104.017 169.554 103.407 168.944 103.36 168.381C103.266 167.207 103.219 165.987 103.219 164.814C103.219 163.124 103.266 161.341 103.266 159.558Z" fill="#EFA915"/>
<path d="M134.429 169.788C133.209 169.835 132.27 169.506 131.754 168.38C131.566 167.958 131.378 167.582 131.19 167.16C130.815 166.268 130.205 165.705 129.125 165.752C127.482 165.799 125.84 165.799 124.197 165.799C123.54 165.799 123.07 166.174 122.789 166.738C122.601 167.113 122.366 167.535 122.225 167.958C121.474 169.741 120.817 170.023 118.189 169.647C117.86 169.6 117.438 168.896 117.579 168.615C118.048 167.348 118.564 166.128 119.034 164.86C120.864 160.308 122.695 155.709 124.525 151.157C125.042 149.89 125.98 149.42 127.435 149.655C128.046 149.749 128.562 150.03 128.844 150.64C129.876 153.128 130.909 155.615 131.941 158.102C133.35 161.575 134.711 165.001 136.119 168.474C136.307 168.99 135.79 169.694 135.18 169.741C135.039 169.741 134.898 169.788 134.758 169.788C134.617 169.788 134.429 169.788 134.429 169.788ZM126.919 161.998C127.201 161.951 127.67 161.904 128.093 161.857C128.515 161.81 128.797 161.294 128.609 160.871C128.14 159.792 127.623 158.712 127.107 157.633C127.06 157.539 126.872 157.445 126.731 157.445C126.638 157.445 126.497 157.539 126.45 157.633C125.84 158.666 125.37 159.745 125.182 160.965C125.136 161.388 125.464 161.904 125.84 161.951C126.168 161.951 126.45 161.951 126.919 161.998Z" fill="#EFA915"/>
<path d="M97.6758 187.809C97.6758 185.557 97.6758 183.304 97.6758 181.051C97.6758 180.441 97.7227 179.878 97.7697 179.268C97.8166 178.705 98.3798 178.095 98.9431 178.095C101.947 178.095 104.904 178.095 107.908 178.095C108.518 178.095 108.941 178.611 109.035 179.268C109.082 179.55 109.082 179.878 109.082 180.16C109.082 181.051 108.612 181.708 107.861 181.708C106.688 181.755 105.467 181.755 104.294 181.849C103.825 181.849 103.355 181.849 102.98 182.037C102.557 182.178 102.229 182.506 102.229 183.022C102.229 183.445 102.182 183.914 102.182 184.336C102.229 184.947 102.698 185.557 103.214 185.604C104.576 185.697 105.89 185.744 107.251 185.838C108.753 185.932 109.175 186.495 109.128 188.232C109.082 189.17 108.659 189.733 107.861 189.733C106.688 189.78 105.467 189.78 104.294 189.827C103.825 189.827 103.355 189.827 102.98 190.015C102.604 190.156 102.229 190.484 102.229 191.001C102.229 191.282 102.182 191.611 102.182 191.892C102.229 193.066 102.698 193.676 103.684 193.723C104.857 193.769 106.078 193.769 107.251 193.816C108.8 193.863 109.175 194.427 109.128 196.163C109.128 196.445 109.082 196.773 108.988 197.055C108.894 197.289 108.659 197.477 108.424 197.665C108.331 197.759 108.143 197.806 108.002 197.806C104.998 197.806 102.041 197.852 99.037 197.806C98.286 197.806 97.7697 197.148 97.7697 196.257C97.7227 194.333 97.7227 192.362 97.7227 190.437C97.6758 189.593 97.6758 188.701 97.6758 187.809Z" fill="#EFA915"/>
<path d="M61.4881 188.044C61.4881 185.181 61.4881 182.366 61.4881 179.503C61.4881 178.658 62.0513 178.048 62.8492 178.048C65.6655 178.001 68.5286 178.001 71.3918 178.048C72.1897 178.048 72.753 178.658 72.753 179.503C72.753 179.925 72.753 180.394 72.6591 180.817C72.5652 181.239 72.2836 181.662 71.7673 181.662C70.4061 181.755 69.0919 181.802 67.7307 181.849C66.041 181.896 65.8063 182.506 65.9002 184.196C65.9002 184.337 65.9002 184.477 65.9471 184.618C66.0879 185.041 66.2757 185.51 66.792 185.557C68.1062 185.698 69.4674 185.744 70.8286 185.791C72.3306 185.885 72.8469 186.448 72.753 188.138C72.753 188.279 72.7061 188.42 72.7061 188.56C72.6122 189.17 72.1428 189.687 71.5326 189.687C70.1714 189.734 68.8572 189.734 67.496 189.78C66.2287 189.827 65.8063 190.344 65.8532 191.845C65.8532 192.127 65.8532 192.456 65.9471 192.737C66.1348 193.113 66.3226 193.535 66.8858 193.582C68.247 193.629 69.5613 193.676 70.9224 193.77C72.1428 193.817 72.7061 194.474 72.753 195.835C72.753 195.975 72.753 196.116 72.753 196.304C72.7061 197.195 72.2367 197.806 71.4857 197.853C70.4531 197.899 69.3735 197.946 68.3409 197.899C60.2208 197.759 61.535 199.167 61.4411 191.141C61.4411 190.109 61.4411 189.03 61.4411 187.997C61.4411 188.044 61.4881 188.044 61.4881 188.044Z" fill="#EFA915"/>
<path d="M81.156 149.373C82.7049 149.279 84.2538 149.749 85.8028 150.406C86.413 150.687 86.6476 151.25 86.6946 151.861C86.7415 152.611 86.6946 153.362 86.6476 154.113C86.6476 154.583 86.1313 154.958 85.8028 154.864C85.2395 154.723 84.6763 154.536 84.0661 154.395C83.1743 154.207 82.3294 153.926 81.4376 153.879C78.9499 153.691 77.0724 154.958 76.2276 157.305C75.6643 158.9 75.6643 160.543 76.1806 162.138C76.8847 164.25 78.7153 165.517 80.9213 165.611C82.4702 165.705 83.8783 165.236 85.2865 164.72C86.1313 164.438 86.6007 164.907 86.6476 165.893C86.6946 166.503 86.6946 167.113 86.6476 167.676C86.6007 168.286 86.3191 168.849 85.662 169.037C84.6763 169.319 83.6437 169.694 82.611 169.835C75.8051 170.961 71.2992 165.189 71.2053 160.543C71.1114 157.023 72.0971 154.066 74.7725 151.72C76.5561 150.171 78.6214 149.373 81.156 149.373Z" fill="#EFA915"/>
<path d="M152.689 178.001C153.111 178.048 153.581 178.001 154.003 178.142C154.426 178.283 154.848 178.47 155.083 178.799C156.022 180.16 156.866 181.568 157.758 182.929C157.993 183.304 158.603 183.304 158.838 182.882C159.589 181.756 160.293 180.629 160.997 179.456C161.983 177.954 163.86 177.438 165.691 178.33C165.878 178.423 165.972 178.846 165.925 179.08C165.831 179.503 165.644 179.925 165.409 180.301C164.423 181.99 163.438 183.633 162.452 185.322C160.246 189.077 160.575 187.903 160.528 192.503C160.528 193.864 160.481 195.178 160.481 196.539C160.481 197.336 159.87 197.853 159.026 197.9C158.415 197.9 157.852 197.853 157.242 197.806C156.726 197.759 156.397 197.383 156.303 196.961C156.162 196.398 156.162 195.788 156.162 195.178C156.162 193.535 156.115 191.892 156.162 190.25C156.209 188.983 155.834 187.903 155.177 186.871C154.003 184.947 152.877 183.023 151.703 181.099C151.328 180.441 150.999 179.784 150.671 179.127C150.53 178.799 150.905 178.189 151.328 178.142C151.75 178.095 152.22 178.048 152.689 178.001Z" fill="#EFA915"/>
<path d="M90.2162 159.745C90.2162 156.742 90.2162 153.785 90.2162 150.782C90.2162 150.218 90.7794 149.655 91.3427 149.655C91.9529 149.608 92.5161 149.608 93.1263 149.608C93.6895 149.655 94.2997 150.218 94.3467 150.735C94.3936 151.486 94.4405 152.237 94.4875 152.987C94.4875 156.273 94.4875 159.558 94.5344 162.843C94.5344 163.453 94.6283 164.016 94.816 164.579C94.863 164.814 95.1915 165.142 95.4262 165.189C96.5996 165.33 97.82 165.377 98.9934 165.471C99.7444 165.518 100.261 166.081 100.261 166.973C100.261 167.583 100.214 168.146 100.12 168.756C100.073 169.272 99.6036 169.601 99.2281 169.601C96.6935 169.695 94.1589 169.695 91.6243 169.648C90.8733 169.648 90.2162 168.991 90.2162 168.193C90.2162 165.377 90.2162 162.514 90.2162 159.698C90.1692 159.745 90.2162 159.745 90.2162 159.745Z" fill="#EFA915"/>
<path d="M106.455 97.0925C107.018 95.2153 107.535 93.385 108.145 91.5547C109.835 86.7209 111.524 81.934 113.214 77.1471C113.402 76.5839 113.543 75.9738 113.59 75.4107C113.59 75.176 113.355 74.8006 113.167 74.7536C111.712 74.3782 110.304 73.9558 108.802 73.7212C107.488 73.4865 106.127 73.2519 104.906 72.454C105.141 71.9378 105.282 71.3277 105.563 70.8584C109.694 63.5842 113.871 56.2631 118.049 48.9888C118.143 48.8011 118.424 48.7073 118.706 48.5195C118.471 49.9274 118.049 51.1946 117.673 52.4617C116.359 56.4508 115.092 60.4399 113.824 64.429C113.637 64.9921 114.012 65.6022 114.622 65.7899C115.655 66.0715 116.641 66.3062 117.673 66.5408C119.41 66.9163 121.193 67.2917 122.93 67.761C123.071 67.8079 123.259 68.2772 123.165 68.465C122.836 69.3097 122.414 70.1075 121.944 70.8584C117.673 78.2734 113.402 85.6415 109.084 93.0096C108.333 94.3705 107.347 95.6846 106.455 97.0925Z" fill="#EFA915"/>
<path d="M106.457 97.0928L106.363 97.2336C106.363 97.1867 106.457 97.0928 106.457 97.0928Z" fill="#EFA915"/>
<path d="M117.109 183.726C117.109 183.68 117.156 183.257 117.156 182.788C117.25 182.037 117.86 181.615 118.752 181.755C120.113 181.943 120.91 182.788 120.957 184.055C121.004 185.322 120.207 186.167 118.799 186.401C117.72 186.589 117.109 186.12 117.063 184.994C117.063 184.853 117.063 184.712 117.016 184.571C117.109 184.43 117.109 184.29 117.109 183.726Z" fill="#FEFEFE"/>
<path d="M126.916 161.998C126.494 161.951 126.166 161.951 125.884 161.904C125.462 161.857 125.133 161.341 125.227 160.918C125.415 159.698 125.837 158.619 126.494 157.586C126.541 157.492 126.682 157.398 126.776 157.398C126.916 157.398 127.104 157.492 127.151 157.586C127.667 158.666 128.136 159.745 128.653 160.824C128.84 161.247 128.512 161.763 128.136 161.81C127.667 161.951 127.198 161.998 126.916 161.998Z" fill="#FEFEFE"/>
</svg>
