<svg width="229" height="229" viewBox="0 0 229 229" fill="none" xmlns="http://www.w3.org/2000/svg">
<path d="M228.369 114.317C228.369 143.883 228.369 173.496 228.369 203.062C228.369 204.846 228.369 206.676 228.322 208.459C228.228 215.358 223.535 224.838 212.786 227.795C210.908 228.311 208.984 228.686 207.013 228.592C205.98 228.545 204.9 228.592 203.868 228.592C144.117 228.592 84.3187 228.592 24.5676 228.592C23.3473 228.592 22.1738 228.592 20.9535 228.592C12.0823 228.452 3.35201 222.585 0.770465 212.871C0.441904 211.557 0.254132 210.243 0.160258 208.882C0.0663833 207.239 0.0664063 205.597 0.0664063 203.907C0.0664063 144.165 0.0664063 84.3752 0.0664063 24.6328C0.0664063 22.9902 0.0663833 21.3477 0.160258 19.6582C0.62963 10.3659 8.28042 1.73074 18.0434 0.510553C20.1086 0.275901 22.2208 0.135116 24.3329 0.135116C41.7467 0.0881854 59.1604 0.135116 76.5741 0.135116C118.771 0.135116 160.967 0.135116 203.164 0.135116C205.417 0.135116 207.67 0.182052 209.923 0.463634C218.465 1.6369 224.098 6.47071 227.196 14.4019C227.947 16.373 228.369 18.438 228.322 20.5499C228.322 22.1924 228.322 23.835 228.322 25.5245C228.369 55.1376 228.369 84.7507 228.369 114.317ZM101.639 54.9968C101.216 54.5744 100.841 54.1051 100.371 53.7297C97.6489 51.5239 94.5041 51.9932 92.7205 54.9029C92.1103 55.8885 91.5471 56.4516 90.3736 56.6863C88.1676 57.0617 86.0085 57.7188 83.8024 58.1881C81.6433 58.6104 79.3903 59.2674 77.2782 57.8595C77.0435 57.7187 76.7149 57.7187 76.3863 57.6718C74.7435 57.4371 72.6783 58.5166 71.8804 60.0653C71.411 60.91 71.5049 61.7548 71.8804 62.6464C73.1946 65.5092 78.0292 65.5092 79.625 63.4442C79.9066 63.1157 80.1413 62.6934 80.2821 62.271C80.4229 61.8486 80.4229 61.3793 80.5168 60.9569C80.6107 60.2999 81.0801 59.8306 81.6433 59.6898C84.8351 58.9389 88.0737 58.235 91.2655 57.531C91.8756 57.3902 92.4389 57.531 92.9552 57.9065C93.3307 58.188 93.6123 58.5635 93.9878 58.7512C96.3816 60.206 98.9162 59.8306 100.841 57.6718C101.216 57.2494 101.451 56.6393 102.108 56.4985C105.159 56.4516 108.257 56.4516 111.308 56.4047C112.059 56.6863 112.481 57.2964 112.997 57.8595C114.265 59.1736 115.814 59.4552 117.55 59.2205C119.616 58.9389 120.93 57.3902 120.977 55.1845C120.977 55.0437 120.93 54.9029 120.883 54.7621C120.648 53.7296 121.164 53.0726 121.915 52.4625C125.295 49.7406 128.674 47.0186 132.007 44.2028C133.321 43.0764 134.682 42.3725 136.513 42.7479C136.935 42.8418 137.405 42.7479 137.827 42.5602C139.048 42.0909 139.845 42.5602 140.503 43.5458C144.305 48.9428 148.153 54.2928 151.955 59.6898C152.049 59.8306 152.19 59.9245 152.19 60.0653C152.237 60.4876 152.284 60.9569 152.19 61.3324C152.049 61.8955 151.627 62.4118 151.533 62.9749C151.251 64.2421 151.627 65.3684 152.659 66.1662C154.584 67.668 156.978 67.7618 158.902 66.2601C160.826 64.7114 160.779 62.4118 158.761 60.9569C158.292 60.6284 157.729 60.3469 157.165 60.2061C156.461 60.0653 155.663 60.0653 154.912 60.0653C154.067 60.0653 153.504 59.6898 153.035 59.0328C149.233 53.6358 145.384 48.2857 141.582 42.9357C141.394 42.701 141.207 42.4663 141.113 42.1848C140.972 41.7624 140.784 41.34 140.784 40.9176C140.784 40.3075 140.972 39.7444 140.972 39.1343C141.019 37.7264 140.127 36.4593 138.86 35.943C137.405 35.3799 135.95 35.3329 134.448 35.8961C132.664 36.5531 131.725 38.3834 132.429 40.2137C132.852 41.34 132.899 42.1378 131.866 42.9357C128.111 45.9392 124.403 48.9897 120.648 51.9932C120.038 52.4625 119.381 52.6502 118.536 52.4156C115.72 51.477 113.561 52.3687 111.871 54.7152C111.777 54.856 111.636 54.9029 111.542 54.9968C108.351 54.6682 104.971 54.7152 101.639 54.9968ZM114.124 211.697C141.582 211.697 169.04 211.697 196.546 211.697C198.048 211.697 199.55 211.651 201.052 211.651C205.792 211.651 210.862 207.755 212.223 202.687C212.739 200.763 212.786 198.839 212.786 196.867C212.786 182.178 212.786 167.442 212.786 152.753C212.786 151.861 212.833 150.969 212.739 150.031C212.27 143.32 207.623 138.955 202.319 138.157C200.676 137.923 199.033 137.829 197.391 137.829C173.969 137.829 150.547 137.829 127.125 137.829C95.4429 137.829 63.7602 137.829 32.1245 137.829C30.7634 137.829 29.4022 137.782 28.0879 137.876C21.7514 138.298 17.2924 142.147 15.9781 148.107C15.6965 149.421 15.6965 150.782 15.6965 152.143C15.6965 167.301 15.6965 182.46 15.6965 197.618C15.6965 198.51 15.6965 199.402 15.7434 200.34C16.3536 206.629 21.329 211.416 27.6655 211.697C29.0267 211.744 30.3878 211.744 31.7021 211.744C59.1604 211.697 86.6656 211.697 114.124 211.697ZM144.305 80.8554C144.305 74.3791 144.305 67.9496 144.305 61.4732C144.305 60.253 144.305 59.0797 144.258 57.8595C144.258 57.0617 143.647 56.4516 142.849 56.4516C138.062 56.4516 133.227 56.4516 128.44 56.4516C128.299 56.4516 128.111 56.4516 128.017 56.4985C127.642 56.7332 127.219 56.9209 127.219 57.4841C127.172 58.5166 127.125 59.5959 127.125 60.6284C127.125 74.1444 127.125 87.6604 127.125 101.176C127.125 102.068 127.126 102.96 127.172 103.898C127.219 104.79 127.689 105.306 128.534 105.306C133.321 105.306 138.156 105.306 142.943 105.306C143.084 105.306 143.225 105.212 143.366 105.165C143.882 105.072 144.164 104.649 144.211 104.227C144.305 103.335 144.305 102.443 144.305 101.552C144.305 94.6999 144.305 87.7542 144.305 80.8554ZM105.394 85.8301C105.394 80.7146 105.394 75.6462 105.394 70.5308C105.394 69.1698 105.347 67.8557 105.253 66.4947C105.253 66.2601 104.924 65.9785 104.689 65.8377C104.455 65.6969 104.126 65.65 103.845 65.65C99.1978 65.65 94.551 65.65 89.9043 65.65C89.7635 65.65 89.6226 65.65 89.4349 65.65C88.6839 65.6969 88.1676 66.2601 88.1207 67.1518C88.0737 67.7618 88.0737 68.3719 88.0737 68.9351C88.0737 80.0107 88.0737 91.1332 88.0737 102.209C88.0737 102.819 88.1206 103.429 88.1676 103.992C88.2145 104.743 88.8247 105.259 89.6696 105.306C89.8104 105.306 89.9512 105.306 90.139 105.306C94.6449 105.306 99.1509 105.306 103.61 105.306C103.892 105.306 104.173 105.212 104.502 105.118C105.018 105.025 105.253 104.602 105.347 104.18C105.487 103.429 105.441 102.678 105.441 101.927C105.441 96.6241 105.394 91.2271 105.394 85.8301ZM124.732 85.7831C124.732 80.9962 124.732 76.2093 124.732 71.4224C124.732 69.7798 124.685 68.1373 124.591 66.4947C124.591 66.2601 124.262 65.9785 124.028 65.8377C123.793 65.6969 123.464 65.65 123.183 65.65C118.536 65.65 113.889 65.65 109.242 65.65C108.961 65.65 108.632 65.65 108.351 65.7908C108.116 65.9316 107.74 66.1662 107.74 66.3539C107.6 67.2456 107.553 68.1373 107.553 69.029C107.553 79.9638 107.553 90.8985 107.553 101.786C107.553 102.537 107.6 103.288 107.6 104.039C107.6 104.649 108.116 105.259 108.679 105.259C113.608 105.259 118.536 105.306 123.464 105.306C124.028 105.306 124.591 104.743 124.638 104.18C124.685 103.711 124.732 103.288 124.732 102.819C124.732 97.1403 124.732 91.4617 124.732 85.7831ZM85.8677 88.6459C85.8677 85.6423 85.8677 82.6857 85.8677 79.6822C85.8677 77.4295 85.8207 75.1769 85.7738 72.9711C85.7738 72.408 85.2105 71.8448 84.6473 71.8448C79.7189 71.8448 74.7905 71.8448 69.8621 71.8448C69.7212 71.8448 69.5335 71.8448 69.4396 71.9387C69.205 72.1264 68.8764 72.361 68.8764 72.5957C68.7825 73.4874 68.7356 74.379 68.7356 75.2707C68.7356 84.0936 68.7356 92.9166 68.7356 101.739C68.7356 102.209 68.7356 102.631 68.7356 103.1C68.7356 103.382 68.7825 103.711 68.7825 103.992C68.8294 104.837 69.2988 105.4 70.1437 105.4C74.7905 105.447 79.4373 105.447 84.0371 105.447C84.3187 105.447 84.6942 105.447 84.9289 105.306C85.2575 105.072 85.6799 104.743 85.7738 104.415C85.9146 103.711 85.9146 102.913 85.9146 102.162C85.8677 97.6096 85.8677 93.1043 85.8677 88.6459ZM163.596 89.1152C163.596 85.22 163.596 81.3248 163.596 77.4295C163.596 76.6786 163.596 75.9277 163.549 75.1768C163.502 74.3321 162.986 73.722 162.235 73.722C157.447 73.722 152.659 73.722 147.872 73.722C147.731 73.722 147.59 73.769 147.449 73.8159C146.933 73.8628 146.604 74.2383 146.558 74.6606C146.417 75.4115 146.417 76.1624 146.417 76.9133C146.417 85.3138 146.417 93.7144 146.417 102.068C146.417 102.678 146.417 103.288 146.464 103.851C146.511 104.743 147.027 105.353 147.778 105.353C152.565 105.353 157.353 105.353 162.141 105.353C162.281 105.353 162.469 105.353 162.563 105.306C162.892 105.025 163.361 104.743 163.408 104.415C163.549 103.523 163.549 102.631 163.549 101.739C163.596 97.4688 163.596 93.292 163.596 89.1152ZM173.875 109.061C172.373 109.061 170.871 109.014 169.416 109.014C135.34 109.014 101.216 109.014 67.1397 109.014C65.6377 109.014 64.1357 109.014 62.6337 109.014C62.1644 109.014 61.7419 108.967 61.3195 108.826C61.0848 108.732 60.7093 108.451 60.7093 108.216C60.6154 106.714 60.5216 105.212 60.5216 103.711C60.5216 81.3248 60.5216 58.9859 60.5216 36.6001C60.5216 35.2391 60.4746 33.925 60.4746 32.564C60.4746 32.4232 60.3808 32.2825 60.2869 32.1417C60.1461 32.3294 59.9583 32.4702 59.9583 32.6579C59.9114 34.0189 59.9114 35.3798 59.9114 36.6939C59.9114 58.7512 59.9114 80.8554 59.9114 102.913C59.9114 104.415 59.9114 105.916 59.8644 107.418C59.8644 108.263 59.3012 108.873 58.5502 108.92C57.3298 108.967 56.1564 109.014 54.936 109.014C48.7872 109.014 42.6385 109.014 36.4428 109.014C35.6448 109.014 34.7999 108.732 33.8143 109.436C34.9408 109.436 35.8326 109.483 36.7244 109.483C43.014 109.483 49.3505 109.483 55.6401 109.483C56.6727 109.483 57.7523 109.53 58.7849 109.671C59.1604 109.718 59.6298 110.14 59.7236 110.515C59.9114 111.219 59.9114 112.017 59.9114 112.721C59.9114 115.725 59.9114 118.728 59.9114 121.732C59.9114 122.483 59.7706 123.234 60.193 123.938C60.2869 123.703 60.4746 123.468 60.5216 123.234C60.5685 122.483 60.5685 121.732 60.5685 120.981C60.5685 118.869 60.5685 116.757 60.5685 114.692C60.6154 108.967 60.0522 109.53 66.0132 109.483C66.7642 109.483 67.5152 109.483 68.2662 109.483C78.921 109.483 89.5757 109.483 100.277 109.483C123.417 109.483 146.511 109.483 169.651 109.483C171.012 109.483 172.467 109.671 173.875 109.061Z" fill="#A31E46"/>
<path d="M114.127 211.698C86.6684 211.698 59.2101 211.698 31.7048 211.698C30.3436 211.698 28.9825 211.745 27.6682 211.651C21.3317 211.369 16.3563 206.629 15.7462 200.294C15.6523 199.402 15.6992 198.51 15.6992 197.572C15.6992 182.413 15.6992 167.255 15.6992 152.096C15.6992 150.735 15.6992 149.374 15.9809 148.06C17.2951 142.1 21.7541 138.252 28.0907 137.829C29.4518 137.735 30.813 137.782 32.1273 137.782C63.8099 137.782 95.4925 137.782 127.128 137.782C150.55 137.782 173.972 137.782 197.393 137.782C199.036 137.782 200.679 137.829 202.322 138.111C207.626 138.909 212.272 143.273 212.742 149.984C212.789 150.876 212.789 151.768 212.789 152.706C212.789 167.395 212.789 182.132 212.789 196.821C212.789 198.792 212.742 200.716 212.225 202.64C210.864 207.709 205.795 211.604 201.054 211.604C199.552 211.604 198.05 211.651 196.548 211.651C169.043 211.698 141.585 211.698 114.127 211.698ZM137.971 166.926C137.971 167.489 137.924 168.381 138.018 169.273C138.018 169.507 138.346 169.836 138.581 169.93C139.003 170.07 139.473 170.07 139.895 170.07C141.116 170.023 141.585 169.648 141.726 168.569C142.101 165.612 142.43 162.608 142.805 159.652C142.805 159.511 142.899 159.417 142.946 159.276C143.181 159.417 143.556 159.464 143.65 159.652C144.871 162.092 145.34 164.767 146.279 167.301C146.56 168.146 146.983 168.944 147.358 169.742C147.546 170.117 148.766 170.07 148.954 169.695C149.189 169.319 149.423 168.944 149.564 168.522C150.315 166.222 150.972 163.923 151.723 161.67C151.911 161.107 152.193 160.59 152.474 160.027C152.521 159.933 152.709 159.886 152.85 159.793C153.225 159.558 153.366 159.699 153.413 160.168C153.742 162.843 154.117 165.518 154.446 168.193C154.493 168.616 154.587 169.085 154.774 169.46C154.868 169.695 155.197 169.93 155.431 169.977C155.995 170.07 156.605 170.117 157.215 170.07C157.919 170.07 158.388 169.554 158.295 168.944C157.731 164.345 157.168 159.699 156.605 155.1C156.511 154.349 156.37 153.598 156.276 152.894C156.135 152.143 155.572 151.674 154.68 151.627C153.929 151.627 153.178 151.58 152.427 151.721C152.052 151.814 151.629 152.143 151.395 152.471C151.113 152.988 150.925 153.551 150.738 154.161C150.034 156.273 149.33 158.432 148.626 160.544C148.579 160.637 148.391 160.825 148.344 160.825C148.062 160.778 147.687 160.684 147.593 160.497C147.124 159.37 146.748 158.244 146.373 157.118C145.903 155.71 145.528 154.255 145.058 152.847C144.777 152.096 144.166 151.627 143.322 151.627C142.571 151.627 141.82 151.627 141.069 151.674C140.458 151.721 139.895 152.19 139.848 152.8C139.238 157.399 138.628 161.998 137.971 166.926ZM127.034 183.915C127.457 185.323 127.832 186.59 128.161 187.904C128.583 189.5 128.912 191.095 129.381 192.691C129.475 193.019 129.991 193.254 130.367 193.442C130.602 193.583 130.93 193.536 131.259 193.536C133.136 193.583 133.465 193.207 133.746 191.752C134.122 190.157 134.544 188.561 134.92 186.965C135.624 184.056 136.375 181.146 137.079 178.236C137.267 177.532 137.314 176.781 137.361 176.031C137.361 175.796 137.126 175.42 136.891 175.327C135.342 174.857 134.075 175.233 133.746 176.781C133.089 179.691 132.338 182.601 131.587 185.464C131.54 185.557 131.4 185.745 131.353 185.745C131.212 185.698 131.024 185.604 130.977 185.51C130.649 184.853 130.32 184.196 130.132 183.492C129.663 181.615 129.287 179.691 128.818 177.814C128.63 177.11 128.396 176.359 128.02 175.749C127.832 175.467 127.269 175.28 126.847 175.28C126.424 175.28 125.861 175.467 125.673 175.749C125.298 176.359 125.063 177.11 124.875 177.814C124.359 179.832 123.937 181.897 123.42 183.915C123.232 184.619 122.998 185.37 122.2 185.839C122.012 185.276 121.871 184.713 121.73 184.149C121.073 181.521 120.463 178.94 119.806 176.312C119.665 175.655 119.149 175.327 118.492 175.233C118.069 175.186 117.6 175.186 117.178 175.233C116.802 175.28 116.333 175.843 116.38 176.171C116.427 176.781 116.473 177.345 116.567 177.955C117.553 182.178 118.586 186.402 119.618 190.579C119.806 191.283 119.947 192.034 120.228 192.738C120.369 193.16 120.745 193.442 121.261 193.442C121.871 193.442 122.435 193.489 123.045 193.489C123.655 193.442 124.218 193.019 124.359 192.456C124.781 190.72 125.157 188.936 125.626 187.247C126.002 186.168 126.143 184.994 127.034 183.915ZM97.4639 160.684C97.417 160.684 97.417 160.684 97.4639 160.684C97.417 161.435 97.417 162.186 97.417 162.937C97.4639 165.049 97.4639 167.114 97.5578 169.226C97.5578 169.601 97.9333 170.023 98.4496 170.07C98.7312 170.07 99.0598 170.117 99.3414 170.117C100.843 170.117 101.266 169.742 101.266 168.334C101.313 165.8 101.266 163.265 101.313 160.684C101.313 160.403 101.454 160.168 101.594 159.933C101.641 159.84 101.923 159.699 101.97 159.746C102.345 159.98 102.721 160.215 102.956 160.59C104.974 163.359 106.992 166.175 108.964 168.991C109.527 169.836 110.278 170.164 111.263 170.117C111.733 170.117 112.155 170.117 112.625 170.07C113.188 170.023 113.704 169.46 113.704 168.897C113.704 163.641 113.704 158.432 113.704 153.175C113.704 153.035 113.704 152.847 113.61 152.753C113.329 152.425 113.094 152.002 112.719 151.861C112.155 151.674 111.545 151.674 110.982 151.721C110.419 151.721 109.808 152.378 109.761 152.847C109.715 153.739 109.668 154.63 109.668 155.522C109.668 157.165 109.668 158.807 109.621 160.45C109.621 160.825 109.386 161.247 109.151 161.576C109.01 161.858 108.494 161.623 108.072 161.107C107.462 160.262 106.851 159.417 106.241 158.572C104.833 156.648 103.472 154.677 102.064 152.753C101.501 151.955 100.703 151.627 99.7638 151.627C99.4822 151.627 99.1537 151.627 98.872 151.627C98.0272 151.674 97.4639 152.19 97.4639 153.035C97.4639 155.569 97.4639 158.103 97.4639 160.684ZM126.143 170.211C131.587 170.399 135.436 165.8 135.389 160.731C135.342 156.414 132.385 151.392 125.908 151.392C120.182 151.392 116.614 156.038 116.708 160.966C116.755 165.941 120.322 170.54 126.143 170.211ZM105.302 193.723C106.57 193.629 108.025 193.489 109.433 192.832C114.127 190.485 115.91 184.009 112.953 179.269C110.888 175.984 107.039 174.435 103.237 175.092C98.9659 175.843 95.7272 179.926 95.7272 184.431C95.7742 188.843 98.9659 193.958 105.302 193.723ZM168.527 184.149H168.574C168.574 181.897 168.574 179.644 168.574 177.392C168.574 176.922 168.574 176.5 168.48 176.031C168.433 175.796 168.104 175.561 167.917 175.374C167.823 175.28 167.635 175.233 167.494 175.233C166.884 175.233 166.321 175.186 165.711 175.233C165.1 175.28 164.584 175.796 164.584 176.406C164.49 178.049 164.443 179.691 164.35 181.334C164.35 181.568 163.974 181.944 163.739 181.944C162.096 182.178 160.454 182.319 158.811 181.897C158.576 181.85 158.295 181.521 158.201 181.287C158.06 180.864 158.06 180.395 158.06 179.973C158.013 178.753 158.013 177.579 157.966 176.359C157.966 175.749 157.497 175.28 156.84 175.233C156.699 175.233 156.558 175.186 156.417 175.186C154.633 175.092 154.117 175.514 154.117 177.063C154.117 181.85 154.117 186.684 154.117 191.471C154.117 191.893 154.164 192.362 154.305 192.785C154.399 193.019 154.68 193.348 154.868 193.348C155.619 193.442 156.323 193.442 157.074 193.442C157.403 193.442 157.966 192.925 157.966 192.597C158.013 190.954 158.06 189.312 158.107 187.669C158.154 186.871 158.67 186.355 159.562 186.355C160.782 186.355 161.956 186.355 163.176 186.355C163.974 186.355 164.443 186.918 164.49 187.81C164.537 189.03 164.49 190.204 164.537 191.424C164.537 191.846 164.584 192.315 164.725 192.738C164.819 192.972 165.054 193.301 165.288 193.348C165.851 193.489 166.462 193.536 167.072 193.536C168.011 193.536 168.574 193.066 168.621 192.268C168.527 189.546 168.527 186.871 168.527 184.149ZM73.5259 183.446C72.4464 183.492 71.226 183.539 70.0526 183.633C69.8179 183.633 69.4893 183.962 69.4424 184.196C69.2077 184.9 69.1607 185.651 69.4893 186.402C69.7709 187.106 70.3811 187.059 70.9913 187.106C71.5546 187.2 72.1647 187.247 72.728 187.388C73.0096 187.435 73.1035 187.763 72.9157 188.092C72.2586 189.218 71.226 189.734 70.0056 189.875C67.0017 190.204 64.1854 187.575 64.1854 184.431C64.1385 181.334 66.8608 178.33 70.3342 178.987C71.4137 179.175 72.3056 179.691 73.0566 180.395C74.0892 181.381 74.8402 180.911 75.685 180.02C76.2952 179.363 76.3891 178.612 75.8728 178.002C73.3851 175.139 70.2872 174.153 66.5792 175.233C62.1202 176.547 59.257 181.005 59.9611 185.651C60.712 190.391 64.3262 194.052 69.6301 193.676C74.6993 193.301 78.0788 189.5 77.6564 184.337C77.6095 183.962 77.1401 183.539 76.7646 183.492C75.732 183.539 74.6994 183.492 73.5259 183.446ZM84.9317 170.211C90.0948 170.493 94.2252 166.128 94.2252 160.872C94.1783 155.616 90.3764 151.486 84.9317 151.392C80.191 151.298 75.685 155.006 75.685 160.872C75.685 166.41 79.9094 170.54 84.9317 170.211ZM80.6134 184.384C80.6134 186.778 80.6134 189.171 80.6134 191.564C80.6134 191.987 80.7073 192.456 80.8481 192.879C80.942 193.113 81.2236 193.395 81.4583 193.395C82.2093 193.489 82.9134 193.442 83.6644 193.442C84.1807 193.442 84.4623 193.019 84.5562 192.597C84.697 192.034 84.65 191.424 84.697 190.814C84.7439 189.922 84.7909 189.03 84.8378 188.139C84.8378 187.716 85.0255 187.575 85.401 187.669C85.5419 187.716 85.7296 187.716 85.7765 187.81C86.903 189.406 88.0295 190.954 89.1091 192.597C89.5784 193.301 90.1886 193.583 90.9866 193.583C91.5967 193.583 92.2069 193.583 92.7702 193.536C93.5212 193.489 93.8967 192.972 93.5212 192.409C92.5355 190.907 91.5498 189.406 90.5641 187.904C89.5785 186.402 89.5784 186.402 91.0804 184.666C91.7845 183.868 92.2069 182.929 92.4416 181.897C93.2865 178.706 91.3621 175.749 88.0765 175.374C86.2929 175.186 84.5092 175.186 82.6787 175.186C80.8951 175.186 80.5196 175.561 80.4726 177.204C80.6134 179.597 80.6134 181.991 80.6134 184.384ZM45.6921 160.778C45.6452 160.778 45.6452 160.778 45.6921 160.778C45.6452 163.172 45.6452 165.565 45.6921 167.959C45.6921 168.381 45.7391 168.85 45.8799 169.273C45.9738 169.507 46.2554 169.836 46.4901 169.883C47.5227 170.023 48.5553 170.117 49.5879 170.07C51.5124 170.07 53.4837 169.977 55.4081 169.883C55.6428 169.883 55.9244 169.554 56.0183 169.319C56.5816 167.489 55.8775 166.504 54 166.457C52.9674 166.41 51.8878 166.41 50.8552 166.363C50.3858 166.316 50.0103 166.034 49.9165 165.565C49.6348 163.453 49.7287 162.702 52.0286 162.702C53.0613 162.702 54.1408 162.702 55.1734 162.562C55.5959 162.515 56.0183 162.233 56.0653 161.67C56.0653 161.529 56.1591 161.388 56.1591 161.247C56.1591 160.966 56.1591 160.637 56.1591 160.356C56.1122 159.699 55.6898 159.183 55.0796 159.183C53.7184 159.089 52.4042 159.089 51.043 158.995C50.4328 158.948 50.0103 158.479 49.9165 157.822C49.6348 156.132 50.1042 155.475 51.6062 155.428C52.6388 155.381 53.7184 155.381 54.751 155.334C55.7836 155.287 56.1591 154.771 56.2061 153.504C56.2061 152.284 55.7836 151.674 54.798 151.674C52.2633 151.674 49.7287 151.674 47.1941 151.721C46.4431 151.721 45.8329 152.425 45.786 153.175C45.6452 155.71 45.6921 158.244 45.6921 160.778ZM177.774 170.258C178.243 170.211 178.994 170.164 179.745 170.07C180.167 170.023 180.637 169.977 181.059 169.836C182.186 169.46 182.749 168.991 182.702 167.536C182.702 167.067 182.655 166.644 182.655 166.175C182.608 165.8 181.998 165.33 181.669 165.424C180.684 165.753 179.698 166.175 178.665 166.363C175.427 166.926 172.704 164.72 172.517 161.435C172.423 160.215 172.704 159.042 173.268 157.962C174.112 156.367 175.38 155.522 177.21 155.475C178.759 155.428 180.167 155.804 181.529 156.461C181.857 156.601 182.561 156.179 182.561 155.85C182.561 154.959 182.561 154.067 182.514 153.175C182.514 152.894 182.279 152.565 182.045 152.425C180.12 151.58 178.102 150.97 175.943 151.439C170.78 152.518 167.635 157.211 168.48 162.515C169.278 167.301 172.798 170.305 177.774 170.258ZM69.0199 170.211C69.3954 170.117 70.7097 169.93 72.0239 169.601C72.728 169.46 73.1974 168.756 73.1974 167.912C73.1974 167.301 73.1973 166.691 73.1504 166.128C73.1035 165.659 72.681 165.33 72.2586 165.424C71.2729 165.706 70.2872 166.128 69.2546 166.316C66.0159 166.926 63.1528 164.814 63.1528 161.435C63.1528 160.684 63.1997 159.933 63.2936 159.183C63.6691 156.977 65.4996 155.475 67.7057 155.428C69.0669 155.428 70.3811 155.71 71.6484 156.273C72.6811 156.695 73.1974 156.226 73.1974 154.959C73.1974 154.489 73.2443 154.067 73.1504 153.598C73.0565 152.988 72.8219 152.425 72.1647 152.19C71.4607 151.955 70.7566 151.721 70.0056 151.533C66.6262 150.735 63.763 151.721 61.4161 154.161C59.4447 156.226 58.6937 158.76 58.8345 161.576C59.0692 165.565 62.4018 170.587 69.0199 170.211ZM145.528 175.233C144.166 175.233 142.805 175.186 141.491 175.233C141.022 175.233 140.599 175.28 140.13 175.327C139.567 175.374 139.097 175.843 139.097 176.547C139.05 177.016 139.097 177.438 139.097 177.908C139.144 178.518 139.567 178.987 140.224 179.034C140.834 179.081 141.444 179.081 142.007 179.128C142.618 179.175 143.181 179.738 143.181 180.254C143.228 181.146 143.275 182.038 143.275 182.929C143.275 185.651 143.275 188.326 143.275 191.048C143.275 191.658 143.322 192.268 143.462 192.832C143.509 193.066 143.838 193.348 144.073 193.442C144.495 193.583 144.964 193.583 145.387 193.536C146.654 193.536 147.124 193.113 147.124 192.034C147.17 188.749 147.124 185.417 147.17 182.131C147.17 181.381 147.217 180.63 147.311 179.926C147.358 179.691 147.64 179.363 147.875 179.316C148.766 179.128 149.658 179.128 150.55 178.94C150.785 178.893 151.113 178.659 151.254 178.424C152.052 176.922 151.207 175.28 149.611 175.233C148.25 175.186 146.889 175.233 145.528 175.233ZM165.194 161.06C165.194 158.525 165.194 155.991 165.147 153.457C165.147 152.19 164.537 151.721 163.129 151.721C161.956 151.721 161.346 152.19 161.346 153.222C161.346 158.432 161.346 163.688 161.346 168.897C161.346 169.601 162.003 170.07 162.894 170.117C163.035 170.117 163.176 170.117 163.364 170.117C164.819 170.07 165.194 169.742 165.194 168.24C165.241 165.847 165.194 163.453 165.194 161.06Z" fill="#FEFEFE"/>
<path d="M144.304 80.8553C144.304 87.7541 144.304 94.6528 144.304 101.599C144.304 102.49 144.304 103.382 144.21 104.274C144.163 104.696 143.835 105.071 143.365 105.212C143.224 105.259 143.084 105.353 142.943 105.353C138.155 105.353 133.321 105.353 128.533 105.353C127.688 105.353 127.219 104.837 127.172 103.945C127.125 103.053 127.125 102.162 127.125 101.223C127.125 87.7071 127.125 74.1912 127.125 60.6752C127.125 59.6427 127.219 58.5633 127.219 57.5309C127.219 56.9677 127.688 56.8269 128.017 56.5453C128.111 56.4515 128.298 56.4984 128.439 56.4984C133.227 56.4984 138.061 56.4515 142.849 56.4984C143.647 56.4984 144.21 57.1085 144.257 57.9063C144.304 59.1265 144.304 60.2998 144.304 61.52C144.304 67.9494 144.304 74.4258 144.304 80.8553Z" fill="#FEFEFE"/>
<path d="M105.394 85.8304C105.394 91.2274 105.394 96.6244 105.394 102.021C105.394 102.772 105.394 103.523 105.3 104.274C105.253 104.696 104.972 105.119 104.455 105.213C104.174 105.26 103.892 105.353 103.564 105.4C99.0576 105.4 94.5516 105.4 90.0926 105.4C89.9518 105.4 89.811 105.4 89.6232 105.4C88.7784 105.353 88.1682 104.837 88.1212 104.086C88.0743 103.476 88.0273 102.866 88.0273 102.303C88.0273 91.2274 88.0273 80.1048 88.0273 69.0293C88.0273 68.4192 88.0274 67.8091 88.0743 67.2459C88.1212 66.3542 88.6375 65.7911 89.3885 65.7441C89.5293 65.7441 89.6702 65.7441 89.8579 65.7441C94.5047 65.7441 99.1515 65.7441 103.798 65.7441C104.08 65.7441 104.408 65.7911 104.643 65.9319C104.878 66.0727 105.159 66.3542 105.206 66.5889C105.3 67.9499 105.347 69.2639 105.347 70.6249C105.441 75.5995 105.394 80.7149 105.394 85.8304Z" fill="#FEFEFE"/>
<path d="M124.73 85.7835C124.73 91.4621 124.73 97.1406 124.73 102.866C124.73 103.335 124.683 103.758 124.636 104.227C124.589 104.79 124.073 105.353 123.462 105.353C118.534 105.353 113.606 105.353 108.677 105.307C108.161 105.307 107.645 104.696 107.598 104.086C107.551 103.335 107.551 102.585 107.551 101.834C107.551 90.8989 107.551 79.9641 107.551 69.0762C107.551 68.1846 107.598 67.2929 107.739 66.4012C107.785 66.1666 108.114 65.9319 108.349 65.8381C108.63 65.6973 108.912 65.6973 109.241 65.6973C113.887 65.6973 118.534 65.6973 123.181 65.6973C123.463 65.6973 123.791 65.7442 124.026 65.885C124.26 66.0258 124.542 66.3074 124.589 66.542C124.683 68.1846 124.73 69.8271 124.73 71.4697C124.73 76.2097 124.73 80.9966 124.73 85.7835Z" fill="#FEFEFE"/>
<path d="M85.8665 88.6459C85.8665 93.1512 85.8665 97.6096 85.8665 102.115C85.8665 102.866 85.9135 103.617 85.7257 104.368C85.6319 104.696 85.2094 105.025 84.8808 105.259C84.6462 105.4 84.3176 105.4 83.9891 105.4C79.3423 105.4 74.6955 105.4 70.0956 105.353C69.2507 105.353 68.7814 104.79 68.7345 103.945C68.7345 103.664 68.6875 103.335 68.6875 103.053C68.6875 102.584 68.6875 102.162 68.6875 101.693C68.6875 92.8696 68.6875 84.0467 68.6875 75.2238C68.6875 74.3321 68.7345 73.4404 68.8283 72.5487C68.8753 72.3141 69.2038 72.0794 69.3916 71.8917C69.4854 71.7978 69.6732 71.7979 69.814 71.7979C74.7424 71.7979 79.6708 71.7979 84.5992 71.7979C85.1625 71.7979 85.7257 72.361 85.7257 72.9242C85.7727 75.1768 85.7727 77.4295 85.8196 79.6352C85.9135 82.6388 85.8665 85.6423 85.8665 88.6459Z" fill="#FEFEFE"/>
<path d="M163.593 89.1149C163.593 93.2917 163.593 97.5154 163.593 101.692C163.593 102.584 163.593 103.523 163.452 104.367C163.405 104.696 162.936 104.977 162.607 105.259C162.513 105.353 162.326 105.306 162.185 105.306C157.397 105.306 152.61 105.306 147.822 105.306C147.024 105.306 146.508 104.696 146.508 103.804C146.461 103.194 146.461 102.584 146.461 102.021C146.461 93.6202 146.461 85.2197 146.461 76.8661C146.461 76.1152 146.461 75.3643 146.602 74.6134C146.696 74.191 146.977 73.8156 147.494 73.7686C147.634 73.7686 147.775 73.6748 147.916 73.6748C152.704 73.6748 157.491 73.6748 162.279 73.6748C163.03 73.6748 163.546 74.2849 163.593 75.1296C163.593 75.8805 163.64 76.6314 163.64 77.3823C163.593 81.3244 163.593 85.2197 163.593 89.1149Z" fill="#FEFEFE"/>
<path d="M111.684 55.0433C111.778 54.9495 111.919 54.8556 112.012 54.7148C113.655 52.3214 115.861 51.4766 118.677 52.4152C119.475 52.6968 120.179 52.5091 120.79 51.9929C124.545 48.9893 128.253 45.9388 132.008 42.9353C132.993 42.1375 132.993 41.3396 132.571 40.2133C131.867 38.383 132.806 36.5528 134.589 35.8957C136.044 35.3326 137.546 35.3795 139.001 35.9427C140.269 36.4589 141.114 37.726 141.114 39.1339C141.114 39.744 140.926 40.3072 140.926 40.9173C140.926 41.3396 141.067 41.762 141.254 42.1844C141.348 42.466 141.583 42.7007 141.724 42.9353C145.573 48.2854 149.374 53.6824 153.176 59.0324C153.646 59.6895 154.209 60.0649 155.054 60.0649C155.805 60.0649 156.556 60.018 157.307 60.2057C157.87 60.2996 158.433 60.5811 158.903 60.9566C160.968 62.4114 161.015 64.711 159.044 66.2597C157.166 67.7615 154.725 67.6676 152.801 66.1659C151.768 65.368 151.393 64.2417 151.674 62.9746C151.815 62.4114 152.191 61.8952 152.331 61.332C152.425 60.9566 152.378 60.4873 152.331 60.0649C152.331 59.9241 152.191 59.8302 152.097 59.6894C148.295 54.2924 144.446 48.9424 140.644 43.5454C139.987 42.6068 139.142 42.1375 137.969 42.5598C137.546 42.7006 137.077 42.7945 136.654 42.7476C134.871 42.3721 133.51 43.0761 132.148 44.2024C128.816 47.0182 125.436 49.7402 122.057 52.4622C121.306 53.0723 120.79 53.7293 121.024 54.7617C121.071 54.9025 121.118 55.0433 121.118 55.1841C121.071 57.3429 119.757 58.9386 117.692 59.2201C115.955 59.4548 114.406 59.1732 113.139 57.8592C112.623 57.3429 112.2 56.6859 111.496 56.4043C111.496 55.935 111.59 55.4657 111.684 55.0433Z" fill="#FEFEFE"/>
<path d="M173.877 109.061C172.469 109.671 170.967 109.483 169.559 109.483C146.419 109.483 123.326 109.483 100.186 109.483C89.5311 109.483 78.8763 109.483 68.1746 109.483C67.4236 109.483 66.6726 109.483 65.9216 109.483C59.9606 109.53 60.5238 108.967 60.4769 114.692C60.4769 116.804 60.4769 118.916 60.4769 120.981C60.4769 121.732 60.4769 122.483 60.43 123.234C60.43 123.468 60.2422 123.703 60.1014 123.937C59.679 123.234 59.8198 122.483 59.8198 121.732C59.8198 118.728 59.8198 115.725 59.8198 112.721C59.8198 111.97 59.8198 111.219 59.632 110.515C59.5381 110.187 59.0688 109.764 58.6933 109.671C57.6607 109.53 56.628 109.483 55.5485 109.483C49.2589 109.483 42.9224 109.483 36.6328 109.483C35.741 109.483 34.8492 109.483 33.7227 109.436C34.7083 108.732 35.5532 109.014 36.3512 109.014C42.4999 108.967 48.6487 109.014 54.8444 109.014C56.0648 109.014 57.2382 108.967 58.4586 108.92C59.2565 108.873 59.7728 108.263 59.7728 107.418C59.8198 105.916 59.8198 104.414 59.8198 102.913C59.8198 80.8554 59.8198 58.7511 59.8198 36.6938C59.8198 35.3328 59.8198 33.9719 59.8667 32.6578C59.8667 32.4701 60.1014 32.3293 60.1953 32.1416C60.2422 32.2824 60.383 32.4232 60.383 32.564C60.43 33.9249 60.43 35.239 60.43 36.6C60.43 58.9858 60.43 81.3247 60.43 103.71C60.43 105.212 60.5238 106.714 60.6177 108.216C60.6177 108.45 60.9932 108.732 61.2279 108.826C61.6503 108.967 62.1197 109.014 62.5421 109.014C64.0441 109.061 65.5461 109.014 67.0481 109.014C101.125 109.014 135.248 109.014 169.324 109.014C170.92 109.014 172.422 109.061 173.877 109.061Z" fill="#FEFEFE"/>
<path d="M102.156 56.4983C101.499 56.686 101.264 57.2492 100.889 57.6716C98.9643 59.8304 96.4766 60.2058 94.0358 58.751C93.6603 58.5163 93.3787 58.1409 93.0032 57.9062C92.4869 57.5308 91.9237 57.39 91.3135 57.5308C88.0748 58.2347 84.8831 58.9387 81.6913 59.6896C81.1281 59.8304 80.6587 60.2527 80.5649 60.9567C80.5179 61.3791 80.471 61.8484 80.3302 62.2707C80.1894 62.6931 79.9547 63.0686 79.6731 63.444C78.0772 65.5089 73.2427 65.509 71.9284 62.6462C71.506 61.7545 71.459 60.9098 71.9284 60.065C72.7263 58.5633 74.8385 57.4838 76.4344 57.6716C76.716 57.7185 77.0915 57.6716 77.3262 57.8593C79.4384 59.2672 81.6444 58.6102 83.8505 58.1878C86.0565 57.7654 88.2156 57.1084 90.4217 56.686C91.5951 56.4983 92.1584 55.8882 92.7686 54.9027C94.5522 51.9461 97.697 51.5237 100.419 53.7294C100.889 54.1049 101.264 54.5742 101.687 54.9965C101.827 55.5128 101.968 55.9821 102.156 56.4983Z" fill="#FEFEFE"/>
<path d="M102.157 56.4988C101.969 55.9823 101.828 55.5129 101.641 54.9964C104.973 54.7147 108.353 54.6678 111.685 55.0434C111.591 55.5129 111.497 55.9823 111.357 56.4049C108.306 56.4518 105.208 56.4518 102.157 56.4988Z" fill="#BD8A2D"/>
<path d="M137.969 166.926C138.626 161.998 139.236 157.399 139.846 152.753C139.94 152.143 140.456 151.674 141.067 151.627C141.818 151.58 142.569 151.58 143.32 151.58C144.164 151.58 144.775 152.049 145.056 152.8C145.573 154.208 145.948 155.663 146.37 157.071C146.746 158.197 147.122 159.323 147.591 160.45C147.685 160.637 148.06 160.684 148.342 160.778C148.436 160.778 148.577 160.637 148.624 160.497C149.328 158.385 150.032 156.226 150.736 154.114C150.923 153.551 151.064 152.941 151.393 152.425C151.581 152.096 152.003 151.721 152.425 151.674C153.129 151.533 153.927 151.533 154.678 151.58C155.57 151.58 156.133 152.049 156.274 152.847C156.415 153.598 156.556 154.302 156.603 155.053C157.166 159.652 157.729 164.251 158.293 168.897C158.386 169.507 157.87 169.977 157.213 170.023C156.603 170.023 156.04 170.023 155.429 169.93C155.195 169.883 154.866 169.648 154.772 169.413C154.585 169.038 154.491 168.569 154.444 168.146C154.068 165.471 153.74 162.796 153.411 160.121C153.364 159.699 153.223 159.558 152.848 159.746C152.707 159.793 152.566 159.84 152.472 159.98C152.191 160.497 151.909 161.06 151.721 161.623C150.97 163.923 150.313 166.222 149.562 168.475C149.421 168.897 149.187 169.273 148.952 169.648C148.717 170.023 147.497 170.07 147.356 169.695C146.981 168.897 146.605 168.099 146.277 167.255C145.338 164.72 144.869 162.045 143.648 159.605C143.554 159.417 143.179 159.37 142.944 159.229C142.897 159.37 142.803 159.464 142.803 159.605C142.428 162.562 142.099 165.565 141.724 168.522C141.583 169.601 141.114 169.977 139.893 170.023C139.424 170.023 138.954 170.023 138.579 169.883C138.344 169.789 138.063 169.46 138.016 169.226C137.969 168.428 137.969 167.489 137.969 166.926Z" fill="#A31E46"/>
<path d="M127.029 183.914C126.137 184.994 125.949 186.167 125.668 187.293C125.198 189.03 124.823 190.766 124.401 192.503C124.26 193.019 123.697 193.488 123.086 193.535C122.476 193.582 121.913 193.535 121.303 193.488C120.786 193.488 120.411 193.16 120.27 192.784C119.988 192.08 119.848 191.329 119.66 190.625C118.627 186.402 117.595 182.225 116.609 178.001C116.468 177.438 116.468 176.828 116.421 176.218C116.374 175.889 116.844 175.326 117.219 175.279C117.642 175.232 118.111 175.185 118.533 175.279C119.144 175.373 119.66 175.702 119.848 176.359C120.505 178.987 121.115 181.568 121.772 184.196C121.913 184.759 122.101 185.275 122.241 185.885C123.039 185.416 123.274 184.712 123.462 183.961C123.978 181.943 124.401 179.878 124.917 177.86C125.105 177.156 125.339 176.406 125.715 175.795C125.903 175.514 126.466 175.326 126.888 175.326C127.311 175.326 127.874 175.514 128.062 175.795C128.437 176.406 128.672 177.156 128.86 177.86C129.329 179.738 129.704 181.662 130.174 183.539C130.362 184.243 130.737 184.9 131.019 185.557C131.066 185.651 131.253 185.745 131.394 185.792C131.441 185.792 131.582 185.651 131.629 185.51C132.333 182.6 133.084 179.738 133.788 176.828C134.117 175.279 135.384 174.951 136.933 175.373C137.121 175.42 137.402 175.842 137.402 176.077C137.355 176.828 137.308 177.579 137.121 178.283C136.417 181.192 135.712 184.102 134.961 187.012C134.586 188.607 134.164 190.203 133.788 191.799C133.459 193.254 133.131 193.676 131.3 193.582C131.019 193.582 130.69 193.582 130.409 193.488C130.033 193.3 129.517 193.066 129.423 192.737C128.953 191.142 128.625 189.546 128.202 187.95C127.874 186.589 127.451 185.322 127.029 183.914Z" fill="#A31E46"/>
<path d="M97.461 160.685C97.461 158.15 97.461 155.616 97.461 153.035C97.461 152.19 98.0243 151.674 98.8691 151.627C99.1508 151.627 99.4793 151.627 99.7609 151.627C100.7 151.627 101.498 151.955 102.061 152.753C103.469 154.677 104.83 156.649 106.238 158.573C106.848 159.417 107.459 160.262 108.069 161.107C108.444 161.623 109.008 161.858 109.148 161.576C109.336 161.201 109.571 160.825 109.618 160.45C109.665 158.807 109.665 157.165 109.665 155.522C109.665 154.63 109.712 153.739 109.759 152.847C109.759 152.378 110.416 151.721 110.979 151.721C111.589 151.721 112.199 151.674 112.716 151.862C113.091 151.955 113.326 152.425 113.607 152.753C113.701 152.847 113.701 153.035 113.701 153.176C113.701 158.432 113.701 163.641 113.701 168.897C113.701 169.507 113.185 170.071 112.622 170.071C112.152 170.118 111.73 170.118 111.261 170.118C110.275 170.164 109.571 169.836 108.961 168.991C106.989 166.175 104.971 163.36 102.953 160.591C102.718 160.262 102.296 160.027 101.967 159.746C101.92 159.699 101.638 159.793 101.591 159.934C101.451 160.168 101.31 160.45 101.31 160.685C101.263 163.219 101.31 165.753 101.263 168.334C101.263 169.742 100.84 170.118 99.3385 170.118C99.0569 170.118 98.7283 170.071 98.4467 170.071C97.9304 170.024 97.5549 169.648 97.5549 169.226C97.461 167.114 97.461 165.049 97.4141 162.937C97.4141 162.139 97.4141 161.388 97.461 160.685C97.4141 160.685 97.4141 160.685 97.461 160.685Z" fill="#A31E46"/>
<path d="M126.139 170.211C120.319 170.493 116.752 165.893 116.705 161.013C116.611 156.038 120.178 151.392 125.905 151.439C132.382 151.439 135.339 156.46 135.386 160.778C135.433 165.846 131.584 170.446 126.139 170.211ZM131.021 160.731C131.021 160.449 131.021 160.121 130.974 159.839C130.645 156.695 128.111 154.771 124.966 155.334C123.558 155.569 122.478 156.32 121.774 157.587C120.742 159.417 120.695 161.341 121.305 163.218C122.009 165.283 123.839 166.503 125.67 166.55C127.876 166.597 129.378 165.659 130.411 163.782C130.974 162.843 131.021 161.81 131.021 160.731Z" fill="#A31E46"/>
<path d="M105.302 193.723C98.9652 193.958 95.7735 188.795 95.7266 184.431C95.7266 179.925 98.9652 175.889 103.237 175.092C107.038 174.388 110.887 175.936 112.953 179.268C115.91 184.008 114.126 190.485 109.432 192.831C108.024 193.535 106.569 193.629 105.302 193.723ZM100.045 184.149C100.139 184.806 100.139 185.698 100.373 186.59C100.796 188.091 101.781 189.312 103.283 189.781C106.287 190.673 108.822 189.734 109.949 186.261C110.23 185.416 110.23 184.478 110.136 183.586C109.902 181.099 108.165 178.658 104.692 178.799C102.532 178.893 100.702 180.442 100.279 182.6C100.186 183.023 100.139 183.445 100.045 184.149Z" fill="#A31E46"/>
<path d="M168.523 184.149C168.523 186.871 168.523 189.546 168.523 192.268C168.523 193.066 167.96 193.535 166.974 193.535C166.364 193.535 165.801 193.488 165.191 193.347C164.956 193.3 164.674 192.972 164.627 192.737C164.487 192.315 164.487 191.846 164.44 191.423C164.393 190.203 164.44 189.03 164.393 187.809C164.393 186.918 163.876 186.355 163.078 186.355C161.858 186.308 160.685 186.308 159.464 186.355C158.572 186.355 158.056 186.871 158.009 187.669C157.962 189.311 157.915 190.954 157.868 192.596C157.868 192.925 157.305 193.441 156.977 193.441C156.226 193.441 155.475 193.441 154.771 193.347C154.536 193.3 154.254 193.019 154.207 192.784C154.066 192.362 154.02 191.892 154.02 191.47C154.02 186.683 154.02 181.849 154.02 177.062C154.02 175.514 154.536 175.091 156.319 175.185C156.46 175.185 156.601 175.232 156.742 175.232C157.399 175.326 157.868 175.748 157.868 176.358C157.915 177.579 157.915 178.752 157.962 179.972C157.962 180.441 158.009 180.864 158.103 181.286C158.197 181.521 158.479 181.849 158.713 181.896C160.356 182.366 161.999 182.225 163.642 181.943C163.876 181.896 164.205 181.568 164.252 181.333C164.393 179.691 164.393 178.048 164.487 176.405C164.533 175.842 165.003 175.279 165.613 175.232C166.223 175.185 166.786 175.232 167.397 175.232C167.537 175.232 167.725 175.279 167.819 175.373C168.054 175.561 168.335 175.748 168.382 176.03C168.523 176.452 168.476 176.922 168.476 177.391C168.476 179.644 168.476 181.896 168.476 184.149C168.523 184.149 168.523 184.149 168.523 184.149Z" fill="#A31E46"/>
<path d="M73.5241 183.445C74.6506 183.492 75.7301 183.539 76.7627 183.586C77.1852 183.586 77.6545 184.056 77.6545 184.431C78.03 189.593 74.6975 193.395 69.6283 193.77C64.3713 194.146 60.7102 190.438 59.9592 185.745C59.2082 181.099 62.0714 176.641 66.5773 175.326C70.2854 174.247 73.3363 175.186 75.8709 178.095C76.3872 178.659 76.2934 179.456 75.6832 180.113C74.8383 180.958 74.0873 181.474 73.0547 180.489C72.3037 179.738 71.4119 179.269 70.3323 179.081C66.859 178.471 64.1366 181.427 64.1835 184.525C64.2305 187.669 67.0467 190.297 70.0038 189.969C71.2711 189.828 72.2567 189.265 72.9139 188.185C73.1016 187.857 73.0547 187.528 72.7261 187.481C72.1629 187.341 71.5527 187.294 70.9894 187.2C70.4262 187.106 69.7691 187.2 69.4874 186.496C69.2058 185.792 69.2058 185.041 69.4405 184.29C69.5344 184.056 69.816 183.774 70.0507 183.727C71.2241 183.539 72.4445 183.492 73.5241 183.445Z" fill="#A31E46"/>
<path d="M84.9263 170.211C79.904 170.54 75.6797 166.41 75.6797 160.872C75.6797 155.006 80.1857 151.299 84.9263 151.392C90.371 151.486 94.173 155.569 94.2199 160.872C94.2668 166.175 90.0894 170.493 84.9263 170.211ZM84.8794 166.551C86.3814 166.645 87.7426 166.082 88.7282 164.861C90.371 162.796 90.5119 159.558 89.0099 157.353C87.1793 154.584 82.6264 154.349 80.7489 157.54C79.5285 159.558 79.3408 161.764 80.5142 163.923C81.453 165.565 82.8141 166.598 84.8794 166.551Z" fill="#A31E46"/>
<path d="M80.6094 184.384C80.6094 181.99 80.6094 179.597 80.6094 177.204C80.6094 175.561 81.0318 175.186 82.8154 175.186C84.599 175.186 86.4296 175.186 88.2132 175.373C91.4988 175.749 93.3763 178.705 92.5784 181.897C92.2967 182.929 91.9212 183.868 91.2172 184.665C89.7152 186.402 89.7152 186.402 90.7009 187.904C91.6866 189.405 92.6722 190.907 93.6579 192.409C94.0334 192.972 93.6579 193.488 92.9069 193.535C92.2968 193.535 91.7335 193.582 91.1233 193.582C90.3254 193.582 89.7152 193.254 89.2458 192.597C88.1663 191.001 87.0398 189.405 85.9133 187.81C85.8663 187.716 85.6786 187.716 85.5378 187.669C85.1623 187.575 84.9745 187.763 84.9745 188.138C84.9276 189.03 84.8807 189.922 84.8337 190.813C84.7868 191.423 84.8337 192.034 84.6929 192.597C84.599 193.019 84.3174 193.441 83.8011 193.441C83.0501 193.441 82.2991 193.441 81.595 193.395C81.3604 193.348 81.0787 193.113 80.9849 192.878C80.8441 192.456 80.7502 192.034 80.7502 191.564C80.6094 189.171 80.6094 186.777 80.6094 184.384ZM84.7868 180.348C84.7868 181.099 84.7868 181.38 84.7868 181.709C84.7868 181.85 84.8337 181.99 84.8337 182.131C84.8807 182.272 84.9276 182.413 84.9276 182.554C84.9745 182.835 85.6317 183.211 86.0072 183.164C87.5561 182.882 88.354 182.225 88.4948 181.099C88.6356 179.926 87.9785 179.175 86.4765 178.658C85.6317 178.377 84.9276 178.752 84.8807 179.55C84.8337 179.926 84.7868 180.395 84.7868 180.348Z" fill="#A31E46"/>
<path d="M45.6876 160.778C45.6876 158.244 45.6876 155.71 45.6876 153.129C45.6876 152.331 46.3447 151.674 47.0957 151.674C49.6303 151.627 52.1649 151.627 54.6996 151.627C55.7322 151.627 56.1546 152.237 56.1077 153.457C56.1077 154.724 55.6853 155.241 54.6526 155.288C53.62 155.334 52.5405 155.334 51.5078 155.381C50.0058 155.428 49.5365 156.085 49.8181 157.775C49.912 158.432 50.3813 158.901 50.9446 158.948C52.3058 159.042 53.62 159.042 54.9812 159.136C55.5914 159.183 56.0138 159.652 56.0607 160.309C56.0607 160.591 56.1077 160.919 56.0607 161.201C56.0607 161.342 55.9669 161.482 55.9669 161.623C55.9199 162.139 55.4975 162.468 55.075 162.515C54.0424 162.656 53.0098 162.656 51.9303 162.656C49.6773 162.656 49.5365 163.406 49.8181 165.518C49.865 165.988 50.2875 166.269 50.7568 166.316C51.7895 166.41 52.869 166.363 53.9016 166.41C55.7791 166.457 56.4832 167.442 55.9199 169.273C55.8261 169.507 55.5444 169.836 55.3097 169.836C53.3853 169.93 51.414 170.024 49.4895 170.024C48.4569 170.024 47.4243 169.93 46.3917 169.836C46.157 169.789 45.8754 169.507 45.7815 169.226C45.6407 168.803 45.5938 168.334 45.5938 167.912C45.6407 165.565 45.6407 163.172 45.6876 160.778C45.6407 160.778 45.6407 160.778 45.6876 160.778Z" fill="#A31E46"/>
<path d="M177.77 170.258C172.795 170.305 169.274 167.301 168.523 162.561C167.678 157.258 170.823 152.565 175.986 151.485C178.145 151.063 180.117 151.626 182.088 152.471C182.323 152.565 182.511 152.94 182.558 153.222C182.605 154.114 182.605 155.005 182.605 155.897C182.605 156.225 181.854 156.648 181.572 156.507C180.211 155.85 178.756 155.475 177.254 155.521C175.423 155.568 174.109 156.413 173.311 158.009C172.748 159.088 172.513 160.261 172.56 161.482C172.748 164.767 175.47 166.972 178.709 166.409C179.741 166.222 180.68 165.799 181.713 165.471C182.041 165.377 182.651 165.846 182.698 166.222C182.745 166.691 182.745 167.113 182.745 167.583C182.792 169.037 182.182 169.507 181.103 169.882C180.68 170.023 180.211 170.07 179.788 170.117C178.99 170.164 178.239 170.211 177.77 170.258Z" fill="#A31E46"/>
<path d="M69.0182 170.211C62.4001 170.587 59.0675 165.565 58.8798 161.67C58.739 158.854 59.49 156.32 61.4613 154.255C63.8082 151.815 66.6714 150.829 70.0509 151.627C70.8019 151.815 71.5059 152.002 72.21 152.284C72.8201 152.519 73.1018 153.082 73.1957 153.692C73.2426 154.114 73.2426 154.584 73.2426 155.053C73.2426 156.32 72.7263 156.789 71.6937 156.367C70.4264 155.851 69.159 155.522 67.7509 155.522C65.5449 155.569 63.7143 157.071 63.3388 159.277C63.198 160.027 63.198 160.778 63.198 161.529C63.245 164.908 66.1081 167.02 69.2999 166.41C70.3325 166.222 71.3182 165.8 72.3038 165.518C72.7263 165.378 73.1487 165.753 73.1957 166.222C73.2426 166.832 73.2426 167.443 73.2426 168.006C73.2426 168.85 72.7732 169.554 72.0692 169.695C70.7549 169.93 69.3937 170.118 69.0182 170.211Z" fill="#A31E46"/>
<path d="M145.526 175.233C146.887 175.233 148.248 175.186 149.562 175.233C151.158 175.28 152.003 176.922 151.205 178.424C151.064 178.659 150.783 178.893 150.501 178.94C149.609 179.081 148.717 179.128 147.825 179.316C147.591 179.363 147.309 179.691 147.262 179.926C147.168 180.677 147.121 181.428 147.121 182.132C147.074 185.417 147.121 188.749 147.074 192.034C147.074 193.113 146.605 193.536 145.338 193.536C144.868 193.536 144.446 193.536 144.024 193.442C143.789 193.348 143.46 193.113 143.413 192.832C143.273 192.269 143.226 191.658 143.226 191.048C143.226 188.326 143.226 185.651 143.226 182.929C143.226 182.038 143.179 181.146 143.132 180.254C143.132 179.738 142.522 179.175 141.958 179.128C141.348 179.081 140.738 179.081 140.175 179.034C139.518 178.987 139.095 178.518 139.048 177.908C139.048 177.439 139.001 177.016 139.048 176.547C139.095 175.843 139.518 175.374 140.081 175.327C140.55 175.28 140.973 175.233 141.442 175.233C142.85 175.186 144.164 175.233 145.526 175.233Z" fill="#A31E46"/>
<path d="M165.189 161.06C165.189 163.453 165.189 165.847 165.189 168.24C165.189 169.742 164.814 170.071 163.359 170.117C163.218 170.117 163.077 170.117 162.89 170.117C161.998 170.117 161.341 169.648 161.341 168.897C161.341 163.688 161.294 158.432 161.341 153.222C161.341 152.19 161.951 151.768 163.124 151.721C164.532 151.721 165.142 152.19 165.142 153.457C165.189 155.991 165.189 158.526 165.189 161.06Z" fill="#A31E46"/>
<path d="M131.022 160.731C131.022 161.763 130.975 162.843 130.459 163.781C129.426 165.659 127.924 166.597 125.718 166.55C123.888 166.503 122.057 165.283 121.353 163.218C120.696 161.341 120.743 159.37 121.822 157.587C122.526 156.319 123.606 155.569 125.014 155.334C128.159 154.771 130.74 156.695 131.022 159.839C131.022 160.168 131.022 160.449 131.022 160.731Z" fill="#FEFEFE"/>
<path d="M100.039 184.149C100.133 183.445 100.18 183.023 100.274 182.554C100.696 180.395 102.527 178.893 104.686 178.752C108.159 178.564 109.896 181.052 110.131 183.539C110.224 184.431 110.224 185.369 109.943 186.214C108.863 189.687 106.329 190.626 103.278 189.734C101.776 189.312 100.79 188.091 100.368 186.543C100.133 185.698 100.086 184.806 100.039 184.149Z" fill="#FEFEFE"/>
<path d="M84.8829 166.551C82.8177 166.598 81.4565 165.565 80.5178 163.876C79.3443 161.717 79.5321 159.511 80.7524 157.493C82.6299 154.302 87.1829 154.583 89.0134 157.305C90.5154 159.511 90.3746 162.749 88.7318 164.814C87.7461 166.081 86.3849 166.645 84.8829 166.551Z" fill="#FEFEFE"/>
<path d="M84.7891 180.348C84.7891 180.348 84.836 179.926 84.8829 179.503C84.9767 178.705 85.6337 178.33 86.4784 178.612C88.027 179.128 88.637 179.879 88.4962 181.052C88.3554 182.178 87.5577 182.882 86.0091 183.117C85.6337 183.164 85.0237 182.835 84.9298 182.507C84.8829 182.366 84.836 182.225 84.836 182.084C84.7891 181.944 84.7891 181.803 84.7891 181.662C84.7891 181.427 84.7891 181.099 84.7891 180.348Z" fill="#FEFEFE"/>
</svg>
