<svg width="221" height="148" viewBox="0 0 221 148" fill="none" xmlns="http://www.w3.org/2000/svg">
<path d="M86.54 99.76V98H77.88V112H79.56V106.1H86.14V104.42H79.56V99.76H86.54ZM91.4413 101.72C90.1413 101.72 89.0413 102.1 88.2013 102.64V104.28C89.1213 103.7 89.9813 103.42 91.1413 103.42C92.9013 103.42 93.7613 104.18 93.7613 106.08V106.72C93.1413 106.46 92.3213 106.34 91.4213 106.34C89.1013 106.34 87.6613 107.46 87.6613 109.32C87.6613 111.16 88.8213 112.26 90.6613 112.26C92.2813 112.26 93.4213 111.42 93.9013 110.04L93.8613 112H95.3613V105.64C95.3613 102.98 93.9613 101.72 91.4413 101.72ZM91.1013 110.82C89.9013 110.82 89.2812 110.18 89.2812 109.24C89.2812 108.18 90.0813 107.52 91.7013 107.52C92.4413 107.52 93.1613 107.64 93.7613 107.9V107.94C93.7613 109.8 92.4413 110.82 91.1013 110.82ZM101.02 112.26C103.24 112.26 104.68 111.18 104.68 109.22C104.68 105.5 99.3198 106.98 99.3198 104.76C99.3198 103.9 100.08 103.42 101.52 103.42C102.56 103.42 103.5 103.66 104.28 104.22V102.46C103.56 101.96 102.68 101.72 101.46 101.72C99.3398 101.72 97.7998 102.82 97.7998 104.7C97.7998 108.54 103.16 106.76 103.16 109.28C103.16 110.32 102.42 110.82 100.96 110.82C99.7398 110.82 98.6398 110.44 97.8398 109.88V111.5C98.5998 111.96 99.6598 112.26 101.02 112.26ZM111.952 101.72C110.132 101.72 109.092 102.7 108.672 103.92L108.712 97.5H107.112V112H108.712V106.28C108.712 104.3 110.012 103.42 111.332 103.42C112.772 103.42 113.772 104.24 113.772 106.28V112H115.372V105.66C115.372 103.4 114.192 101.72 111.952 101.72ZM119.259 99.92C119.919 99.92 120.439 99.48 120.439 98.76C120.439 98.1 120.039 97.62 119.259 97.62C118.479 97.62 118.079 98.1 118.079 98.76C118.079 99.48 118.599 99.92 119.259 99.92ZM118.459 112H120.059V102H118.459V112ZM127.484 112.26C130.344 112.26 132.424 110.1 132.424 106.96C132.424 103.72 130.324 101.72 127.484 101.72C124.644 101.72 122.544 103.88 122.544 106.96C122.544 110.26 124.584 112.26 127.484 112.26ZM127.484 110.82C125.444 110.82 124.164 109.32 124.164 106.96C124.164 104.76 125.544 103.42 127.484 103.42C129.404 103.42 130.804 104.68 130.804 106.96C130.804 109.26 129.544 110.82 127.484 110.82ZM139.705 101.72C137.925 101.72 136.885 102.7 136.445 103.9L136.485 102H134.885V112H136.485V106.32C136.485 104.32 137.765 103.42 139.045 103.42C140.525 103.42 141.565 104.26 141.565 106.32V112H143.165V105.66C143.165 103.4 141.965 101.72 139.705 101.72Z" fill="black"/>
<path d="M76 40.68C76 40.6057 76 40.5562 76 40.482C76.0239 40.482 76.0478 40.5067 76.0717 40.482C76.5501 40.1354 77.0762 39.8631 77.6023 39.6155C79.1807 38.8234 80.807 38.1055 82.481 37.5114C84.4182 36.843 86.3792 36.2984 88.3403 35.7538C90.1817 35.2587 92.0232 34.7636 93.8647 34.2437C95.4192 33.7981 96.9498 33.303 98.4564 32.6594C99.5087 32.2138 100.513 31.6939 101.518 31.1741C101.637 31.1246 101.733 31.0998 101.852 31.1246C102.952 31.3474 104.053 31.5206 105.177 31.6197C106.205 31.6939 107.209 31.6939 108.238 31.6197C109.481 31.5206 110.677 31.2979 111.897 31.0255C112.064 31.0008 112.184 31.0008 112.327 31.0751C113.523 31.5949 114.695 32.1395 115.915 32.6099C118.354 33.5506 120.865 34.3427 123.352 35.1349C125.218 35.729 127.083 36.2736 128.948 36.8925C130.79 37.4866 132.607 38.1302 134.401 38.9224C135.382 39.3432 136.386 39.7888 137.343 40.3087C137.51 40.3829 137.677 40.4572 137.797 40.6057C137.797 40.7295 137.797 40.8285 137.797 40.9523C137.749 41.4226 137.654 41.893 137.558 42.3633C137.103 44.5418 136.458 46.646 135.525 48.6264C134.808 50.1612 133.923 51.5722 132.87 52.909C132.799 52.9832 132.751 53.0327 132.655 52.9832C132.536 52.909 132.416 52.8842 132.296 52.8099C131.101 52.2158 129.881 51.696 128.59 51.2751C127.226 50.8543 125.839 50.6068 124.428 50.5077C124.117 50.483 124.117 50.5077 124.117 50.8048C124.094 51.6217 124.07 52.4386 124.07 53.2308C124.046 54.9636 124.022 56.6965 124.022 58.4293C123.998 60.9048 123.998 63.3803 123.974 65.8558C123.974 67.3906 123.95 68.9007 123.95 70.4355C123.926 73.4309 123.902 76.4015 123.902 79.3968C123.902 80.09 123.902 80.7831 123.902 81.4515C123.902 81.5753 123.878 81.6248 123.735 81.6495C123.089 81.7485 122.419 81.8723 121.774 81.9961C120.171 82.2684 118.545 82.4912 116.919 82.6645C115.436 82.813 113.93 82.912 112.447 82.9615C112.184 82.9368 111.921 82.9615 111.634 82.9615C111.251 82.9368 110.868 82.9615 110.486 82.9615C110.438 82.9615 110.39 82.9615 110.342 82.9863C108.979 82.9863 107.616 82.9863 106.253 82.9863C106.205 82.9368 106.157 82.9368 106.109 82.9368C105.822 82.9368 105.511 82.9368 105.224 82.9368C105.057 82.9368 104.914 82.912 104.746 82.9368C104.483 82.9368 104.244 82.912 103.981 82.9368C102.594 82.8625 101.207 82.7883 99.8435 82.6397C98.8151 82.5407 97.7629 82.4417 96.7345 82.3179C95.7062 82.1941 94.6539 82.0704 93.6255 81.9466C92.5493 81.8228 91.4971 81.6743 90.4209 81.501C90.2296 81.4762 90.2296 81.4762 90.2296 81.2534C90.2057 79.5701 90.2057 77.9115 90.1817 76.2282C90.1578 73.926 90.1578 71.6237 90.1578 69.3215C90.1578 67.5144 90.1339 65.7321 90.1339 63.9249C90.1339 61.895 90.11 59.8651 90.11 57.86C90.11 56.2756 90.11 54.6666 90.11 53.0823C90.11 52.3148 90.11 51.5474 90.11 50.78C90.11 50.7305 90.11 50.681 90.11 50.6315C90.11 50.5572 90.0622 50.5077 89.9904 50.5325C89.8708 50.5325 89.7513 50.5572 89.6317 50.5572C88.7707 50.6068 87.9337 50.681 87.0967 50.8791C85.7813 51.2009 84.5138 51.6712 83.2702 52.2158C82.6724 52.4634 82.0745 52.7357 81.4766 52.9832C81.1896 53.107 81.1896 53.107 81.0222 52.8347C80.9026 52.6367 80.7591 52.4386 80.6396 52.2406C79.1329 50.0869 78.0567 47.7599 77.2436 45.3092C76.7892 43.8734 76.4544 42.3881 76.0957 40.9275C76.0717 40.8285 76.0717 40.7295 76 40.68ZM116.345 55.7805C115.915 56.0529 115.46 56.2014 114.958 56.2014C113.475 56.2014 112.016 56.2014 110.534 56.2014C110.366 56.2014 110.366 56.2014 110.366 56.0281C110.366 55.6073 110.366 55.1864 110.366 54.7656C110.366 54.7161 110.39 54.6418 110.342 54.5676C110.318 54.6171 110.294 54.6418 110.271 54.6666C109.553 55.9043 108.836 57.1668 108.094 58.4046C108.023 58.5284 108.046 58.6026 108.094 58.7264C108.812 59.9641 109.529 61.1771 110.223 62.4149C110.247 62.4644 110.271 62.5139 110.342 62.5387C110.342 62.0683 110.342 61.6227 110.342 61.1771C110.342 60.9543 110.342 60.9543 110.558 60.9543C111.299 60.9543 112.04 60.9543 112.782 60.9543C113.26 60.9543 113.595 60.7563 113.834 60.3355C113.977 60.0879 114.097 59.8404 114.24 59.6176C114.91 58.4046 115.58 57.2163 116.249 56.0033C116.321 55.9291 116.393 55.8548 116.345 55.7805C116.345 55.8053 116.369 55.8053 116.369 55.7805V55.7558C116.369 55.7558 116.369 55.7558 116.345 55.7805ZM104.292 53.9487C104.268 53.9487 104.244 53.9487 104.244 53.9734C104.244 53.9734 104.244 53.9734 104.268 53.9734C104.268 53.9734 104.268 53.9734 104.292 53.9487C104.22 53.8992 104.196 53.8249 104.148 53.7506C103.479 52.5376 102.833 51.2999 102.187 50.0621C102.115 49.9384 102.044 49.8641 101.9 49.8889C100.513 49.9136 99.126 49.9384 97.739 49.9631C97.6911 49.9631 97.6194 49.9384 97.5955 50.0126C98.0259 50.2849 98.4803 50.5325 98.9108 50.8048C98.863 50.9038 98.8151 50.9781 98.7673 51.0523C98.4086 51.696 98.0738 52.3396 97.715 52.9832C97.452 53.4288 97.452 53.8744 97.715 54.32C98.5282 55.7558 99.3413 57.1916 100.13 58.6274C100.154 58.6769 100.154 58.7264 100.25 58.7511C100.25 58.7264 100.274 58.7016 100.274 58.6769C100.274 58.157 100.394 57.6619 100.657 57.1916C101.374 55.9043 102.092 54.6171 102.809 53.305C102.881 53.1565 102.905 53.1565 103.048 53.2555C103.407 53.4536 103.742 53.6764 104.1 53.8744C104.124 53.9487 104.196 54.0477 104.292 53.9487ZM114.48 44.8388C114.384 44.7646 114.336 44.8636 114.264 44.8883C113.93 45.0864 113.619 45.2844 113.284 45.4825C113.236 45.5072 113.188 45.5567 113.116 45.5567C113.069 45.4825 113.021 45.4082 112.997 45.3587C112.638 44.7398 112.279 44.0962 111.945 43.4773C111.682 43.007 111.299 42.7842 110.773 42.7842C109.147 42.7842 107.544 42.7842 105.918 42.7842C105.87 42.7842 105.822 42.7594 105.751 42.8337C106.301 43.106 106.683 43.5516 106.97 44.0962C107.209 44.5665 107.472 45.0121 107.736 45.4577C108.19 46.2499 108.62 47.0668 109.075 47.8589C109.147 47.958 109.123 48.0322 109.027 48.0817C108.764 48.2303 108.477 48.4036 108.214 48.5521C108.094 48.6264 107.951 48.7006 107.831 48.7749C107.879 48.8491 107.903 48.8244 107.951 48.8244C109.338 48.8491 110.749 48.8491 112.136 48.8987C112.279 48.8987 112.351 48.8491 112.399 48.7254C112.973 47.6609 113.547 46.5964 114.121 45.532C114.24 45.2597 114.336 45.0369 114.48 44.8388C114.456 44.8388 114.48 44.7893 114.456 44.8141C114.48 44.8141 114.48 44.8141 114.48 44.8388ZM104.268 56.1766C103.503 56.1766 102.737 56.1766 101.972 56.1766C101.852 56.1766 101.781 56.2014 101.709 56.3252C101.518 56.6965 101.302 57.0678 101.111 57.4391C100.92 57.7857 100.824 58.157 100.776 58.5284C100.657 59.8156 101.637 60.9296 102.905 60.9543C104.124 60.9791 105.344 60.9543 106.564 60.9543C106.755 60.9543 106.755 60.9543 106.755 60.7563C106.755 59.2958 106.755 57.8352 106.755 56.3747C106.755 56.1766 106.755 56.1766 106.54 56.1766C105.774 56.1766 105.009 56.1766 104.268 56.1766ZM104.722 49.8889C104.77 49.8146 104.818 49.7403 104.866 49.6661C105.583 48.3788 106.301 47.0915 107.042 45.8043C107.185 45.5567 107.209 45.3587 107.018 45.1359C106.946 45.0369 106.898 44.9131 106.827 44.8141C106.635 44.4923 106.468 44.1705 106.253 43.8734C105.368 42.6356 103.383 42.6356 102.594 44.1209C102.02 45.1854 101.398 46.2499 100.824 47.3143C100.728 47.4629 100.681 47.4629 100.896 47.6114C101.948 48.2303 103 48.8739 104.029 49.4928C104.268 49.6166 104.507 49.7403 104.722 49.8889ZM110.964 51.2751C111.131 51.597 111.299 51.894 111.466 52.1911C112.088 53.305 112.71 54.419 113.332 55.533C113.38 55.632 113.427 55.7063 113.571 55.7063C114.049 55.7063 114.527 55.7063 115.03 55.7063C115.412 55.6815 115.795 55.5825 116.13 55.3597C117.158 54.6666 117.469 53.3793 116.847 52.2901C116.512 51.696 116.178 51.1019 115.843 50.5077C115.58 50.0374 115.317 49.567 115.054 49.0719C114.958 48.9234 114.958 48.9234 114.814 48.9977C114.791 48.9977 114.767 49.0224 114.743 49.0224C113.547 49.7403 112.351 50.4335 111.155 51.1514C111.108 51.1761 111.036 51.2256 110.964 51.2751Z" fill="#2269D8"/>
<path d="M105.176 82.9614C105.463 82.9614 105.774 82.9614 106.061 82.9614C106.109 82.9614 106.181 82.9614 106.205 83.0109C105.846 83.0109 105.511 83.0109 105.152 83.0109C105.176 82.9862 105.176 82.9614 105.176 82.9614Z" fill="#32A23E"/>
<path d="M137.797 40.5811C137.821 40.5811 137.821 40.5811 137.845 40.5811C137.845 40.7048 137.845 40.8038 137.845 40.9276C137.821 40.9276 137.821 40.9276 137.797 40.9276C137.797 40.8038 137.797 40.7048 137.797 40.5811Z" fill="#C9E6CD"/>
<path d="M114.479 44.8388C114.336 45.0368 114.24 45.2843 114.12 45.5071C113.546 46.5716 112.972 47.6361 112.398 48.7005C112.327 48.8243 112.279 48.8738 112.135 48.8738C110.748 48.8491 109.337 48.8243 107.95 48.7996C107.926 48.7996 107.878 48.8243 107.831 48.75C107.95 48.6758 108.094 48.6015 108.213 48.5272C108.476 48.3787 108.739 48.2054 109.026 48.0569C109.146 47.9826 109.146 47.9331 109.074 47.8341C108.62 47.0419 108.189 46.225 107.735 45.4329C107.472 44.9873 107.233 44.5169 106.97 44.0713C106.683 43.5267 106.3 43.1059 105.75 42.8088C105.798 42.7346 105.87 42.7593 105.917 42.7593C107.544 42.7593 109.146 42.7593 110.772 42.7593C111.298 42.7593 111.681 42.9821 111.944 43.4525C112.279 44.0961 112.662 44.715 112.996 45.3339C113.044 45.4081 113.068 45.4824 113.116 45.5319C113.188 45.5566 113.235 45.4824 113.283 45.4576C113.618 45.2596 113.929 45.0615 114.264 44.8635C114.336 44.8388 114.407 44.7645 114.479 44.8388Z" fill="#FDFEFD"/>
<path d="M104.29 53.9486C104.194 54.0229 104.147 53.9486 104.075 53.8991C103.716 53.7011 103.381 53.4783 103.023 53.2803C102.879 53.1812 102.879 53.206 102.783 53.3298C102.066 54.617 101.325 55.9043 100.631 57.2163C100.392 57.6619 100.248 58.157 100.248 58.7016C100.248 58.7264 100.248 58.7511 100.225 58.7759C100.153 58.7759 100.153 58.7016 100.105 58.6521C99.2918 57.2163 98.5026 55.7805 97.6895 54.3447C97.4264 53.8991 97.4264 53.4535 97.6895 53.0079C98.0482 52.3643 98.4069 51.7207 98.7418 51.0771C98.7896 51.0028 98.8135 50.9285 98.8853 50.8295C98.4548 50.5572 98.0004 50.3097 97.5699 50.0373C97.6177 49.9631 97.6656 49.9878 97.7134 49.9878C99.1005 49.9631 100.488 49.9383 101.875 49.9136C102.018 49.9136 102.09 49.9631 102.162 50.0869C102.807 51.3246 103.477 52.5376 104.123 53.7754C104.171 53.8249 104.194 53.9239 104.29 53.9486Z" fill="#FDFEFD"/>
<path d="M116.343 55.7804C116.391 55.8794 116.319 55.9289 116.271 56.0032C115.602 57.2162 114.932 58.4292 114.263 59.6174C114.119 59.865 113.999 60.1125 113.856 60.3353C113.617 60.7561 113.258 60.9542 112.804 60.9542C112.062 60.9542 111.321 60.9542 110.58 60.9542C110.364 60.9542 110.364 60.9542 110.364 61.177C110.364 61.6226 110.364 62.0681 110.364 62.5385C110.293 62.5137 110.269 62.4642 110.245 62.4147C109.527 61.177 108.834 59.964 108.116 58.7262C108.045 58.6272 108.045 58.5282 108.116 58.4044C108.834 57.1667 109.575 55.9042 110.293 54.6664C110.317 54.6416 110.34 54.6169 110.364 54.5674C110.412 54.6416 110.388 54.6912 110.388 54.7654C110.388 55.1863 110.388 55.6071 110.388 56.0279C110.388 56.2012 110.388 56.2012 110.556 56.2012C112.038 56.2012 113.497 56.2012 114.98 56.2012C115.458 56.2012 115.913 56.0279 116.343 55.7804Z" fill="#FEFEFE"/>
<path d="M104.267 56.1763C105.032 56.1763 105.798 56.1763 106.539 56.1763C106.754 56.1763 106.754 56.1763 106.754 56.3743C106.754 57.8349 106.754 59.2954 106.754 60.7559C106.754 60.954 106.754 60.954 106.563 60.954C105.343 60.954 104.124 60.954 102.904 60.954C101.636 60.9292 100.656 59.8153 100.776 58.528C100.799 58.1319 100.919 57.7853 101.11 57.4388C101.302 57.0675 101.517 56.6961 101.708 56.3248C101.78 56.201 101.852 56.1763 101.971 56.1763C102.713 56.1763 103.502 56.1763 104.267 56.1763Z" fill="#FEFFFE"/>
<path d="M104.721 49.8891C104.482 49.7405 104.266 49.6168 104.051 49.493C102.999 48.8741 101.971 48.2305 100.918 47.6116C100.703 47.4878 100.751 47.4631 100.847 47.3145C101.444 46.2501 102.066 45.2104 102.616 44.1212C103.405 42.6359 105.39 42.6359 106.275 43.8736C106.491 44.1707 106.658 44.4925 106.849 44.8143C106.921 44.9133 106.969 45.0371 107.041 45.1361C107.232 45.3589 107.208 45.5569 107.064 45.8045C106.323 47.0918 105.606 48.379 104.888 49.6663C104.816 49.7158 104.769 49.79 104.721 49.8891Z" fill="#FEFEFE"/>
<path d="M110.965 51.2755C111.061 51.226 111.108 51.1764 111.18 51.1517C112.376 50.4338 113.572 49.7407 114.767 49.0228C114.791 49.0228 114.815 48.998 114.839 48.998C114.983 48.9237 114.983 48.9237 115.078 49.0723C115.341 49.5426 115.604 50.013 115.867 50.5081C116.202 51.1022 116.537 51.6963 116.872 52.2904C117.47 53.3796 117.159 54.6669 116.154 55.36C115.82 55.5828 115.437 55.6819 115.054 55.7066C114.576 55.7314 114.098 55.7066 113.596 55.7066C113.452 55.7066 113.428 55.6323 113.356 55.5333C112.735 54.4193 112.113 53.3054 111.491 52.1914C111.3 51.8943 111.132 51.5973 110.965 51.2755Z" fill="#FEFEFE"/>
<path d="M114.481 44.8388L114.457 44.8141C114.481 44.7893 114.481 44.8388 114.481 44.8388Z" fill="#FDFEFD"/>
<path d="M104.29 53.9487C104.29 53.9487 104.267 53.9735 104.243 53.9735H104.219C104.243 53.9487 104.267 53.9487 104.29 53.9487Z" fill="#FDFEFD"/>
<path d="M116.344 55.7811C116.344 55.7563 116.368 55.7563 116.368 55.7563V55.7811C116.368 55.8059 116.344 55.8059 116.344 55.7811Z" fill="#FEFEFE"/>
</svg>
