<svg width="229" height="229" viewBox="0 0 229 229" fill="none" xmlns="http://www.w3.org/2000/svg">
<path d="M228.248 114.232C228.248 144.736 228.248 175.194 228.248 205.699C228.248 208.092 228.155 210.486 227.545 212.832C225.104 222.078 216.611 228.085 208.68 228.366C207.319 228.413 205.959 228.46 204.645 228.46C144.298 228.46 83.9507 228.46 23.5569 228.46C22.0552 228.46 20.5536 228.413 19.052 228.319C9.57291 227.709 0.79772 219.497 0.0938293 209.219C-2.29145e-05 207.858 0 206.497 0 205.183C0 144.689 0 84.1492 0 23.6559C0 22.295 0.0469032 20.934 0.0938293 19.6199C0.56309 10.0461 8.77517 0.706959 20.2251 0.237655C21.4452 0.190724 22.6183 0.237655 23.8384 0.237655C84.0446 0.237655 144.251 0.237655 204.457 0.237655C205.489 0.237655 206.569 0.237655 207.601 0.237655C218.957 0.472307 228.155 9.85839 228.248 21.0748C228.248 22.295 228.248 23.4682 228.248 24.6884C228.248 54.4892 228.248 84.3839 228.248 114.232ZM114.218 137.932C86.7663 137.932 59.3145 137.932 31.8158 137.932C30.3142 137.932 28.8126 137.932 27.311 137.978C22.3837 138.025 16.2364 142.249 15.6733 149.617C15.5794 150.65 15.6264 151.729 15.6264 152.762C15.6264 167.451 15.6264 182.187 15.6264 196.876C15.6264 197.909 15.5794 198.988 15.6733 200.02C16.0487 205.324 19.8028 209.829 24.6831 211.19C26.6071 211.706 28.5311 211.753 30.502 211.753C86.1563 211.753 141.857 211.753 197.512 211.753C198.544 211.753 199.624 211.8 200.656 211.706C207.695 211.096 211.684 206.074 212.341 201.1C212.528 199.786 212.575 198.425 212.622 197.064C212.669 191.667 212.622 186.27 212.622 180.873C212.622 171.44 212.622 161.96 212.622 152.527C212.622 150.697 212.528 148.913 212.059 147.177C210.604 141.451 205.302 138.119 201.031 138.025C199.53 137.978 198.028 137.978 196.526 137.978C169.122 137.932 141.67 137.932 114.218 137.932ZM107.038 68.099C106.334 67.442 106.241 66.5503 106.053 65.7056C105.255 62.5143 104.598 59.2761 103.847 56.0849C102.674 50.9694 101.454 45.854 100.234 40.7855C100.14 40.3632 99.9994 40.2224 99.671 40.4101C99.5302 40.457 99.3425 40.504 99.2956 40.6447C98.7325 41.7241 98.1693 42.7566 97.7001 43.836C96.1046 47.4027 94.5091 50.9694 92.9136 54.5362C92.5852 55.287 91.8812 55.7094 91.1304 55.7094C87.8456 55.7563 84.5139 55.7563 81.229 55.7563C77.6627 55.8033 77.3811 55.6156 77.7565 51.9081C78.2258 47.1211 80.6659 43.4606 84.6546 40.8794C86.954 39.4246 89.488 38.5329 92.1628 38.0166C96.6208 37.1719 101.079 37.0311 105.584 37.6412C107.367 37.8759 109.15 37.9697 110.933 38.1574C111.027 38.1574 111.168 38.0166 111.262 37.9228C111.356 37.782 111.402 37.5943 111.356 37.5004C109.666 35.0131 107.648 32.8074 105.49 30.6955C102.815 28.0674 99.8587 25.7678 96.5269 23.9375C92.679 21.7787 88.5495 20.4647 84.1384 20.23C78.2727 19.9015 72.7823 21.4971 67.9958 24.8292C58.2821 31.5872 53.6834 41.0671 53.5426 52.8467C54.1527 61.7634 57.2967 69.46 64.1479 75.4202C67.902 78.6584 71.8908 81.615 76.0202 84.337C79.6336 86.7304 83.2938 89.1239 86.954 91.4704C97.4185 98.2284 105.49 107.051 110.98 118.315C111.168 118.737 111.356 119.112 111.637 119.488C111.778 119.676 112.059 119.863 112.341 119.957C112.623 120.051 112.81 119.769 112.81 119.394C112.904 117.47 113.139 115.499 113.139 113.575C113.139 110.712 112.998 107.896 112.388 105.08C111.168 99.5424 108.681 94.6617 105.161 90.2502C102.721 87.1997 99.9525 84.4308 97.0431 81.8027C94.6029 79.597 92.069 77.4851 89.6757 75.1855C87.5171 73.1206 85.4054 70.9618 83.3876 68.7561C81.4637 66.6442 80.0089 64.1569 78.9766 61.4818C78.8358 61.0595 78.742 60.6371 78.6012 60.1678C78.4135 59.5577 78.8358 58.8538 79.3989 58.8538C80.1497 58.8068 80.9006 58.7599 81.6514 58.7599C84.9362 58.7599 88.2679 58.666 91.5528 58.8068C93.4767 58.9007 94.6499 58.3375 95.3538 56.4603C96.0107 54.63 96.9023 52.8936 97.7001 51.1102C97.8878 50.7348 98.1693 50.3593 98.4978 50.0308C98.5917 49.937 98.7794 49.89 98.9201 49.89C99.014 49.89 99.2017 49.9839 99.2017 50.0778C99.4832 50.9225 99.8118 51.7673 99.9995 52.6589C101.923 60.9656 103.847 69.3192 105.724 77.6259C105.771 77.9075 105.865 78.236 105.912 78.5176C106.053 79.0808 106.569 79.597 106.757 79.4093C106.945 79.2215 107.226 79.0338 107.273 78.7992C109.15 72.6513 110.98 66.4565 112.857 60.3086C113.045 59.7454 113.233 59.1823 113.514 58.666C113.655 58.4314 113.983 58.3375 114.218 58.1967C114.312 58.3375 114.406 58.4314 114.453 58.5722C114.875 60.027 115.25 61.4349 115.673 62.8898C116.283 65.0486 116.94 67.2074 117.55 69.3662C117.597 69.46 117.738 69.5539 117.831 69.507C117.972 69.507 118.16 69.4131 118.207 69.3192C119.708 66.8789 120.694 64.2038 121.914 61.6696C123.885 57.4928 123.181 58.1029 127.545 58.1029C133.552 58.0559 139.558 58.1029 145.565 58.1029C146.315 58.1029 147.066 58.009 147.77 57.8682C148.005 57.8213 148.193 57.4928 148.286 57.2112C148.615 56.2726 148.005 55.287 147.019 55.287C139.089 55.287 131.111 55.287 123.181 55.2401C121.961 55.2401 121.304 55.8971 120.835 56.9296C120.225 58.1498 119.943 59.5108 118.958 60.4494C118.864 60.5432 118.723 60.684 118.582 60.684C118.488 60.684 118.348 60.4963 118.301 60.4025C117.925 59.4169 117.597 58.4314 117.268 57.4458C116.236 54.0199 115.579 50.4532 114.312 47.0742C113.373 47.872 113.186 48.9045 112.857 49.89C111.356 54.9116 109.807 59.9331 108.305 64.9547C108.071 65.9872 107.836 67.1604 107.038 68.099ZM125.715 36.7026C127.967 36.7026 129.328 36.6557 130.642 36.7026C132.285 36.7965 133.927 36.9372 135.569 37.2188C137.775 37.5943 139.934 38.2982 141.951 39.2838C148.943 42.7566 151.196 49.2799 150.539 55.2401C150.21 58.3844 149.178 61.388 147.536 64.11C146.269 66.1749 144.861 68.099 143.171 69.8355C141.388 71.6657 139.558 73.4491 137.681 75.1855C135.241 77.4382 132.754 79.597 130.314 81.8027C127.404 84.4308 124.729 87.2467 122.336 90.3441C117.221 97.0551 114.875 104.658 114.922 113.011C114.922 114.983 115.11 116.907 115.626 118.784C115.673 118.925 115.767 119.065 115.86 119.159C116.095 119.019 116.424 118.972 116.564 118.737C117.221 117.564 117.831 116.344 118.488 115.17C123.181 106.441 129.469 99.0731 137.587 93.3007C140.027 91.5642 142.561 89.9217 145.049 88.2322C148.193 86.1673 151.337 84.1492 154.434 82.0374C157.906 79.6908 161.238 77.1097 164.429 74.3408C165.884 73.0737 167.291 71.6657 168.418 70.0701C172.266 64.6731 174.518 58.713 174.612 52.0488C174.753 40.7386 170.342 31.5402 161.332 24.8292C153.261 18.8221 144.298 17.8835 134.912 21.6379C132.097 22.7643 129.563 24.313 127.17 26.1432C123.416 28.9591 120.225 32.3381 117.409 36.0456C117.221 36.2802 117.127 36.5618 117.034 36.8434C116.987 36.9842 117.034 37.1719 117.081 37.2658C117.128 37.3596 117.268 37.5004 117.362 37.4535C120.318 37.3127 123.462 36.9372 125.715 36.7026Z" fill="#0F833A"/>
<path d="M114.22 137.931C141.672 137.931 169.124 137.931 196.623 137.931C198.124 137.931 199.626 137.931 201.128 137.978C205.351 138.072 210.654 141.404 212.155 147.13C212.624 148.913 212.718 150.697 212.718 152.48C212.718 161.913 212.718 171.393 212.718 180.826C212.718 186.223 212.718 191.62 212.718 197.017C212.718 198.378 212.624 199.692 212.437 201.053C211.78 206.027 207.744 211.049 200.752 211.659C199.72 211.753 198.641 211.706 197.608 211.706C141.954 211.706 86.2525 211.706 30.5982 211.706C28.6273 211.706 26.7033 211.659 24.7794 211.143C19.8521 209.782 16.145 205.277 15.7696 199.973C15.6757 198.941 15.7227 197.862 15.7227 196.829C15.7227 182.14 15.7227 167.404 15.7227 152.715C15.7227 151.682 15.6757 150.603 15.7696 149.57C16.3327 142.202 22.48 137.978 27.4072 137.931C28.9089 137.931 30.4105 137.885 31.9122 137.885C59.2701 137.931 86.7218 137.931 114.22 137.931ZM84.0939 157.877V157.924C82.7331 157.924 81.4192 157.924 80.0583 157.924C79.4952 157.924 79.0259 158.487 78.979 159.144C78.9321 159.754 78.979 160.317 79.0259 160.927C79.0728 161.491 79.589 162.007 80.1991 162.101C81.0907 162.194 81.9823 162.288 82.8739 162.429C83.2024 162.476 83.3901 163.227 83.1554 163.509C82.8739 163.837 82.6392 164.259 82.2638 164.494C80.1052 165.808 77.4773 165.527 75.5065 164.119C72.1747 161.631 72.0809 155.436 76.5858 153.184C78.322 152.292 80.0583 152.245 81.7476 153.184C82.6392 153.7 83.437 154.404 84.2347 155.061C84.704 155.436 85.1263 155.249 85.4548 154.967C86.0179 154.498 86.581 153.982 87.0972 153.418C87.5196 152.949 87.4726 152.386 87.0972 151.823C84.1878 147.552 78.6036 147.036 75.0372 148.585C70.9546 150.321 68.5614 153.465 68.186 157.877C67.8106 162.382 69.4999 166.137 73.3948 168.624C78.1812 171.674 85.6425 170.126 88.2704 164.166C88.9273 162.617 89.2089 161.021 89.115 159.332C89.0681 158.487 88.5519 157.877 87.7542 157.83C86.4872 157.877 85.2671 157.877 84.0939 157.877ZM91.6959 159.003C91.8367 165.902 96.3886 170.173 102.724 170.126C109.669 170.032 113.704 164.87 113.61 158.862C113.517 151.635 107.651 147.74 102.348 147.928C96.3417 148.068 91.649 152.855 91.6959 159.003ZM138.434 159.238C138.716 151.964 132.85 147.975 127.641 147.881C122.433 147.787 116.567 152.011 116.614 159.05C116.661 164.306 119.945 169.891 127.266 170.079C133.883 170.313 138.575 165.339 138.434 159.238ZM142.141 159.191C142.141 161.162 142.141 163.086 142.141 165.057C142.141 166.277 142.142 167.451 142.235 168.671C142.282 169.046 142.517 169.563 143.033 169.609C146.036 169.938 149.04 169.985 151.996 169.563C154.436 169.234 156.454 167.92 158.003 165.902C159.035 164.588 159.739 163.086 159.88 161.397C159.973 160.223 160.02 159.003 160.02 157.83C159.88 153.278 156.829 148.725 150.588 148.209C148.195 148.021 145.802 148.162 143.409 148.209C142.845 148.209 142.329 148.772 142.282 149.382C142.235 150.133 142.188 150.884 142.141 151.635C142.141 154.122 142.141 156.657 142.141 159.191ZM60.5371 186.504C60.5371 189.649 60.4902 192.793 60.5371 195.937C60.5371 196.829 61.0532 197.345 61.8979 197.392C64.8073 197.58 65.1358 197.298 65.1827 194.67C65.1827 194.06 65.1827 193.45 65.1827 192.887C65.1827 188.476 65.1358 188.757 69.4061 188.757C70.1569 188.757 70.9077 188.851 71.6585 188.898C72.1747 188.945 72.4563 189.414 72.5032 189.79C72.644 190.822 72.644 191.901 72.6909 192.934C72.7378 194.107 72.7848 195.327 72.8786 196.501C72.8786 196.735 73.1601 197.064 73.3948 197.158C74.5679 197.627 75.7411 197.533 76.9142 197.158C77.1489 197.064 77.3366 196.735 77.4305 196.454C77.5243 196.031 77.5712 195.562 77.5712 195.14C77.5712 189.414 77.5712 183.736 77.5712 178.01C77.5712 177.588 77.5712 177.071 77.3835 176.696C77.1958 176.321 76.8204 175.945 76.445 175.851C75.7411 175.71 74.9434 175.71 74.1926 175.757C73.3479 175.757 72.7379 176.321 72.7379 177.118C72.6909 178.761 72.6909 180.403 72.644 182.046C72.597 183.454 72.1747 183.923 70.7669 183.923C69.5469 183.923 68.3737 183.923 67.1536 183.923C65.652 183.876 65.2296 183.501 65.1827 182.14C65.1358 180.497 65.1358 178.855 65.1358 177.165C65.1358 176.274 64.6666 175.757 63.8219 175.71C63.2119 175.663 62.6018 175.664 62.0387 175.664C61.194 175.664 60.584 176.18 60.584 176.978C60.5371 180.216 60.5371 183.36 60.5371 186.504ZM150.823 186.458C150.776 189.602 150.776 192.746 150.823 195.891C150.823 196.782 151.339 197.298 152.184 197.345C155.093 197.533 155.375 197.298 155.422 194.576C155.422 193.966 155.422 193.356 155.422 192.793C155.375 188.429 155.375 188.616 159.645 188.663C160.537 188.663 161.428 188.757 162.32 188.898C162.554 188.945 162.883 189.273 162.93 189.508C163.071 190.4 163.117 191.291 163.164 192.183C163.258 193.685 163.258 195.187 163.399 196.641C163.399 196.876 163.774 197.252 163.962 197.252C164.994 197.298 166.027 197.251 167.059 197.158C167.294 197.158 167.529 196.782 167.622 196.501C167.763 196.078 167.763 195.609 167.763 195.187C167.763 189.461 167.763 183.782 167.763 178.057C167.763 177.588 167.763 177.165 167.669 176.696C167.622 176.414 167.388 176.039 167.153 175.992C165.98 175.664 164.807 175.476 163.681 176.039C163.54 176.086 163.399 176.227 163.399 176.367C163.305 176.79 163.164 177.212 163.164 177.682C163.117 179.324 163.117 180.967 163.071 182.609C163.071 183.219 162.554 183.876 162.038 183.876C160.114 183.876 158.143 183.876 156.219 183.782C155.985 183.782 155.656 183.454 155.609 183.219C155.469 182.468 155.469 181.718 155.422 181.014C155.375 179.512 155.328 178.01 155.234 176.508C155.234 176.274 154.859 175.945 154.624 175.898C153.732 175.804 152.841 175.804 151.949 175.851C151.339 175.851 150.823 176.414 150.823 177.024C150.823 180.169 150.823 183.313 150.823 186.458ZM116.426 197.392C115.957 197.439 116.285 197.392 116.567 197.392C117.13 197.345 117.552 196.641 117.411 196.125C117.365 195.984 117.365 195.844 117.318 195.703C114.784 189.461 112.203 183.266 109.669 177.024C109.152 175.804 108.167 175.757 107.088 175.757C106.102 175.757 105.305 176.039 104.929 177.024C102.489 183.125 100.049 189.226 97.6087 195.327C97.4679 195.75 97.4679 196.219 97.374 196.641C97.3271 197.017 97.4679 197.205 97.8433 197.298C98.1249 197.345 98.4064 197.486 98.6879 197.486C100.987 197.58 101.644 197.533 102.395 195.233C102.864 193.826 103.662 193.028 105.351 193.169C106.994 193.309 108.636 193.215 110.279 193.262C110.889 193.262 111.452 193.544 111.733 194.154C112.109 194.952 112.484 195.797 112.86 196.594C113.141 197.205 113.657 197.439 114.267 197.486C114.784 197.439 115.253 197.392 116.426 197.392ZM82.0292 186.411C81.9823 186.411 81.9823 186.411 81.9354 186.411C81.9354 189.273 81.9354 192.089 81.9354 194.952C81.9354 195.562 82.0292 196.125 82.2169 196.688C82.2638 196.923 82.5923 197.111 82.827 197.298C82.9208 197.392 83.1085 197.392 83.2493 197.392C86.3933 197.392 89.5374 197.439 92.6814 197.392C93.4792 197.392 94.0423 196.782 94.0423 195.984C94.0423 195.233 93.9954 194.483 93.9015 193.779C93.8546 193.544 93.5261 193.215 93.2914 193.215C92.3998 193.122 91.5083 193.075 90.6167 193.028C89.5843 192.981 88.5519 192.981 87.4726 192.887C87.238 192.887 86.9095 192.558 86.8626 192.324C86.7687 191.573 86.7218 190.822 86.7218 190.118C86.7218 189.273 87.2849 188.757 88.1296 188.71C89.772 188.663 91.4144 188.663 93.0568 188.569C93.4791 188.569 93.9484 188.241 93.9484 187.772C93.9953 186.88 93.9484 185.988 93.8546 185.143C93.8077 184.909 93.5261 184.627 93.2445 184.58C92.8222 184.439 92.3998 184.393 91.9306 184.346C90.5697 184.299 89.2558 184.299 87.895 184.252C87.2849 184.252 86.7687 183.736 86.7218 183.172C86.6749 182.703 86.6749 182.281 86.6749 181.811C86.7218 180.826 87.0972 180.357 87.9419 180.31C89.3027 180.263 90.6167 180.263 91.9775 180.216C92.3999 180.216 92.8691 180.122 93.2445 179.981C93.4792 179.887 93.7607 179.606 93.8076 179.371C93.9015 178.667 93.9484 177.916 93.9484 177.165C93.9484 176.508 93.4792 175.945 92.9161 175.945C89.6312 175.945 86.3464 175.945 83.0616 175.945C82.4985 175.945 81.9823 176.555 81.9823 177.118C82.0292 180.122 82.0292 183.266 82.0292 186.411ZM126.891 197.345C126.891 197.392 126.891 197.439 126.891 197.486C128.392 197.439 129.894 197.439 131.395 197.252C131.724 197.205 132.146 196.735 132.24 196.36C132.381 195.656 132.381 194.858 132.381 194.154C132.381 193.309 131.818 192.699 131.02 192.652C129.8 192.605 128.627 192.558 127.407 192.512C126.656 192.465 126.093 191.808 126.046 191.01C125.999 190.259 125.952 189.508 125.952 188.757C125.952 185.472 125.952 182.14 125.952 178.855C125.952 178.104 125.858 177.353 125.764 176.649C125.717 176.133 125.201 175.851 124.826 175.804C123.934 175.757 123.043 175.804 122.151 175.898C121.635 175.945 121.353 176.414 121.306 176.79C121.166 177.541 121.212 178.292 121.212 179.042C121.212 184.017 121.212 188.945 121.212 193.919C121.212 194.67 121.259 195.421 121.306 196.172C121.353 196.735 121.916 197.345 122.433 197.345C123.887 197.345 125.389 197.345 126.891 197.345ZM140.499 175.71C138.857 175.71 137.214 175.71 135.572 175.71C135.149 175.71 134.68 175.757 134.258 175.804C133.742 175.851 133.179 176.414 133.179 177.024C133.132 177.635 133.132 178.198 133.132 178.808C133.179 179.7 133.695 180.263 134.446 180.357C135.337 180.45 136.229 180.497 137.12 180.544C137.684 180.591 137.918 181.014 137.965 181.436C138.106 182.187 138.059 182.938 138.059 183.689C138.059 187.255 138.059 190.869 138.059 194.436C138.059 195.187 138.106 195.937 138.247 196.641C138.294 196.876 138.622 197.251 138.81 197.298C139.842 197.392 140.874 197.392 141.907 197.345C142.141 197.345 142.423 197.017 142.517 196.735C142.658 196.172 142.752 195.562 142.752 194.999C142.752 191.714 142.752 188.429 142.752 185.143C142.752 183.97 142.752 182.75 142.845 181.577C142.892 181.154 143.127 180.685 143.643 180.638C144.676 180.544 145.708 180.45 146.74 180.357C147.256 180.31 147.491 179.887 147.632 179.465C147.726 179.183 147.726 178.902 147.773 178.573C147.866 176.274 147.491 175.804 145.426 175.804C143.784 175.71 142.141 175.71 140.499 175.71Z" fill="#FEFEFE"/>
<path d="M107.039 68.0991C107.836 67.1136 108.071 65.9403 108.399 64.814C109.901 59.7924 111.403 54.7709 112.951 49.7493C113.233 48.7638 113.421 47.6844 114.406 46.9335C115.673 50.3594 116.33 53.8792 117.362 57.3051C117.691 58.2907 118.019 59.2762 118.395 60.2617C118.442 60.4025 118.582 60.5433 118.676 60.5433C118.817 60.5433 118.958 60.4025 119.052 60.3087C120.084 59.3231 120.366 57.9622 120.929 56.7889C121.445 55.7564 122.055 55.0994 123.275 55.0994C131.206 55.1463 139.183 55.1463 147.114 55.1463C148.052 55.1463 148.662 56.0849 148.38 57.0705C148.287 57.3051 148.052 57.6806 147.864 57.7275C147.16 57.8683 146.41 57.9622 145.659 57.9622C139.652 57.9622 133.646 57.9622 127.639 57.9622C123.275 58.0091 123.979 57.3521 122.008 61.5289C120.788 64.11 119.803 66.7851 118.301 69.1785C118.254 69.2724 118.066 69.3662 117.925 69.3662C117.832 69.3662 117.644 69.2724 117.644 69.2254C116.987 67.0666 116.377 64.9079 115.767 62.7491C115.345 61.2942 114.969 59.8863 114.547 58.4315C114.5 58.2907 114.406 58.1968 114.312 58.056C114.078 58.1968 113.702 58.2907 113.608 58.5253C113.327 59.0415 113.092 59.6047 112.951 60.1679C111.074 66.3158 109.244 72.5106 107.367 78.6585C107.32 78.8931 107.039 79.0808 106.851 79.2686C106.663 79.4563 106.1 78.94 106.006 78.3769C105.959 78.0953 105.865 77.7668 105.819 77.4852C103.895 69.1785 102.018 60.8249 100.094 52.5182C99.9058 51.6265 99.5774 50.7818 99.2958 49.937C99.2489 49.8432 99.1081 49.7493 99.0143 49.7493C98.8735 49.7493 98.6858 49.7963 98.5919 49.8901C98.3104 50.2186 97.9819 50.5471 97.7942 50.9695C96.9964 52.7529 96.1048 54.4893 95.4478 56.3196C94.7909 58.1968 93.5708 58.713 91.6468 58.6661C88.362 58.5253 85.0303 58.6192 81.7455 58.6192C80.9946 58.6192 80.2438 58.6661 79.493 58.713C78.9299 58.76 78.5545 59.417 78.6953 60.0271C78.7891 60.4495 78.883 60.9188 79.0707 61.3411C80.1031 64.0162 81.6047 66.4566 83.4817 68.6154C85.4995 70.868 87.5643 72.9799 89.7698 75.0448C92.163 77.2975 94.6971 79.4563 97.1372 81.662C100.047 84.2901 102.815 87.0121 105.255 90.1095C108.728 94.5209 111.262 99.4017 112.482 104.939C113.092 107.755 113.233 110.571 113.233 113.434C113.233 115.358 112.998 117.329 112.904 119.253C112.904 119.629 112.717 119.863 112.435 119.816C112.2 119.77 111.919 119.582 111.731 119.347C111.45 118.972 111.262 118.596 111.074 118.174C105.631 106.957 97.5126 98.0877 87.0481 91.3297C83.3879 88.9832 79.7746 86.5897 76.1143 84.1963C71.9848 81.4743 67.9961 78.5177 64.242 75.2795C57.3908 69.3193 54.2468 61.6227 53.6367 52.7059C53.7775 40.9733 58.3763 31.4934 68.09 24.6885C72.9234 21.3564 78.3668 19.7608 84.2326 20.0893C88.6436 20.324 92.7731 21.638 96.621 23.7968C99.9058 25.6271 102.862 27.9267 105.584 30.5548C107.743 32.6667 109.713 34.9193 111.45 37.3597C111.497 37.4536 111.403 37.6413 111.356 37.7821C111.309 37.8759 111.121 38.0167 111.027 38.0167C109.244 37.8759 107.461 37.7821 105.678 37.5005C101.173 36.8904 96.7149 36.9843 92.2569 37.8759C89.5821 38.3922 87.0481 39.2838 84.7487 40.7387C80.7131 43.3199 78.3198 46.9804 77.8506 51.7673C77.4752 55.4748 77.7567 55.6626 81.3231 55.6156C84.6079 55.6156 87.9397 55.6156 91.2245 55.5687C91.9753 55.5687 92.6323 55.1463 93.0077 54.3954C94.6032 50.8287 96.1517 47.262 97.7942 43.6953C98.2634 42.6159 98.8735 41.5365 99.3896 40.504C99.4366 40.4102 99.6243 40.3632 99.7651 40.2694C100.094 40.0817 100.234 40.2225 100.328 40.6448C101.548 45.7602 102.768 50.8757 103.942 55.9441C104.692 59.1354 105.349 62.3736 106.147 65.5649C106.288 66.5504 106.335 67.489 107.039 68.0991Z" fill="#FEFEFE"/>
<path d="M125.716 36.7026C123.463 36.9373 120.319 37.2658 117.222 37.5943C117.128 37.5943 116.987 37.5004 116.941 37.4066C116.894 37.2658 116.847 37.0781 116.894 36.9842C116.987 36.7026 117.128 36.421 117.269 36.1864C120.085 32.432 123.322 29.0999 127.03 26.2841C129.423 24.4538 132.004 22.9051 134.772 21.7788C144.158 18.0243 153.121 18.9629 161.192 24.97C170.202 31.6811 174.613 40.9264 174.472 52.1897C174.378 58.8538 172.126 64.8139 168.278 70.2109C167.151 71.8066 165.791 73.2145 164.289 74.4816C161.098 77.2505 157.813 79.8317 154.294 82.1782C151.197 84.2901 148.006 86.3081 144.908 88.373C142.421 90.0156 139.887 91.7051 137.447 93.4415C129.376 99.214 123.041 106.535 118.348 115.311C117.691 116.484 117.081 117.705 116.424 118.878C116.331 119.066 115.955 119.159 115.72 119.3C115.627 119.159 115.533 119.066 115.486 118.925C114.97 117.048 114.829 115.076 114.782 113.152C114.735 104.752 117.081 97.1959 122.196 90.4849C124.589 87.3875 127.264 84.5717 130.174 81.9436C132.614 79.7378 135.148 77.579 137.541 75.3264C139.418 73.5899 141.248 71.8066 143.031 69.9763C144.721 68.2399 146.129 66.3157 147.396 64.2508C149.085 61.5288 150.07 58.5253 150.399 55.3809C151.056 49.4208 148.803 42.8974 141.811 39.4246C139.794 38.3921 137.635 37.7351 135.429 37.3597C133.787 37.0781 132.145 36.9373 130.502 36.8434C129.282 36.6557 127.921 36.7026 125.716 36.7026Z" fill="#FEFEFE"/>
<path d="M84.0919 157.877C85.312 157.877 86.4851 157.877 87.7052 157.877C88.5029 157.877 89.0191 158.487 89.066 159.378C89.1599 161.068 88.9253 162.664 88.2214 164.212C85.5935 170.126 78.1323 171.674 73.3458 168.671C69.4509 166.183 67.7616 162.429 68.137 157.924C68.5124 153.559 70.9057 150.415 74.9882 148.631C78.5546 147.083 84.1388 147.646 87.0483 151.87C87.4237 152.433 87.5175 153.043 87.0483 153.465C86.5321 153.981 86.0159 154.545 85.4058 155.014C85.0774 155.296 84.655 155.483 84.1857 155.108C83.388 154.451 82.5903 153.747 81.6987 153.231C80.0093 152.245 78.2731 152.339 76.5368 153.231C72.0319 155.483 72.1257 161.678 75.4575 164.165C77.3815 165.62 80.0562 165.855 82.2148 164.541C82.5903 164.306 82.8249 163.884 83.1065 163.555C83.3411 163.274 83.1534 162.523 82.8249 162.476C81.9333 162.382 81.0417 162.288 80.1501 162.147C79.587 162.054 79.0239 161.537 78.9769 160.974C78.93 160.364 78.93 159.801 78.93 159.191C78.9769 158.534 79.4462 157.971 80.0093 157.971C81.3702 157.924 82.6841 157.971 84.045 157.971C84.0919 157.924 84.0919 157.924 84.0919 157.877Z" fill="#268D3E"/>
<path d="M91.6918 159.003C91.6448 152.855 96.3375 148.068 102.344 147.881C107.647 147.74 113.512 151.588 113.606 158.815C113.7 164.823 109.664 169.985 102.719 170.079C96.3844 170.173 91.8325 165.902 91.6918 159.003ZM108.538 158.815C108.444 158.158 108.444 157.548 108.351 156.985C107.928 154.733 105.957 152.808 103.846 152.527C101.03 152.104 98.9184 152.996 97.6983 155.202C96.1967 157.924 96.2436 160.693 97.9799 163.274C99.2469 165.151 101.171 165.996 103.423 165.667C105.957 165.292 107.881 163.368 108.304 161.021C108.444 160.27 108.444 159.519 108.538 158.815Z" fill="#268D3E"/>
<path d="M138.43 159.237C138.571 165.338 133.879 170.313 127.215 170.125C119.941 169.891 116.61 164.353 116.563 159.097C116.516 152.01 122.429 147.786 127.59 147.927C132.846 147.974 138.712 151.963 138.43 159.237ZM121.725 159.237C121.772 159.566 121.772 159.895 121.772 160.176C122.053 163.039 124.024 165.245 126.84 165.714C129.467 166.136 132.095 164.4 133.081 161.631C133.832 159.566 133.738 157.501 132.705 155.53C131.673 153.465 129.937 152.479 127.637 152.386C125.291 152.292 123.649 153.371 122.476 155.342C121.819 156.609 121.725 157.923 121.725 159.237Z" fill="#268D3E"/>
<path d="M142.141 159.191C142.141 156.657 142.141 154.076 142.141 151.542C142.141 150.791 142.188 150.04 142.281 149.289C142.328 148.679 142.845 148.116 143.408 148.116C145.801 148.116 148.194 147.928 150.587 148.116C156.828 148.679 159.879 153.231 160.02 157.736C160.066 158.91 159.973 160.13 159.879 161.303C159.738 162.993 159.034 164.447 158.002 165.808C156.5 167.826 154.482 169.094 151.995 169.469C149.039 169.891 146.036 169.844 143.032 169.516C142.469 169.469 142.281 168.953 142.235 168.577C142.141 167.404 142.141 166.184 142.141 164.964C142.141 163.086 142.141 161.162 142.141 159.191ZM147.115 159.05H147.068C147.068 160.411 147.068 161.772 147.068 163.086C147.068 163.556 147.115 163.978 147.162 164.447C147.209 165.058 147.772 165.621 148.335 165.527C149.508 165.386 150.728 165.292 151.854 164.917C153.028 164.541 153.872 163.697 154.482 162.57C154.998 161.632 155.186 160.599 155.233 159.567C155.468 155.437 153.403 152.292 148.616 152.433C147.678 152.48 147.115 152.856 147.115 153.653C147.115 155.437 147.115 157.267 147.115 159.05Z" fill="#268D3E"/>
<path d="M60.5353 186.505C60.5353 183.361 60.5353 180.216 60.5353 177.072C60.5353 176.274 61.1453 175.758 61.99 175.758C62.6 175.758 63.21 175.758 63.7731 175.805C64.6178 175.852 65.0871 176.368 65.0871 177.26C65.134 178.902 65.134 180.545 65.134 182.234C65.1809 183.595 65.6033 183.971 67.1049 184.018C68.325 184.018 69.4981 184.018 70.7182 184.018C72.126 184.018 72.5483 183.548 72.5952 182.14C72.6422 180.498 72.6421 178.855 72.6891 177.213C72.736 176.415 73.2991 175.852 74.1438 175.852C74.8946 175.852 75.6454 175.805 76.3962 175.946C76.7716 176.039 77.1471 176.415 77.3348 176.79C77.5225 177.166 77.5225 177.682 77.5225 178.104C77.5225 183.83 77.5225 189.508 77.5225 195.234C77.5225 195.703 77.4755 196.126 77.3817 196.548C77.3347 196.83 77.1001 197.158 76.8655 197.252C75.6923 197.674 74.5192 197.721 73.346 197.252C73.1114 197.158 72.8299 196.83 72.8299 196.595C72.736 195.422 72.6891 194.201 72.6421 193.028C72.5952 191.996 72.5952 190.916 72.4544 189.884C72.4075 189.508 72.126 189.039 71.6098 188.992C70.859 188.945 70.1081 188.851 69.3573 188.851C65.087 188.851 65.134 188.57 65.134 192.981C65.134 193.591 65.134 194.201 65.134 194.765C65.087 197.44 64.7586 197.721 61.8491 197.487C61.0045 197.44 60.4883 196.923 60.4883 196.032C60.5352 192.84 60.5353 189.649 60.5353 186.505Z" fill="#268D3E"/>
<path d="M150.82 186.458C150.82 183.314 150.82 180.169 150.82 177.025C150.82 176.415 151.337 175.899 151.947 175.852C152.838 175.852 153.73 175.852 154.621 175.899C154.856 175.899 155.184 176.274 155.231 176.509C155.325 178.01 155.325 179.512 155.419 181.014C155.466 181.765 155.466 182.516 155.607 183.22C155.654 183.454 155.982 183.783 156.217 183.783C158.141 183.83 160.112 183.877 162.036 183.877C162.552 183.877 163.068 183.267 163.068 182.61C163.115 180.967 163.115 179.324 163.162 177.682C163.162 177.26 163.303 176.79 163.397 176.368C163.443 176.227 163.584 176.086 163.678 176.039C164.804 175.476 166.024 175.711 167.151 175.992C167.385 176.039 167.573 176.415 167.667 176.696C167.761 177.119 167.761 177.588 167.761 178.057C167.761 183.783 167.761 189.461 167.761 195.187C167.761 195.656 167.714 196.079 167.62 196.501C167.526 196.736 167.291 197.111 167.057 197.158C166.024 197.252 164.992 197.299 163.96 197.252C163.772 197.252 163.397 196.876 163.397 196.642C163.256 195.14 163.256 193.638 163.162 192.183C163.115 191.292 163.068 190.4 162.927 189.508C162.88 189.274 162.552 188.945 162.317 188.898C161.426 188.757 160.534 188.664 159.642 188.664C155.372 188.617 155.419 188.429 155.419 192.794C155.419 193.404 155.419 194.014 155.419 194.577C155.372 197.252 155.044 197.533 152.181 197.346C151.383 197.299 150.82 196.736 150.82 195.891C150.773 192.794 150.773 189.602 150.82 186.458Z" fill="#0F833A"/>
<path d="M116.424 197.393C115.251 197.393 114.781 197.44 114.359 197.393C113.749 197.346 113.233 197.111 112.951 196.501C112.576 195.703 112.201 194.859 111.825 194.061C111.544 193.451 111.027 193.169 110.37 193.169C108.728 193.122 107.086 193.216 105.443 193.075C103.801 192.934 102.956 193.732 102.487 195.14C101.736 197.44 101.079 197.487 98.7797 197.393C98.4981 197.393 98.2166 197.252 97.935 197.205C97.5596 197.158 97.4188 196.924 97.4657 196.548C97.5596 196.126 97.5127 195.656 97.7004 195.234C100.141 189.133 102.581 183.032 105.021 176.931C105.396 175.946 106.194 175.664 107.179 175.664C108.259 175.664 109.244 175.711 109.76 176.931C112.294 183.173 114.828 189.368 117.409 195.609C117.456 195.75 117.456 195.891 117.503 196.032C117.691 196.595 117.222 197.299 116.659 197.299C116.283 197.44 116.002 197.44 116.424 197.393ZM107.133 189.18C107.461 189.18 107.883 189.133 108.353 189.133C109.01 189.086 109.479 188.476 109.244 187.913C108.775 186.693 108.212 185.519 107.696 184.299C107.649 184.205 107.461 184.112 107.32 184.065C107.226 184.018 106.992 184.065 106.992 184.112C106.429 185.473 105.912 186.787 105.396 188.148C105.255 188.476 105.725 189.039 106.147 189.039C106.429 189.133 106.71 189.18 107.133 189.18Z" fill="#268D3E"/>
<path d="M82.0287 186.411C82.0287 183.267 82.0287 180.122 82.0287 176.978C82.0287 176.368 82.5918 175.805 83.108 175.805C86.3929 175.805 89.6777 175.805 92.9625 175.805C93.5256 175.805 93.9949 176.368 93.9949 177.025C93.9949 177.776 93.948 178.527 93.8541 179.231C93.8072 179.465 93.5256 179.747 93.291 179.841C92.8686 179.981 92.4463 180.075 92.024 180.075C90.6631 180.122 89.3492 180.122 87.9884 180.169C87.1906 180.216 86.7682 180.685 86.7213 181.671C86.7213 182.14 86.7213 182.563 86.7682 183.032C86.8152 183.642 87.3313 184.111 87.9414 184.111C89.3022 184.158 90.6162 184.158 91.9771 184.205C92.3994 184.205 92.8686 184.299 93.291 184.44C93.5256 184.534 93.8541 184.815 93.901 185.003C93.9949 185.895 94.0418 186.786 93.9949 187.631C93.9949 188.1 93.5256 188.382 93.1033 188.429C91.4608 188.523 89.8184 188.523 88.176 188.57C87.3313 188.617 86.8152 189.133 86.7682 189.978C86.7682 190.729 86.8152 191.479 86.909 192.183C86.956 192.418 87.2845 192.747 87.5191 192.747C88.5515 192.84 89.5838 192.84 90.6631 192.887C91.5547 192.934 92.4463 192.934 93.3379 193.075C93.5725 193.122 93.901 193.404 93.9479 193.638C94.0887 194.389 94.0887 195.14 94.0887 195.844C94.0887 196.642 93.4787 197.252 92.7279 197.252C89.5838 197.252 86.4398 197.252 83.2957 197.252C83.155 197.252 82.9673 197.252 82.8734 197.158C82.6388 196.97 82.3103 196.783 82.2633 196.548C82.1226 195.985 82.0287 195.375 81.9818 194.812C81.9349 191.949 81.9818 189.133 81.9818 186.27C81.9818 186.411 82.0287 186.411 82.0287 186.411Z" fill="#268D3E"/>
<path d="M126.889 197.346C125.387 197.346 123.886 197.346 122.384 197.346C121.868 197.346 121.305 196.736 121.258 196.173C121.211 195.422 121.164 194.671 121.164 193.92C121.164 188.945 121.164 184.018 121.164 179.043C121.164 178.292 121.164 177.541 121.258 176.79C121.305 176.368 121.586 175.946 122.103 175.899C122.994 175.852 123.886 175.758 124.777 175.805C125.153 175.852 125.669 176.086 125.716 176.65C125.81 177.4 125.904 178.151 125.904 178.855C125.904 182.14 125.904 185.472 125.904 188.758C125.904 189.508 125.951 190.259 125.997 191.01C126.044 191.808 126.654 192.465 127.358 192.512C128.578 192.559 129.752 192.606 130.972 192.653C131.769 192.7 132.286 193.263 132.332 194.155C132.332 194.905 132.332 195.656 132.192 196.36C132.098 196.736 131.675 197.205 131.347 197.252C129.845 197.393 128.344 197.393 126.842 197.487C126.889 197.44 126.889 197.393 126.889 197.346Z" fill="#268D3E"/>
<path d="M140.496 175.71C142.139 175.71 143.781 175.71 145.424 175.71C147.535 175.757 147.864 176.179 147.77 178.479C147.77 178.761 147.723 179.089 147.629 179.371C147.488 179.793 147.254 180.168 146.737 180.262C145.705 180.356 144.673 180.45 143.64 180.544C143.077 180.591 142.89 181.06 142.843 181.483C142.749 182.656 142.749 183.876 142.749 185.049C142.749 188.334 142.749 191.619 142.749 194.905C142.749 195.515 142.655 196.078 142.514 196.641C142.467 196.876 142.139 197.204 141.904 197.251C140.872 197.298 139.839 197.298 138.807 197.204C138.619 197.204 138.291 196.829 138.244 196.547C138.103 195.796 138.056 195.045 138.056 194.341C138.056 190.775 138.056 187.161 138.056 183.594C138.056 182.843 138.056 182.093 137.962 181.342C137.915 180.966 137.681 180.497 137.118 180.45C136.226 180.403 135.334 180.356 134.443 180.262C133.692 180.215 133.176 179.605 133.129 178.714C133.129 178.104 133.129 177.54 133.176 176.93C133.223 176.32 133.739 175.757 134.255 175.71C134.677 175.663 135.147 175.616 135.569 175.616C137.211 175.71 138.854 175.71 140.496 175.71Z" fill="#268D3E"/>
<path d="M108.541 158.816C108.495 159.52 108.448 160.27 108.307 161.021C107.885 163.368 105.961 165.292 103.427 165.667C101.127 166.043 99.2501 165.151 97.9831 163.274C96.2468 160.693 96.1999 157.924 97.7016 155.202C98.9216 152.996 101.033 152.104 103.849 152.527C105.961 152.855 107.931 154.78 108.354 156.985C108.448 157.595 108.448 158.159 108.541 158.816Z" fill="#FEFEFE"/>
<path d="M121.727 159.238C121.773 157.924 121.82 156.563 122.524 155.39C123.651 153.419 125.34 152.34 127.686 152.433C129.986 152.527 131.675 153.513 132.754 155.578C133.74 157.549 133.834 159.614 133.13 161.679C132.144 164.448 129.516 166.137 126.888 165.762C124.12 165.339 122.102 163.134 121.82 160.224C121.727 159.895 121.727 159.567 121.727 159.238Z" fill="#FEFEFE"/>
<path d="M147.113 159.05C147.113 157.267 147.113 155.437 147.113 153.653C147.113 152.808 147.676 152.433 148.615 152.433C153.401 152.292 155.466 155.437 155.232 159.566C155.185 160.646 154.997 161.631 154.481 162.57C153.871 163.696 153.026 164.541 151.853 164.916C150.727 165.292 149.507 165.386 148.333 165.527C147.77 165.62 147.207 165.057 147.16 164.447C147.113 163.978 147.066 163.556 147.066 163.086C147.066 161.725 147.066 160.364 147.066 159.05C147.066 159.05 147.066 159.05 147.113 159.05Z" fill="#FEFEFE"/>
<path d="M107.129 189.179C106.754 189.132 106.425 189.132 106.143 189.132C105.721 189.086 105.252 188.569 105.393 188.241C105.909 186.88 106.472 185.519 106.988 184.205C106.988 184.158 107.223 184.111 107.317 184.158C107.457 184.205 107.645 184.252 107.692 184.393C108.208 185.566 108.771 186.786 109.241 188.006C109.475 188.569 108.959 189.179 108.349 189.226C107.88 189.179 107.457 189.179 107.129 189.179Z" fill="#FEFEFE"/>
</svg>
