<svg width="132" height="50" viewBox="0 0 132 50" fill="none" xmlns="http://www.w3.org/2000/svg">
<path d="M17.9267 39.1158C13.4416 39.1158 8.91425 39.0735 4.42918 39.1158C1.76352 39.1582 -0.26746 36.8701 0.0287242 34.243C0.578781 29.243 1.08653 24.243 1.59427 19.243C1.84814 16.8277 2.10201 14.4548 2.35589 12.0819C2.56745 10.2175 4.1753 8.81924 6.07935 8.81924C6.84096 8.81924 7.64489 8.81924 8.40651 8.81924C8.70269 8.81924 8.82963 8.77686 8.82963 8.43788C9.0835 3.48025 13.0185 -0.163814 17.9267 0.00567746C22.2849 0.175169 26.0083 3.90398 26.1776 8.26839C26.1776 8.69212 26.3045 8.86161 26.7276 8.81924C28.2085 8.73449 29.6048 8.98873 30.7896 9.9633C31.8474 10.8531 32.4821 11.9972 32.6513 13.3531C33.2437 18.6921 33.836 23.9887 34.4284 29.3277C34.64 31.2345 34.8515 33.1413 35.0631 35.0904C35.317 37.4209 33.836 39.0735 31.4666 39.0735C26.9392 39.1158 22.4541 39.1158 17.9267 39.1158ZM25.1621 25.2175C25.2467 24.4125 25.5006 23.6921 25.8814 23.0565C26.0506 22.7599 26.2199 22.5057 26.6853 22.6328C27.1084 22.7599 27.4892 22.548 27.6585 22.0819C27.7854 21.743 27.6585 21.404 27.32 21.2345C26.8969 21.0226 26.5161 21.1074 26.2199 21.4887C26.0506 21.743 25.8814 21.9972 25.7544 22.2514C25.2467 23.226 24.8659 24.2853 24.5697 25.3447C24.5274 25.4718 24.5274 25.6836 24.4005 25.7684C23.6388 26.1074 22.9195 26.4887 22.1156 26.9972C22.3272 26.5311 22.4541 26.1921 22.581 25.8531C23.2157 24.2853 23.0888 22.8023 22.3695 21.3192C21.6079 19.7514 20.5501 18.5226 19.1961 17.5057C17.5459 16.3192 16.1919 14.8362 15.1341 13.0565C14.9649 12.7599 14.8803 12.4633 14.6264 12.2091C11.5799 16.8277 11.5376 21.2769 15.2187 25.5989C14.5841 25.726 14.034 25.8531 13.484 25.9803C11.4107 26.4887 9.84512 27.6328 8.82963 29.5396C8.06801 30.9379 8.61807 32.0396 10.099 32.4633C11.8338 32.9294 13.5263 32.9294 15.2611 32.3362C15.5572 32.2091 15.8957 32.0396 16.2766 32.0396C15.8111 32.7175 15.3457 33.3531 14.9226 33.9887C15.3457 34.1582 15.5996 34.1158 15.8534 33.7769C18.1806 30.8955 21.1847 28.9887 24.5274 27.548C25.1621 27.2514 25.7968 26.9548 26.4314 26.6582C26.6853 26.5311 26.8969 26.3192 26.8546 26.0226C26.8122 25.6836 26.5584 25.5565 26.2622 25.4718C26.0083 25.4294 25.7544 25.4294 25.416 25.387C25.7968 24.8362 26.1353 24.3701 26.643 24.0311C26.8122 23.904 26.8969 23.904 27.0238 24.1158C27.32 24.5819 27.997 24.6243 28.3778 24.2006C28.8009 23.7345 28.6317 23.226 28.0816 23.0565C27.5739 22.887 27.1931 23.0565 26.8123 23.3955C26.2199 23.8616 25.7121 24.5819 25.1621 25.2175ZM23.3427 8.81924C23.1311 9.9633 23.385 10.5989 24.1466 10.9379C24.7813 11.1921 25.5006 11.0226 25.8814 10.4718C26.3045 9.92093 26.3045 9.20059 25.8814 8.64974C25.3736 8.01415 24.739 7.92941 23.6812 8.39551C23.6388 8.22602 23.5965 8.05653 23.5542 7.88703C23.0465 4.92093 20.4654 2.84466 17.3767 2.97178C14.5418 3.0989 12.0877 5.42941 11.7915 8.35314C11.7492 8.73449 11.8338 8.86161 12.2146 8.81924C13.6955 8.77686 15.2187 8.81924 16.6997 8.81924C18.9422 8.81924 21.1001 8.81924 23.3427 8.81924ZM11.7915 9.58195C11.7915 8.77686 11.1568 8.0989 10.3529 8.0989C9.54893 8.0989 8.87194 8.73449 8.82963 9.53958C8.78732 10.387 9.46431 11.065 10.3106 11.065C11.1145 11.065 11.7915 10.387 11.7915 9.58195Z" fill="#2168D8"/>
<path d="M59.6016 19.2432C61.5479 19.2432 63.452 19.2432 65.3137 19.2432C65.5676 19.2432 65.6522 19.3703 65.6945 19.5821C67.3024 24.0313 69.2064 28.3957 70.3065 33.0567C70.3488 33.2262 70.3488 33.3957 70.6027 33.5652C70.7719 32.972 70.9412 32.4211 71.0681 31.8279C72.0836 27.6754 73.6069 23.6499 74.8762 19.5821C74.9608 19.3703 75.0455 19.2432 75.257 19.2432C77.0341 19.2432 78.7689 19.2432 80.5883 19.2432C80.1652 20.5144 79.6998 21.7432 79.2767 22.972C77.288 28.5652 75.3416 34.116 73.353 39.7093C72.5067 42.1245 71.4489 44.4127 69.7141 46.3618C68.1909 48.0567 66.3715 49.2008 64.2559 49.9635C63.9597 50.0483 63.8751 50.0059 63.7481 49.7516C63.1135 48.5652 62.5211 47.3788 61.8441 46.1923C61.6325 45.8533 61.7595 45.7262 62.098 45.5991C64.0866 44.794 65.7368 43.5652 66.8792 41.6584C67.3447 40.8957 67.5985 40.0482 67.8524 39.2008C67.937 38.9889 67.8101 38.8194 67.7255 38.6499C65.0598 32.3364 62.4365 26.0652 59.7708 19.7516C59.7285 19.6245 59.6862 19.455 59.6016 19.2432Z" fill="#2168D8"/>
<path d="M97.9781 31.9547C97.9781 34.1581 97.9781 36.3615 97.9781 38.6073C97.9781 39.0734 97.8512 39.1581 97.428 39.1581C96.3702 39.1157 95.2701 39.1157 94.2123 39.1581C93.8315 39.1581 93.6623 39.031 93.5777 38.6496C93.5353 38.2683 93.3661 37.8445 93.2815 37.4632C93.1968 37.1242 93.1122 36.9971 92.816 37.3361C90.5312 40.0056 85.9192 40.1327 83.5074 38.8191C81.561 37.7598 80.5455 36.1496 80.4186 33.9462C80.2917 31.6157 81.1379 29.7513 83.1689 28.5225C84.8191 27.5056 86.6385 27.1666 88.5002 27.0395C89.6003 26.9547 90.7004 26.9547 91.7582 26.9971C92.266 26.9971 92.4352 26.8276 92.3506 26.3615C92.3506 26.3191 92.3506 26.2344 92.3506 26.192C92.4775 24.031 91.2928 23.1835 89.3041 23.0988C87.527 23.014 85.8769 23.6073 84.3113 24.4123C83.8882 24.6242 83.7613 24.5818 83.5497 24.1581C83.0843 23.1835 82.5765 22.2513 82.1111 21.3191C81.9842 21.1073 81.9418 20.9801 82.238 20.8106C85.7499 18.9462 89.3888 18.2259 93.2815 19.2429C96.1164 20.0056 97.8512 22.3361 97.8935 25.3869C98.0204 27.5903 97.9781 29.7513 97.9781 31.9547ZM92.4775 32.0818C92.4775 31.6581 92.4775 31.192 92.4775 30.7683C92.4775 30.4717 92.3929 30.3869 92.0967 30.4293C91.2505 30.4717 90.4042 30.4717 89.558 30.5564C88.6695 30.6412 87.7809 30.853 87.0616 31.4039C86.2154 32.0818 86.0461 32.9717 86.2577 33.9886C86.4692 34.9208 87.1462 35.3445 87.9925 35.514C88.4156 35.5988 88.8387 35.6412 89.2618 35.5988C90.3619 35.514 91.2082 34.8784 92.0121 34.1581C92.6468 33.5649 92.4352 32.8445 92.4775 32.1666C92.4775 32.1666 92.4775 32.1242 92.4775 32.0818Z" fill="#2168D8"/>
<path d="M48.0933 31.1494C48.0933 28.6918 48.0933 26.2342 48.0933 23.7765C48.0933 23.3104 47.9664 23.2257 47.5433 23.2257C46.8663 23.2681 46.147 23.2257 45.47 23.2257C45.1738 23.2257 45.0469 23.1833 45.0469 22.802C45.0469 21.7426 45.0469 20.6409 45.0469 19.5816C45.0469 19.2426 45.1738 19.2003 45.47 19.2003C46.2316 19.2003 46.9509 19.2003 47.7125 19.2003C48.051 19.2003 48.1357 19.0732 48.1357 18.7342C48.1357 17.4206 48.0087 16.107 48.2203 14.7935C48.6857 11.5732 50.6744 9.624 53.9324 9.28502C56.0903 9.07315 58.1636 9.49688 60.1523 10.4291C60.4061 10.5562 60.5331 10.6833 60.4485 10.9799C60.1523 11.9545 59.8561 12.9291 59.5599 13.9037C59.4753 14.2426 59.3483 14.1579 59.1368 14.0732C58.3752 13.7342 57.6136 13.4799 56.7673 13.4376C54.9056 13.3952 53.9324 14.2003 53.7632 16.0647C53.6785 16.9545 53.7208 17.8867 53.7208 18.7765C53.7208 19.1155 53.9324 19.0732 54.144 19.0732C55.4979 19.0732 56.8519 19.0732 58.2059 19.0732C58.5867 19.0732 58.7137 19.1579 58.7137 19.5816C58.6714 20.5986 58.6714 21.6155 58.7137 22.6748C58.7137 23.0138 58.5867 23.1409 58.2482 23.1409C56.9366 23.1409 55.5826 23.1409 54.2709 23.1409C53.7632 23.1409 53.6785 23.2681 53.7208 23.7342C53.7208 28.607 53.7208 33.5223 53.7632 38.3952C53.7632 38.9037 53.6362 39.0308 53.1285 39.0308C51.6899 38.9884 50.2513 38.9884 48.7703 39.0308C48.3472 39.0308 48.2203 38.946 48.2203 38.5223C48.1357 36.107 48.0933 33.6494 48.0933 31.1494Z" fill="#2269D8"/>
<path d="M132.001 24.2854C132.001 29.0312 132.001 33.8193 132.001 38.5651C132.001 39.0312 131.874 39.1159 131.451 39.1159C129.97 39.0736 128.489 39.1159 127.008 39.1159C126.67 39.1159 126.543 39.0312 126.543 38.6922C126.543 29.0736 126.543 19.4549 126.543 9.7939C126.543 9.45491 126.628 9.3278 126.966 9.37017C128.447 9.37017 129.928 9.41254 131.408 9.37017C131.831 9.37017 131.958 9.45491 131.958 9.92102C132.001 14.7092 132.001 19.4973 132.001 24.2854Z" fill="#2068D8"/>
<path d="M106.357 22.8022C107.161 21.2768 108.135 20.1327 109.615 19.4547C111.393 18.6497 113.17 18.6073 114.989 19.3276C115.328 19.4547 115.412 19.6242 115.328 19.9632C115.074 21.1497 114.82 22.2937 114.608 23.4802C114.524 23.8191 114.397 23.8615 114.101 23.7344C112.916 23.2683 111.689 23.1412 110.419 23.4378C108.388 23.9463 107.161 25.5564 107.034 27.8869C106.95 29.1158 106.992 30.3446 106.992 31.531C106.992 33.9039 106.992 36.2344 106.992 38.6073C106.992 38.9886 106.907 39.1158 106.484 39.1158C104.961 39.0734 103.438 39.1158 101.915 39.1158C101.576 39.1158 101.449 39.031 101.449 38.692C101.449 32.3361 101.449 26.0225 101.449 19.6666C101.449 19.3276 101.534 19.2005 101.872 19.2429C103.015 19.2853 104.115 19.2853 105.257 19.2429C105.596 19.2429 105.723 19.3276 105.807 19.709C105.977 20.6836 106.146 21.6581 106.357 22.8022Z" fill="#2169D8"/>
<path d="M122.14 29.2432C122.14 32.3788 122.14 35.472 122.14 38.6076C122.14 39.0737 122.013 39.1584 121.59 39.1584C120.067 39.116 118.544 39.1584 117.021 39.1584C116.725 39.1584 116.598 39.0737 116.598 38.7347C116.598 32.3788 116.598 26.0228 116.598 19.6669C116.598 19.3279 116.725 19.2432 117.021 19.2432C118.586 19.2432 120.109 19.2432 121.675 19.2432C122.055 19.2432 122.14 19.3703 122.14 19.7516C122.14 22.8872 122.14 26.0652 122.14 29.2432Z" fill="#2068D8"/>
<path d="M119.434 9.32812C120.746 9.32812 121.761 9.96372 122.227 11.0654C122.692 12.1671 122.396 13.4807 121.55 14.2858C120.45 15.3027 118.123 15.218 117.15 14.1163C116.092 12.8874 116.219 10.9807 117.488 9.96372C118.038 9.45524 118.715 9.32812 119.434 9.32812Z" fill="#2269D8"/>
<path d="M25.1635 25.2178C25.7559 24.6246 26.2213 23.9043 26.8983 23.3534C27.2791 23.0568 27.6599 22.8873 28.1676 23.0144C28.7177 23.1839 28.8869 23.7348 28.4638 24.1585C28.083 24.5822 27.406 24.5822 27.1098 24.0738C26.9829 23.8619 26.8983 23.8619 26.729 23.989C26.2213 24.328 25.8828 24.7941 25.502 25.345C25.8405 25.3873 26.0943 25.3873 26.3482 25.4297C26.6444 25.4721 26.8983 25.6416 26.9406 25.9806C26.9829 26.3195 26.7713 26.489 26.5175 26.6161C25.8828 26.9128 25.2481 27.2094 24.6134 27.506C21.2708 28.9467 18.2666 30.8958 15.8971 33.7348C15.6433 34.0314 15.3894 34.0738 14.9663 33.9467C15.4317 33.3111 15.8548 32.6755 16.3203 31.9975C15.8971 31.9975 15.601 32.167 15.3048 32.2941C13.6123 32.9297 11.8775 32.8873 10.1427 32.4212C8.61948 31.9975 8.11173 30.8958 8.87335 29.4975C9.88884 27.6331 11.4544 26.4467 13.5277 25.9382C14.0777 25.8111 14.6278 25.6839 15.2625 25.5568C11.5813 21.2348 11.6236 16.7856 14.6701 12.167C14.924 12.4212 15.0086 12.7602 15.1778 13.0144C16.1933 14.7941 17.5896 16.2348 19.2398 17.4636C20.6361 18.4806 21.6939 19.7094 22.4132 21.2772C23.1748 22.8026 23.2594 24.2856 22.6248 25.8111C22.4978 26.15 22.3286 26.489 22.1593 26.9551C22.9633 26.4467 23.6826 26.0653 24.4442 25.7263C24.6134 25.6416 24.5711 25.4721 24.6134 25.3026C24.9096 24.2433 25.2904 23.1839 25.7982 22.2094C25.9251 21.9551 26.0943 21.7009 26.2636 21.4467C26.5598 21.0653 26.9406 20.9806 27.3637 21.1924C27.7022 21.3619 27.8291 21.7009 27.7022 22.0399C27.533 22.4636 27.1098 22.7178 26.729 22.5907C26.2636 22.4212 26.0943 22.7178 25.9251 23.0144C25.4597 23.6924 25.2481 24.4128 25.1635 25.2178C25.0789 25.2178 25.0365 25.2602 25.0789 25.3026C25.1212 25.3026 25.1212 25.2178 25.1635 25.2178Z" fill="#BBFD01"/>
<path d="M11.7915 9.58162C11.7915 10.3867 11.1146 11.0647 10.3108 11.0647C9.46462 11.0647 8.7877 10.3867 8.83001 9.53924C8.87231 8.73416 9.54924 8.05619 10.3531 8.09856C11.1569 8.09856 11.7915 8.77653 11.7915 9.58162Z" fill="#FBFCFD"/>
<path d="M26.2212 9.58162C26.2212 10.3867 25.5443 11.0647 24.7405 11.0647C23.8943 11.0647 23.2174 10.3867 23.2597 9.53924C23.302 8.73416 23.9789 8.05619 24.7828 8.09856C25.5443 8.09856 26.2212 8.77653 26.2212 9.58162Z" fill="#FBFCFD"/>
<path d="M25.1637 25.2176C25.1637 25.26 25.1637 25.3447 25.0791 25.3023C25.0368 25.26 25.0791 25.1752 25.1637 25.2176Z" fill="#2168D8"/>
</svg>
