<svg width="221" height="148" viewBox="0 0 221 148" fill="none" xmlns="http://www.w3.org/2000/svg">
<path d="M38.16 98V104.14H30.56V98H28.88V112H30.56V105.82H38.16V112H39.86V98H38.16ZM51.1108 106.24C51.1108 103.38 49.4908 101.72 47.0108 101.72C44.3508 101.72 42.4308 103.88 42.4308 107.08C42.4308 110.34 44.3508 112.26 47.3508 112.26C48.7108 112.26 49.8308 111.94 50.7308 111.26V109.64C49.8108 110.48 48.8708 110.82 47.4708 110.82C45.4708 110.82 44.1908 109.64 44.0508 107.38H51.0108C51.0908 107.1 51.1108 106.68 51.1108 106.24ZM46.9708 103.42C48.5908 103.42 49.5108 104.3 49.5708 106.06H44.1108C44.3708 104.42 45.4108 103.42 46.9708 103.42ZM56.66 101.72C55.36 101.72 54.26 102.1 53.42 102.64V104.28C54.34 103.7 55.2 103.42 56.36 103.42C58.12 103.42 58.98 104.18 58.98 106.08V106.72C58.36 106.46 57.54 106.34 56.64 106.34C54.32 106.34 52.88 107.46 52.88 109.32C52.88 111.16 54.04 112.26 55.88 112.26C57.5 112.26 58.64 111.42 59.12 110.04L59.08 112H60.58V105.64C60.58 102.98 59.18 101.72 56.66 101.72ZM56.32 110.82C55.12 110.82 54.5 110.18 54.5 109.24C54.5 108.18 55.3 107.52 56.92 107.52C57.66 107.52 58.38 107.64 58.98 107.9V107.94C58.98 109.8 57.66 110.82 56.32 110.82ZM63.6586 112H65.2586V97.5H63.6586V112ZM73.1228 110.76C71.8428 110.76 70.8628 110.16 70.8628 108.22V103.52H74.2228V102H70.8628V99.64H69.4228C69.3428 101.22 69.2628 101.92 67.8228 102.08L67.1628 102.12V103.52H69.2628V108.74C69.2628 110.94 70.5228 112.26 72.8028 112.26C73.4028 112.26 73.8828 112.2 74.2828 112.04V110.6C73.9628 110.7 73.6028 110.76 73.1228 110.76ZM81.2525 101.72C79.4325 101.72 78.3925 102.7 77.9725 103.92L78.0125 97.5H76.4125V112H78.0125V106.28C78.0125 104.3 79.3125 103.42 80.6325 103.42C82.0725 103.42 83.0725 104.24 83.0725 106.28V112H84.6725V105.66C84.6725 103.4 83.4925 101.72 81.2525 101.72ZM95.6248 101.72C94.3248 101.72 93.2248 102.1 92.3848 102.64V104.28C93.3048 103.7 94.1648 103.42 95.3248 103.42C97.0848 103.42 97.9448 104.18 97.9448 106.08V106.72C97.3248 106.46 96.5048 106.34 95.6048 106.34C93.2848 106.34 91.8448 107.46 91.8448 109.32C91.8448 111.16 93.0048 112.26 94.8448 112.26C96.4648 112.26 97.6048 111.42 98.0848 110.04L98.0448 112H99.5448V105.64C99.5448 102.98 98.1448 101.72 95.6248 101.72ZM95.2848 110.82C94.0848 110.82 93.4648 110.18 93.4648 109.24C93.4648 108.18 94.2648 107.52 95.8848 107.52C96.6248 107.52 97.3448 107.64 97.9448 107.9V107.94C97.9448 109.8 96.6248 110.82 95.2848 110.82ZM107.443 101.72C105.663 101.72 104.623 102.7 104.183 103.9L104.223 102H102.623V112H104.223V106.32C104.223 104.32 105.503 103.42 106.783 103.42C108.263 103.42 109.303 104.26 109.303 106.32V112H110.903V105.66C110.903 103.4 109.703 101.72 107.443 101.72ZM121.331 97.5V103.6C120.591 102.28 119.331 101.72 117.871 101.72C115.351 101.72 113.271 103.72 113.271 107.04C113.271 110.54 115.431 112.26 117.811 112.26C119.311 112.26 120.611 111.58 121.371 110.22L121.331 112H122.931V97.5H121.331ZM118.091 110.82C116.331 110.82 114.871 109.54 114.871 107.08C114.871 104.7 116.311 103.42 118.111 103.42C119.951 103.42 121.351 104.64 121.351 107.08C121.351 109.54 119.911 110.82 118.091 110.82ZM139.204 104.86C140.404 104.32 141.084 103.28 141.084 101.78C141.084 99.18 139.664 98 136.624 98H131.224V112H136.584C139.684 112 141.324 110.64 141.324 108.1C141.324 106.38 140.584 105.3 139.204 104.86ZM136.624 99.76C138.584 99.76 139.484 100.44 139.484 101.94C139.484 103.52 138.524 104.26 136.624 104.26H132.904V99.76H136.624ZM136.744 110.56H132.904V105.72H136.824C138.764 105.72 139.724 106.46 139.724 108.1C139.724 109.74 138.724 110.56 136.744 110.56ZM152.068 106.24C152.068 103.38 150.448 101.72 147.968 101.72C145.308 101.72 143.388 103.88 143.388 107.08C143.388 110.34 145.308 112.26 148.308 112.26C149.668 112.26 150.788 111.94 151.688 111.26V109.64C150.768 110.48 149.828 110.82 148.428 110.82C146.428 110.82 145.148 109.64 145.008 107.38H151.968C152.048 107.1 152.068 106.68 152.068 106.24ZM147.928 103.42C149.548 103.42 150.468 104.3 150.528 106.06H145.068C145.328 104.42 146.368 103.42 147.928 103.42ZM157.617 101.72C156.317 101.72 155.217 102.1 154.377 102.64V104.28C155.297 103.7 156.157 103.42 157.317 103.42C159.077 103.42 159.937 104.18 159.937 106.08V106.72C159.317 106.46 158.497 106.34 157.597 106.34C155.277 106.34 153.837 107.46 153.837 109.32C153.837 111.16 154.997 112.26 156.837 112.26C158.457 112.26 159.597 111.42 160.077 110.04L160.037 112H161.537V105.64C161.537 102.98 160.137 101.72 157.617 101.72ZM157.277 110.82C156.077 110.82 155.457 110.18 155.457 109.24C155.457 108.18 156.257 107.52 157.877 107.52C158.617 107.52 159.337 107.64 159.937 107.9V107.94C159.937 109.8 158.617 110.82 157.277 110.82ZM171.056 102V107.72C171.056 109.88 169.816 110.74 168.576 110.74C167.096 110.74 166.096 110.12 166.096 107.78V102H164.496V108.4C164.496 110.86 165.636 112.26 167.976 112.26C169.616 112.26 170.636 111.28 171.096 110.2L171.056 112H172.656V102H171.056ZM180.486 110.76C179.206 110.76 178.226 110.16 178.226 108.22V103.52H181.586V102H178.226V99.64H176.786C176.706 101.22 176.626 101.92 175.186 102.08L174.526 102.12V103.52H176.626V108.74C176.626 110.94 177.886 112.26 180.166 112.26C180.766 112.26 181.246 112.2 181.646 112.04V110.6C181.326 110.7 180.966 110.76 180.486 110.76ZM190.456 102L187.376 110.02L184.356 102H182.536L186.556 111.86L184.976 115.6H186.556L192.136 102H190.456Z" fill="black"/>
<path d="M106.905 34.4053L106.892 34.3692C107.014 34.3091 107.063 34.201 107.038 34.0688V34.0809C107.367 33.6724 107.708 33.2639 108.037 32.8674C108.305 32.6391 108.573 32.4108 108.84 32.1705C109.401 31.8101 110.034 31.6178 110.655 31.4136C111.178 31.4376 111.714 31.3895 112.237 31.4977C112.98 31.7019 113.65 32.0624 114.271 32.531L114.295 32.4949C114.283 32.591 114.368 32.6271 114.429 32.6631C114.49 32.7232 114.563 32.7953 114.624 32.8554C115.61 33.9607 116.243 35.2343 116.523 36.6881C116.572 37.0966 116.633 37.5051 116.681 37.9016C116.669 38.2981 116.669 38.6945 116.657 39.091C116.645 39.1271 116.645 39.1751 116.633 39.2112C116.596 39.4875 116.572 39.7639 116.535 40.0402C116.389 40.5809 116.243 41.1215 116.085 41.6502C116.024 41.7463 115.975 41.8544 115.914 41.9506C115.61 42.4672 115.306 42.9718 115.001 43.4885C114.709 43.7768 114.417 44.0652 114.125 44.3535C113.077 45.0984 111.933 45.4829 110.63 45.3387C110.557 45.3267 110.472 45.3147 110.399 45.3147C109.924 45.1105 109.449 44.9182 108.974 44.714C108.487 44.3415 108.013 43.957 107.611 43.4885C107.44 43.2602 107.282 43.0319 107.112 42.8036C106.917 42.4191 106.734 42.0226 106.539 41.6382C106.43 41.3018 106.32 40.9774 106.211 40.6409C106.138 40.4607 106.211 40.2324 106.028 40.1003H106.064V40.0642C106.004 39.2232 105.87 38.3822 105.979 37.5411C106.028 37.2167 106.077 36.8923 106.125 36.5679C106.259 35.8711 106.576 35.2223 106.783 34.5494L106.771 34.5615C106.868 34.5494 106.892 34.4894 106.905 34.4053Z" fill="#2269D8"/>
<path d="M119.181 82.8968C118.816 82.8367 118.45 82.7887 118.085 82.7286C117.428 82.6325 116.782 82.5363 116.125 82.4282L116.088 82.4643C115.979 82.3081 115.808 82.3321 115.65 82.3321C115.187 82.1158 114.688 82.0798 114.189 81.9957C113.629 81.8155 113.069 81.6953 112.484 81.6112C112.423 81.5271 112.326 81.5151 112.229 81.5271C111.376 81.3349 110.536 81.1426 109.684 80.9504C109.477 80.9023 109.27 80.8543 109.063 80.8062C108.381 80.65 107.699 80.5058 107.018 80.3497C106.482 80.2175 105.946 80.0853 105.423 79.9532C105.143 79.8811 104.85 79.797 104.57 79.7249C104.631 79.3524 105.057 79.5447 105.203 79.3164C106.044 79.004 106.896 78.6916 107.736 78.3792C107.906 78.3191 108.065 78.2591 108.235 78.187C108.515 78.0909 108.795 77.9947 109.075 77.8986C109.562 77.7304 110.061 77.5622 110.548 77.382C110.585 77.358 110.634 77.3339 110.67 77.3099V77.3219C111.34 77.1777 111.973 76.9374 112.606 76.6971C113.044 76.6251 113.446 76.4809 113.848 76.3007C114.201 76.1925 114.554 76.0844 114.919 75.9642C115.333 75.8561 115.772 75.784 116.149 75.5798C116.831 75.3875 117.513 75.1953 118.195 74.991C119.339 74.6907 120.471 74.3783 121.616 74.0779C122.225 73.9458 122.833 73.8016 123.43 73.6694C124.039 73.5493 124.66 73.4171 125.268 73.297C125.914 73.1888 126.559 73.0807 127.192 72.9605C128.373 72.8284 129.554 72.6842 130.735 72.552C133.243 72.4319 135.727 72.492 138.162 73.2249C138.747 73.5252 139.343 73.7896 139.867 74.1861C139.952 74.2702 140.037 74.3422 140.122 74.4264C140.536 74.919 140.816 75.4837 140.963 76.1084C140.902 76.7452 140.829 77.382 140.768 78.0308C140.622 78.5835 140.39 79.1001 140.11 79.6047C140.025 79.7129 139.94 79.821 139.842 79.9291C138.844 81.0225 137.566 81.6593 136.202 82.1639C135.52 82.3561 134.826 82.5484 134.144 82.7286C133.609 82.8247 133.085 82.9208 132.549 83.0169C131.417 83.1251 130.285 83.2332 129.152 83.3293C128.458 83.3413 127.764 83.2452 127.083 83.4134C126.474 83.3413 125.865 83.3173 125.256 83.3654C125.049 83.3534 124.842 83.3413 124.648 83.3293C122.821 83.2452 121.007 83.089 119.181 82.8968Z" fill="#2269D8"/>
<path d="M94.341 81.0708C92.8434 81.263 91.3458 81.5634 89.8361 81.6355C89.4708 81.6595 89.1056 81.6715 88.7403 81.6955C88.1315 81.6955 87.5228 81.6955 86.914 81.6955C86.634 81.6835 86.3418 81.6715 86.0617 81.6595C84.4789 81.5514 82.9326 81.3111 81.4473 80.7464C80.2054 80.1456 79.2313 79.3406 79 77.9109C79.0609 77.3101 79.1339 76.7214 79.1948 76.1207C79.5235 74.727 80.4367 73.7898 81.5568 72.9848C81.8003 72.8647 82.0438 72.7325 82.2752 72.6124C82.6039 72.4682 82.9326 72.312 83.2614 72.1678C83.8336 71.9996 84.3937 71.8314 84.9659 71.6632C85.4164 71.5671 85.8669 71.4709 86.3296 71.3748C87.4619 71.2427 88.5942 71.1105 89.7265 70.9783C90.3353 70.9543 90.9441 70.9303 91.5528 70.9062C93.5009 70.9183 95.4489 70.9783 97.3848 71.1345C97.4335 71.1465 97.4701 71.1465 97.5188 71.1586C98.2371 71.2306 98.9676 71.3027 99.686 71.3748C100.283 71.543 100.904 71.5791 101.524 71.6512C102.133 71.7593 102.73 71.8554 103.339 71.9636C103.947 72.0957 104.568 72.2279 105.177 72.36C105.615 72.4682 106.054 72.5763 106.492 72.6844C107.308 72.8887 108.124 73.0929 108.939 73.2972C109.475 73.4294 109.999 73.5495 110.534 73.6817C111.265 73.8499 111.995 74.0301 112.714 74.2103C112.933 74.3665 113.201 74.3665 113.444 74.4266C113.797 74.5347 114.15 74.6789 114.54 74.6909L114.528 74.6789C114.564 74.7029 114.613 74.727 114.65 74.751C114.881 74.9312 115.234 74.8351 115.465 75.0754C115.258 75.1835 115.076 75.2676 114.905 75.3517C114.26 75.568 113.615 75.7963 112.969 76.0125C112.921 76.0366 112.884 76.0486 112.835 76.0726C112.726 76.1087 112.592 76.0966 112.531 76.2288L112.482 76.2168C111.813 76.373 111.167 76.5893 110.534 76.8656C110.449 76.8896 110.364 76.9137 110.279 76.9497C110.23 76.9497 110.193 76.9497 110.169 76.9857C109.743 77.0698 109.329 77.202 108.939 77.3822C108.33 77.5745 107.734 77.7547 107.125 77.9469C107.076 77.971 107.04 77.995 106.991 78.019C106.346 78.1992 105.701 78.3915 105.055 78.5717C104.471 78.7159 103.886 78.824 103.339 79.0643C102.109 79.3887 100.891 79.7131 99.6616 80.0375C99.6251 80.0255 99.6129 80.0375 99.6007 80.0735C99.4668 80.0856 99.3451 80.1096 99.2111 80.1216C98.8094 80.2177 98.3954 80.3018 97.9936 80.3979C97.2631 80.5541 96.5326 80.6983 95.802 80.8545C95.315 80.9026 94.828 80.9867 94.341 81.0708Z" fill="#2269D8"/>
<path d="M83.3687 70.5097C83.2591 70.5458 83.1373 70.5698 83.0278 70.6058C82.9425 70.5818 82.8451 70.5938 82.8086 70.4857C83.0765 70.3655 83.3443 70.2574 83.6122 70.1373C84.1479 69.9811 84.6349 69.7047 85.1097 69.4164C85.4263 69.2722 85.7794 69.1761 86.0229 68.9118L86.0594 68.9238C86.169 68.9238 86.2542 68.8757 86.3273 68.7796C86.449 68.7075 86.5708 68.6474 86.6925 68.5753C86.7656 68.5513 86.8386 68.5273 86.8265 68.4191V68.4312C88.251 67.7703 89.5294 66.8813 90.7469 65.896C91.0757 65.7639 91.3314 65.5356 91.5749 65.2833C91.928 65.031 92.2932 64.7907 92.5733 64.4543C92.9507 64.25 93.2307 63.9376 93.5229 63.6373C93.8151 63.3489 94.1073 63.0605 94.3996 62.7722C94.8013 62.4598 95.1544 62.0994 95.4345 61.6788C95.678 61.3905 95.9215 61.1141 96.1772 60.8258C96.4815 60.5495 96.7129 60.225 96.9077 59.8766C97.7843 58.7232 98.6609 57.5698 99.3671 56.2962L99.3428 56.2842C99.4402 56.2962 99.4767 56.2121 99.5132 56.152C99.5741 56.0439 99.6472 55.9358 99.708 55.8396C100.037 55.4191 100.365 54.9866 100.585 54.494L100.56 54.482C100.658 54.494 100.694 54.4099 100.731 54.3498C101.498 53.3045 102.18 52.1992 102.837 51.0938C103.068 50.6973 103.288 50.3008 103.519 49.9163C103.702 49.7361 103.835 49.5199 103.872 49.2555C103.982 49.2075 103.969 48.9672 104.176 49.0393C104.213 50.2528 104.103 51.4542 103.994 52.6557C103.909 53.2204 103.823 53.7851 103.738 54.3498C103.58 55.0226 103.434 55.7075 103.275 56.3803C103.263 56.4284 103.251 56.4644 103.251 56.5125C103.081 57.1132 102.813 57.6779 102.715 58.3027L102.728 58.2907C102.594 58.3387 102.618 58.4469 102.606 58.543C102.362 58.9635 102.167 59.408 102.021 59.8646C101.802 60.2611 101.595 60.6576 101.376 61.0541C101.206 61.1742 101.145 61.3785 101.072 61.5587C100.597 62.1835 100.122 62.8082 99.6593 63.433C98.5392 64.5624 97.2486 65.4875 95.8971 66.3526C95.471 66.4968 95.0814 66.7251 94.7161 66.9774C94.497 67.0855 94.2778 67.2057 94.0586 67.3138C93.4742 67.47 92.9385 67.7703 92.3906 68.0106C91.1731 68.4312 89.9677 68.8397 88.7502 69.2602C88.1414 69.4284 87.5205 69.5966 86.9117 69.7768C86.2299 69.933 85.5481 70.0772 84.8662 70.2334C84.3549 70.3295 83.8557 70.4136 83.3687 70.5097Z" fill="#2269D8"/>
<path d="M139.404 70.5097C138.272 70.2694 137.127 70.0291 135.995 69.7768C135.532 69.6566 135.082 69.4764 134.607 69.4644C133.974 69.176 133.292 69.0318 132.622 68.8396C131.965 68.6113 131.32 68.371 130.662 68.1427L130.65 68.1548C130.614 68.0346 130.48 68.0586 130.394 68.0226C130.029 67.8183 129.664 67.6141 129.238 67.566C128.897 67.2777 128.471 67.1455 128.069 66.9533C127.838 66.761 127.582 66.6409 127.29 66.5688C126.608 66.1483 125.938 65.7157 125.256 65.2952C124.66 64.8026 124.063 64.31 123.467 63.8174L123.479 63.8294C123.491 63.7934 123.479 63.7573 123.442 63.7333C123.369 63.5651 123.235 63.457 123.089 63.3608C122.809 63.0004 122.529 62.64 122.249 62.2795C121.616 61.4745 121.202 60.5494 120.666 59.6963C120.289 58.5549 119.79 57.4375 119.485 56.2721C119.339 55.5993 119.193 54.9265 119.047 54.2416C118.986 53.9172 118.937 53.5928 118.876 53.2684C118.816 52.6316 118.743 51.9948 118.682 51.346C118.706 51.0697 118.706 50.7934 118.633 50.517C118.621 50.0845 118.609 49.652 118.609 49.2074C118.609 49.1233 118.56 48.9791 118.718 49.0032C118.767 49.0032 118.803 49.1113 118.852 49.1834C119.083 49.652 119.29 50.1325 119.644 50.529C119.717 50.6972 119.765 50.8775 119.924 50.9976C120.216 51.5984 120.593 52.151 120.983 52.6917C121.165 53.0161 121.336 53.3405 121.616 53.5928C121.665 53.9172 121.908 54.1215 122.079 54.3738C122.103 54.4459 122.127 54.5179 122.225 54.5059L122.2 54.518C122.529 55.1788 122.98 55.7555 123.406 56.3442C124.221 57.5577 125.025 58.7832 125.938 59.9366C126.194 60.4292 126.584 60.8257 126.949 61.2342C127.131 61.4265 127.302 61.6187 127.484 61.823C127.862 62.3156 128.288 62.7601 128.763 63.1566C128.933 63.3128 129.116 63.481 129.286 63.6372C129.688 64.0938 130.139 64.4662 130.626 64.8146C130.869 65.0189 131.125 65.2111 131.368 65.4154C131.709 65.7278 132.05 66.0161 132.464 66.2444C132.927 66.6048 133.39 66.9533 133.925 67.2176C134.631 67.7583 135.386 68.2268 136.202 68.5873L136.214 68.5512C136.202 68.6474 136.275 68.6714 136.348 68.6954C136.47 68.7675 136.604 68.8276 136.726 68.8997C137.127 69.188 137.554 69.4163 138.016 69.5485L138.028 69.5124C138.028 69.6085 138.089 69.6326 138.162 69.6566C138.564 69.9209 138.99 70.1252 139.465 70.2333C139.636 70.3174 139.806 70.3895 139.976 70.4736C139.94 70.5217 139.916 70.5577 139.879 70.6058C139.721 70.5697 139.562 70.5457 139.404 70.5097Z" fill="#2269D8"/>
<path d="M112.716 51.7909C113.154 51.9231 113.58 52.0673 114.019 52.1994C114.323 52.3917 114.615 52.5959 114.92 52.7881C115.346 53.1246 115.626 53.5931 115.979 54.0016C116.052 54.1698 116.113 54.3381 116.186 54.5063C116.222 54.6144 116.259 54.7105 116.283 54.8186C116.49 55.6116 116.32 56.3686 116.003 57.1135C115.808 57.4018 115.614 57.6782 115.407 57.9665C115.029 58.2669 114.64 58.5553 114.262 58.8556C113.702 59.0479 113.154 59.2521 112.594 59.4444C111.742 59.5765 110.902 59.6126 110.05 59.4444C109.66 59.3242 109.258 59.2161 108.868 59.0959C108.71 59.0118 108.552 58.9277 108.394 58.8316C106.786 57.9545 106.044 56.5007 106.348 54.8427C106.36 54.7946 106.36 54.7586 106.373 54.7105C106.531 54.1819 106.847 53.7373 107.164 53.2928C107.347 53.1246 107.529 52.9564 107.712 52.8002C108.187 52.5238 108.662 52.2475 109.136 51.9711C109.648 51.863 110.147 51.7669 110.658 51.6588C111.352 51.5747 112.034 51.6708 112.716 51.7909Z" fill="#2269D8"/>
<path d="M112.372 71.0025C111.191 71.1106 110.022 71.0025 108.866 70.7622L108.841 70.7982C108.756 70.642 108.61 70.654 108.464 70.666L108.476 70.6781C108.038 70.4738 107.587 70.2696 107.149 70.0653C105.968 69.3444 105.018 68.4313 104.58 67.0856C104.519 66.4849 104.47 65.8841 104.641 65.2954C104.945 64.4904 105.323 63.7215 106.041 63.1808C106.09 63.1328 106.126 63.0847 106.175 63.0366L106.187 63.0487C106.223 63.0126 106.272 62.9645 106.309 62.9285V62.9405C106.406 62.9285 106.504 62.9045 106.54 62.7963C106.589 62.7603 106.637 62.7243 106.674 62.6882V62.7002C106.784 62.7002 106.881 62.6522 106.942 62.556C106.978 62.5681 107.003 62.556 107.015 62.532C107.587 62.2917 108.147 62.0514 108.719 61.8111C108.768 61.7991 108.805 61.7871 108.853 61.7751C109.572 61.6189 110.29 61.4987 111.033 61.4507C111.508 61.4747 111.995 61.4987 112.469 61.5108C112.555 61.5228 112.652 61.5228 112.737 61.5348C112.774 61.5468 112.823 61.5588 112.859 61.5588C114.028 61.7751 115.124 62.1956 116.134 62.8204C116.183 62.9285 116.268 62.9886 116.39 63.0126C116.414 63.0487 116.439 63.0607 116.487 63.0487V63.0246C116.487 63.1087 116.536 63.1568 116.621 63.1568L116.609 63.1448C116.609 63.2409 116.67 63.2649 116.755 63.2769L116.743 63.2649C116.792 63.313 116.828 63.349 116.877 63.3971L116.865 63.3851C116.913 63.4331 116.95 63.4692 116.999 63.5172H116.974C117.303 64.0219 117.632 64.5145 117.961 65.0191L117.948 65.0551C117.961 65.1633 117.936 65.2834 118.07 65.3315L118.046 65.3435C118.119 65.9442 118.131 66.5329 118.046 67.1337V67.1697H118.082C117.948 67.2418 117.961 67.374 117.948 67.4941L117.961 67.5302C117.668 67.9867 117.376 68.4433 117.084 68.8878H117.108C117.023 68.8878 116.974 68.9359 116.974 69.02H116.999C116.901 69.008 116.865 69.0921 116.828 69.1522C116.56 69.2843 116.329 69.4766 116.146 69.7049C115.099 70.3416 113.967 70.7742 112.749 70.9784C112.652 70.9544 112.555 70.9424 112.482 71.0265L112.457 71.0145C112.433 71.0025 112.372 71.0025 112.372 71.0025Z" fill="#2269D8"/>
</svg>
