<svg width="221" height="148" viewBox="0 0 221 148" fill="none" xmlns="http://www.w3.org/2000/svg">
<path d="M50.16 98V104.14H42.56V98H40.88V112H42.56V105.82H50.16V112H51.86V98H50.16ZM59.3508 112.26C62.2108 112.26 64.2908 110.1 64.2908 106.96C64.2908 103.72 62.1908 101.72 59.3508 101.72C56.5108 101.72 54.4108 103.88 54.4108 106.96C54.4108 110.26 56.4508 112.26 59.3508 112.26ZM59.3508 110.82C57.3108 110.82 56.0308 109.32 56.0308 106.96C56.0308 104.76 57.4108 103.42 59.3508 103.42C61.2708 103.42 62.6708 104.68 62.6708 106.96C62.6708 109.26 61.4108 110.82 59.3508 110.82ZM78.3923 101.72C76.5123 101.72 75.3923 102.72 74.8723 103.86C74.3723 102.56 73.2923 101.72 71.6723 101.72C69.7923 101.72 68.7123 102.66 68.3123 103.84L68.3523 102H66.7523V112H68.3523V106.06C68.4123 104.24 69.6923 103.42 70.9923 103.42C72.4923 103.42 73.5723 104.26 73.5723 106.34V112H75.1723V106.26C75.1723 104.26 76.4723 103.42 77.8123 103.42C79.3123 103.42 80.3923 104.26 80.3923 106.34V112H81.9923V105.66C81.9923 103.4 80.7923 101.72 78.3923 101.72ZM93.0327 106.24C93.0327 103.38 91.4127 101.72 88.9327 101.72C86.2727 101.72 84.3527 103.88 84.3527 107.08C84.3527 110.34 86.2727 112.26 89.2727 112.26C90.6327 112.26 91.7527 111.94 92.6527 111.26V109.64C91.7327 110.48 90.7927 110.82 89.3927 110.82C87.3927 110.82 86.1127 109.64 85.9727 107.38H92.9327C93.0127 107.1 93.0327 106.68 93.0327 106.24ZM88.8927 103.42C90.5127 103.42 91.4327 104.3 91.4927 106.06H86.0327C86.2927 104.42 87.3327 103.42 88.8927 103.42ZM111.667 111.2L109.507 109.3C110.087 108.22 110.447 106.84 110.467 105.2H108.867C108.867 106.42 108.687 107.46 108.347 108.28L105.047 105.38C104.987 105.32 104.927 105.26 104.847 105.2C107.187 104.2 108.127 102.8 108.127 101.1C108.127 99.04 106.847 97.76 104.647 97.76C102.327 97.76 100.867 99.2 100.867 101.32C100.867 102.64 101.367 103.7 102.407 104.8C100.527 105.78 99.8066 107.12 99.8066 108.58C99.8066 110.9 101.347 112.3 104.187 112.3C106.027 112.3 107.607 111.66 108.727 110.4L110.847 112.24L111.667 111.2ZM104.587 99.46C105.787 99.46 106.527 100.18 106.527 101.34C106.527 102.44 106.087 103.34 103.787 104.2C102.867 103.26 102.407 102.5 102.407 101.5C102.407 100.26 103.267 99.46 104.587 99.46ZM104.187 110.86C102.367 110.86 101.407 109.86 101.407 108.46C101.407 107.38 101.967 106.54 103.467 105.8L107.647 109.44C106.847 110.4 105.667 110.86 104.187 110.86ZM127.077 105.22V110.18C126.217 110.56 125.217 110.76 123.877 110.76C120.397 110.76 118.437 108.58 118.437 104.9C118.437 101.6 120.597 99.56 124.057 99.56C125.577 99.56 126.917 99.9 127.957 100.56V98.58C126.917 98 125.657 97.72 124.177 97.72C119.637 97.72 116.757 100.54 116.757 105.04C116.757 109.48 119.397 112.3 123.717 112.3C125.737 112.3 127.677 111.76 128.777 110.9V105.22H127.077ZM134.519 101.72C133.219 101.72 132.119 102.1 131.279 102.64V104.28C132.199 103.7 133.059 103.42 134.219 103.42C135.979 103.42 136.839 104.18 136.839 106.08V106.72C136.219 106.46 135.399 106.34 134.499 106.34C132.179 106.34 130.739 107.46 130.739 109.32C130.739 111.16 131.899 112.26 133.739 112.26C135.359 112.26 136.499 111.42 136.979 110.04L136.939 112H138.439V105.64C138.439 102.98 137.039 101.72 134.519 101.72ZM134.179 110.82C132.979 110.82 132.359 110.18 132.359 109.24C132.359 108.18 133.159 107.52 134.779 107.52C135.519 107.52 136.239 107.64 136.839 107.9V107.94C136.839 109.8 135.519 110.82 134.179 110.82ZM148.858 97.5V103.6C148.118 102.28 146.858 101.72 145.398 101.72C142.878 101.72 140.798 103.72 140.798 107.04C140.798 110.54 142.958 112.26 145.338 112.26C146.838 112.26 148.138 111.58 148.898 110.22L148.858 112H150.458V97.5H148.858ZM145.618 110.82C143.858 110.82 142.398 109.54 142.398 107.08C142.398 104.7 143.838 103.42 145.638 103.42C147.478 103.42 148.878 104.64 148.878 107.08C148.878 109.54 147.438 110.82 145.618 110.82ZM155.226 104.18L155.266 102H153.666V112H155.266V106.98C155.266 104.6 156.666 103.66 158.326 103.66C158.466 103.66 158.606 103.66 158.746 103.68V101.84C156.746 101.88 155.666 102.86 155.226 104.18ZM168.521 106.24C168.521 103.38 166.901 101.72 164.421 101.72C161.761 101.72 159.841 103.88 159.841 107.08C159.841 110.34 161.761 112.26 164.761 112.26C166.121 112.26 167.241 111.94 168.141 111.26V109.64C167.221 110.48 166.281 110.82 164.881 110.82C162.881 110.82 161.601 109.64 161.461 107.38H168.421C168.501 107.1 168.521 106.68 168.521 106.24ZM164.381 103.42C166.001 103.42 166.921 104.3 166.981 106.06H161.521C161.781 104.42 162.821 103.42 164.381 103.42ZM175.83 101.72C174.05 101.72 173.01 102.7 172.57 103.9L172.61 102H171.01V112H172.61V106.32C172.61 104.32 173.89 103.42 175.17 103.42C176.65 103.42 177.69 104.26 177.69 106.32V112H179.29V105.66C179.29 103.4 178.09 101.72 175.83 101.72Z" fill="black"/>
<path d="M132.512 83.446H84.7962C84.5962 83.446 84.4414 83.285 84.4414 83.0919V57.6705C84.4414 57.4709 84.6027 57.3164 84.7962 57.3164H132.512C132.712 57.3164 132.867 57.4773 132.867 57.6705V83.0855C132.867 83.285 132.705 83.446 132.512 83.446Z" fill="white"/>
<path d="M132.306 58.4557C130.79 57.9858 129.3 57.6832 127.791 57.5094C120.889 56.7176 114.49 58.224 108.555 61.7775C106.536 62.9877 104.872 64.5198 103.917 66.7214C103.478 67.7256 103.22 68.7749 103.098 69.8629C103.052 69.8564 103.007 69.8629 102.994 69.8436C101.653 67.8029 99.5369 67.0562 97.3243 66.5154C93.0024 65.4597 88.7772 65.7494 84.6939 67.5711C84.6359 67.5969 84.5714 67.6162 84.4552 67.6613C84.4488 67.4488 84.4294 67.2686 84.4294 67.0883C84.4294 62.3568 84.423 57.6189 84.4423 52.8874C84.4423 52.4174 84.3133 52.3144 83.8682 52.3209C81.7718 52.3466 79.6818 52.3337 77.5853 52.3337C77.3789 52.3337 77.1789 52.3337 76.9531 52.2372C77.7724 51.7029 78.5851 51.1621 79.4044 50.6278C89.0675 44.2998 98.7435 37.9589 108.407 31.6181C108.684 31.4378 108.865 31.3863 109.174 31.5987C119.037 38.4289 128.913 45.2461 138.783 52.0634C138.879 52.1277 138.976 52.1985 139.176 52.3402C138.118 52.3402 137.189 52.3402 136.26 52.3402C135.357 52.3402 134.461 52.3466 133.558 52.3337C133.267 52.3273 133.145 52.4174 133.171 52.72C133.19 52.926 133.171 53.132 133.171 53.3444C133.171 63.1551 133.171 72.9722 133.171 82.7828C133.171 83.5811 133.254 83.4523 132.526 83.4523C116.721 83.4587 100.917 83.4523 85.1132 83.4523C84.4294 83.4523 84.4294 83.4523 84.4294 82.7699C84.4294 78.1736 84.4294 73.5773 84.4294 68.9874C84.4294 68.4531 84.4359 68.4402 84.9197 68.7234C86.7259 69.7663 88.1902 71.1246 89.132 73.0301C89.9577 74.7038 90.8672 76.3389 92.2218 77.665C94.5828 79.989 98.1113 80.5233 100.821 78.9718C102.027 78.2766 102.891 77.2724 103.491 76.0235C103.678 75.6308 103.614 75.3798 103.317 75.0772C101.35 73.0237 99.0015 71.5237 96.4341 70.3521C94.1699 69.3157 91.8025 68.5625 89.2352 68.0089C92.7379 68.1119 99.7046 69.9723 103.872 74.6459C108.561 66.9532 115.702 62.6143 123.991 59.8333C124.017 59.8784 124.043 59.917 124.069 59.9621C123.591 60.181 123.108 60.3934 122.63 60.6187C117.605 62.9813 112.967 65.9232 109.019 69.8757C107.349 71.5495 105.897 73.3842 104.678 75.4119C104.504 75.7016 104.504 75.9076 104.691 76.1973C107.162 79.9697 111.838 81.5597 116.231 80.1499C119.889 78.9847 122.23 76.4612 123.759 73.0623C124.54 71.3242 125.127 69.5153 125.591 67.6806C126.443 64.3074 128.384 61.6745 131.01 59.4793C131.41 59.1381 131.829 58.8291 132.306 58.4557ZM102.782 49.2631C102.782 49.9197 102.794 50.5763 102.775 51.2265C102.769 51.4969 102.859 51.5806 103.13 51.5806C104.426 51.5677 105.723 51.5612 107.02 51.5806C107.355 51.587 107.426 51.4647 107.426 51.1621C107.413 49.8875 107.413 48.6065 107.426 47.3318C107.432 47.01 107.323 46.9198 107.013 46.9263C105.736 46.9392 104.452 46.9456 103.175 46.9263C102.84 46.9198 102.769 47.0422 102.775 47.3447C102.794 47.9885 102.782 48.6258 102.782 49.2631ZM113.212 49.2695C113.212 48.6129 113.206 47.9627 113.212 47.3061C113.219 47.0615 113.167 46.9327 112.877 46.9327C111.567 46.9456 110.251 46.9456 108.942 46.9327C108.671 46.9327 108.587 47.0164 108.587 47.2868C108.6 48.5936 108.594 49.9068 108.587 51.2136C108.587 51.4647 108.632 51.5806 108.923 51.5806C110.232 51.5677 111.548 51.5612 112.858 51.5806C113.18 51.587 113.219 51.4454 113.212 51.1814C113.206 50.5441 113.212 49.9068 113.212 49.2695ZM113.212 55.0246C113.212 54.368 113.199 53.7113 113.219 53.0612C113.225 52.7715 113.128 52.6749 112.838 52.6749C111.542 52.6878 110.245 52.6878 108.955 52.6749C108.697 52.6749 108.587 52.7457 108.594 53.0225C108.607 54.3293 108.607 55.6426 108.594 56.9558C108.594 57.2326 108.684 57.3034 108.948 57.3034C110.245 57.2906 111.542 57.2841 112.832 57.3034C113.167 57.3099 113.232 57.1876 113.225 56.885C113.199 56.267 113.212 55.6426 113.212 55.0246Z" fill="#2269D8"/>
<path d="M102.78 49.2633C102.78 48.626 102.793 47.9887 102.774 47.3513C102.767 47.0488 102.838 46.9265 103.174 46.9329C104.451 46.9522 105.735 46.9522 107.012 46.9329C107.328 46.9265 107.431 47.023 107.425 47.3385C107.412 48.6131 107.412 49.8941 107.425 51.1688C107.425 51.4713 107.354 51.5872 107.018 51.5872C105.722 51.5679 104.425 51.5743 103.129 51.5872C102.858 51.5872 102.767 51.5035 102.774 51.2331C102.793 50.5765 102.78 49.9199 102.78 49.2633Z" fill="#FAFBF9"/>
<path d="M113.213 49.2694C113.213 49.9067 113.206 50.544 113.219 51.1813C113.226 51.4453 113.187 51.5869 112.865 51.5804C111.555 51.5611 110.239 51.5676 108.93 51.5804C108.639 51.5804 108.588 51.4646 108.594 51.2135C108.601 49.9067 108.607 48.5935 108.594 47.2867C108.594 47.0163 108.678 46.9326 108.949 46.9326C110.259 46.9455 111.574 46.9455 112.884 46.9326C113.181 46.9326 113.226 47.0549 113.219 47.306C113.206 47.9626 113.213 48.6128 113.213 49.2694Z" fill="#FCFDFB"/>
<path d="M113.211 55.0245C113.211 55.6425 113.198 56.2669 113.218 56.8849C113.231 57.1874 113.16 57.3098 112.824 57.3033C111.528 57.284 110.231 57.2904 108.941 57.3033C108.677 57.3033 108.58 57.2389 108.586 56.9557C108.599 55.6489 108.599 54.3357 108.586 53.0224C108.586 52.7456 108.689 52.6748 108.947 52.6748C110.244 52.6812 111.541 52.6877 112.831 52.6748C113.121 52.6748 113.224 52.7649 113.211 53.0611C113.198 53.7112 113.211 54.3679 113.211 55.0245Z" fill="#FCFDFB"/>
</svg>
