<svg width="229" height="229" viewBox="0 0 229 229" fill="none" xmlns="http://www.w3.org/2000/svg">
<path d="M228.443 114.222C228.443 144.117 228.443 173.965 228.443 203.859C228.443 205.22 228.443 206.581 228.443 207.895C228.443 216.014 222.67 225.354 212.485 227.841C210.56 228.31 208.683 228.639 206.711 228.592C205.679 228.545 204.599 228.592 203.567 228.592C143.956 228.592 84.2991 228.592 24.6888 228.592C23.3276 228.592 21.9664 228.639 20.6522 228.592C11.2648 228.169 3.23848 222.068 0.70387 212.542C0.422247 211.368 0.281435 210.195 0.234498 208.975C0.140623 207.332 0.140646 205.69 0.140646 204C0.140646 144.258 0.140646 84.4684 0.140646 24.726C0.140646 23.2242 0.0936976 21.7224 0.187572 20.2207C0.844693 11.257 5.49146 5.15601 13.6585 1.63622C16.1931 0.556825 18.8686 0.369086 21.5909 0.181364C22.6236 0.0875035 23.7031 0.181364 24.7357 0.181364C84.346 0.181364 144.003 0.181364 203.614 0.181364C205.867 0.181364 208.12 0.181359 210.373 0.556802C218.868 1.96471 224.454 6.84549 227.364 14.8237C228.068 16.7947 228.49 18.8597 228.443 21.0185C228.396 22.5203 228.443 24.022 228.443 25.5238C228.443 55.043 228.443 84.6092 228.443 114.222ZM114.339 211.65C141.797 211.65 169.255 211.65 196.761 211.65C198.263 211.65 199.765 211.65 201.267 211.603C205.82 211.509 211.03 207.849 212.297 202.498C212.626 201.044 212.813 199.542 212.86 198.04C212.954 195.787 212.907 193.535 212.907 191.282C212.907 178.376 212.907 165.47 212.907 152.564C212.907 150.734 212.86 148.951 212.344 147.214C211.03 142.662 208.12 139.752 203.567 138.391C201.501 137.781 199.436 137.828 197.324 137.828C141.938 137.828 86.5521 137.828 31.1662 137.828C30.1335 137.828 29.0539 137.781 28.0213 137.875C21.2624 138.438 17.5543 142.662 16.2401 147.355C15.7707 148.998 15.8646 150.64 15.8646 152.283C15.8646 167.301 15.8646 182.318 15.8646 197.289C15.8646 198.322 15.8177 199.401 15.9115 200.433C16.4748 206.488 21.4501 211.321 27.505 211.603C29.007 211.697 30.509 211.65 32.011 211.65C59.3754 211.65 86.8806 211.65 114.339 211.65ZM88.6643 80.2447C88.6643 83.5298 88.6643 86.8619 88.6643 90.147C88.6643 91.0387 88.7112 91.9304 88.7112 92.822C88.7112 93.2444 88.852 93.4321 89.2744 93.3382C89.4152 93.2913 89.5561 93.2444 89.603 93.1506C92.2784 87.9413 95.0008 82.7789 97.6762 77.5696C98.7558 75.4578 99.8353 73.299 100.962 71.1402C101.337 70.3893 101.948 70.0608 102.792 70.0608C103.872 70.0608 104.858 70.1077 105.421 71.281C105.89 72.2196 106.5 73.0643 107.111 73.9091C108.002 75.1293 109.082 76.2087 110.349 77.0065C113.025 78.649 115.794 78.649 118.376 76.8657C119.596 76.0209 120.582 74.8477 121.567 73.7213C122.271 72.9235 122.741 71.9849 123.304 71.0932C123.867 70.2016 124.665 70.0608 125.604 70.0608C126.59 70.1077 127.294 70.3893 127.716 71.3748C128.185 72.4542 128.796 73.5336 129.312 74.613C132.034 80.1039 134.757 85.6417 137.526 91.1325C137.995 92.0711 138.559 92.9628 139.028 93.8545C139.216 94.183 139.45 94.2769 139.779 94.0892C139.873 94.0422 139.92 93.8545 139.92 93.7606C139.92 85.3601 139.967 76.9595 139.967 68.559C139.967 68.4182 139.92 68.2774 139.92 68.0897C139.92 67.4327 139.638 66.9164 139.122 66.541C138.183 65.837 137.197 65.1331 136.212 64.4291C133.63 62.5988 131.049 60.8155 128.467 58.9852C127.716 58.422 127.247 57.7181 127.294 56.7325C127.387 54.1983 127.434 51.6171 127.481 49.0829C127.528 44.8591 126.777 40.7293 125.604 36.6463C124.759 33.7366 123.586 31.0146 121.849 28.4804C120.816 26.9786 119.596 25.6646 118.047 24.726C115.325 23.0834 112.602 23.2242 110.021 24.9606C109.035 25.6176 108.143 26.4624 107.392 27.401C106.407 28.7151 105.515 30.123 104.764 31.5778C102.792 35.52 101.713 39.7437 101.29 44.0613C100.915 47.9565 100.633 51.8518 101.15 55.747C101.197 56.0286 101.196 56.3571 101.196 56.6387C101.243 57.4365 101.009 58.0935 100.352 58.6097C99.7415 59.0321 99.1313 59.5014 98.5211 59.9238C95.7987 61.801 93.1702 63.7721 90.4009 65.6024C88.9459 66.541 88.5234 67.7142 88.5704 69.3568C88.7112 73.0643 88.6643 76.678 88.6643 80.2447ZM116.357 103.241C116.357 98.266 116.357 93.3383 116.357 88.3636C116.357 87.3312 116.357 86.2518 116.31 85.2193C116.263 84.7969 116.076 84.3745 115.888 83.9522C115.606 83.2951 114.668 82.8259 114.01 82.9666C113.353 83.1074 112.461 83.8114 112.415 84.3745C112.321 84.9846 112.227 85.5478 112.227 86.1579C112.227 97.4212 112.227 108.685 112.227 119.948C112.227 120.558 112.274 121.121 112.368 121.731C112.461 122.576 113.353 123.28 114.292 123.28C115.184 123.28 116.076 122.576 116.169 121.684C116.263 120.793 116.357 119.901 116.357 119.009C116.357 113.753 116.357 108.497 116.357 103.241ZM122.271 94.4646C122.271 97.1396 122.271 99.8616 122.271 102.537C122.271 103.288 122.365 104.038 122.506 104.742C122.647 105.54 123.726 106.15 124.618 106.009C125.275 105.916 126.073 105.212 126.214 104.602C126.261 104.32 126.355 104.038 126.355 103.71C126.402 103.241 126.402 102.818 126.402 102.349C126.402 97.1396 126.402 91.8834 126.402 86.6741C126.402 85.9232 126.308 85.1724 126.214 84.4684C126.12 83.7175 124.994 82.8258 124.243 82.8728C123.492 82.9197 122.459 83.8114 122.365 84.5623C122.271 85.1724 122.224 85.7355 122.224 86.3456C122.271 89.0676 122.271 91.7896 122.271 94.4646ZM106.078 94.5585C106.078 91.8834 106.078 89.1615 106.078 86.4864C106.078 85.7355 105.984 84.9846 105.843 84.2807C105.749 83.7175 104.858 83.0136 104.2 82.9666C103.59 82.9197 102.558 83.6237 102.417 84.1399C102.323 84.7031 102.182 85.3132 102.182 85.9232C102.182 91.6018 102.182 97.2804 102.182 103.006C102.182 103.616 102.276 104.179 102.417 104.789C102.511 105.399 103.309 105.963 104.06 106.056C104.764 106.15 105.656 105.587 105.796 104.93C105.937 104.179 106.031 103.475 106.078 102.724C106.125 99.9554 106.078 97.2335 106.078 94.5585Z" fill="#EF5A15"/>
<path d="M114.338 211.65C86.8795 211.65 59.4212 211.65 31.916 211.65C30.414 211.65 28.912 211.697 27.41 211.603C21.3551 211.275 16.3797 206.441 15.8165 200.434C15.7226 199.401 15.7696 198.322 15.7696 197.289C15.7696 182.272 15.7696 167.254 15.7696 152.283C15.7696 150.64 15.7226 148.998 16.1451 147.355C17.4593 142.662 21.1673 138.438 27.9263 137.875C28.9589 137.781 30.0385 137.828 31.0711 137.828C86.457 137.828 141.843 137.828 197.229 137.828C199.341 137.828 201.406 137.781 203.472 138.392C208.025 139.753 210.935 142.662 212.249 147.214C212.765 148.951 212.812 150.781 212.812 152.565C212.812 165.47 212.812 178.376 212.812 191.282C212.812 193.535 212.859 195.787 212.765 198.04C212.718 199.542 212.53 201.044 212.202 202.499C210.935 207.849 205.725 211.556 201.172 211.603C199.67 211.603 198.168 211.65 196.666 211.65C169.254 211.65 141.796 211.65 114.338 211.65ZM58.9987 173.355C58.9987 171.102 58.9987 168.849 58.9987 166.644C58.9987 166.034 58.9518 165.423 58.858 164.86C58.811 164.579 58.5763 164.297 58.3886 164.156C57.8723 163.828 56.2295 163.875 55.807 164.25C55.7132 164.344 55.5254 164.438 55.5254 164.579C55.4316 165.142 55.2907 165.752 55.2438 166.315C55.1968 168.709 55.1968 171.102 55.1499 173.495C55.1499 173.683 54.7744 173.871 54.5867 174.012C54.4928 174.059 54.305 173.965 54.2112 173.871C53.7418 173.308 53.2255 172.745 52.803 172.181C51.0194 169.788 49.2828 167.348 47.5461 164.907C47.0767 164.25 46.4196 163.969 45.6216 163.969C45.1523 163.969 44.7299 163.969 44.2605 164.016C43.6972 164.063 43.0401 164.579 43.0401 165.095C43.0401 170.304 42.9931 175.56 43.0401 180.77C43.0401 181.474 43.6972 181.896 44.636 181.943C46.4196 182.037 46.9359 181.568 46.9828 180.066C47.0298 178.142 46.9828 176.171 47.0297 174.246C47.0297 173.636 47.1706 173.073 47.2644 172.463C47.2644 172.369 47.4991 172.322 47.593 172.275C47.7338 172.228 47.9216 172.181 48.0155 172.228C48.4379 172.651 48.8603 173.073 49.1889 173.589C50.9256 176.03 52.6622 178.47 54.3989 180.911C55.1499 181.943 57.2151 182.412 58.4355 181.708C59.1396 181.286 58.9987 180.394 58.9987 179.69C58.9987 177.532 58.9987 175.42 58.9987 173.355ZM62.566 172.604C62.5191 172.604 62.519 172.604 62.4721 172.604C62.4721 174.856 62.4721 177.109 62.4721 179.362C62.4721 179.972 62.5191 180.582 62.6599 181.145C62.7068 181.38 62.9885 181.661 63.2701 181.755C63.6925 181.896 64.1618 181.896 64.5843 181.896C65.7108 181.896 66.2271 181.427 66.274 180.3C66.3209 178.048 66.2741 175.795 66.321 173.542C66.321 173.12 66.4618 172.698 66.6026 172.322C66.6495 172.228 66.9311 172.088 66.9781 172.135C67.3536 172.369 67.776 172.557 68.0107 172.885C69.9821 175.56 71.9065 178.235 73.831 180.911C74.3942 181.708 75.1921 181.99 76.1778 181.943C76.3186 181.943 76.4594 181.943 76.6472 181.943C77.8206 181.943 78.4308 181.474 78.4308 180.441C78.4308 175.467 78.4308 170.539 78.4308 165.564C78.4308 165.283 78.3369 165.001 78.243 164.673C78.1022 164.156 77.6798 163.969 77.2573 163.922C76.6941 163.875 76.0839 163.922 75.4738 164.016C75.2391 164.063 74.9105 164.297 74.8166 164.532C74.6289 165.095 74.535 165.705 74.535 166.268C74.4881 168.662 74.4411 171.055 74.3942 173.449C74.3942 173.542 74.3003 173.73 74.2064 173.777C73.8779 173.965 73.6432 173.918 73.4085 173.636C72.0943 171.806 70.7331 170.023 69.4188 168.192C68.527 166.972 67.6352 165.752 66.7434 164.579C66.3679 164.109 65.8047 163.828 65.1945 163.828C64.7251 163.828 64.3027 163.828 63.8333 163.828C63.1762 163.828 62.6129 164.297 62.6129 164.86C62.5191 167.488 62.566 170.07 62.566 172.604ZM192.958 172.792H192.911C192.911 171.008 192.911 169.178 192.911 167.395C192.911 166.644 192.864 165.893 192.817 165.142C192.77 164.344 192.207 163.922 191.268 163.875C190.845 163.875 190.376 163.922 189.954 163.969C189.437 164.016 189.156 164.438 189.062 164.86C188.921 165.611 188.921 166.362 188.921 167.113C188.874 169.225 188.827 171.29 188.827 173.402C188.827 173.542 188.733 173.777 188.686 173.777C188.405 173.777 188.029 173.824 187.888 173.683C186.762 172.275 185.729 170.82 184.65 169.366C183.476 167.817 182.35 166.221 181.176 164.673C180.801 164.203 180.238 163.922 179.627 163.875C179.017 163.875 178.454 163.969 177.844 163.969C177.468 163.969 177.281 164.156 177.187 164.485C177.093 164.907 176.952 165.377 176.952 165.799C176.952 170.586 176.952 175.42 176.952 180.207C176.952 180.488 176.952 180.817 177.093 181.098C177.234 181.333 177.468 181.708 177.656 181.708C178.407 181.802 179.158 181.802 179.862 181.708C180.097 181.708 180.425 181.38 180.472 181.145C180.613 180.582 180.66 179.972 180.707 179.362C180.754 177.109 180.754 174.856 180.848 172.604C180.848 172.416 181.223 172.181 181.411 172.041C181.505 171.994 181.74 172.088 181.787 172.135C182.397 172.792 182.96 173.449 183.523 174.153C185.119 176.311 186.668 178.517 188.264 180.723C188.827 181.521 189.625 181.849 190.611 181.802C191.08 181.802 191.55 181.849 191.925 181.708C192.301 181.568 192.723 181.098 192.77 180.77C192.864 178.189 192.911 175.514 192.958 172.792ZM173.807 172.885C173.807 166.784 168.785 163.499 164.279 163.734C159.304 163.969 155.408 168.145 155.596 173.308C155.736 177.766 158.881 182.365 164.936 182.225C170.569 182.037 173.854 177.86 173.807 172.885ZM90.3528 163.734C86.2224 163.452 81.3409 167.301 81.3878 172.979C81.4348 177.344 84.2979 182.131 90.3998 182.178C96.5016 182.225 99.7403 177.297 99.6464 172.698C99.5056 167.535 95.1404 163.499 90.3528 163.734ZM132.643 181.896C132.69 181.896 132.831 181.896 132.972 181.849C133.582 181.802 134.004 181.145 133.77 180.582C132.08 176.405 130.39 172.275 128.701 168.098C128.231 166.972 127.809 165.893 127.292 164.813C127.011 164.203 126.448 163.969 125.837 163.922C124.711 163.781 123.913 164.109 123.584 164.954C121.519 170.07 119.454 175.232 117.436 180.394C117.06 181.38 117.576 181.896 118.844 181.943C119.97 181.943 120.862 181.661 121.284 180.441C121.754 178.986 122.693 178.235 124.335 178.423C125.368 178.517 126.448 178.423 127.48 178.47C128.278 178.517 128.935 178.799 129.311 179.55C129.592 180.066 129.874 180.582 130.156 181.145C130.484 181.802 131.047 181.849 131.658 181.943C131.892 181.943 132.221 181.896 132.643 181.896ZM108.94 181.896C110.301 181.943 111.005 181.521 111.381 180.441C112.554 177.203 113.821 174.012 114.995 170.774C115.746 168.802 116.45 166.831 117.154 164.86C117.295 164.485 116.919 163.922 116.497 163.922C115.887 163.875 115.323 163.828 114.713 163.875C114.103 163.922 113.54 164.203 113.305 164.813C112.319 167.301 111.381 169.835 110.348 172.322C110.066 173.026 109.691 173.636 109.315 174.293C109.269 174.387 109.081 174.528 108.987 174.528C108.846 174.481 108.752 174.34 108.658 174.246C108.283 173.449 107.86 172.651 107.532 171.806C106.64 169.6 105.795 167.348 104.95 165.095C104.575 164.062 103.777 163.828 102.838 163.828C102.557 163.828 102.228 163.828 101.946 163.875C101.195 163.922 100.82 164.391 101.055 165.001C102.979 170.21 104.903 175.373 106.828 180.535C107.203 181.614 107.954 181.943 108.94 181.896ZM140.294 163.922C138.651 163.969 137.008 163.922 135.366 163.969C134.568 163.969 134.145 164.532 134.098 165.517C134.098 165.658 134.098 165.799 134.098 165.987C134.145 167.16 134.474 167.582 135.6 167.817C136.023 167.911 136.492 167.911 136.915 168.005C137.806 168.192 138.182 168.615 138.229 169.506C138.276 172.651 138.229 175.795 138.276 178.939C138.276 179.69 138.323 180.441 138.464 181.145C138.51 181.38 138.839 181.708 139.027 181.755C139.778 181.849 140.529 181.849 141.233 181.802C141.468 181.802 141.796 181.474 141.843 181.239C141.984 180.676 142.078 180.066 142.078 179.503C142.078 176.499 142.078 173.495 142.078 170.539C142.078 168.709 142.219 168.099 144.237 167.911C144.659 167.864 145.129 167.723 145.551 167.629C146.067 167.488 146.208 167.066 146.302 166.597C146.349 166.315 146.349 165.987 146.349 165.705C146.255 164.297 146.02 164.063 144.8 164.016C143.298 163.828 141.796 163.922 140.294 163.922ZM39.6137 172.979C39.6137 172.369 39.6137 171.806 39.6137 171.196C39.5668 169.084 39.5667 167.019 39.4729 164.907C39.4729 164.485 39.1443 164.016 38.628 164.016C37.877 163.969 37.1729 164.016 36.4219 164.109C36.1873 164.156 35.9526 164.438 35.8587 164.673C35.7179 164.907 35.671 165.236 35.671 165.517C35.671 170.586 35.671 175.654 35.671 180.77C35.671 180.91 35.6709 181.098 35.7179 181.192C35.9056 181.427 36.0934 181.661 36.3281 181.755C36.7505 181.896 37.2199 181.943 37.6423 181.943C39.0504 181.99 39.5198 181.521 39.5198 180.113C39.6137 177.719 39.6137 175.373 39.6137 172.979ZM152.592 173.167C152.639 170.914 152.639 168.662 152.639 166.456C152.639 165.846 152.545 165.283 152.404 164.72C152.357 164.485 152.075 164.203 151.841 164.109C151.418 163.969 150.949 163.922 150.526 163.922C149.259 163.922 148.696 164.297 148.696 165.377C148.649 170.445 148.649 175.56 148.649 180.629C148.649 180.77 148.649 180.957 148.696 181.051C148.884 181.474 149.118 181.849 149.635 181.896C150.245 181.943 150.808 181.943 151.418 181.943C152.075 181.896 152.592 181.427 152.592 180.817C152.592 178.235 152.592 175.701 152.592 173.167Z" fill="#FEFEFE"/>
<path d="M88.6672 80.2447C88.6672 76.6311 88.7142 73.0175 88.6672 69.4507C88.6203 67.8082 89.0897 66.6349 90.4978 65.6963C93.2671 63.913 95.9425 61.9419 98.6179 60.0177C99.2281 59.5953 99.8383 59.126 100.448 58.7037C101.106 58.2344 101.34 57.5304 101.293 56.7326C101.293 56.451 101.293 56.1225 101.246 55.8409C100.73 51.9457 101.012 48.0505 101.387 44.1552C101.857 39.7907 102.889 35.567 104.861 31.6718C105.612 30.2169 106.503 28.809 107.489 27.4949C108.193 26.5563 109.132 25.7116 110.118 25.0546C112.699 23.2712 115.421 23.1304 118.144 24.8199C119.74 25.7585 120.96 27.0726 121.946 28.5743C123.682 31.0616 124.856 33.8306 125.701 36.7402C126.874 40.7763 127.625 44.9061 127.578 49.1768C127.578 51.711 127.484 54.2922 127.39 56.8265C127.344 57.8589 127.766 58.5629 128.564 59.0791C131.145 60.9094 133.727 62.6928 136.309 64.5231C137.294 65.227 138.28 65.884 139.219 66.6349C139.735 67.0104 139.97 67.5266 140.017 68.1836C140.017 68.3244 140.064 68.4652 140.064 68.6529C140.064 77.0535 140.064 85.454 140.017 93.8546C140.017 93.9484 139.97 94.1361 139.876 94.1831C139.547 94.3708 139.313 94.2769 139.125 93.9484C138.608 93.0098 138.045 92.1181 137.623 91.2264C134.9 85.7356 132.178 80.1978 129.409 74.7069C128.892 73.6275 128.282 72.5951 127.813 71.4688C127.39 70.4832 126.686 70.1547 125.701 70.1547C124.762 70.1547 123.917 70.2955 123.401 71.1871C122.838 72.0788 122.368 73.0175 121.664 73.8153C120.678 74.9416 119.693 76.1149 118.472 76.9596C115.891 78.7899 113.122 78.7899 110.446 77.1004C109.132 76.3026 108.099 75.2232 107.207 74.003C106.597 73.1582 105.987 72.3135 105.518 71.3749C104.954 70.2016 103.969 70.1547 102.889 70.1547C102.044 70.1547 101.434 70.4832 101.059 71.2341C99.9791 73.3929 98.8996 75.5048 97.7731 77.6636C95.0976 82.8728 92.4222 88.0352 89.6998 93.2444C89.6529 93.3383 89.5121 93.4322 89.3713 93.4322C88.9958 93.526 88.808 93.3383 88.808 92.916C88.808 92.0243 88.7611 91.1326 88.7611 90.2409C88.6672 86.8619 88.6672 83.5768 88.6672 80.2447ZM119.693 39.5091C119.646 37.3972 119.458 35.2854 118.285 33.4551C117.299 31.8595 116.079 30.4515 114.06 30.5923C112.277 30.6862 111.056 31.8595 110.258 33.4082C108.146 37.3972 108.146 41.4333 110.211 45.4693C111.103 47.1588 112.37 48.4259 114.389 48.379C116.219 48.332 117.346 47.0649 118.238 45.6101C119.411 43.6859 119.646 41.621 119.693 39.5091Z" fill="#FEFEFE"/>
<path d="M116.356 103.24C116.356 108.497 116.356 113.753 116.356 119.009C116.356 119.901 116.262 120.792 116.168 121.684C116.075 122.576 115.183 123.28 114.291 123.28C113.353 123.28 112.461 122.576 112.367 121.731C112.32 121.121 112.227 120.558 112.227 119.948C112.227 108.684 112.227 97.421 112.227 86.1577C112.227 85.5476 112.32 84.9845 112.414 84.3744C112.508 83.8112 113.353 83.1073 114.01 82.9665C114.667 82.8257 115.605 83.295 115.887 83.952C116.075 84.3744 116.262 84.7967 116.309 85.2191C116.403 86.2516 116.356 87.331 116.356 88.3635C116.356 93.3381 116.356 98.2658 116.356 103.24Z" fill="#FEFEFE"/>
<path d="M122.273 94.4646C122.273 91.7896 122.273 89.0676 122.273 86.3926C122.273 85.7825 122.32 85.2194 122.414 84.6093C122.508 83.8584 123.54 82.9667 124.291 82.9197C124.995 82.8728 126.168 83.7645 126.262 84.5154C126.356 85.2663 126.45 86.0172 126.45 86.7211C126.45 91.9304 126.45 97.1866 126.45 102.396C126.45 102.865 126.45 103.288 126.403 103.757C126.356 104.038 126.309 104.32 126.262 104.649C126.121 105.259 125.371 105.963 124.667 106.056C123.775 106.197 122.696 105.587 122.555 104.789C122.414 104.085 122.32 103.334 122.32 102.584C122.273 99.8616 122.273 97.1397 122.273 94.4646Z" fill="#FEFEFE"/>
<path d="M106.075 94.5587C106.075 97.2338 106.075 99.9557 106.075 102.631C106.075 103.382 105.934 104.133 105.793 104.836C105.699 105.494 104.808 106.057 104.057 105.963C103.306 105.869 102.508 105.306 102.414 104.696C102.32 104.133 102.18 103.522 102.18 102.912C102.18 97.2338 102.18 91.5552 102.18 85.8297C102.18 85.2196 102.32 84.6564 102.414 84.0463C102.508 83.5301 103.587 82.873 104.198 82.873C104.854 82.92 105.746 83.577 105.84 84.1871C105.934 84.938 106.028 85.6889 106.075 86.3928C106.122 89.1617 106.075 91.8837 106.075 94.5587Z" fill="#FEFEFE"/>
<path d="M58.9977 173.355C58.9977 175.467 58.9977 177.532 58.9977 179.644C58.9977 180.348 59.1386 181.239 58.4345 181.662C57.2141 182.366 55.1489 181.896 54.3979 180.864C52.6612 178.423 50.9246 175.983 49.1879 173.543C48.8593 173.073 48.4369 172.651 48.0145 172.182C47.9675 172.135 47.7328 172.182 47.592 172.229C47.4512 172.276 47.2634 172.323 47.2634 172.416C47.1695 172.98 47.0757 173.59 47.0287 174.2C46.9818 176.124 47.0287 178.095 46.9818 180.019C46.9349 181.521 46.4186 181.943 44.6349 181.896C43.6493 181.849 43.0391 181.427 43.0391 180.723C43.0391 175.514 43.0391 170.258 43.0391 165.048C43.0391 164.532 43.6493 163.969 44.2595 163.969C44.7288 163.922 45.1512 163.922 45.6206 163.922C46.4185 163.922 47.0757 164.204 47.5451 164.861C49.2818 167.301 51.0184 169.741 52.802 172.135C53.2245 172.745 53.7408 173.261 54.2101 173.824C54.304 173.918 54.5387 174.012 54.5857 173.965C54.8204 173.824 55.1489 173.637 55.1489 173.449C55.1958 171.055 55.1958 168.662 55.2427 166.269C55.2427 165.705 55.3836 165.095 55.5244 164.532C55.5714 164.391 55.7122 164.297 55.806 164.204C56.2285 163.875 57.8713 163.781 58.3876 164.11C58.6223 164.25 58.81 164.579 58.8569 164.814C58.9508 165.377 58.9977 165.987 58.9977 166.597C58.9977 168.85 58.9977 171.102 58.9977 173.355Z" fill="#EF5A15"/>
<path d="M62.5666 172.604C62.5666 170.07 62.5666 167.489 62.5666 164.954C62.5666 164.391 63.1299 163.922 63.787 163.922C64.2563 163.922 64.6788 163.922 65.1482 163.922C65.7583 163.922 66.3216 164.203 66.6971 164.673C67.6358 165.846 68.4807 167.066 69.3725 168.286C70.6868 170.117 72.0479 171.9 73.3622 173.73C73.5499 174.012 73.8315 174.059 74.1601 173.871C74.254 173.824 74.3479 173.636 74.3479 173.543C74.3948 171.149 74.4417 168.756 74.4886 166.362C74.4886 165.799 74.6295 165.189 74.7703 164.626C74.8172 164.391 75.1458 164.157 75.4274 164.11C75.9906 164.016 76.6008 163.969 77.211 164.016C77.6334 164.063 78.1028 164.25 78.1967 164.767C78.2436 165.048 78.3844 165.33 78.3844 165.658C78.3844 170.633 78.3844 175.561 78.3844 180.535C78.3844 181.568 77.7742 182.037 76.6008 182.037C76.46 182.037 76.3192 182.037 76.1314 182.037C75.1927 182.084 74.3478 181.802 73.7846 181.005C71.8601 178.329 69.9358 175.654 67.9644 172.979C67.7297 172.651 67.3072 172.463 66.9317 172.229C66.8848 172.182 66.6032 172.322 66.5563 172.416C66.4155 172.839 66.2746 173.214 66.2746 173.636C66.2277 175.889 66.2746 178.142 66.2277 180.394C66.2277 181.521 65.7114 181.99 64.538 181.99C64.0686 181.99 63.6461 181.99 63.2237 181.849C62.989 181.755 62.7074 181.474 62.6135 181.239C62.4727 180.676 62.4258 180.066 62.4258 179.456C62.4258 177.203 62.4258 174.951 62.4258 172.698C62.4727 172.604 62.5197 172.604 62.5666 172.604Z" fill="#EF5A15"/>
<path d="M192.959 172.792C192.912 175.467 192.865 178.189 192.724 180.864C192.724 181.192 192.255 181.615 191.879 181.802C191.504 181.99 190.987 181.896 190.565 181.896C189.626 181.943 188.781 181.662 188.218 180.817C186.669 178.611 185.073 176.405 183.477 174.247C182.961 173.543 182.351 172.886 181.741 172.229C181.647 172.135 181.412 172.041 181.365 172.135C181.131 172.275 180.802 172.51 180.802 172.698C180.755 174.95 180.708 177.203 180.661 179.456C180.661 180.066 180.614 180.629 180.427 181.239C180.38 181.474 180.051 181.755 179.816 181.802C179.065 181.849 178.314 181.849 177.61 181.802C177.376 181.755 177.141 181.427 177.047 181.192C176.906 180.911 176.906 180.629 176.906 180.301C176.906 175.514 176.906 170.68 176.906 165.893C176.906 165.471 177.047 165.001 177.141 164.579C177.235 164.203 177.423 164.063 177.798 164.063C178.408 164.063 178.971 163.969 179.582 163.969C180.192 163.969 180.755 164.25 181.131 164.767C182.304 166.315 183.431 167.911 184.604 169.46C185.684 170.914 186.716 172.369 187.843 173.777C187.936 173.918 188.359 173.871 188.641 173.871C188.687 173.871 188.781 173.636 188.781 173.496C188.828 171.384 188.875 169.319 188.875 167.207C188.875 166.456 188.875 165.705 189.016 164.954C189.11 164.532 189.345 164.11 189.908 164.063C190.33 164.016 190.8 163.969 191.222 163.969C192.161 163.969 192.724 164.438 192.771 165.236C192.818 165.987 192.865 166.738 192.865 167.489C192.865 169.272 192.865 171.102 192.865 172.886C192.959 172.792 192.959 172.792 192.959 172.792Z" fill="#EF5A15"/>
<path d="M173.809 172.886C173.856 177.86 170.571 182.037 164.891 182.178C158.836 182.319 155.691 177.766 155.551 173.261C155.41 168.052 159.306 163.922 164.234 163.687C168.787 163.499 173.809 166.832 173.809 172.886ZM159.775 173.214C159.775 173.402 159.775 173.965 159.916 174.575C160.291 176.358 161.699 178.517 164.656 178.517C166.769 178.517 168.318 177.485 169.162 175.514C170.007 173.59 169.866 171.759 168.928 169.929C167.567 167.301 163.436 166.221 160.995 169.084C160.103 170.164 159.775 171.431 159.775 173.214Z" fill="#EF5A15"/>
<path d="M90.3557 163.734C95.1433 163.5 99.5084 167.489 99.6023 172.745C99.6962 177.297 96.4575 182.272 90.3557 182.225C84.3008 182.178 81.3907 177.344 81.3438 173.026C81.3438 167.301 86.2252 163.453 90.3557 163.734ZM90.6373 167.395C88.8537 167.301 87.3987 168.005 86.5068 169.507C85.5681 171.055 85.1926 172.792 85.7558 174.622C86.5537 177.438 88.619 178.799 91.4353 178.377C93.2658 178.095 94.7208 176.781 95.1433 174.998C95.4718 173.683 95.5188 172.369 95.1902 171.008C94.6739 168.99 92.7964 167.489 90.6373 167.395Z" fill="#EF5A15"/>
<path d="M132.644 181.896C132.222 181.896 131.94 181.943 131.611 181.896C131.001 181.802 130.438 181.708 130.109 181.098C129.828 180.582 129.546 180.018 129.265 179.502C128.889 178.751 128.232 178.47 127.434 178.423C126.401 178.376 125.322 178.47 124.289 178.376C122.693 178.235 121.708 178.986 121.238 180.394C120.863 181.614 119.971 181.896 118.798 181.896C117.53 181.896 117.014 181.332 117.389 180.347C119.408 175.185 121.473 170.069 123.538 164.907C123.867 164.062 124.665 163.734 125.791 163.874C126.401 163.921 126.965 164.156 127.246 164.766C127.716 165.845 128.185 166.972 128.654 168.051C130.344 172.228 132.034 176.358 133.724 180.535C133.958 181.145 133.583 181.755 132.926 181.802C132.832 181.849 132.644 181.896 132.644 181.896ZM125.275 175.231C125.65 175.185 126.073 175.185 126.542 175.091C126.918 175.044 127.246 174.434 127.106 174.058C126.777 173.26 126.448 172.416 126.026 171.618C125.932 171.383 125.557 171.289 125.275 171.195C125.228 171.149 125.04 171.289 124.993 171.383C124.571 172.322 123.914 173.167 123.961 174.246C123.961 174.481 124.195 174.809 124.383 174.95C124.618 175.138 124.946 175.138 125.275 175.231Z" fill="#EF5A15"/>
<path d="M108.939 181.896C107.954 181.896 107.203 181.615 106.827 180.582C104.903 175.373 102.978 170.211 101.054 165.048C100.819 164.438 101.195 163.922 101.946 163.922C102.227 163.922 102.556 163.875 102.837 163.875C103.823 163.875 104.574 164.11 104.95 165.142C105.794 167.395 106.639 169.601 107.531 171.853C107.86 172.698 108.282 173.496 108.658 174.294C108.705 174.434 108.845 174.575 108.986 174.575C109.08 174.575 109.268 174.434 109.315 174.341C109.69 173.683 110.066 173.073 110.347 172.369C111.333 169.882 112.319 167.348 113.304 164.861C113.539 164.25 114.102 163.969 114.713 163.922C115.323 163.875 115.886 163.922 116.496 163.969C116.919 164.016 117.294 164.532 117.153 164.907C116.449 166.879 115.745 168.85 114.994 170.821C113.774 174.059 112.553 177.25 111.38 180.488C110.958 181.568 110.3 181.943 108.939 181.896Z" fill="#EF5A15"/>
<path d="M140.297 163.922C141.799 163.922 143.301 163.875 144.803 163.922C146.024 163.969 146.258 164.204 146.352 165.611C146.352 165.893 146.352 166.222 146.305 166.503C146.211 166.925 146.071 167.395 145.554 167.536C145.132 167.629 144.709 167.77 144.24 167.817C142.222 168.005 142.081 168.615 142.081 170.445C142.081 173.449 142.081 176.452 142.081 179.409C142.081 180.019 141.987 180.582 141.846 181.145C141.799 181.38 141.471 181.709 141.236 181.709C140.485 181.755 139.734 181.756 139.03 181.662C138.795 181.615 138.514 181.286 138.467 181.052C138.326 180.301 138.279 179.55 138.279 178.846C138.232 175.701 138.232 172.557 138.232 169.413C138.232 168.521 137.857 168.099 136.918 167.911C136.495 167.817 136.026 167.817 135.604 167.723C134.477 167.489 134.102 167.019 134.102 165.893C134.102 165.752 134.102 165.611 134.102 165.424C134.148 164.485 134.571 163.922 135.369 163.875C136.965 163.922 138.655 163.922 140.297 163.922Z" fill="#EF5A15"/>
<path d="M39.6136 172.979C39.6136 175.373 39.6136 177.766 39.6136 180.16C39.6136 181.568 39.0974 181.99 37.7365 181.99C37.3142 181.99 36.8449 181.943 36.4226 181.802C36.188 181.708 35.9534 181.474 35.8126 181.239C35.7187 181.145 35.7656 180.957 35.7656 180.817C35.7656 175.748 35.7656 170.68 35.7656 165.564C35.7656 165.283 35.8126 164.954 35.9533 164.72C36.0941 164.485 36.3288 164.156 36.5165 164.156C37.2204 164.063 37.9712 164.062 38.722 164.062C39.2382 164.109 39.5667 164.532 39.5667 164.954C39.6605 167.019 39.6605 169.131 39.7074 171.243C39.6136 171.759 39.6136 172.369 39.6136 172.979Z" fill="#EF5A15"/>
<path d="M152.59 173.167C152.59 175.701 152.59 178.236 152.59 180.77C152.59 181.333 152.074 181.849 151.417 181.896C150.807 181.943 150.244 181.896 149.634 181.849C149.118 181.802 148.883 181.427 148.695 181.005C148.648 180.864 148.648 180.723 148.648 180.582C148.648 175.514 148.648 170.398 148.695 165.33C148.695 164.297 149.258 163.875 150.525 163.875C150.948 163.875 151.417 163.922 151.839 164.063C152.074 164.157 152.356 164.438 152.403 164.673C152.543 165.236 152.59 165.846 152.637 166.409C152.637 168.662 152.637 170.915 152.59 173.167Z" fill="#EF5A15"/>
<path d="M119.688 39.5086C119.642 41.6205 119.407 43.6854 118.233 45.5626C117.342 47.0175 116.215 48.2846 114.385 48.3315C112.366 48.3785 111.052 47.1113 110.207 45.4218C108.142 41.3858 108.142 37.3498 110.254 33.3607C111.052 31.812 112.272 30.6387 114.056 30.5449C116.074 30.4041 117.295 31.812 118.28 33.4076C119.407 35.2848 119.642 37.3967 119.688 39.5086Z" fill="#EF5A15"/>
<path d="M159.773 173.214C159.773 171.384 160.102 170.117 161.041 169.037C163.481 166.174 167.612 167.254 168.973 169.882C169.912 171.712 170.006 173.59 169.208 175.467C168.363 177.438 166.814 178.47 164.702 178.47C161.745 178.47 160.337 176.311 159.961 174.528C159.82 174.012 159.82 173.402 159.773 173.214Z" fill="#FEFEFE"/>
<path d="M90.6332 167.395C92.7923 167.441 94.6697 168.943 95.1391 171.008C95.4677 172.322 95.4208 173.636 95.0922 174.997C94.6698 176.781 93.2147 178.142 91.3841 178.376C88.521 178.799 86.5027 177.438 85.7047 174.622C85.1884 172.792 85.517 171.055 86.4557 169.506C87.3945 168.052 88.8495 167.301 90.6332 167.395Z" fill="#FEFEFE"/>
<path d="M125.277 175.231C124.949 175.137 124.62 175.137 124.386 174.95C124.198 174.809 123.963 174.48 123.963 174.246C123.916 173.166 124.573 172.322 124.996 171.383C125.043 171.289 125.23 171.195 125.277 171.195C125.559 171.289 125.887 171.383 126.028 171.618C126.45 172.415 126.779 173.213 127.107 174.058C127.248 174.433 126.92 175.044 126.544 175.091C126.122 175.184 125.653 175.184 125.277 175.231Z" fill="#FEFEFE"/>
</svg>
