<svg width="18" height="25" viewBox="0 0 18 25" fill="none" xmlns="http://www.w3.org/2000/svg">
<path d="M9.47756 0C9.71756 0.0339559 9.96584 0.0509338 10.2058 0.0933786C13.7148 0.679117 16.1479 2.67402 17.4389 6.06961C18.1672 7.97963 18.1672 9.9236 17.5548 11.8761C17.2155 12.9542 16.7272 13.9559 16.1231 14.8896C14.1286 18.0051 12.1176 21.1205 10.1065 24.2275C9.95756 24.4567 9.75894 24.6859 9.53549 24.8302C9.08032 25.1273 8.50101 25 8.13687 24.584C8.03756 24.4652 7.94653 24.3463 7.86377 24.219C5.86101 21.1121 3.86652 18.0051 1.86377 14.8981C0.9948 13.5569 0.382386 12.1053 0.109283 10.5093C-0.130717 9.12564 0.00997265 7.7674 0.423766 6.44312C0.920318 4.85569 1.78101 3.49745 2.98928 2.37691C4.36308 1.12054 5.94377 0.365025 7.75618 0.101868C8.01273 0.0679117 8.26928 0.0339559 8.53411 0C8.84859 0 9.16308 0 9.47756 0ZM9.00584 23.9643C9.10515 23.8285 9.17963 23.7351 9.23756 23.6418C10.3217 21.9525 11.4141 20.2632 12.4982 18.5739C13.5824 16.8761 14.6831 15.1783 15.7258 13.455C16.3962 12.343 16.7934 11.1121 16.901 9.80475C17.0748 7.64007 16.4707 5.70458 15.1051 4.05772C13.2265 1.78268 10.7934 0.82343 7.89687 1.17997C6.61411 1.33277 5.44721 1.83362 4.3879 2.6146C2.98101 3.65874 1.99618 5.02547 1.45825 6.71477C1.11066 7.80136 0.969973 8.91341 1.12721 10.0594C1.33411 11.6214 1.94652 13.0221 2.78239 14.3294C4.76859 17.4363 6.77135 20.5433 8.77411 23.6503C8.84032 23.7436 8.90653 23.8285 9.00584 23.9643Z" fill="black"/>
<path d="M9.00518 14.117C6.37345 14.117 4.23828 11.9269 4.23828 9.22737C4.23828 6.53637 6.39001 4.33773 9.01345 4.34622C11.6286 4.3547 13.7638 6.54486 13.7638 9.22737C13.7721 11.9269 11.6369 14.117 9.00518 14.117ZM9.06311 5.4328C7.0769 5.36489 5.37207 7.04571 5.29759 9.13399C5.22311 11.1798 6.85345 12.9625 8.86449 13.0304C10.9417 13.0983 12.6383 11.46 12.7128 9.32075C12.779 7.24944 11.1404 5.50072 9.06311 5.4328Z" fill="black"/>
</svg>
