<svg width="229" height="229" viewBox="0 0 229 229" fill="none" xmlns="http://www.w3.org/2000/svg">
<path d="M114.245 0C144.144 0 173.996 0 203.895 0C205.397 0 206.899 0 208.401 0.0469304C217.883 0.281583 227.411 8.35361 228.209 19.2884C228.303 20.6494 228.303 22.0104 228.303 23.3244C228.303 83.8177 228.303 144.358 228.303 204.851C228.303 206.071 228.303 207.245 228.256 208.465C227.739 217.945 220.464 226.205 211.124 227.941C210.232 228.082 209.34 228.129 208.448 228.176C206.805 228.223 205.163 228.223 203.473 228.223C143.863 228.223 84.2523 228.223 24.6421 228.223C23.1401 228.223 21.6381 228.223 20.1361 228.176C10.2793 228.035 0.51631 219.494 0.0938745 208.23C0 207.057 0 205.837 0 204.664C0 144.311 0 83.9116 0 23.5591C0 22.5266 0 21.4472 0 20.4147C0.234686 11.7795 5.82022 4.08295 13.8934 1.17326C15.9117 0.469304 17.977 0 20.0891 0C21.5911 0.0469304 23.0931 0 24.5951 0C54.4941 0 84.3932 0 114.245 0ZM114.574 137.647C86.9278 137.647 59.3287 137.647 31.6826 137.647C30.0398 137.647 28.3501 137.6 26.7542 137.788C21.4503 138.398 18.0239 141.401 16.2403 146.376C15.5362 148.253 15.5832 150.224 15.5832 152.148C15.5832 167.025 15.5832 181.855 15.5832 196.732C15.5832 197.765 15.5362 198.844 15.6301 199.877C16.1933 205.743 20.3238 210.248 26.0971 211.187C27.8807 211.468 29.6643 211.515 31.4949 211.515C86.4584 211.515 141.422 211.515 196.385 211.515C197.418 211.515 198.498 211.562 199.53 211.515C200.422 211.468 201.314 211.375 202.206 211.234C207.463 210.248 210.701 207.151 212.25 202.082C212.673 200.768 212.72 199.454 212.72 198.093C212.72 182.465 212.72 166.885 212.72 151.257C212.72 150.647 212.72 150.037 212.673 149.473C212.109 142.622 206.712 137.975 201.079 137.788C199.577 137.741 198.075 137.741 196.573 137.741C169.256 137.647 141.938 137.647 114.574 137.647ZM82.6565 100.431C82.7973 102.684 82.8442 104.936 83.1728 107.142C83.5952 110.286 84.2993 113.337 85.7074 116.2C86.6461 118.124 87.7726 119.86 89.4624 121.221C92.2317 123.474 96.3622 123.474 98.9906 121.174C99.9763 120.283 100.868 119.25 101.666 118.124C102.699 116.622 103.356 114.98 103.919 113.243C105.89 107.095 106.078 100.807 105.327 94.5179C104.576 88.0884 102.793 81.8936 99.7886 76.0742C99.507 75.558 99.2723 74.9948 98.9906 74.4316C98.709 73.8216 98.8498 73.2584 99.2253 72.7891C101.431 70.0671 104.107 67.9083 107.345 66.5004C110.443 65.1394 113.682 64.5763 117.015 65.2333C122.084 66.2658 126.12 68.9877 129.265 73.0237C129.547 73.3522 129.641 73.8216 129.453 74.2909C129.171 74.854 128.937 75.3703 128.702 75.9334C124.102 84.8502 122.412 94.3301 122.835 104.232C122.976 107.565 123.68 110.756 124.712 113.947C125.322 115.824 126.167 117.561 127.341 119.156C128.186 120.236 129.124 121.174 130.298 121.878C131.237 122.441 132.175 122.77 133.255 122.864C135.836 123.145 137.995 122.301 139.779 120.47C141.281 118.969 142.408 117.185 143.065 115.167C144.097 112.023 145.083 108.879 145.365 105.547C146.256 95.128 144.52 85.2256 139.732 75.8865C138.559 73.5869 138.559 73.4461 140.295 71.6158C142.267 69.5509 144.52 67.8145 147.195 66.6412C151.044 64.9048 154.94 64.5293 159.023 65.7964C162.403 66.8289 165.266 68.7061 167.754 71.1934C170.992 74.4316 173.292 78.233 175.076 82.4567C177.094 87.3375 178.127 92.4999 178.596 97.7561C178.69 98.6477 178.69 99.5394 178.784 100.431C178.831 100.666 179.159 101.041 179.347 101.041C181.131 101.088 182.914 101.088 184.745 101.088C185.261 101.088 185.731 100.478 185.684 99.7741C185.355 89.4963 182.867 79.9225 177 71.3342C175.639 69.3632 174.09 67.4859 172.354 65.8434C169.96 63.5438 167.284 61.6196 164.233 60.2587C159.446 58.1468 154.517 57.3959 149.307 58.5692C144.942 59.5547 141.187 61.5727 137.761 64.3416C136.728 65.1864 135.743 66.125 134.71 67.0166C134.381 67.2982 133.912 67.3921 133.536 66.9697C132.785 66.2658 131.988 65.5618 131.237 64.8578C129.547 63.3561 127.716 62.042 125.698 61.0095C120.488 58.3345 115.043 57.2082 109.176 58.6161C104.811 59.6486 101.056 61.6196 97.6764 64.4824C96.6438 65.3271 95.6581 66.2658 94.6724 67.1574C94.4377 67.3921 94.1561 67.3921 93.8745 67.1574C93.1704 66.5943 92.5133 65.9842 91.8562 65.421C89.9318 63.7315 87.9135 62.1828 85.6605 61.0095C78.0566 57.0205 70.4059 57.0674 62.802 61.0095C59.2817 62.8398 56.3247 65.3741 53.7901 68.3776C51.4432 71.1465 49.5188 74.197 47.9699 77.4352C44.6843 84.287 43.1823 91.6082 42.8068 99.164C42.8068 99.4456 42.8537 99.7741 42.8537 100.056C42.8537 100.619 43.417 101.135 44.0271 101.182C45.2475 101.229 46.4209 101.229 47.6413 101.276C49.7535 101.276 49.7535 100.853 49.9412 98.8824C50.129 96.3482 50.4106 93.8139 50.88 91.2797C51.8187 86.2112 53.5554 81.4712 56.2778 77.0597C57.8736 74.4786 59.7042 72.1321 62.0041 70.161C63.6938 68.6592 65.5713 67.3921 67.6835 66.5473C71.2507 65.0925 74.8649 64.6701 78.6668 65.7495C83.032 67.0166 86.4584 69.504 89.3216 72.9299C89.744 73.4461 89.7909 74.0093 89.5093 74.6194C89.3216 75.0417 89.0869 75.4172 88.8991 75.8396C84.6748 83.4423 82.7973 91.702 82.6565 100.431ZM72.8466 52.4213C79.2301 52.7029 85.4727 47.4936 85.6135 40.1255C85.7074 34.6347 81.7647 27.9236 73.5037 27.642C66.1346 27.4074 60.9245 33.0859 60.7368 39.9378C60.596 46.6019 66.2284 52.2805 72.8466 52.4213ZM157.052 52.4213C162.919 52.5621 169.256 47.7752 169.443 40.1724C169.584 34.0246 164.937 27.5951 156.958 27.642C149.354 27.6889 144.567 33.5083 144.567 39.8439C144.52 48.2914 151.607 52.609 157.052 52.4213ZM114.198 52.4213C120.253 52.609 126.637 47.3997 126.543 39.797C126.449 34.2123 122.131 27.642 114.151 27.642C106.125 27.642 101.854 34.3531 101.807 39.8439C101.666 47.3059 108.096 52.609 114.198 52.4213Z" fill="#EC152C"/>
<path d="M114.573 137.647C141.89 137.647 169.255 137.647 196.572 137.647C198.074 137.647 199.576 137.647 201.078 137.694C206.71 137.882 212.108 142.528 212.672 149.38C212.718 149.99 212.718 150.6 212.718 151.163C212.718 166.791 212.718 182.372 212.718 197.999C212.718 199.36 212.625 200.674 212.249 201.989C210.7 207.057 207.461 210.154 202.205 211.14C201.313 211.281 200.421 211.375 199.529 211.422C198.496 211.468 197.417 211.422 196.384 211.422C141.421 211.422 86.4573 211.422 31.4938 211.422C29.7102 211.422 27.8796 211.422 26.096 211.093C20.2758 210.154 16.1453 205.602 15.629 199.783C15.5351 198.75 15.582 197.671 15.582 196.638C15.582 181.762 15.582 166.932 15.582 152.055C15.582 150.083 15.582 148.159 16.2392 146.282C18.0228 141.308 21.4492 138.304 26.7531 137.694C28.3959 137.506 30.0387 137.553 31.6815 137.553C59.3276 137.647 86.9736 137.647 114.573 137.647ZM50.6442 173.924C50.6911 173.924 50.6911 173.924 50.738 173.924C50.738 171.812 50.738 169.747 50.738 167.635C50.738 166.885 50.6911 166.134 50.5503 165.43C50.4564 165.007 50.0809 164.679 49.5646 164.679C49.283 164.679 48.9544 164.632 48.6728 164.632C47.5463 164.679 46.9831 165.148 46.9831 166.228C46.9361 167.87 47.03 169.513 46.9361 171.155C46.8422 172.282 47.4055 173.502 46.5606 174.534C46.2321 174.957 45.7158 174.534 43.8852 171.906C43.4628 171.296 42.9934 170.686 42.571 170.076C41.5383 168.621 40.5057 167.166 39.4262 165.711C38.8629 164.914 38.065 164.538 37.1262 164.585C36.8446 164.585 36.5161 164.585 36.2344 164.632C35.3896 164.679 34.7324 165.289 34.7324 165.993C34.7324 171.061 34.7324 176.177 34.7324 181.245C34.7324 181.527 34.8263 181.855 34.9671 182.09C35.1079 182.325 35.3426 182.559 35.6243 182.653C35.8589 182.794 36.1875 182.841 36.4691 182.841C38.1589 182.935 38.7221 182.465 38.769 180.917C38.816 178.664 38.769 176.411 38.816 174.206C38.816 173.783 38.9099 173.314 39.0037 172.892C39.0037 172.798 39.3323 172.704 39.4262 172.798C39.7547 173.032 40.1772 173.22 40.4118 173.549C42.3363 176.224 44.2607 178.899 46.1382 181.574C46.8892 182.653 47.9218 183.029 49.236 182.888C50.1748 182.794 50.6911 182.419 50.738 181.621C50.6911 178.993 50.6442 176.458 50.6442 173.924ZM97.3937 173.549C97.3937 174.816 97.4406 175.989 97.91 177.162C99.3181 180.682 101.947 182.7 105.702 182.982C109.457 183.263 112.414 181.762 114.432 178.523C115.605 176.646 115.699 174.581 115.558 172.469C115.183 167.213 110.02 163.646 105.044 164.491C99.9752 165.336 97.159 169.513 97.3937 173.549ZM72.1414 173.549C72.1884 169.372 69.2783 164.538 63.0356 164.397C57.6848 164.256 54.2583 168.433 54.0236 172.094C53.9298 173.267 53.9298 174.487 54.0706 175.661C54.493 178.711 56.2297 180.87 58.999 182.137C65.007 184.953 72.2822 180.823 72.1414 173.549ZM149.729 173.83C149.682 173.83 149.682 173.83 149.635 173.83C149.635 175.191 149.635 176.505 149.635 177.866C149.682 179.227 149.682 180.541 149.823 181.902C149.87 182.278 150.198 182.7 150.714 182.747C150.996 182.747 151.325 182.841 151.606 182.841C152.827 182.841 153.39 182.419 153.437 181.386C153.484 180.025 153.531 178.711 153.578 177.35C153.578 177.256 153.718 177.162 153.812 177.068C154.094 176.834 154.375 176.834 154.61 177.115C154.986 177.585 155.361 178.007 155.69 178.523C156.394 179.509 157.051 180.494 157.708 181.527C158.412 182.7 159.492 183.029 160.759 182.935C161.041 182.888 161.369 182.888 161.651 182.841C161.979 182.794 162.449 182.09 162.261 181.808C161.228 180.166 160.196 178.523 159.116 176.881C158.365 175.707 158.318 175.473 159.21 174.581C159.632 174.159 160.102 173.736 160.383 173.267C162.402 170.076 161.416 165.336 156.628 164.82C154.704 164.632 152.733 164.726 150.808 164.726C150.198 164.726 149.635 165.242 149.635 165.852C149.729 168.433 149.729 171.108 149.729 173.83ZM136.164 173.689C136.164 176.224 136.164 178.758 136.164 181.292C136.164 182.09 136.774 182.747 137.525 182.747C139.919 182.794 142.313 182.794 144.706 182.794C145.786 182.794 146.208 182.278 146.255 181.058C146.302 179.837 145.88 179.274 144.894 179.227C143.721 179.18 142.5 179.18 141.327 179.086C140.904 179.086 140.2 178.383 140.107 177.96C139.825 176.411 140.388 175.567 141.796 175.473C142.97 175.426 144.19 175.426 145.364 175.238C145.692 175.191 145.974 174.675 146.255 174.347C146.349 174.253 146.302 174.065 146.302 173.924C146.396 172.422 146.021 171.906 144.706 171.812C143.533 171.765 142.313 171.718 141.139 171.578C140.904 171.531 140.623 171.296 140.435 171.108C140.06 170.733 139.919 169.56 140.294 169.043C140.529 168.715 140.951 168.339 141.327 168.339C142.641 168.199 144.002 168.246 145.317 168.058C145.645 168.011 145.974 167.542 146.208 167.166C146.349 166.932 146.302 166.603 146.302 166.274C146.302 165.101 145.833 164.538 144.753 164.538C142.36 164.538 139.966 164.538 137.572 164.585C136.774 164.585 136.211 165.195 136.211 166.04C136.164 168.574 136.164 171.155 136.164 173.689ZM124.899 175.707C124.242 174.065 123.679 172.704 123.162 171.343C122.411 169.419 121.66 167.448 120.862 165.524C120.628 164.914 120.017 164.679 119.454 164.585C118.844 164.538 118.234 164.538 117.671 164.679C117.436 164.726 117.154 165.101 117.154 165.289C117.201 165.852 117.295 166.462 117.483 167.025C118.75 170.404 120.017 173.736 121.285 177.068C121.848 178.617 122.458 180.166 123.068 181.668C123.209 182.043 123.632 182.419 124.007 182.606C125.274 183.263 126.87 182.7 127.34 181.433C129.311 176.271 131.282 171.108 133.254 165.946C133.301 165.805 133.348 165.617 133.301 165.524C133.16 165.289 133.019 165.054 132.831 164.82C132.737 164.726 132.55 164.679 132.409 164.679C130.297 164.444 129.686 164.726 128.982 166.603C127.997 169.09 127.105 171.625 126.072 174.159C125.838 174.628 125.415 175.05 124.899 175.707ZM83.0309 173.502H82.9839C82.9839 175.614 82.9839 177.726 82.9839 179.79C82.9839 180.072 82.9839 180.401 82.9839 180.682C83.0309 181.104 83.0309 181.574 83.1717 181.996C83.2655 182.231 83.5472 182.512 83.7819 182.606C84.2043 182.747 84.6737 182.747 85.0961 182.747C85.9879 182.747 86.645 182.278 86.692 181.527C86.7389 180.025 86.7858 178.523 86.8328 177.022C86.8328 176.318 87.2552 175.801 87.8654 175.801C89.2266 175.754 90.5408 175.426 91.7612 174.863C93.9203 173.83 95.0468 171.484 94.6244 168.809C94.3427 166.744 92.6999 165.148 90.4 164.726C88.3348 164.35 86.2226 164.444 84.1104 164.632C83.5472 164.679 82.9839 165.242 82.9839 165.852C83.0309 168.433 83.0309 170.968 83.0309 173.502ZM176.858 166.885C176.858 166.509 176.858 166.368 176.858 166.228C176.765 165.054 176.53 164.538 175.263 164.538C172.118 164.491 168.973 164.538 165.875 164.585C165.359 164.585 164.749 165.195 164.702 165.758C164.655 166.181 164.655 166.65 164.655 167.119C164.702 168.011 165.124 168.48 166.016 168.574C166.626 168.621 167.189 168.668 167.8 168.715C168.363 168.762 168.597 169.231 168.644 169.607C168.691 173.032 168.691 176.458 168.738 179.931C168.738 180.682 168.832 181.433 168.973 182.137C169.02 182.372 169.348 182.653 169.583 182.7C170.287 182.794 171.085 182.841 171.789 182.747C172.118 182.7 172.587 182.231 172.681 181.902C172.869 181.198 172.869 180.401 172.869 179.697C172.869 176.834 172.869 174.018 172.869 171.155C172.869 170.545 172.916 169.982 173.057 169.372C173.103 169.137 173.432 168.856 173.667 168.762C174.23 168.621 174.84 168.621 175.45 168.527C176.53 168.339 176.858 167.964 176.858 166.885ZM185.776 182.794C187.185 182.794 187.654 182.372 187.701 180.964C187.748 179.603 187.795 178.289 187.701 176.928C187.56 175.191 188.029 173.736 188.921 172.282C190.282 170.123 191.503 167.917 192.817 165.711C193.005 165.383 192.629 164.726 192.254 164.679C191.831 164.632 191.362 164.585 190.94 164.538C189.813 164.491 188.921 164.867 188.311 165.899C187.701 166.932 187.044 167.917 186.34 168.903C186.105 169.231 185.401 169.278 185.213 168.95C184.462 167.823 183.758 166.697 183.007 165.571C182.303 164.491 180.238 164.163 178.971 164.867C178.83 164.96 178.689 165.477 178.783 165.664C180.097 168.011 181.458 170.31 182.866 172.61C183.57 173.783 183.899 175.004 183.899 176.411C183.852 178.195 183.946 179.978 184.04 181.762C184.04 182.09 184.556 182.419 184.885 182.653C185.166 182.841 185.495 182.747 185.776 182.794Z" fill="#FEFEFE"/>
<path d="M82.6547 100.431C82.7955 91.7016 84.673 83.4888 88.6627 75.6984C88.8504 75.276 89.0851 74.9006 89.2729 74.4782C89.5545 73.8681 89.4606 73.3049 89.0851 72.7887C86.222 69.3628 82.7955 66.8755 78.4304 65.6083C74.6285 64.5289 71.0143 64.9513 67.4471 66.4062C65.3349 67.2509 63.5043 68.518 61.7677 70.0198C59.5147 72.0378 57.6372 74.3374 56.0413 76.9186C53.3659 81.33 51.6292 86.1169 50.6435 91.1385C50.1741 93.6258 49.9395 96.207 49.7048 98.7412C49.564 100.712 49.517 101.135 47.4049 101.135C46.1845 101.135 45.0111 101.088 43.7907 101.041C43.1805 101.041 42.6642 100.478 42.6173 99.9145C42.6173 99.6329 42.5703 99.3044 42.5703 99.0228C42.9458 91.467 44.4478 84.1458 47.7334 77.294C49.2823 74.0089 51.2068 71.0053 53.5536 68.2364C56.0882 65.2329 59.0922 62.6986 62.5656 60.8684C70.1694 56.9262 77.8202 56.9262 85.424 60.8684C87.677 62.0416 89.7422 63.5903 91.6197 65.2798C92.2769 65.8899 92.9809 66.4531 93.638 67.0162C93.9197 67.2509 94.2013 67.2509 94.436 67.0162C95.4216 66.1246 96.4073 65.186 97.44 64.3412C100.819 61.4785 104.621 59.5074 108.94 58.4749C114.807 57.067 120.251 58.1933 125.461 60.8684C127.48 61.9008 129.31 63.2149 131 64.7167C131.798 65.4206 132.549 66.1246 133.3 66.8285C133.722 67.204 134.145 67.157 134.473 66.8755C135.506 66.0307 136.492 65.0452 137.524 64.2004C140.951 61.4315 144.706 59.4135 149.071 58.428C154.281 57.2547 159.209 58.0056 163.997 60.1175C167.048 61.4785 169.723 63.4026 172.117 65.7022C173.854 67.3448 175.403 69.222 176.764 71.1931C182.631 79.7813 185.119 89.3551 185.447 99.6329C185.447 100.337 185.025 100.947 184.509 100.947C182.725 100.947 180.941 100.947 179.111 100.9C178.923 100.9 178.548 100.525 178.548 100.29C178.407 99.3982 178.407 98.5066 178.36 97.6149C177.89 92.3587 176.905 87.2433 174.839 82.3156C173.103 78.0918 170.803 74.2905 167.517 71.0523C165.03 68.5649 162.213 66.7347 158.787 65.6553C154.703 64.3881 150.808 64.7636 146.959 66.5C144.33 67.6733 142.077 69.4097 140.059 71.4746C138.275 73.3049 138.275 73.4457 139.496 75.7453C144.283 85.0845 146.02 94.9868 145.128 105.405C144.847 108.737 143.908 111.882 142.828 115.026C142.171 117.044 141.045 118.827 139.543 120.329C137.759 122.113 135.6 123.004 133.018 122.723C131.939 122.629 131 122.3 130.061 121.737C128.888 120.986 127.949 120.095 127.104 119.015C125.931 117.42 125.086 115.683 124.476 113.806C123.443 110.662 122.739 107.423 122.598 104.091C122.176 94.142 123.866 84.6621 128.465 75.7922C128.747 75.276 128.982 74.7128 129.216 74.1497C129.451 73.6804 129.31 73.258 129.029 72.8826C125.837 68.8465 121.8 66.1246 116.778 65.0921C113.446 64.4351 110.207 64.9982 107.109 66.3592C103.87 67.7671 101.242 69.9259 98.9889 72.6479C98.5664 73.1172 98.4256 73.6804 98.7542 74.2905C99.0358 74.8067 99.2705 75.3699 99.5521 75.933C102.509 81.7524 104.34 87.9472 105.091 94.3767C105.842 100.665 105.654 106.954 103.683 113.102C103.119 114.838 102.462 116.528 101.43 117.983C100.679 119.062 99.7868 120.141 98.7542 121.033C96.1257 123.38 91.9952 123.333 89.2259 121.08C87.5362 119.719 86.4097 117.983 85.471 116.059C84.1098 113.196 83.4057 110.098 82.9363 107.001C82.8425 104.936 82.7955 102.636 82.6547 100.431ZM138.604 101.041C138.369 94.846 137.477 88.792 135.177 83.0195C135.084 82.7379 134.943 82.4564 134.755 82.2217C134.567 81.9871 134.333 81.7524 134.051 81.7055C133.91 81.6585 133.582 81.9401 133.488 82.1748C130.39 89.8244 129.216 97.7557 129.967 105.968C130.202 108.362 130.765 110.708 131.798 112.914C132.174 113.712 132.737 114.416 133.253 115.167C133.535 115.589 134.473 115.589 134.849 115.214C135.741 114.322 136.21 113.243 136.586 112.116C137.9 108.456 138.463 104.795 138.604 101.041ZM98.4256 100.712C98.5195 94.7052 97.393 89.1205 95.4686 83.7235C95.2339 83.0195 94.8115 82.3625 94.4829 81.7055C94.3421 81.4708 94.0135 81.5177 93.8258 81.8463C93.4972 82.3156 93.2156 82.8787 92.9809 83.395C91.2912 87.7595 90.3994 92.2648 89.9769 96.9579C89.6014 100.9 89.9769 104.748 90.8218 108.55C91.1973 110.145 91.6667 111.741 92.2299 113.29C92.4646 113.947 93.0279 114.557 93.4503 115.12C93.7789 115.542 94.6707 115.448 95.0462 115.073C95.891 114.181 96.3604 113.102 96.7359 111.929C98.0032 108.221 98.6134 104.42 98.4256 100.712Z" fill="#FEFEFE"/>
<path d="M72.8487 52.421C66.1837 52.3272 60.5512 46.6017 60.7389 39.9376C60.8797 33.0857 66.1367 27.4071 73.5059 27.6418C81.7668 27.9234 85.7096 34.5875 85.6157 40.1253C85.5218 47.4934 79.2792 52.7026 72.8487 52.421Z" fill="#FEFEFE"/>
<path d="M157.056 52.4211C151.611 52.6558 144.57 48.3382 144.57 39.8438C144.57 33.5082 149.405 27.6888 156.915 27.6419C164.894 27.5949 169.541 34.0244 169.4 40.1723C169.259 47.7281 162.876 52.5619 157.056 52.4211Z" fill="#FEFEFE"/>
<path d="M114.196 52.4209C108.095 52.6555 101.711 47.3054 101.758 39.8435C101.805 34.3527 106.076 27.6416 114.103 27.6416C122.129 27.6416 126.447 34.2119 126.494 39.7966C126.635 47.3524 120.204 52.6086 114.196 52.4209Z" fill="#FEFEFE"/>
<path d="M50.6462 173.924C50.6462 176.458 50.6462 178.993 50.6462 181.527C50.6462 182.372 50.1299 182.7 49.1442 182.794C47.83 182.935 46.7974 182.559 46.0464 181.48C44.1689 178.805 42.2445 176.13 40.32 173.455C40.0853 173.126 39.6629 172.939 39.3343 172.704C39.2405 172.657 38.9589 172.751 38.9119 172.798C38.818 173.22 38.7242 173.69 38.7242 174.112C38.6772 176.365 38.7242 178.617 38.6772 180.823C38.6772 182.372 38.114 182.841 36.3773 182.747C36.0957 182.747 35.7671 182.7 35.5324 182.559C35.2977 182.419 35.0631 182.231 34.8753 181.996C34.7345 181.762 34.6406 181.433 34.6406 181.152C34.6406 176.083 34.6406 170.968 34.6406 165.899C34.6406 165.195 35.2977 164.585 36.1426 164.538C36.4242 164.538 36.7528 164.491 37.0344 164.491C38.0201 164.491 38.7711 164.82 39.3343 165.618C40.367 167.072 41.4465 168.527 42.4791 169.982C42.9016 170.592 43.371 171.202 43.7934 171.812C45.6709 174.394 46.1402 174.863 46.4688 174.44C47.3137 173.408 46.7504 172.188 46.8443 171.061C46.9382 169.419 46.8912 167.776 46.8912 166.134C46.8912 165.101 47.4545 164.585 48.581 164.538C48.8626 164.538 49.1912 164.585 49.4728 164.585C49.9891 164.585 50.3646 164.961 50.4585 165.336C50.5993 166.04 50.6462 166.791 50.6462 167.542C50.6462 169.654 50.6462 171.718 50.6462 173.83C50.6932 173.924 50.6932 173.924 50.6462 173.924Z" fill="#EC152C"/>
<path d="M97.3957 173.549C97.2079 169.559 99.9772 165.336 105.046 164.491C110.022 163.646 115.185 167.213 115.56 172.469C115.701 174.581 115.607 176.693 114.434 178.523C112.416 181.714 109.505 183.263 105.704 182.982C101.949 182.7 99.3201 180.682 97.912 177.162C97.4426 175.989 97.3957 174.816 97.3957 173.549ZM111.571 173.267C111.336 172.469 111.148 171.39 110.679 170.498C109.834 168.902 108.332 168.152 106.595 168.105C104.859 168.058 103.357 168.762 102.418 170.31C101.104 172.563 101.057 174.863 102.418 177.115C103.544 178.946 106.361 180.353 109.13 178.57C110.961 177.35 111.383 175.473 111.571 173.267Z" fill="#EC152C"/>
<path d="M72.1452 173.549C72.286 180.823 65.0108 184.953 59.0028 182.137C56.2335 180.87 54.4968 178.664 54.0744 175.661C53.8866 174.487 53.9336 173.267 54.0275 172.094C54.3091 168.433 57.7355 164.256 63.0394 164.397C69.2821 164.538 72.1922 169.372 72.1452 173.549ZM67.9209 173.408C67.8739 172.986 67.827 172.422 67.6862 171.812C67.3107 169.841 65.4332 168.292 63.1802 168.058C61.5374 167.87 59.566 168.996 58.7212 170.545C57.6886 172.516 57.5477 174.534 58.6273 176.599C59.5191 178.383 60.9742 179.321 62.9455 179.368C64.9169 179.415 66.325 178.336 67.3107 176.693C67.8739 175.708 67.8739 174.675 67.9209 173.408Z" fill="#EC152C"/>
<path d="M149.731 173.83C149.731 171.155 149.731 168.433 149.731 165.758C149.731 165.195 150.294 164.632 150.904 164.632C152.828 164.632 154.8 164.538 156.724 164.726C161.465 165.242 162.497 169.935 160.479 173.173C160.151 173.689 159.728 174.112 159.306 174.487C158.414 175.332 158.461 175.567 159.212 176.787C160.244 178.429 161.324 180.072 162.357 181.715C162.544 181.996 162.075 182.7 161.746 182.747C161.465 182.794 161.136 182.794 160.855 182.841C159.54 182.982 158.508 182.606 157.804 181.433C157.147 180.4 156.489 179.415 155.785 178.429C155.457 177.96 155.081 177.491 154.706 177.022C154.471 176.74 154.19 176.74 153.908 176.975C153.814 177.068 153.673 177.162 153.673 177.256C153.626 178.617 153.579 179.931 153.532 181.292C153.485 182.325 152.922 182.747 151.702 182.747C151.42 182.747 151.092 182.7 150.81 182.653C150.247 182.653 149.918 182.231 149.918 181.808C149.777 180.494 149.777 179.133 149.731 177.772C149.684 176.411 149.731 175.097 149.731 173.736C149.684 173.83 149.684 173.83 149.731 173.83ZM153.532 170.451C153.532 170.592 153.532 170.874 153.579 171.202C153.626 171.953 154.283 172.422 155.175 172.328C156.161 172.235 156.865 171.812 157.194 170.827C157.522 169.841 157.053 168.762 156.02 168.199C154.612 167.401 153.579 167.87 153.532 169.372C153.485 169.7 153.532 170.029 153.532 170.451Z" fill="#EC152C"/>
<path d="M136.164 173.689C136.164 171.155 136.164 168.621 136.164 166.087C136.164 165.289 136.774 164.679 137.525 164.632C139.919 164.585 142.313 164.585 144.707 164.585C145.786 164.585 146.256 165.101 146.256 166.321C146.256 166.603 146.303 166.978 146.162 167.213C145.927 167.542 145.599 168.058 145.27 168.105C143.956 168.246 142.595 168.246 141.28 168.386C140.905 168.433 140.482 168.762 140.248 169.09C139.872 169.653 139.966 170.78 140.388 171.155C140.576 171.343 140.858 171.625 141.093 171.625C142.266 171.718 143.486 171.765 144.66 171.859C145.974 171.953 146.35 172.422 146.256 173.971C146.256 174.112 146.303 174.3 146.209 174.393C145.927 174.722 145.645 175.238 145.317 175.285C144.143 175.426 142.923 175.426 141.75 175.52C140.342 175.614 139.731 176.458 140.06 178.007C140.154 178.476 140.858 179.133 141.28 179.133C142.454 179.18 143.674 179.18 144.848 179.274C145.833 179.321 146.303 179.931 146.209 181.104C146.162 182.325 145.739 182.841 144.66 182.841C142.266 182.841 139.872 182.841 137.478 182.794C136.727 182.794 136.117 182.137 136.117 181.339C136.164 178.758 136.164 176.224 136.164 173.689Z" fill="#EC152C"/>
<path d="M124.901 175.707C125.37 175.05 125.84 174.628 126.074 174.112C127.06 171.624 127.999 169.09 128.984 166.556C129.735 164.679 130.299 164.35 132.411 164.632C132.552 164.632 132.739 164.679 132.833 164.773C133.021 164.96 133.162 165.195 133.303 165.477C133.35 165.57 133.303 165.758 133.256 165.899C131.284 171.061 129.36 176.224 127.342 181.386C126.872 182.653 125.276 183.216 124.009 182.559C123.634 182.372 123.258 181.996 123.07 181.621C122.413 180.119 121.85 178.57 121.287 177.021C120.019 173.689 118.752 170.31 117.485 166.978C117.297 166.415 117.203 165.852 117.156 165.242C117.156 165.054 117.485 164.679 117.673 164.632C118.236 164.538 118.846 164.491 119.456 164.538C120.066 164.585 120.63 164.82 120.864 165.477C121.662 167.401 122.366 169.372 123.164 171.296C123.681 172.751 124.244 174.112 124.901 175.707Z" fill="#EC152C"/>
<path d="M83.0287 173.501C83.0287 170.967 83.0287 168.386 83.0287 165.852C83.0287 165.288 83.5919 164.678 84.1552 164.631C86.2673 164.444 88.3326 164.397 90.4448 164.725C92.7447 165.101 94.3875 166.696 94.6691 168.808C95.0446 171.483 93.9181 173.83 91.8059 174.862C90.5856 175.472 89.2713 175.754 87.9102 175.801C87.3 175.848 86.8775 176.364 86.8775 177.021C86.8306 178.523 86.7837 180.025 86.7367 181.526C86.6898 182.277 86.0796 182.747 85.1408 182.747C84.6715 182.747 84.249 182.7 83.8266 182.606C83.5919 182.512 83.3103 182.277 83.2164 181.996C83.0756 181.573 83.0756 181.104 83.0287 180.682C82.9817 180.4 83.0287 180.072 83.0287 179.79C83.0287 177.678 83.0287 175.566 83.0287 173.501ZM86.7367 169.841C86.7837 170.545 86.7837 171.014 86.8775 171.436C86.9245 171.718 87.1592 172 87.3469 172.14C87.9571 172.563 89.2713 172.281 89.8346 171.718C90.5856 170.967 90.7264 169.653 90.1162 168.855C89.506 168.104 88.755 167.682 87.7693 167.917C87.5347 167.963 87.1592 168.151 87.1122 168.386C86.8775 168.902 86.7837 169.512 86.7367 169.841Z" fill="#EC152C"/>
<path d="M176.86 166.885C176.86 167.917 176.531 168.34 175.405 168.48C174.795 168.574 174.184 168.574 173.621 168.715C173.387 168.762 173.058 169.043 173.011 169.325C172.87 169.888 172.823 170.498 172.823 171.108C172.823 173.971 172.823 176.787 172.823 179.65C172.823 180.401 172.823 181.152 172.636 181.855C172.542 182.184 172.072 182.653 171.744 182.7C171.04 182.794 170.289 182.747 169.538 182.653C169.303 182.606 168.974 182.325 168.928 182.09C168.787 181.386 168.693 180.635 168.693 179.884C168.646 176.458 168.646 173.033 168.599 169.56C168.599 169.184 168.364 168.715 167.754 168.668C167.144 168.621 166.581 168.621 165.97 168.527C165.079 168.433 164.656 167.964 164.609 167.072C164.562 166.65 164.609 166.181 164.656 165.711C164.703 165.148 165.313 164.538 165.83 164.538C168.974 164.538 172.119 164.491 175.217 164.491C176.484 164.491 176.719 165.054 176.813 166.181C176.86 166.415 176.86 166.556 176.86 166.885Z" fill="#EF3B23"/>
<path d="M185.78 182.794C185.499 182.747 185.123 182.841 184.889 182.7C184.56 182.465 184.091 182.137 184.044 181.808C183.903 180.025 183.856 178.242 183.903 176.458C183.95 175.05 183.621 173.83 182.87 172.657C181.462 170.357 180.101 168.058 178.787 165.711C178.693 165.523 178.787 165.007 178.975 164.913C180.289 164.162 182.307 164.538 183.011 165.617C183.762 166.744 184.466 167.87 185.217 168.996C185.452 169.325 186.109 169.325 186.344 168.949C187.001 167.964 187.705 166.978 188.315 165.946C188.925 164.913 189.817 164.538 190.944 164.585C191.366 164.585 191.835 164.679 192.258 164.726C192.633 164.772 193.009 165.43 192.821 165.758C191.554 167.964 190.286 170.169 188.925 172.328C188.033 173.783 187.564 175.285 187.705 176.974C187.799 178.288 187.752 179.649 187.705 181.01C187.658 182.371 187.189 182.794 185.78 182.794Z" fill="#EC152C"/>
<path d="M138.606 101.041C138.418 104.749 137.902 108.456 136.635 112.023C136.212 113.149 135.79 114.276 134.898 115.12C134.523 115.496 133.584 115.543 133.302 115.073C132.786 114.322 132.223 113.618 131.847 112.821C130.862 110.615 130.251 108.268 130.017 105.875C129.266 97.6622 130.439 89.7309 133.537 82.0813C133.631 81.8935 133.959 81.565 134.1 81.612C134.335 81.6589 134.617 81.9405 134.804 82.1282C134.992 82.3628 135.133 82.6444 135.227 82.926C137.527 88.7923 138.372 94.8463 138.606 101.041Z" fill="#EC152C"/>
<path d="M98.427 100.712C98.6147 104.42 98.0046 108.221 96.6903 111.928C96.2679 113.055 95.7985 114.134 95.0006 115.073C94.6251 115.495 93.7333 115.589 93.4047 115.12C92.9823 114.51 92.419 113.946 92.1843 113.289C91.6211 111.741 91.1517 110.145 90.7762 108.549C89.9313 104.748 89.5089 100.9 89.9313 96.9576C90.4007 92.3115 91.2456 87.7593 92.9353 83.3947C93.17 82.8316 93.4516 82.3153 93.7802 81.846C94.0149 81.5175 94.3434 81.4706 94.4373 81.7053C94.8128 82.3623 95.1883 83.0193 95.423 83.7233C97.3944 89.1672 98.5209 94.705 98.427 100.712Z" fill="#EC152C"/>
<path d="M111.57 173.267C111.335 175.473 110.96 177.35 109.129 178.57C106.36 180.4 103.544 178.945 102.417 177.115C101.056 174.862 101.103 172.563 102.417 170.31C103.309 168.762 104.858 168.011 106.595 168.105C108.332 168.151 109.834 168.949 110.678 170.498C111.148 171.39 111.335 172.469 111.57 173.267Z" fill="#FEFEFE"/>
<path d="M67.9172 173.408C67.8703 174.628 67.8703 175.708 67.307 176.646C66.3214 178.336 64.9132 179.368 62.9419 179.321C60.9705 179.274 59.5155 178.336 58.6237 176.552C57.591 174.534 57.6849 172.516 58.7175 170.498C59.5155 168.95 61.5338 167.823 63.1766 168.011C65.4296 168.246 67.307 169.794 67.6825 171.765C67.8234 172.422 67.8703 173.032 67.9172 173.408Z" fill="#FEFEFE"/>
<path d="M153.531 170.451C153.531 169.982 153.531 169.7 153.531 169.419C153.578 167.964 154.611 167.448 156.018 168.246C157.004 168.809 157.52 169.841 157.191 170.874C156.863 171.812 156.159 172.282 155.174 172.376C154.282 172.469 153.625 172 153.578 171.249C153.531 170.921 153.531 170.592 153.531 170.451Z" fill="#FEFEFE"/>
<path d="M86.7422 169.841C86.836 169.512 86.883 168.949 87.0707 168.386C87.1645 168.151 87.493 167.964 87.7276 167.917C88.7131 167.729 89.4639 168.151 90.0739 168.855C90.7309 169.653 90.5901 170.92 89.7924 171.718C89.2293 172.281 87.9153 172.516 87.3053 172.14C87.0707 172 86.883 171.718 86.836 171.436C86.7422 171.014 86.7891 170.545 86.7422 169.841Z" fill="#FEFEFE"/>
</svg>
