<svg width="221" height="148" viewBox="0 0 221 148" fill="none" xmlns="http://www.w3.org/2000/svg">
<path d="M50.82 112.3C55.02 112.3 57.68 108.96 57.68 104.82C57.68 100.74 55.06 97.72 50.82 97.72C46.62 97.72 43.96 100.94 43.96 104.92C43.96 109.18 46.62 112.3 50.82 112.3ZM50.82 110.76C47.58 110.76 45.64 108.22 45.64 104.9C45.64 101.76 47.6 99.48 50.82 99.48C54.02 99.48 56 101.82 56 104.94C56 108.3 54.06 110.76 50.82 110.76ZM70.5645 98.98C70.9645 98.98 71.2845 99.04 71.5845 99.14V97.5C71.2245 97.34 70.8045 97.3 70.2645 97.3C67.8445 97.3 66.5845 99.1 66.5845 101.26V102H62.4045V101.86C62.4045 99.98 63.3445 99.38 64.7845 99.38C65.1045 99.38 65.4045 99.42 65.7045 99.5V97.86C65.3445 97.72 64.9445 97.68 64.5045 97.68C62.0445 97.68 60.8045 99.48 60.8045 101.66V102H59.2445V103.44H60.8045V112H62.4045V103.44H66.5845V112H68.1845V103.44H70.9245V102H68.1845V101.46C68.1845 99.6 69.1645 98.98 70.5645 98.98ZM73.6813 99.92C74.3413 99.92 74.8613 99.48 74.8613 98.76C74.8613 98.1 74.4613 97.62 73.6813 97.62C72.9013 97.62 72.5013 98.1 72.5013 98.76C72.5013 99.48 73.0213 99.92 73.6813 99.92ZM72.8813 112H74.4813V102H72.8813V112ZM82.0055 112.26C83.2055 112.26 84.1055 111.94 84.6455 111.52V109.9C83.9655 110.44 83.1655 110.78 82.0055 110.78C79.9255 110.78 78.5655 109.26 78.5655 107.02C78.5655 104.9 79.9455 103.42 82.0055 103.42C83.1455 103.42 83.9455 103.74 84.6455 104.28V102.46C84.1055 102.06 83.2455 101.72 82.0055 101.72C78.9455 101.72 76.9655 104.04 76.9655 107.02C76.9655 110.22 78.9455 112.26 82.0055 112.26ZM94.9819 106.24C94.9819 103.38 93.3619 101.72 90.8819 101.72C88.2219 101.72 86.3019 103.88 86.3019 107.08C86.3019 110.34 88.2219 112.26 91.2219 112.26C92.5819 112.26 93.7019 111.94 94.6019 111.26V109.64C93.6819 110.48 92.7419 110.82 91.3419 110.82C89.3419 110.82 88.0619 109.64 87.9219 107.38H94.8819C94.9619 107.1 94.9819 106.68 94.9819 106.24ZM90.8419 103.42C92.4619 103.42 93.3819 104.3 93.4419 106.06H87.9819C88.2419 104.42 89.2819 103.42 90.8419 103.42ZM113.616 111.2L111.456 109.3C112.036 108.22 112.396 106.84 112.416 105.2H110.816C110.816 106.42 110.636 107.46 110.296 108.28L106.996 105.38C106.936 105.32 106.876 105.26 106.796 105.2C109.136 104.2 110.076 102.8 110.076 101.1C110.076 99.04 108.796 97.76 106.596 97.76C104.276 97.76 102.816 99.2 102.816 101.32C102.816 102.64 103.316 103.7 104.356 104.8C102.476 105.78 101.756 107.12 101.756 108.58C101.756 110.9 103.296 112.3 106.136 112.3C107.976 112.3 109.556 111.66 110.676 110.4L112.796 112.24L113.616 111.2ZM106.536 99.46C107.736 99.46 108.476 100.18 108.476 101.34C108.476 102.44 108.036 103.34 105.736 104.2C104.816 103.26 104.356 102.5 104.356 101.5C104.356 100.26 105.216 99.46 106.536 99.46ZM106.136 110.86C104.316 110.86 103.356 109.86 103.356 108.46C103.356 107.38 103.916 106.54 105.416 105.8L109.596 109.44C108.796 110.4 107.616 110.86 106.136 110.86ZM122.867 112.32C126.467 112.32 128.387 110.94 128.387 108.14C128.387 102.8 120.407 105.36 120.407 101.82C120.407 100.38 121.667 99.56 123.847 99.56C125.367 99.56 126.687 99.86 127.847 100.44V98.58C126.847 97.98 125.567 97.72 123.967 97.72C120.787 97.72 118.807 99.24 118.807 101.82C118.807 107.16 126.787 104.3 126.787 108.26C126.787 109.98 125.447 110.76 122.907 110.76C121.247 110.76 119.787 110.38 118.787 109.66V111.36C119.807 111.98 121.307 112.32 122.867 112.32ZM135.17 112.26C136.37 112.26 137.27 111.94 137.81 111.52V109.9C137.13 110.44 136.33 110.78 135.17 110.78C133.09 110.78 131.73 109.26 131.73 107.02C131.73 104.9 133.11 103.42 135.17 103.42C136.31 103.42 137.11 103.74 137.81 104.28V102.46C137.27 102.06 136.41 101.72 135.17 101.72C132.11 101.72 130.13 104.04 130.13 107.02C130.13 110.22 132.11 112.26 135.17 112.26ZM145.065 101.72C143.245 101.72 142.205 102.7 141.785 103.92L141.825 97.5H140.225V112H141.825V106.28C141.825 104.3 143.125 103.42 144.445 103.42C145.885 103.42 146.885 104.24 146.885 106.28V112H148.485V105.66C148.485 103.4 147.305 101.72 145.065 101.72ZM155.773 112.26C158.633 112.26 160.713 110.1 160.713 106.96C160.713 103.72 158.613 101.72 155.773 101.72C152.933 101.72 150.833 103.88 150.833 106.96C150.833 110.26 152.873 112.26 155.773 112.26ZM155.773 110.82C153.733 110.82 152.453 109.32 152.453 106.96C152.453 104.76 153.833 103.42 155.773 103.42C157.693 103.42 159.093 104.68 159.093 106.96C159.093 109.26 157.833 110.82 155.773 110.82ZM167.374 112.26C170.234 112.26 172.314 110.1 172.314 106.96C172.314 103.72 170.214 101.72 167.374 101.72C164.534 101.72 162.434 103.88 162.434 106.96C162.434 110.26 164.474 112.26 167.374 112.26ZM167.374 110.82C165.334 110.82 164.054 109.32 164.054 106.96C164.054 104.76 165.434 103.42 167.374 103.42C169.294 103.42 170.694 104.68 170.694 106.96C170.694 109.26 169.434 110.82 167.374 110.82ZM174.776 112H176.376V97.5H174.776V112Z" fill="black"/>
<path d="M110.783 31.0149C111.139 31.5653 111.302 32.1901 111.569 32.7852C111.644 32.9637 111.703 33.1422 111.792 33.3207C111.911 33.5736 112.044 33.6034 112.266 33.4248C112.667 33.0976 113.052 32.7554 113.453 32.4281C113.631 32.2794 113.838 32.0265 114.076 32.1604C114.328 32.2942 114.18 32.5918 114.135 32.8C113.853 34.0496 113.586 35.3141 113.038 36.4894C112.726 37.1439 112.252 37.6497 111.584 37.9324C110.932 38.215 110.309 38.0811 109.76 37.6646C109.063 37.1439 108.663 36.4001 108.336 35.6117C107.951 34.6893 107.654 33.7224 107.402 32.7554C107.358 32.6066 107.283 32.443 107.432 32.324C107.595 32.205 107.743 32.324 107.877 32.4281C108.351 32.7703 108.811 33.1422 109.286 33.4843C109.627 33.7372 109.834 33.6777 109.953 33.2612C110.101 32.7108 110.25 32.1455 110.383 31.5802C110.427 31.3719 110.502 31.1785 110.635 31C110.665 31.0149 110.724 31.0149 110.783 31.0149Z" fill="#2269D8"/>
<path d="M117.399 50.4736C117.606 51.2323 117.799 51.991 118.007 52.7497C118.051 52.9282 118.081 53.1365 118.155 53.3001C118.303 53.6423 118.185 53.8654 117.962 54.1332C116.375 55.963 114.818 57.8077 113.231 59.6375C113.083 59.816 113.024 59.9796 113.024 60.2028C113.024 66.2425 113.024 72.2823 113.039 78.337C113.039 78.6197 112.95 78.6643 112.698 78.6643C111.511 78.6494 110.325 78.6494 109.138 78.6643C108.886 78.6643 108.842 78.5899 108.842 78.3519C108.842 72.327 108.842 66.3021 108.857 60.292C108.857 59.9945 108.782 59.7713 108.59 59.5631C106.973 57.6887 105.371 55.7845 103.755 53.9101C103.636 53.7762 103.592 53.6572 103.651 53.4787C103.918 52.5563 104.17 51.6191 104.437 50.6968C104.467 50.6224 104.452 50.4885 104.556 50.4736C104.615 50.4736 104.689 50.5629 104.749 50.6075C106.706 52.6456 108.664 54.6836 110.621 56.7217C110.636 56.7366 110.651 56.7514 110.666 56.7663C110.962 57.0787 110.962 57.0787 111.274 56.7514C113.246 54.7134 115.219 52.6753 117.191 50.6373C117.221 50.5778 117.265 50.4885 117.399 50.4736Z" fill="#2269D8"/>
<path d="M114.031 50.5629C114.031 52.2439 112.682 53.5679 111.006 53.553C109.375 53.5381 108.04 52.1993 108.055 50.548C108.055 48.8818 109.375 47.543 111.036 47.543C112.697 47.543 114.031 48.8818 114.031 50.5629Z" fill="#2269D8"/>
<path d="M92.2327 48.4205C91.2391 48.3907 90.2899 48.1527 89.3408 47.9147C88.9701 47.8105 88.5993 47.7064 88.2285 47.5874C88.0654 47.5428 87.8281 47.513 87.8281 47.2899C87.8281 47.0816 88.0506 47.037 88.2285 46.9626C88.7476 46.7692 89.2667 46.5758 89.7857 46.3675C90.201 46.2188 90.2603 45.9956 89.9488 45.6683C89.5781 45.2518 89.1777 44.865 88.8069 44.4485C88.7476 44.389 88.6883 44.3295 88.6438 44.27C88.5548 44.1361 88.3917 44.0022 88.4658 43.8386C88.5548 43.66 88.7773 43.7195 88.9404 43.7493C89.6077 43.8683 90.2751 43.9873 90.9425 44.1063C91.2687 44.1658 91.3725 44.0617 91.3281 43.7344C91.2687 43.2435 91.1946 42.7526 91.1353 42.2617C91.1204 42.1129 91.1056 41.9493 91.1204 41.8005C91.1501 41.5179 91.3132 41.4435 91.5357 41.6071C91.7581 41.7856 91.9658 41.979 92.1585 42.1873C92.9001 42.9609 93.6564 43.7195 94.2644 44.627C94.5314 45.0138 94.6797 45.4601 94.7687 45.9212C94.9911 47.1262 94.3979 48.0337 93.2115 48.2866C92.8704 48.3758 92.559 48.4205 92.2327 48.4205Z" fill="#2269D8"/>
<path d="M97.5579 42.961C96.5346 42.9461 95.7189 42.6189 94.9329 42.2172C94.1914 41.8602 93.4796 41.4585 92.7826 41.0271C92.6936 40.9676 92.6046 40.9229 92.5304 40.8486C92.4118 40.7147 92.3821 40.5808 92.5898 40.4915C92.7381 40.4172 92.9012 40.4172 93.0643 40.3874C93.5834 40.3279 94.0876 40.2833 94.6067 40.2238C95.0219 40.1643 95.1257 39.956 94.9181 39.599C94.6363 39.0783 94.3397 38.5576 94.0431 38.0369C93.9393 37.8584 93.791 37.6502 93.9245 37.4716C94.0876 37.2782 94.2952 37.4568 94.4732 37.5311C95.0516 37.784 95.63 38.0518 96.2083 38.3196C96.5494 38.4832 96.6681 38.4088 96.7126 38.0369C96.7867 37.5014 96.8312 36.951 96.9202 36.4154C96.9498 36.2369 96.9498 35.984 97.1723 35.9394C97.3947 35.8947 97.4986 36.1179 97.5875 36.2815C98.2549 37.3824 98.9223 38.4832 99.3375 39.7031C99.6045 40.4618 99.6193 41.2651 99.2337 42.0089C98.8629 42.7527 98.1956 42.9461 97.5579 42.961Z" fill="#2269D8"/>
<path d="M129.931 48.2718C129.486 48.2718 129.056 48.1974 128.655 48.0486C127.587 47.647 127.128 46.7246 127.424 45.6089C127.647 44.7907 128.107 44.1213 128.626 43.4816C129.189 42.7973 129.782 42.1576 130.405 41.5328C130.42 41.5179 130.45 41.4882 130.479 41.4733C130.598 41.384 130.702 41.2204 130.865 41.3245C131.013 41.4138 130.984 41.5923 130.969 41.7411C130.895 42.3213 130.82 42.8866 130.746 43.4667C130.687 43.9279 130.835 44.0767 131.28 43.9576C131.873 43.8089 132.452 43.6452 133.045 43.4965C133.223 43.4519 133.46 43.3626 133.579 43.5262C133.712 43.7196 133.505 43.8833 133.386 44.0172C132.986 44.523 132.585 45.0287 132.185 45.5345C131.962 45.8023 132.007 45.9511 132.333 46.0701C132.793 46.2486 133.267 46.4271 133.727 46.6056C133.846 46.6503 133.964 46.7098 134.083 46.7842C134.187 46.8437 134.306 46.918 134.291 47.0668C134.276 47.2007 134.157 47.2602 134.039 47.3048C133.831 47.3792 133.623 47.4536 133.401 47.5131C132.452 47.7957 131.488 48.0338 130.509 48.2123C130.316 48.2569 130.109 48.2569 129.931 48.2718Z" fill="#2269D8"/>
<path d="M115.828 36.43C115.902 35.0911 116.199 33.782 116.54 32.4878C116.57 32.3688 116.614 32.2349 116.748 32.22C116.911 32.2051 116.985 32.3241 117.029 32.4432C117.281 32.9936 117.519 33.5589 117.756 34.1242C117.934 34.5556 118.171 34.6002 118.498 34.2581C118.883 33.8713 119.254 33.4696 119.639 33.0828C119.743 32.9787 119.847 32.8894 119.951 32.8002C120.025 32.7258 120.129 32.6961 120.233 32.7407C120.351 32.7853 120.337 32.9043 120.337 33.0085C120.277 33.5886 120.203 34.1539 120.129 34.7341C120.114 34.8978 120.084 35.0763 120.055 35.2399C120.01 35.5523 120.129 35.6564 120.44 35.5969C120.974 35.5077 121.493 35.4035 122.027 35.3292C122.235 35.2994 122.487 35.225 122.62 35.4333C122.739 35.6416 122.531 35.8052 122.398 35.954C121.523 36.9061 120.663 37.873 119.595 38.6317C119.091 38.9887 118.527 39.197 117.89 39.197C117.015 39.2119 116.392 38.7805 116.08 37.9474C116.006 37.7243 115.947 37.5011 115.902 37.278C115.828 36.9804 115.828 36.7127 115.828 36.43Z" fill="#2269D8"/>
<path d="M122.145 40.67C122.145 39.8518 122.442 39.108 122.783 38.379C123.154 37.5757 123.584 36.7873 124.044 36.0286C124.088 35.9542 124.133 35.8947 124.192 35.8352C124.37 35.6418 124.518 35.6715 124.577 35.9244C124.637 36.1625 124.666 36.4005 124.696 36.6385C124.741 37.0402 124.785 37.4418 124.83 37.8435C124.874 38.2749 125.096 38.379 125.482 38.1708C126.001 37.8881 126.52 37.5757 127.039 37.2931C127.202 37.2038 127.41 37.0104 127.588 37.174C127.766 37.3377 127.603 37.546 127.529 37.7245C127.277 38.3046 127.01 38.8848 126.757 39.4799C126.594 39.8369 126.668 39.941 127.069 39.9857C127.603 40.0452 128.137 40.1047 128.671 40.1791C128.73 40.1791 128.789 40.1939 128.849 40.2237C128.967 40.2683 129.115 40.2832 129.16 40.432C129.19 40.5956 129.056 40.6849 128.952 40.7741C128.24 41.265 127.484 41.6518 126.728 42.0684C126.031 42.4403 125.319 42.7973 124.518 42.8271C122.991 42.8717 122.116 42.113 122.145 40.67Z" fill="#2269D8"/>
<path d="M109.762 41.845C109.807 42.6483 109.837 43.4516 109.525 44.2401C109.214 44.9839 108.769 45.5938 107.909 45.7426C107.241 45.8467 106.663 45.564 106.129 45.207C105.387 44.7012 104.854 44.002 104.32 43.3028C103.919 42.7673 103.519 42.2318 103.178 41.6516C103.104 41.5326 103.015 41.4136 103.104 41.2945C103.207 41.1607 103.371 41.2053 103.504 41.2499C104.082 41.4433 104.646 41.6367 105.224 41.845C105.61 41.9789 105.803 41.8301 105.788 41.4284C105.758 40.8334 105.714 40.2532 105.669 39.673C105.669 39.5838 105.654 39.4945 105.654 39.4052C105.669 39.2714 105.654 39.1226 105.803 39.0631C105.951 39.0036 106.04 39.1375 106.129 39.2267C106.574 39.7474 107.004 40.2532 107.449 40.7739C107.746 41.1309 107.849 41.1309 108.087 40.7441C108.383 40.2681 108.695 39.792 109.006 39.316C109.095 39.197 109.184 39.0482 109.362 39.078C109.57 39.1226 109.57 39.316 109.584 39.4648C109.703 40.2234 109.762 41.0268 109.762 41.845Z" fill="#2269D8"/>
<path d="M120.216 49.3577C119.163 49.3577 118.452 48.9263 118.17 48.1378C117.903 47.3643 118.036 46.6056 118.288 45.8766C118.704 44.6865 119.327 43.6006 119.979 42.5146C120.053 42.3956 120.127 42.2319 120.291 42.2766C120.454 42.3212 120.483 42.4997 120.513 42.6485C120.587 43.2584 120.661 43.8535 120.735 44.4634C120.78 44.8502 120.988 44.9543 121.329 44.7609C121.877 44.4634 122.411 44.1361 122.96 43.8386C123.123 43.7493 123.331 43.6006 123.494 43.7493C123.657 43.8981 123.509 44.1064 123.435 44.2849C123.182 44.8799 122.901 45.475 122.649 46.0552C122.5 46.3824 122.574 46.4717 122.93 46.5312C123.523 46.6205 124.117 46.6353 124.71 46.7543C124.858 46.7841 125.021 46.8138 125.066 46.9924C125.095 47.1411 124.962 47.2304 124.858 47.3048C123.672 48.0486 122.485 48.7775 121.165 49.2387C121.047 49.2833 120.928 49.2982 120.81 49.3131C120.572 49.3279 120.379 49.3726 120.216 49.3577Z" fill="#2269D8"/>
<path d="M103.445 47.2003C103.445 48.3309 102.926 49.1044 102.007 49.2829C101.235 49.4466 100.479 49.2978 99.7523 49.0152C98.6549 48.5838 97.6465 48.0036 96.638 47.3788C96.5194 47.3044 96.3414 47.23 96.3859 47.0366C96.4304 46.8581 96.6083 46.8432 96.7566 46.8283C97.3647 46.754 97.9579 46.6796 98.5659 46.6201C98.9219 46.5755 99.0405 46.3672 98.8774 46.0548C98.5956 45.5341 98.299 45.0283 98.032 44.5076C97.9282 44.2994 97.7058 44.0465 97.8837 43.8531C98.0469 43.6746 98.299 43.8828 98.4918 43.9721C99.0553 44.225 99.6189 44.4928 100.168 44.7457C100.464 44.8795 100.598 44.8052 100.642 44.4779C100.716 43.868 100.79 43.2729 100.894 42.663C100.909 42.5291 100.954 42.3654 101.117 42.3357C101.265 42.3059 101.369 42.425 101.428 42.5291C102.17 43.7341 102.911 44.9539 103.341 46.3077C103.43 46.6052 103.445 46.9027 103.445 47.2003Z" fill="#2269D8"/>
<path d="M105.772 36.3856C105.772 37.3228 105.638 37.9624 105.252 38.5129C104.719 39.2864 103.858 39.4947 102.85 39.1228C102.197 38.8848 101.664 38.4831 101.144 38.0368C100.403 37.3823 99.7356 36.6682 99.0831 35.9393C98.9793 35.8203 98.8162 35.6864 98.92 35.5227C99.0238 35.3442 99.2314 35.4037 99.3945 35.4335C99.9432 35.5376 100.492 35.6417 101.026 35.7459C101.515 35.8351 101.678 35.6715 101.56 35.1954C101.426 34.6004 101.308 34.0053 101.174 33.4103C101.159 33.3062 101.144 33.202 101.144 33.1128C101.159 32.8896 101.278 32.8301 101.471 32.9342C101.56 32.9789 101.634 33.0533 101.708 33.1128C102.197 33.5442 102.672 33.9756 103.161 34.407C103.458 34.6599 103.577 34.6301 103.74 34.2731C103.977 33.7227 104.185 33.1574 104.481 32.6516C104.541 32.5326 104.63 32.4136 104.778 32.4136C104.926 32.4285 104.986 32.5623 105.015 32.6962C105.416 33.9756 105.653 35.2996 105.772 36.3856Z" fill="#2269D8"/>
<path d="M111.867 41.9342C111.927 41.0713 112.001 40.2085 112.134 39.3606C112.149 39.2118 112.164 39.0184 112.327 38.9738C112.505 38.9292 112.609 39.1077 112.683 39.2416C112.979 39.7622 113.276 40.2829 113.587 40.7887C113.795 41.1457 114.003 41.1606 114.255 40.8333C114.626 40.3573 114.996 39.8664 115.367 39.3903C115.486 39.2416 115.604 38.9887 115.842 39.0779C116.079 39.1672 115.99 39.4201 115.99 39.6135C115.99 40.268 115.96 40.9077 115.96 41.5623C115.96 41.8895 116.064 41.9639 116.361 41.8747C116.85 41.7408 117.325 41.592 117.814 41.4433C117.918 41.4135 118.037 41.3838 118.14 41.3689C118.259 41.354 118.422 41.3094 118.511 41.4284C118.615 41.5771 118.526 41.7259 118.452 41.8449C117.77 42.8565 117.013 43.8086 116.183 44.7012C115.753 45.1623 115.234 45.4747 114.626 45.6533C113.543 45.9657 112.653 45.5342 112.223 44.478C111.927 43.7788 111.867 43.0499 111.882 42.3061C111.867 42.1871 111.867 42.0681 111.867 41.9342Z" fill="#2269D8"/>
<path d="M115.963 40.1342C115.934 40.1044 115.889 40.0598 115.859 40.03C115.948 40.0151 115.978 40.0449 115.963 40.1342Z" fill="#2269D8"/>
<path d="M87.5185 52.9572C89.4316 52.4663 91.3892 52.2282 93.3764 52.2729C96.7429 52.3324 99.9017 53.1803 102.823 54.8762C103.817 55.4415 104.751 56.111 105.597 56.8845C105.789 57.0631 105.923 57.2713 105.819 57.554C105.819 57.5093 105.804 57.4647 105.804 57.4201C105.789 57.4201 105.774 57.4201 105.76 57.4201C105.76 60.9755 105.76 64.531 105.76 68.0715C105.76 72.3113 105.76 76.5659 105.76 80.8057C105.76 81.5198 105.878 82.2338 105.641 82.933C105.493 83.0371 105.374 82.9479 105.255 82.8586C102.794 81.014 99.9907 80.0024 96.9653 79.5858C93.8213 79.1395 90.6921 79.3032 87.5926 79.9875C87.5185 80.0024 87.4592 80.0172 87.385 80.0321C87.1922 80.0619 87.0587 79.9875 87.0143 79.7941C86.9698 79.6007 87.0736 79.4519 87.2664 79.4073C87.8447 79.2883 88.4083 79.1544 88.9867 79.0652C89.8023 78.9461 90.6032 78.8123 91.4337 78.7974C92.7239 78.7974 94.0289 78.7974 95.3192 78.7974C95.7641 78.7676 96.1942 78.8718 96.6391 78.8569C96.0607 78.7081 95.4823 78.5891 94.8891 78.5594C92.4125 78.3065 89.9655 78.4552 87.5481 79.0949C87.385 79.1395 87.207 79.199 87.0736 79.0205C86.9104 78.8123 87.0291 78.5742 87.3257 78.485C88.26 78.2321 89.1943 78.0536 90.1583 77.9494C92.8425 77.6519 95.4823 77.8007 98.1073 78.485C98.3297 78.5445 98.5522 78.604 98.7746 78.6635C99.3678 78.8718 99.961 79.08 100.554 79.2883C100.569 79.2585 100.569 79.2288 100.584 79.199C99.9017 78.8569 99.2047 78.5296 98.4632 78.3065C96.2238 77.5329 93.9251 77.28 91.5671 77.399C90.2176 77.4734 88.8977 77.7114 87.5926 78.0387C87.1774 77.9792 87.1626 77.9643 87.1626 77.5478C87.1626 69.5889 87.1626 61.6301 87.1626 53.6861C87.1626 53.4779 87.1032 53.225 87.385 53.1208C87.3998 53.1208 87.3998 53.0316 87.3998 52.9721C87.4443 53.0167 87.4888 53.0167 87.5185 52.9572ZM96.7577 78.7974C96.7429 78.8271 96.728 78.842 96.728 78.8718C96.9653 79.0503 97.2619 79.0354 97.5585 78.9908C97.2916 78.9164 97.0246 78.8569 96.7577 78.7974Z" fill="#2269D8"/>
<path d="M131.385 77.935C132.512 77.9945 133.61 78.2177 134.692 78.5003C134.9 78.5598 135.048 78.6788 134.974 78.9169C134.9 79.1698 134.722 79.1698 134.485 79.1103C131.504 78.3367 128.508 78.2623 125.483 78.7979C125.468 78.7979 125.468 78.8276 125.453 78.8425C125.513 78.9466 125.601 78.8574 125.661 78.8574C128.538 78.5598 131.4 78.7086 134.233 79.2888C134.381 79.3185 134.529 79.3632 134.678 79.3929C134.885 79.4375 135.019 79.5565 134.974 79.7797C134.93 80.0177 134.752 80.0772 134.529 80.0177C133.684 79.8243 132.824 79.6756 131.964 79.5714C129.383 79.2441 126.803 79.259 124.222 79.7202C121.849 80.1516 119.61 80.9549 117.578 82.2789C117.297 82.4723 117.015 82.6806 116.733 82.874C116.6 82.9632 116.481 83.0525 116.318 82.9632C116.155 82.874 116.14 82.7401 116.14 82.5764C116.14 77.2358 116.14 71.8952 116.14 66.5546C116.14 63.5347 116.14 60.5 116.125 57.4801C116.125 57.242 116.184 57.0784 116.362 56.9148C118.275 55.1891 120.485 53.999 122.932 53.2254C126.299 52.1543 129.709 52.0353 133.165 52.6899C133.625 52.7791 134.099 52.8833 134.559 52.9874C134.826 53.0469 134.945 53.1808 134.945 53.4783C134.945 61.5562 134.945 69.6192 134.945 77.697C134.945 78.1135 134.796 78.2028 134.381 78.0987C130.525 77.0722 126.714 77.1466 122.962 78.545C122.843 78.5896 122.739 78.6342 122.621 78.6937C122.176 78.8276 121.775 79.0656 121.375 79.2888C121.864 79.1846 122.339 79.0061 122.813 78.8127C124.074 78.4408 125.349 78.1433 126.654 77.9945C126.847 77.9797 127.04 77.9648 127.233 77.9499C128.627 77.935 130.006 77.935 131.385 77.935ZM130.94 76.8491C131.949 76.8937 132.928 77.0722 133.906 77.2953C134.307 77.3846 134.307 77.3995 134.307 76.9978C134.307 69.4555 134.307 61.9132 134.307 54.3709C134.307 53.5825 134.307 53.5676 133.536 53.4188C129.932 52.675 126.358 52.7494 122.843 53.9395C120.678 54.6684 118.72 55.7395 116.985 57.242C116.822 57.3759 116.792 57.5247 116.792 57.7181C116.807 65.6472 116.807 73.5763 116.807 81.5053C116.807 81.5946 116.763 81.6987 116.867 81.8029C116.941 81.7434 117 81.6839 117.074 81.6244C118.943 79.7946 121.123 78.4557 123.599 77.6524C124.919 77.221 126.254 76.9383 127.633 76.8639C128.731 76.8491 129.828 76.8491 130.94 76.8491ZM134.411 53.761C134.396 53.761 134.396 53.7461 134.381 53.7461C134.381 61.5711 134.381 69.4109 134.381 77.2358C134.396 77.2358 134.396 77.2358 134.411 77.2358C134.411 69.4258 134.411 61.5859 134.411 53.761ZM125.127 78.9466C124.904 78.8574 124.712 78.9317 124.474 79.0061C124.727 79.0805 124.919 78.9466 125.127 78.9466Z" fill="#2269D8"/>
<path d="M87.3872 53.002C87.3872 53.0466 87.402 53.1358 87.3723 53.1507C87.0906 53.2549 87.1499 53.5077 87.1499 53.716C87.1499 61.6749 87.1499 69.6337 87.1499 77.5777C87.1499 77.9942 87.1647 78.0091 87.58 78.0686C87.1944 78.2173 87.0312 78.0983 87.0312 77.652C87.0312 74.1412 87.0312 70.6304 87.0312 67.1196C87.0312 62.5972 87.0312 58.0599 87.0312 53.5375C87.0312 53.2697 87.0312 53.0168 87.3872 53.002Z" fill="#2269D8"/>
<path d="M105.629 82.9332C105.851 82.234 105.748 81.52 105.748 80.8059C105.762 76.5662 105.748 72.3115 105.748 68.0718C105.777 68.0718 105.792 68.0718 105.822 68.0867C105.822 68.4139 105.837 68.7561 105.837 69.0834C105.837 73.5611 105.837 78.0389 105.822 82.5167C105.822 82.6803 105.866 82.8737 105.629 82.9332Z" fill="#2269D8"/>
<path d="M105.82 68.0716C105.791 68.0716 105.776 68.0716 105.746 68.0567C105.746 64.5013 105.746 60.9458 105.746 57.4053C105.761 57.4053 105.776 57.4053 105.791 57.4053C105.791 57.4499 105.805 57.4945 105.805 57.5392C105.805 57.6135 105.82 57.673 105.82 57.7474C105.82 61.1095 105.82 64.4715 105.82 67.8187C105.835 67.908 105.82 67.9972 105.82 68.0716Z" fill="#2269D8"/>
<path d="M131.388 77.9348C130.008 77.9348 128.629 77.9348 127.25 77.9348C128.125 77.7861 129 77.8158 129.875 77.8307C130.379 77.8307 130.883 77.8456 131.388 77.9348Z" fill="#2269D8"/>
<path d="M91.6592 78.7381C92.6824 78.7232 93.7206 78.6786 94.7438 78.7381C94.9366 78.753 95.1294 78.7232 95.3074 78.7976C94.0172 78.7976 92.7121 78.7976 91.4219 78.7976C91.496 78.7827 91.585 78.753 91.6592 78.7381Z" fill="#2269D8"/>
<path d="M87.5202 52.9575C87.4905 53.0021 87.446 53.0021 87.3867 52.9873C87.4164 52.9575 87.4757 52.9575 87.5202 52.9575Z" fill="#2269D8"/>
<path d="M96.7593 78.7979C97.0263 78.8574 97.2932 78.9169 97.5453 78.9912C97.2487 79.0359 96.967 79.0507 96.7148 78.8722C96.7445 78.8425 96.7445 78.8127 96.7593 78.7979Z" fill="#2269D8"/>
<path d="M134.412 53.7607C134.412 61.5857 134.412 69.4106 134.412 77.2505C134.398 77.2505 134.398 77.2505 134.383 77.2505C134.383 69.4255 134.383 61.5857 134.383 53.7607C134.398 53.7607 134.398 53.7607 134.412 53.7607Z" fill="#2269D8"/>
<path d="M127.621 76.849C128.719 76.73 129.831 76.73 130.928 76.849C129.831 76.849 128.733 76.849 127.621 76.849Z" fill="#2269D8"/>
<path d="M125.129 78.9463C124.921 78.9463 124.729 79.095 124.477 79.0058C124.714 78.9165 124.907 78.8421 125.129 78.9463Z" fill="#2269D8"/>
</svg>
