<svg width="229" height="229" viewBox="0 0 229 229" fill="none" xmlns="http://www.w3.org/2000/svg">
<path d="M114.333 0.0498601C144.084 0.0498601 173.788 0.0498601 203.539 0.0498601C205.041 0.0498601 206.543 0.00292969 208.044 0.0498601C216.819 0.331443 224.609 6.15082 227.331 14.4575C228.035 16.6163 228.504 18.822 228.41 21.0747C228.363 22.2949 228.41 23.4681 228.41 24.6883C228.41 84.29 228.41 143.939 228.41 203.54C228.41 204.901 228.457 206.262 228.41 207.576C228.129 217.432 221.277 225.738 211.611 227.85C210.719 228.038 209.827 228.132 208.936 228.132C207.293 228.179 205.651 228.226 203.962 228.226C144.225 228.226 84.4409 228.226 24.704 228.226C23.0616 228.226 21.4191 228.226 19.7298 228.179C10.72 227.85 1.75714 220.529 0.396288 210.486C0.114731 208.421 0.020856 206.309 0.020856 204.197C-0.02607 191.151 0.020856 178.057 0.020856 165.01C0.020856 118.315 0.020856 71.6188 0.020856 24.923C0.020856 22.6703 0.0677592 20.4177 0.349316 18.165C1.47554 9.34208 8.3268 2.02094 17.055 0.284512C17.9466 0.0967905 18.8382 0.0498601 19.7298 0.0498601C21.2314 0.00292969 22.7331 0.00292969 24.2347 0.00292969C54.2674 0.0498601 84.3001 0.0498601 114.333 0.0498601ZM114.239 211.565C128.645 211.565 143.052 211.565 157.458 211.565C170.832 211.565 184.159 211.565 197.533 211.565C199.175 211.565 200.818 211.424 202.46 211.237C206.918 210.767 211.845 206.403 212.455 201.053C212.596 199.88 212.737 198.659 212.737 197.486C212.737 182.328 212.784 167.169 212.737 152.011C212.737 150.509 212.596 149.007 212.314 147.552C211.376 142.202 206.214 138.166 201.756 137.931C200.395 137.885 199.081 137.791 197.72 137.791C142.066 137.791 86.3649 137.791 30.7105 137.791C29.4904 137.791 28.3173 137.791 27.0972 137.885C22.1699 138.307 18.7913 140.982 16.7265 145.393C15.8349 147.364 15.7411 149.429 15.7411 151.541C15.7411 166.841 15.7411 182.14 15.7411 197.439C15.7411 198.331 15.6942 199.223 15.788 200.161C16.3511 206.168 21.0907 210.345 25.5487 211.143C27.4726 211.471 29.4435 211.518 31.3675 211.518C59.007 211.565 86.5995 211.565 114.239 211.565ZM111.189 92.2212C110.813 84.29 110.485 76.3587 110.156 68.4275C110.156 68.1459 110.109 67.8174 110.109 67.5358C110.109 64.72 108.796 62.702 106.496 61.2002C105.37 60.4963 104.244 59.7454 103.024 59.1353C101.287 58.2905 99.4572 57.5396 97.674 56.8357C92.2306 54.6769 86.5995 53.1282 81.0153 51.5325C70.9262 48.6698 60.7432 46.2294 50.8887 42.6158C49.9971 42.2872 49.434 42.3811 49.2463 42.7096C48.9178 43.3197 49.1525 43.8829 49.2932 44.3991C50.1848 47.2619 51.0764 50.1246 51.968 52.9874C54.3143 60.7309 56.6607 68.4744 59.0539 76.171C60.3209 80.3009 61.8225 84.3838 63.5588 88.3729C64.6381 90.8602 65.8581 93.2537 67.4067 95.4594C68.5798 97.102 70.0346 98.2752 71.9586 98.9792C75.1965 100.106 78.4813 101.138 81.86 101.936C86.3649 103.015 90.8698 104.095 95.2808 105.596C101.475 107.755 106.918 111.134 110.813 116.531C111.048 116.86 111.423 117.094 111.752 117.376C111.986 117.611 112.174 117.564 112.174 117.235C112.221 116.484 112.315 115.78 112.315 115.029C111.893 107.474 111.517 99.8709 111.189 92.2212ZM117.336 91.3765H117.289C116.867 99.6362 116.444 107.849 116.022 116.109C116.022 116.531 116.022 117 116.116 117.47C116.116 117.517 116.398 117.564 116.538 117.564C117.195 117.47 117.477 116.954 117.852 116.437C121.09 111.932 125.501 108.882 130.569 106.723C131.648 106.253 132.822 105.878 133.948 105.503C136.904 104.423 139.954 103.672 143.005 102.921C147.51 101.795 152.014 100.716 156.426 99.12C158.49 98.3691 160.086 97.1489 161.259 95.3186C162.854 92.9252 164.168 90.3909 165.201 87.7628C166.843 83.586 168.439 79.3623 169.799 75.0916C173.131 64.5323 176.322 53.8791 179.56 43.2728C179.607 43.132 179.607 42.9443 179.56 42.8504C179.419 42.6627 179.185 42.3342 178.997 42.3811C178.575 42.3811 178.105 42.5219 177.683 42.7096C170.785 45.2439 163.699 47.1211 156.613 49.0922C149.527 51.0632 142.441 52.8935 135.496 55.24C131.789 56.5072 128.129 57.8212 124.703 59.6515C123.108 60.4962 121.606 61.4349 120.292 62.7489C119.213 63.8752 118.556 65.0954 118.509 66.738C118.275 72.8859 117.946 79.0338 117.665 85.1816C117.477 87.1527 117.43 89.2646 117.336 91.3765ZM110.063 50.1246C110.016 50.1246 110.016 50.1246 109.969 50.1246C109.969 48.7636 109.969 47.4496 109.969 46.0886C109.969 45.1031 109.64 44.6338 108.842 44.3991C107.857 44.0706 106.825 43.789 105.839 43.4605C90.9167 39.0021 76.0411 34.5906 61.1186 30.1323C58.96 29.4752 56.8014 28.9121 54.6428 28.302C54.2674 28.2081 53.7043 28.6774 53.7981 29.0529C54.5959 32.1033 55.3936 35.1069 56.1913 38.1574C56.426 38.9552 57.036 39.3776 57.7868 39.6122C58.0684 39.7061 58.35 39.753 58.6315 39.8469C71.677 43.7421 84.7225 47.6373 97.7679 51.5325C101.475 52.6589 105.229 53.7383 108.936 54.8646C109.265 54.9585 109.875 54.4892 109.875 54.1606C109.922 52.7997 110.016 51.4387 110.063 50.1246ZM118.462 49.6553C118.509 49.6553 118.509 49.6553 118.556 49.6553C118.556 51.1571 118.556 52.6589 118.556 54.1606C118.556 54.583 119.072 54.9585 119.495 54.8177C120.668 54.4891 121.794 54.2076 122.967 53.8321C134.886 50.2654 146.806 46.7456 158.725 43.1789C162.62 42.0057 166.468 40.8324 170.363 39.7061C171.442 39.3776 172.193 38.8144 172.521 37.6411C173.084 35.2946 173.741 32.995 174.351 30.6954C174.492 30.1323 174.586 29.5222 174.539 28.9121C174.539 28.7243 174.117 28.3489 173.929 28.3958C172.474 28.7243 171.019 29.0998 169.612 29.5222C153.938 34.1683 138.312 38.8144 122.639 43.4605C121.794 43.6952 120.902 43.9767 120.058 44.2583C118.603 44.7276 118.509 44.8215 118.509 46.511C118.462 47.5434 118.462 48.5759 118.462 49.6553Z" fill="#C31A2C"/>
<path d="M114.236 211.566C86.6436 211.566 59.0041 211.566 31.4116 211.566C29.4407 211.566 27.5167 211.519 25.5927 211.19C21.1348 210.392 16.3952 206.216 15.8321 200.208C15.7382 199.317 15.7852 198.425 15.7852 197.486C15.7852 182.187 15.7852 166.888 15.7852 151.588C15.7852 149.477 15.8321 147.365 16.7706 145.441C18.8354 140.982 22.1672 138.354 27.1413 137.932C28.3145 137.838 29.5345 137.838 30.7546 137.838C86.4089 137.838 142.11 137.838 197.764 137.838C199.125 137.838 200.486 137.885 201.8 137.979C206.305 138.166 211.42 142.249 212.359 147.599C212.593 149.054 212.781 150.556 212.781 152.058C212.828 167.216 212.828 182.375 212.781 197.533C212.781 198.707 212.64 199.927 212.499 201.1C211.889 206.45 206.962 210.862 202.504 211.284C200.862 211.472 199.219 211.613 197.577 211.613C184.203 211.659 170.876 211.613 157.502 211.613C143.049 211.566 128.642 211.566 114.236 211.566ZM141.641 177.447C140.937 176.743 140.186 176.79 139.435 177.447C138.919 177.823 138.685 178.339 138.685 178.996C138.638 182.14 138.638 185.285 138.591 188.429C138.591 189.931 138.638 191.432 138.685 192.934C138.685 193.357 139.388 193.967 139.952 194.014C141.641 194.201 142.251 193.732 142.251 192.136C142.251 187.772 142.251 183.454 142.251 179.09C142.251 178.433 142.063 177.916 141.641 177.447ZM179.792 185.848C179.745 183.454 179.792 181.061 179.745 178.667C179.745 178.292 179.51 177.776 179.182 177.494C178.666 176.978 177.164 177.119 176.695 177.588C176.601 177.682 176.413 177.776 176.413 177.916C176.319 178.339 176.225 178.808 176.225 179.231C176.179 181.202 176.225 183.126 176.178 185.097C176.178 185.519 176.226 185.942 175.803 186.27C175.522 186.505 175.005 186.27 174.395 185.425C173.973 184.815 173.551 184.205 173.081 183.595C171.768 181.765 170.454 179.934 169.14 178.151C168.53 177.306 167.685 177.166 166.746 177.166C165.667 177.166 164.963 177.729 164.963 178.714C164.963 183.36 164.963 188.007 164.963 192.653C164.963 192.793 165.057 192.934 165.057 193.075C165.104 193.638 165.573 193.779 165.949 193.92C166.23 194.014 166.559 193.967 166.84 193.967C168.06 193.92 168.53 193.685 168.53 192.418C168.577 190.635 168.53 188.804 168.576 187.021C168.576 186.411 168.717 185.848 168.811 185.238C168.811 185.144 169.093 185.05 169.187 185.097C169.421 185.144 169.75 185.238 169.89 185.378C171.58 187.678 173.269 189.978 174.958 192.277C175.334 192.746 175.662 193.31 176.132 193.591C177.07 194.201 178.196 194.107 179.135 193.685C179.698 193.45 179.651 192.7 179.651 192.089C179.792 190.025 179.792 187.96 179.792 185.848ZM73.7389 151.495C71.5334 151.26 69.3748 152.152 67.6385 154.029C65.2922 156.563 64.776 159.567 65.7145 162.805C66.7938 166.419 70.0787 168.765 73.8328 168.671C74.7244 168.671 75.616 168.483 76.4606 168.296C77.3053 168.108 77.8684 168.437 78.4784 168.953C78.8069 169.234 79.1823 169.61 79.5577 169.657C80.1678 169.751 80.7778 169.516 81.1063 169C81.3409 168.624 81.5756 168.249 81.1532 167.826C80.3555 166.982 80.1677 166.09 80.8247 165.011C81.3409 164.119 81.7633 163.133 82.0448 162.148C83.4526 156.61 79.1823 151.354 73.7389 151.495ZM162.054 186.739C162.101 184.534 161.819 182.891 161.397 181.952C159.707 178.339 155.906 176.602 152.622 177.025C148.257 177.588 145.536 181.014 145.254 184.299C145.16 185.519 145.16 186.692 145.395 187.866C146.052 191.151 148.821 193.732 152.152 194.061C153.044 194.154 153.936 194.107 154.827 194.107C156.892 194.014 158.534 193.075 159.895 191.62C161.397 189.978 162.054 188.053 162.054 186.739ZM64.7291 194.061C64.7291 194.014 64.7291 193.967 64.7291 193.967C65.7615 193.967 66.8407 194.014 67.8731 193.967C70.9702 193.732 73.5042 191.667 74.4897 188.664C75.1936 186.599 75.1467 184.534 74.4428 182.469C73.5512 179.841 71.768 178.198 69.0932 177.541C66.8877 176.978 64.6352 177.119 62.3828 177.213C61.632 177.259 61.0219 177.916 61.0219 178.667C61.0219 183.313 61.0219 187.96 61.0219 192.606C61.0219 192.746 60.975 192.934 61.0688 193.028C61.3035 193.404 61.5381 193.826 62.0543 193.826C62.9459 193.92 63.8375 194.014 64.7291 194.061ZM77.8684 183.454C77.9153 185.238 77.8215 187.068 77.9153 188.851C78.0561 191.151 79.2762 192.887 81.3409 193.732C83.3118 194.53 85.4704 194.483 87.4883 193.685C88.943 193.075 89.9753 191.996 90.4915 190.494C90.7262 189.79 90.9138 189.039 90.9138 188.288C90.9607 185.003 90.9138 181.718 90.9138 178.386C90.9138 178.104 90.7262 177.776 90.5384 177.588C89.9284 177.072 89.1776 177.072 88.4268 177.259C87.9106 177.353 87.3944 178.01 87.3944 178.573C87.3474 181.108 87.3944 183.689 87.3005 186.223C87.3005 187.115 87.1598 188.007 86.9721 188.898C86.7844 189.696 86.1743 190.165 85.4235 190.4C83.3587 191.01 81.6694 189.931 81.5286 187.96C81.4817 187.209 81.4817 186.458 81.4817 185.707C81.4817 183.595 81.4817 181.53 81.4817 179.418C81.4817 178.996 81.4348 178.527 81.3409 178.104C81.2471 177.87 81.0124 177.541 80.7309 177.494C78.9477 176.931 77.9153 177.259 77.9153 179.043C77.8215 180.451 77.8684 181.952 77.8684 183.454ZM85.2358 157.455C85.2358 158.957 85.1889 160.458 85.2358 161.96C85.3765 166.606 88.0983 169.047 92.7909 168.671C95.3249 168.483 97.2489 166.935 98.0935 164.494C98.422 163.462 98.5159 162.476 98.5159 161.397C98.5159 158.863 98.5159 156.328 98.5159 153.747C98.5159 153.466 98.469 153.137 98.469 152.856C98.422 152.058 97.9058 151.635 96.9673 151.588C96.6857 151.588 96.3572 151.635 96.0757 151.635C95.5126 151.589 95.231 152.011 95.1372 152.386C94.9964 152.949 94.9964 153.56 94.9964 154.17C94.9964 156.282 94.9964 158.346 94.9964 160.458C94.9964 161.209 94.9495 161.96 94.8087 162.664C94.5741 163.978 93.2602 165.011 91.8993 164.964C90.5385 164.964 89.2715 163.884 89.0837 162.523C88.9899 161.772 88.9429 161.022 88.9429 160.271C88.9429 158.159 88.9429 156.094 88.9429 153.982C88.9429 153.372 88.896 152.809 88.7552 152.199C88.7083 151.964 88.3799 151.635 88.1452 151.635C86.362 151.354 85.3297 151.354 85.3297 153.278C85.2358 154.733 85.2358 156.094 85.2358 157.455ZM48.5865 185.519C48.5396 187.913 48.5396 190.306 48.5396 192.7C48.5396 193.31 49.0558 193.92 49.6189 193.92C52.1529 193.92 54.6869 193.92 57.2209 193.92C57.6433 193.92 58.0656 193.216 58.0656 192.559C58.0186 191.339 57.6432 190.869 56.5639 190.775C55.3908 190.682 54.1707 190.635 52.9976 190.447C52.7629 190.4 52.4814 190.118 52.3875 189.837C51.9183 188.851 52.5752 187.537 53.5607 187.443C54.7338 187.349 55.9539 187.349 57.127 187.162C57.4555 187.115 57.7371 186.599 57.9717 186.223C58.1125 185.989 58.0656 185.66 58.0656 185.331C58.0656 184.674 57.6432 184.064 57.127 184.064C55.9539 184.017 54.7338 183.971 53.5607 183.877C52.7629 183.83 52.3406 183.313 52.2937 182.375C52.2468 181.249 52.8099 180.592 53.7484 180.545C54.7808 180.498 55.8131 180.451 56.8924 180.404C57.6902 180.357 58.0656 179.841 58.0656 178.855C58.0656 177.87 57.6433 177.213 56.9394 177.213C54.5462 177.166 52.1529 177.213 49.8066 177.213C49.2435 177.213 48.6334 177.823 48.6334 178.339C48.5865 180.779 48.5865 183.126 48.5865 185.519ZM123.668 193.967C123.809 193.967 123.95 193.967 124.091 193.92C124.513 193.873 124.935 193.357 124.794 192.981C122.777 188.007 120.806 183.032 118.741 178.104C118.413 177.353 117.709 177.119 116.864 177.166C116.207 177.213 115.738 177.541 115.362 178.01C115.175 178.245 115.081 178.527 114.94 178.808C113.157 183.22 111.374 187.678 109.637 192.089C109.497 192.512 109.45 192.981 109.403 193.404C109.403 193.497 109.543 193.638 109.637 193.685C110.482 194.295 112.453 194.061 112.828 193.122C113.485 191.245 114.705 190.541 116.582 190.822C117.005 190.869 117.474 190.869 117.943 190.822C119.445 190.682 120.571 191.245 121.087 192.7C121.557 193.967 122.542 194.014 123.668 193.967ZM115.081 168.53C115.222 168.53 115.362 168.483 115.55 168.483C116.301 168.437 116.723 167.92 116.489 167.31C114.799 163.133 113.11 158.957 111.421 154.78C111.092 153.935 110.717 153.137 110.341 152.292C110.2 152.058 109.966 151.87 109.684 151.729C108.887 151.26 107.291 151.729 106.963 152.527C105.132 156.985 103.349 161.444 101.566 165.855C101.331 166.419 101.238 166.982 101.05 167.592C100.909 168.014 101.285 168.343 101.848 168.437C103.162 168.624 104.335 168.483 104.757 167.076C105.226 165.48 106.259 165.011 107.807 165.104C108.84 165.151 109.919 165.151 110.951 165.151C111.608 165.151 112.031 165.527 112.312 166.09C112.5 166.512 112.734 166.888 112.922 167.31C113.298 168.343 114.095 168.577 115.081 168.53ZM104.992 181.249C104.757 181.155 105.039 181.249 105.32 181.342C105.461 181.389 105.602 181.436 105.743 181.483C106.446 181.671 106.869 181.389 106.869 180.638C106.869 180.028 106.963 179.418 106.822 178.855C106.728 178.48 106.446 177.963 106.118 177.823C104.288 177.072 102.411 176.602 100.44 177.166C94.9495 178.714 92.8378 183.877 94.5272 188.851C95.6065 192.136 98.3751 194.248 102.035 194.201C103.349 194.201 104.71 193.873 106.024 193.591C106.353 193.497 106.728 193.028 106.822 192.606C106.963 192.043 106.963 191.432 106.916 190.822C106.869 189.931 106.446 189.743 105.461 189.978C104.288 190.212 103.115 190.541 101.941 190.541C100.158 190.541 98.7974 189.555 98.1874 187.866C97.5304 186.082 97.6243 184.346 98.6097 182.703C99.5482 181.155 101.519 180.31 103.255 180.685C103.631 180.779 104.053 180.967 104.992 181.249ZM130.942 177.259V177.213C129.44 177.213 127.939 177.166 126.437 177.259C126.061 177.259 125.545 177.541 125.358 177.87C124.607 178.949 125.123 180.498 126.296 180.779C126.859 180.92 127.469 181.014 128.032 181.108C128.549 181.202 128.783 181.671 128.83 182.093C128.924 182.985 128.924 183.877 128.971 184.768C129.018 187.443 129.018 190.165 129.018 192.887C129.018 193.45 129.534 193.967 130.191 194.014C130.332 194.014 130.473 194.014 130.66 194.061C132.115 194.107 132.678 193.685 132.678 192.324C132.725 189.461 132.678 186.646 132.725 183.783C132.725 183.032 132.725 182.234 133.053 181.624C133.523 180.685 134.602 181.014 135.447 180.779C136.291 180.545 136.62 179.981 136.479 178.62C136.432 177.963 135.963 177.306 135.494 177.306C133.945 177.213 132.443 177.259 130.942 177.259ZM150.745 151.635C150.838 151.635 150.557 151.635 150.228 151.635C149.478 151.682 149.149 152.152 149.478 152.762C150.604 154.686 151.683 156.657 152.856 158.581C153.795 160.036 154.217 161.538 154.17 163.227C154.123 164.729 154.264 166.184 154.358 167.686C154.358 167.92 154.639 168.202 154.874 168.343C156.376 169.047 157.69 168.39 157.783 166.841C157.783 166.372 157.783 165.949 157.783 165.48C157.83 159.52 157.408 161.35 160.318 156.235C161.068 154.967 161.725 153.607 162.429 152.292C162.57 151.964 162.382 151.729 162.007 151.682C161.585 151.635 161.115 151.588 160.693 151.542C159.707 151.448 158.957 151.776 158.394 152.621C157.737 153.607 157.08 154.639 156.423 155.625C156.188 156 155.578 156 155.343 155.625C154.686 154.639 154.029 153.607 153.419 152.621C152.903 151.776 152.105 151.542 150.745 151.635ZM142.204 151.635C142.204 151.682 142.204 151.682 142.204 151.729C140.562 151.729 138.919 151.682 137.277 151.776C136.854 151.776 136.526 152.199 136.526 152.715C136.526 153.325 136.479 153.935 136.573 154.498C136.62 154.733 136.901 155.014 137.136 155.108C137.558 155.249 138.028 155.249 138.45 155.249C139.952 155.249 140.092 155.953 140.139 156.798C140.186 159.05 140.186 161.303 140.186 163.509C140.186 164.682 140.186 165.902 140.233 167.076C140.233 167.357 140.327 167.686 140.515 167.873C140.656 168.108 140.937 168.296 141.172 168.343C143.096 168.718 143.753 168.249 143.753 166.465C143.8 164.354 143.753 162.289 143.753 160.177C143.753 158.816 143.753 157.502 143.893 156.141C143.94 155.765 144.222 155.343 144.785 155.296C145.395 155.249 145.958 155.202 146.568 155.108C147.178 155.014 147.554 154.592 147.601 153.888C147.601 153.607 147.647 153.278 147.601 152.996C147.554 152.105 147.084 151.635 146.24 151.635C144.879 151.635 143.518 151.635 142.204 151.635ZM123.856 168.624C123.856 168.577 123.856 168.53 123.856 168.483C124.888 168.483 125.921 168.483 127 168.483C127.61 168.483 128.079 167.967 128.126 167.31C128.173 166.888 128.173 166.419 128.126 165.996C128.032 165.527 127.751 165.151 127.282 165.104C126.531 165.011 125.78 164.964 125.076 164.917C123.621 164.776 123.199 164.401 123.199 163.04C123.152 161.866 123.199 160.646 123.199 159.473C123.199 157.549 123.199 155.578 123.199 153.653C123.199 153.231 123.152 152.762 123.011 152.339C122.917 152.105 122.636 151.823 122.401 151.776C120.524 151.495 119.633 151.588 119.633 153.466C119.633 157.924 119.633 162.429 119.633 166.888C119.633 167.169 119.68 167.498 119.773 167.779C119.914 168.014 120.149 168.343 120.383 168.39C121.463 168.483 122.683 168.53 123.856 168.624ZM134.086 159.989C134.133 159.989 134.18 159.989 134.18 159.989C134.133 157.455 134.039 154.967 133.992 152.433C133.992 151.87 133.476 151.776 133.053 151.635C132.772 151.542 132.443 151.588 132.162 151.588C130.895 151.635 130.473 151.964 130.473 153.137C130.473 157.736 130.473 162.336 130.473 166.982C130.473 168.061 130.989 168.483 132.209 168.53C133.382 168.577 134.039 168.108 134.039 167.169C134.086 164.776 134.086 162.382 134.086 159.989Z" fill="#FEFEFE"/>
<path d="M111.187 92.2209C111.563 99.8705 111.891 107.473 112.22 115.123C112.267 115.874 112.126 116.578 112.079 117.329C112.079 117.61 111.891 117.657 111.657 117.469C111.328 117.188 110.953 116.953 110.718 116.625C106.776 111.181 101.38 107.849 95.1855 105.69C90.8214 104.141 86.2695 103.109 81.7646 102.029C78.4329 101.232 75.148 100.199 71.8632 99.0727C69.9393 98.4157 68.4846 97.1955 67.3114 95.553C65.7629 93.3472 64.5427 90.9538 63.4634 88.4665C61.7272 84.4774 60.2256 80.3944 58.9586 76.2645C56.5653 68.521 54.266 60.7775 51.8727 53.0809C50.9811 50.2182 50.0896 47.3554 49.198 44.4927C49.0572 43.9295 48.8225 43.3663 49.151 42.8032C49.3387 42.4746 49.9018 42.3808 50.7934 42.7093C60.6479 46.276 70.8309 48.7633 80.92 51.6261C86.5511 53.2217 92.1353 54.7704 97.5787 56.9292C99.3619 57.6332 101.192 58.3841 102.928 59.2288C104.148 59.792 105.275 60.5898 106.401 61.2937C108.7 62.7486 110.061 64.8135 110.014 67.6294C110.014 67.9109 110.061 68.2394 110.061 68.521C110.483 76.3584 110.812 84.2896 111.187 92.2209Z" fill="#FEFEFE"/>
<path d="M117.337 91.3763C117.431 89.2645 117.478 87.1526 117.572 85.0877C117.854 78.9398 118.182 72.7919 118.417 66.644C118.464 65.0484 119.121 63.7812 120.2 62.6549C121.467 61.3409 123.016 60.4023 124.611 59.5575C128.084 57.7272 131.744 56.4132 135.404 55.146C142.349 52.7995 149.482 50.9223 156.521 48.9982C163.607 47.0271 170.692 45.1029 177.591 42.6156C178.013 42.4748 178.435 42.334 178.904 42.2871C179.092 42.2871 179.327 42.5687 179.468 42.7564C179.561 42.8503 179.514 43.038 179.468 43.1788C176.23 53.7851 173.039 64.4383 169.707 74.9976C168.346 79.2683 166.751 83.492 165.108 87.6688C164.076 90.3439 162.715 92.8312 161.166 95.2246C159.946 97.0549 158.351 98.322 156.333 99.026C151.969 100.622 147.464 101.701 142.912 102.827C139.862 103.578 136.812 104.282 133.855 105.409C132.729 105.831 131.603 106.159 130.477 106.629C125.409 108.788 121.045 111.838 117.76 116.343C117.431 116.813 117.15 117.376 116.446 117.47C116.305 117.47 116.024 117.423 116.024 117.376C115.977 116.953 115.93 116.484 115.93 116.015C116.352 107.755 116.774 99.5422 117.197 91.2825C117.291 91.3763 117.337 91.3763 117.337 91.3763Z" fill="#FEFEFE"/>
<path d="M110.064 50.1246C110.017 51.4856 109.923 52.7996 109.876 54.1606C109.876 54.536 109.266 54.9584 108.938 54.8646C105.23 53.7852 101.476 52.6588 97.7692 51.5325C84.7238 47.6373 71.6783 43.742 58.6329 39.8468C58.3513 39.753 58.0697 39.706 57.7882 39.6122C57.0373 39.3775 56.4273 38.9551 56.1927 38.1573C55.348 35.1068 54.5972 32.1033 53.7994 29.0528C53.7056 28.6774 54.2687 28.2081 54.6441 28.3019C56.8027 28.912 58.9613 29.4752 61.1199 30.1322C76.0424 34.5437 90.9649 39.0021 105.84 43.4605C106.826 43.742 107.858 44.0706 108.844 44.3991C109.642 44.6807 109.97 45.15 109.97 46.0886C110.017 47.4495 109.97 48.7636 109.97 50.1246C110.017 50.1246 110.017 50.1246 110.064 50.1246Z" fill="#FEFEFE"/>
<path d="M118.461 49.6551C118.461 48.6226 118.461 47.5432 118.461 46.5108C118.508 44.8213 118.555 44.7274 120.009 44.2581C120.854 43.9765 121.699 43.6949 122.59 43.4603C138.264 38.8142 153.89 34.1681 169.563 29.522C171.018 29.0996 172.426 28.7241 173.881 28.3956C174.021 28.3487 174.491 28.7241 174.491 28.9119C174.491 29.522 174.444 30.1321 174.303 30.6952C173.693 33.0417 173.036 35.3413 172.473 37.6409C172.191 38.8142 171.394 39.3773 170.314 39.7059C166.419 40.8791 162.571 42.0524 158.677 43.1787C146.757 46.7454 134.838 50.3121 122.919 53.8319C121.793 54.1604 120.62 54.4889 119.446 54.8174C119.024 54.9113 118.508 54.5359 118.508 54.1604C118.508 52.6587 118.508 51.1569 118.508 49.6551C118.555 49.6551 118.508 49.6551 118.461 49.6551Z" fill="#FEFEFE"/>
<path d="M179.797 185.847C179.797 187.959 179.797 190.071 179.797 192.136C179.797 192.746 179.844 193.45 179.281 193.731C178.296 194.154 177.216 194.248 176.278 193.638C175.809 193.309 175.433 192.793 175.105 192.324C173.415 190.024 171.773 187.724 170.037 185.425C169.896 185.237 169.567 185.19 169.333 185.143C169.192 185.096 168.957 185.19 168.957 185.284C168.863 185.847 168.723 186.457 168.723 187.067C168.676 188.851 168.723 190.681 168.676 192.464C168.629 193.731 168.206 193.966 166.986 194.013C166.705 194.013 166.376 194.06 166.095 193.966C165.672 193.825 165.25 193.684 165.203 193.121C165.203 192.981 165.109 192.84 165.109 192.699C165.109 188.053 165.109 183.407 165.109 178.761C165.109 177.775 165.813 177.212 166.893 177.212C167.831 177.212 168.676 177.353 169.286 178.197C170.6 180.028 171.914 181.858 173.228 183.641C173.65 184.251 174.072 184.862 174.541 185.472C175.151 186.269 175.668 186.551 175.949 186.316C176.372 185.988 176.325 185.566 176.325 185.143C176.325 183.172 176.325 181.248 176.372 179.277C176.372 178.854 176.465 178.385 176.559 177.963C176.606 177.822 176.747 177.728 176.841 177.634C177.31 177.165 178.859 177.024 179.328 177.54C179.61 177.822 179.844 178.291 179.891 178.714C179.797 181.06 179.797 183.454 179.797 185.847Z" fill="#C31A2C"/>
<path d="M73.74 151.494C79.1835 151.353 83.5007 156.609 82.046 162.053C81.7644 163.039 81.389 164.024 80.8259 164.916C80.1689 165.995 80.4036 166.887 81.1544 167.732C81.5767 168.154 81.3421 168.577 81.1075 168.905C80.7321 169.468 80.1689 169.703 79.5589 169.562C79.1835 169.468 78.808 169.14 78.4796 168.858C77.9164 168.342 77.3534 167.967 76.4618 168.201C75.6171 168.436 74.6786 168.577 73.8339 168.577C70.0329 168.67 66.7481 166.371 65.7157 162.71C64.7772 159.472 65.2933 156.469 67.6396 153.934C69.3759 152.151 71.4876 151.259 73.74 151.494ZM78.4326 160.223C78.2919 159.425 78.198 158.534 77.9165 157.689C77.5411 156.516 76.6964 155.624 75.5233 155.248C72.6138 154.263 70.0329 155.624 69.2821 158.534C68.7189 160.692 69.2351 162.663 70.8776 164.212C71.6753 164.963 72.6138 165.245 73.74 165.104C74.1154 165.057 74.3031 164.916 74.2562 164.541C74.2093 164.259 74.1624 163.977 74.0686 163.696C73.8339 162.992 74.1154 162.57 74.6786 162.241C75.1947 161.959 75.664 161.584 76.2741 162.1C76.5087 162.288 76.7433 162.429 77.0249 162.57C77.4472 162.757 77.9165 162.523 78.0573 162.053C78.1511 161.443 78.2919 160.88 78.4326 160.223Z" fill="#C31A2C"/>
<path d="M162.057 186.739C162.057 188.053 161.4 189.977 159.899 191.573C158.538 193.028 156.896 193.966 154.831 194.06C153.939 194.107 153.048 194.107 152.156 194.013C148.824 193.685 146.056 191.104 145.399 187.818C145.164 186.645 145.164 185.472 145.258 184.252C145.492 180.967 148.261 177.541 152.625 176.978C155.91 176.555 159.711 178.245 161.4 181.905C161.823 182.844 162.104 184.533 162.057 186.739ZM158.163 185.988C158.163 185.566 158.209 185.097 158.163 184.674C157.928 182.328 156.051 180.544 153.705 180.497C151.405 180.45 149.387 182.14 149.106 184.486C149.012 185.378 149.012 186.27 149.153 187.161C149.575 189.93 152.813 191.714 155.253 190.587C157.271 189.602 158.163 188.1 158.163 185.988Z" fill="#C31A2C"/>
<path d="M64.7358 194.06C63.8442 194.013 62.9526 193.966 62.061 193.919C61.5448 193.872 61.3102 193.45 61.0756 193.122C60.9817 193.028 61.0287 192.84 61.0287 192.699C61.0287 188.053 60.9817 183.407 61.0287 178.761C61.0287 177.963 61.6387 177.306 62.3895 177.306C64.642 177.212 66.8944 177.071 69.0999 177.634C71.7747 178.292 73.5579 179.934 74.4495 182.562C75.1534 184.627 75.2003 186.645 74.4964 188.757C73.511 191.761 71.0239 193.779 67.8799 194.06C66.8475 194.154 65.7682 194.06 64.7358 194.06C64.7358 194.013 64.7358 193.966 64.7358 194.06ZM71.2586 185.753C71.1647 185.096 71.0239 184.533 70.9301 183.923C70.6485 182.328 69.663 181.295 68.1614 180.779C67.5983 180.591 67.0352 180.497 66.4252 180.45C65.3459 180.31 64.6889 180.826 64.6889 181.905C64.642 184.252 64.642 186.645 64.642 188.992C64.642 190.259 65.4397 190.916 66.6598 190.681C67.3637 190.54 68.1145 190.4 68.8184 190.118C69.8038 189.696 70.5077 188.945 70.8362 187.865C71.0239 187.161 71.1178 186.457 71.2586 185.753Z" fill="#C31A2C"/>
<path d="M77.8698 183.454C77.8698 181.952 77.8229 180.451 77.8698 178.949C77.9168 177.212 78.9022 176.837 80.6854 177.4C80.92 177.494 81.2016 177.775 81.2954 178.01C81.4362 178.433 81.4362 178.902 81.4362 179.324C81.4362 181.436 81.4362 183.501 81.4362 185.613C81.4362 186.364 81.4362 187.115 81.4831 187.866C81.6239 189.884 83.3133 190.916 85.378 190.306C86.1288 190.071 86.7388 189.602 86.9265 188.804C87.1142 187.959 87.2551 187.021 87.2551 186.129C87.302 183.595 87.302 181.061 87.3489 178.479C87.3489 177.916 87.8651 177.259 88.3813 177.165C89.1321 177.025 89.8829 176.978 90.493 177.494C90.6807 177.682 90.8683 178.01 90.8683 178.292C90.9153 181.577 90.9153 184.862 90.8683 188.194C90.8683 188.945 90.6806 189.696 90.446 190.4C89.9298 191.902 88.8975 192.981 87.4428 193.591C85.4249 194.436 83.2663 194.483 81.2954 193.638C79.2307 192.793 78.0106 191.057 77.8698 188.757C77.776 187.021 77.8698 185.237 77.8698 183.454Z" fill="#C31A2C"/>
<path d="M85.2384 157.454C85.2384 156.093 85.2384 154.779 85.2384 153.418C85.2384 151.494 86.2707 151.494 88.0539 151.776C88.2886 151.823 88.5701 152.104 88.664 152.339C88.8048 152.902 88.8517 153.512 88.8517 154.122C88.8517 156.234 88.8517 158.299 88.8517 160.411C88.8517 161.162 88.8986 161.913 88.9924 162.664C89.1802 163.978 90.4472 165.057 91.808 165.104C93.1689 165.104 94.4828 164.119 94.7175 162.805C94.8582 162.054 94.9051 161.303 94.9051 160.599C94.952 158.487 94.9051 156.422 94.9051 154.31C94.9051 153.7 94.9051 153.09 95.0459 152.527C95.1398 152.151 95.4213 151.729 95.9844 151.776C96.266 151.776 96.5945 151.729 96.8761 151.729C97.8615 151.776 98.3307 152.198 98.3777 152.996C98.3777 153.278 98.4246 153.606 98.4246 153.888C98.4246 156.422 98.4246 158.956 98.4246 161.537C98.4246 162.57 98.3308 163.602 98.0023 164.635C97.1576 167.075 95.2336 168.624 92.6996 168.812C88.007 169.187 85.2853 166.747 85.1445 162.101C85.1915 160.458 85.2384 158.956 85.2384 157.454Z" fill="#C31A2C"/>
<path d="M48.5899 185.519C48.5899 183.125 48.5899 180.732 48.5899 178.338C48.5899 177.822 49.2 177.212 49.7631 177.212C52.1563 177.212 54.5495 177.212 56.8958 177.212C57.5997 177.212 58.0221 177.869 58.0221 178.854C58.0221 179.84 57.6466 180.356 56.8489 180.403C55.8165 180.45 54.7842 180.497 53.7049 180.544C52.7194 180.591 52.2033 181.248 52.2502 182.374C52.2971 183.313 52.6725 183.829 53.5172 183.876C54.6903 183.923 55.9104 183.97 57.0835 184.064C57.5997 184.111 58.0221 184.721 58.0221 185.331C58.0221 185.612 58.069 185.988 57.9282 186.223C57.7405 186.598 57.412 187.114 57.0835 187.161C55.9104 187.349 54.6903 187.349 53.5172 187.443C52.5317 187.537 51.8747 188.804 52.344 189.836C52.4848 190.071 52.7194 190.399 52.9541 190.446C54.1272 190.587 55.3004 190.681 56.5204 190.775C57.5997 190.869 57.9751 191.338 58.0221 192.558C58.0221 193.215 57.6467 193.919 57.1774 193.919C54.6434 193.919 52.1094 193.966 49.5754 193.919C49.0122 193.919 48.4961 193.309 48.4961 192.699C48.543 190.306 48.543 187.912 48.5899 185.519Z" fill="#C31A2C"/>
<path d="M123.672 193.966C122.592 194.013 121.56 193.966 121.138 192.699C120.622 191.244 119.495 190.681 117.994 190.822C117.571 190.869 117.102 190.869 116.633 190.822C114.756 190.587 113.536 191.244 112.879 193.121C112.55 194.06 110.579 194.295 109.688 193.684C109.594 193.591 109.453 193.497 109.453 193.403C109.5 192.98 109.5 192.511 109.688 192.089C111.424 187.677 113.207 183.219 114.99 178.807C115.084 178.526 115.225 178.244 115.413 178.01C115.788 177.54 116.257 177.212 116.914 177.165C117.712 177.118 118.463 177.353 118.791 178.104C120.809 183.078 122.827 188.006 124.845 192.98C124.986 193.356 124.563 193.872 124.141 193.919C123.953 193.966 123.813 193.966 123.672 193.966ZM116.961 187.63C117.243 187.63 117.524 187.63 117.806 187.583C118.322 187.537 118.651 187.161 118.51 186.739C118.228 185.941 117.947 185.096 117.571 184.345C117.478 184.158 117.196 184.064 117.008 183.97C116.914 183.923 116.727 184.064 116.68 184.158C116.07 185.002 115.694 185.894 115.6 186.926C115.554 187.255 115.741 187.443 116.07 187.49C116.398 187.583 116.68 187.583 116.961 187.63Z" fill="#C31A2C"/>
<path d="M115.086 168.53C114.147 168.577 113.303 168.342 112.88 167.357C112.693 166.935 112.458 166.559 112.27 166.137C111.989 165.527 111.567 165.198 110.91 165.198C109.877 165.151 108.798 165.198 107.765 165.151C106.217 165.057 105.185 165.527 104.715 167.122C104.293 168.53 103.073 168.718 101.806 168.483C101.243 168.389 100.914 168.014 101.008 167.639C101.196 167.075 101.29 166.465 101.524 165.902C103.308 161.444 105.091 156.985 106.921 152.574C107.249 151.776 108.845 151.307 109.643 151.776C109.877 151.917 110.159 152.105 110.299 152.339C110.722 153.137 111.05 153.982 111.379 154.827C113.068 159.003 114.757 163.18 116.447 167.357C116.681 167.967 116.259 168.483 115.508 168.53C115.367 168.483 115.227 168.53 115.086 168.53ZM108.798 162.148C108.939 162.148 109.079 162.101 109.22 162.101C109.877 162.054 110.346 161.491 110.159 160.974C109.83 160.177 109.502 159.379 109.126 158.581C109.079 158.487 108.892 158.393 108.798 158.393C108.516 158.487 108.188 158.581 108.094 158.769C107.719 159.566 107.437 160.364 107.155 161.162C107.015 161.538 107.437 161.96 107.906 162.007C108.235 162.148 108.516 162.148 108.798 162.148Z" fill="#C31A2C"/>
<path d="M104.996 181.248C104.057 180.92 103.635 180.779 103.212 180.685C101.476 180.31 99.5053 181.154 98.5668 182.703C97.5813 184.346 97.4875 186.129 98.1444 187.865C98.8014 189.555 100.115 190.54 101.899 190.54C103.072 190.54 104.245 190.212 105.418 189.977C106.403 189.79 106.826 189.977 106.873 190.822C106.873 191.432 106.92 192.042 106.779 192.605C106.685 192.981 106.31 193.497 105.981 193.591C104.667 193.873 103.353 194.201 101.992 194.201C98.3322 194.248 95.6105 192.136 94.4842 188.851C92.7949 183.829 94.9535 178.714 100.397 177.165C102.368 176.602 104.245 177.118 106.075 177.822C106.403 177.963 106.685 178.479 106.779 178.855C106.92 179.418 106.873 180.028 106.826 180.638C106.779 181.389 106.403 181.718 105.7 181.483C105.559 181.436 105.418 181.389 105.277 181.342C105.043 181.295 104.761 181.201 104.996 181.248Z" fill="#C31A2C"/>
<path d="M130.944 177.259C132.445 177.259 133.947 177.259 135.449 177.259C135.918 177.259 136.387 177.916 136.434 178.573C136.528 179.934 136.246 180.497 135.402 180.732C134.557 180.919 133.478 180.638 133.008 181.577C132.68 182.187 132.68 183.031 132.68 183.735C132.633 186.598 132.68 189.414 132.633 192.277C132.633 193.591 132.07 194.013 130.615 194.013C130.474 194.013 130.334 194.013 130.146 193.966C129.489 193.919 128.973 193.45 128.973 192.84C128.926 190.165 128.926 187.443 128.926 184.721C128.926 183.829 128.926 182.937 128.785 182.046C128.738 181.623 128.503 181.201 127.987 181.06C127.424 180.919 126.814 180.873 126.251 180.732C125.078 180.45 124.562 178.948 125.312 177.822C125.547 177.494 126.016 177.212 126.392 177.212C127.893 177.118 129.395 177.165 130.897 177.165C130.944 177.212 130.944 177.212 130.944 177.259Z" fill="#C31A2C"/>
<path d="M150.746 151.635C152.107 151.541 152.904 151.776 153.42 152.667C154.031 153.7 154.687 154.685 155.344 155.671C155.579 156.046 156.189 156.046 156.424 155.671C157.081 154.685 157.738 153.7 158.395 152.667C158.958 151.822 159.709 151.494 160.694 151.588C161.116 151.635 161.586 151.682 162.008 151.729C162.383 151.776 162.618 152.01 162.43 152.339C161.773 153.653 161.069 154.967 160.319 156.281C157.362 161.349 157.832 159.519 157.785 165.526C157.785 165.995 157.785 166.418 157.785 166.887C157.738 168.389 156.424 169.093 154.875 168.389C154.641 168.295 154.359 167.966 154.359 167.732C154.265 166.23 154.124 164.775 154.171 163.273C154.218 161.584 153.796 160.082 152.857 158.627C151.637 156.75 150.558 154.779 149.479 152.808C149.15 152.198 149.479 151.729 150.229 151.682C150.558 151.635 150.886 151.635 150.746 151.635Z" fill="#C31A2C"/>
<path d="M142.205 151.635C143.566 151.635 144.88 151.635 146.241 151.635C147.133 151.635 147.602 152.104 147.602 152.996C147.602 153.277 147.602 153.606 147.602 153.887C147.555 154.591 147.227 155.014 146.57 155.108C145.96 155.201 145.396 155.248 144.786 155.295C144.27 155.342 143.942 155.765 143.895 156.14C143.801 157.501 143.801 158.815 143.754 160.176C143.754 162.288 143.754 164.353 143.754 166.465C143.707 168.295 143.097 168.764 141.173 168.342C140.938 168.295 140.657 168.06 140.516 167.873C140.375 167.638 140.235 167.31 140.235 167.075C140.188 165.902 140.188 164.681 140.188 163.508C140.188 161.255 140.188 159.003 140.141 156.797C140.141 155.952 139.953 155.248 138.451 155.248C137.982 155.248 137.56 155.248 137.137 155.108C136.903 155.014 136.574 154.732 136.574 154.498C136.48 153.934 136.527 153.324 136.527 152.714C136.527 152.198 136.903 151.776 137.278 151.776C138.921 151.729 140.563 151.729 142.205 151.729C142.205 151.682 142.205 151.635 142.205 151.635Z" fill="#C31A2C"/>
<path d="M123.86 168.624C122.687 168.53 121.467 168.483 120.294 168.342C120.059 168.295 119.825 167.967 119.684 167.732C119.543 167.498 119.543 167.169 119.543 166.841C119.543 162.382 119.543 157.877 119.543 153.418C119.543 151.541 120.435 151.447 122.312 151.729C122.546 151.776 122.828 152.057 122.922 152.292C123.062 152.714 123.109 153.137 123.109 153.606C123.109 155.53 123.109 157.501 123.109 159.426C123.109 160.599 123.109 161.819 123.109 162.992C123.156 164.353 123.532 164.776 124.986 164.869C125.737 164.916 126.488 164.963 127.192 165.057C127.661 165.104 127.943 165.48 128.037 165.949C128.084 166.371 128.084 166.841 128.037 167.263C127.99 167.92 127.474 168.389 126.91 168.436C125.878 168.483 124.846 168.436 123.766 168.436C123.86 168.53 123.86 168.577 123.86 168.624Z" fill="#C31A2C"/>
<path d="M134.09 159.989C134.09 162.382 134.09 164.729 134.09 167.122C134.09 168.108 133.433 168.53 132.26 168.483C131.04 168.436 130.523 168.014 130.523 166.934C130.523 162.335 130.523 157.736 130.523 153.09C130.523 151.917 130.946 151.588 132.213 151.541C132.494 151.541 132.823 151.494 133.104 151.588C133.527 151.729 133.996 151.776 134.043 152.386C134.137 154.92 134.184 157.408 134.231 159.942C134.137 159.989 134.09 159.989 134.09 159.989Z" fill="#C31A2C"/>
<path d="M141.644 177.447C142.066 177.917 142.254 178.48 142.254 179.09C142.254 183.454 142.254 187.772 142.254 192.136C142.254 193.732 141.691 194.154 139.955 194.014C139.438 193.967 138.735 193.357 138.688 192.934C138.641 191.433 138.594 189.931 138.594 188.429C138.594 185.285 138.641 182.14 138.688 178.996C138.688 178.386 138.922 177.823 139.438 177.447C140.189 177.682 140.893 177.682 141.644 177.447Z" fill="#C31A2C"/>
<path d="M141.643 177.447C140.892 177.729 140.188 177.729 139.438 177.447C140.188 176.79 140.939 176.743 141.643 177.447Z" fill="#BD8A2D"/>
<path d="M78.4326 160.224C78.2919 160.881 78.1511 161.444 78.0103 162.054C77.9164 162.523 77.4472 162.758 76.9779 162.57C76.6964 162.429 76.4618 162.288 76.2271 162.101C75.6171 161.631 75.1478 161.96 74.6316 162.242C74.0685 162.57 73.74 162.992 74.0216 163.696C74.1154 163.978 74.2093 164.26 74.2093 164.541C74.2562 164.917 74.0216 165.057 73.6931 165.104C72.5669 165.292 71.6284 165.01 70.8306 164.213C69.1882 162.617 68.672 160.693 69.2351 158.534C69.986 155.624 72.5669 154.263 75.4763 155.249C76.6495 155.671 77.4941 156.563 77.8696 157.689C78.198 158.534 78.2919 159.426 78.4326 160.224Z" fill="#FEFEFE"/>
<path d="M158.161 185.989C158.161 188.101 157.27 189.649 155.252 190.541C152.812 191.667 149.574 189.884 149.151 187.115C149.011 186.223 149.011 185.332 149.104 184.44C149.386 182.093 151.357 180.357 153.703 180.451C156.003 180.498 157.927 182.328 158.161 184.628C158.208 185.097 158.161 185.519 158.161 185.989Z" fill="#FEFEFE"/>
<path d="M71.2573 185.753C71.1165 186.41 70.9757 187.161 70.788 187.865C70.5065 188.945 69.7556 189.696 68.7702 190.118C68.1132 190.4 67.3624 190.54 66.6116 190.681C65.3915 190.916 64.6407 190.212 64.5938 188.992C64.5938 186.645 64.5937 184.252 64.6407 181.905C64.6407 180.873 65.2977 180.356 66.377 180.45C66.9401 180.497 67.5501 180.591 68.1132 180.779C69.6148 181.295 70.6003 182.328 70.8819 183.923C71.0696 184.533 71.1634 185.096 71.2573 185.753Z" fill="#FEFEFE"/>
<path d="M116.963 187.631C116.682 187.584 116.4 187.584 116.119 187.537C115.743 187.49 115.602 187.255 115.649 186.974C115.743 185.941 116.119 185.003 116.729 184.205C116.822 184.111 117.01 183.97 117.057 184.017C117.292 184.111 117.526 184.205 117.62 184.393C117.949 185.19 118.277 185.988 118.559 186.786C118.7 187.161 118.371 187.584 117.855 187.631C117.526 187.631 117.245 187.631 116.963 187.631Z" fill="#FEFEFE"/>
<path d="M108.797 162.147C108.516 162.147 108.234 162.1 107.953 162.1C107.484 162.054 107.108 161.584 107.202 161.256C107.484 160.458 107.765 159.613 108.14 158.862C108.234 158.675 108.61 158.581 108.844 158.487C108.938 158.44 109.126 158.581 109.173 158.675C109.548 159.472 109.877 160.27 110.205 161.068C110.393 161.584 109.924 162.194 109.267 162.194C109.079 162.147 108.938 162.147 108.797 162.147Z" fill="#FEFEFE"/>
</svg>
