<svg width="229" height="229" viewBox="0 0 229 229" fill="none" xmlns="http://www.w3.org/2000/svg">
<path d="M113.89 228.273C84.3261 228.273 54.7159 228.273 25.1524 228.273C23.51 228.273 21.8676 228.273 20.1782 228.226C11.2623 228.086 2.1586 221.046 0.469261 210.909C0.0938521 208.656 0 206.451 0 204.198C0 184.534 0 164.87 0 145.207C0 104.94 0 64.7209 0 24.4546C0 21.8734 0.0469032 19.3392 0.56309 16.8519C2.76862 6.05787 12.2946 0.285433 19.8028 0.0977117C21.1636 0.0507812 22.5245 0.0507812 23.8385 0.0507812C84.0446 0.0507812 144.251 0.0507812 204.457 0.0507812C205.818 0.0507812 207.179 0.0507812 208.493 0.0977117C217.315 0.473155 225.245 6.85569 227.545 15.397C228.108 17.415 228.53 19.48 228.389 21.6388C228.342 22.3897 228.389 23.1405 228.389 23.8914C228.389 84.1032 228.389 144.315 228.389 204.527C228.389 207.249 228.389 209.924 227.638 212.552C225.151 220.952 219.52 225.974 211.12 227.992C210.276 228.18 209.337 228.18 208.446 228.226C206.803 228.273 205.161 228.273 203.472 228.273C173.627 228.273 143.781 228.273 113.89 228.273ZM70.0137 29.8985C70.9991 29.8047 71.703 30.4617 72.5008 30.8841C78.4604 34.0753 84.3732 37.3135 90.2858 40.5048C91.0836 40.9272 91.8813 41.3026 92.726 41.5842C93.6645 41.9127 94.7907 41.3496 95.4007 40.364C95.9639 39.4254 95.87 38.1114 95.1191 37.5013C94.4152 36.9381 93.6645 36.4688 92.8668 35.9995C84.3262 31.3534 75.7387 26.7073 67.1513 22.0142C64.148 20.3717 62.9278 20.4186 61.0977 23.8445C56.5928 32.3389 51.9941 40.7395 47.3953 49.1869C46.973 49.9847 46.5976 50.7826 46.2222 51.6273C45.7529 52.7067 46.316 54.0208 47.4892 54.6778C48.3808 55.194 49.6947 55.0063 50.3517 54.1616C50.9617 53.3168 51.5249 52.4251 52.0411 51.5335C55.1382 45.8549 58.1883 40.1763 61.2385 34.4977C61.8016 33.4652 62.4586 32.4328 63.1156 31.4472C63.3033 31.1657 63.6318 31.2126 63.8664 31.4942C64.1011 31.8696 64.3357 32.245 64.4765 32.6674C66.9636 41.1618 69.4037 49.6562 71.8439 58.1506C72.0316 58.8546 72.2662 59.6055 72.407 60.3094C72.4539 60.5441 72.3131 60.9665 72.1254 61.1073C70.9991 61.8112 69.7791 62.4682 68.6529 63.1722C60.0654 68.5692 53.7773 78.8939 55.842 91.4243C58.8922 109.633 77.1934 119.066 93.2891 113.153C94.1337 112.825 94.9315 112.402 95.7762 112.168C96.1516 112.074 96.7147 112.121 97.0432 112.355C97.747 112.872 98.3571 113.622 99.014 114.186C106.147 120.333 114.265 122.868 123.65 120.99C137.728 118.128 145.189 106.02 145.846 96.3051C145.987 94.1932 145.94 92.1283 145.799 90.0164C145.705 89.0309 145.987 88.6554 146.926 88.3738C150.774 87.2006 154.668 86.0273 158.563 84.901C160.722 84.244 162.88 83.6339 165.039 83.0707C166.447 82.6953 167.01 82.9768 167.432 84.2909C168.324 87.1536 169.169 90.0164 170.013 92.9261C170.201 93.4892 170.389 94.0524 170.67 94.5686C171.139 95.6011 172.641 96.0704 173.814 95.6011C174.706 95.2257 175.504 94.0055 175.363 93.0669C175.269 92.6445 175.222 92.1752 175.081 91.7528C174.424 89.4532 173.72 87.1536 173.016 84.854C172.735 83.8685 172.5 82.836 172.313 81.8036C172.266 81.5689 172.5 81.1935 172.735 81.0527C173.063 80.7711 173.486 80.5834 173.908 80.4426C176.207 79.7386 178.507 79.0816 180.806 78.3776C181.792 78.0491 182.542 76.9228 182.542 75.9373C182.542 74.9517 181.979 74.2478 181.135 73.7785C180.478 73.3561 179.727 73.3561 178.976 73.5438C176.536 74.2478 174.096 74.9987 171.656 75.7026C171.092 75.8903 170.389 75.5149 170.201 74.9517C169.262 71.8074 168.324 68.6161 167.385 65.4718C167.198 64.9086 166.963 64.3455 166.681 63.8292C166.306 63.1253 165.086 62.5621 164.382 62.656C163.021 62.8437 161.895 64.2985 162.13 65.5187C162.223 66.1288 162.411 66.692 162.552 67.2551C163.209 69.5547 163.913 71.8543 164.57 74.1539C164.804 74.9987 164.992 75.8903 165.086 76.782C165.133 76.9697 164.898 77.3452 164.664 77.439C163.725 77.8614 162.74 78.2369 161.707 78.5184C156.968 79.9264 152.228 81.3343 147.489 82.6953C146.926 82.883 146.316 82.9768 145.752 83.1176C144.861 83.3053 144.251 83.0707 143.875 82.3667C143.5 81.7097 143.218 81.0058 142.843 80.3487C135.71 67.2551 120.459 62.4213 107.695 67.5367C107.132 67.7714 106.569 67.9591 106.053 68.2407C105.443 68.5223 104.88 68.4284 104.411 68.006C103.941 67.6306 103.566 67.1613 103.097 66.7858C96.5738 60.7318 88.8781 58.1037 79.9621 59.0893C79.5398 59.1362 79.0705 59.23 78.6482 59.1362C78.2727 59.0423 77.8035 58.7607 77.6158 58.4322C77.2873 57.7752 77.0996 57.0243 76.8649 56.3204C74.6125 48.5299 72.3601 40.7864 70.1076 32.9959C69.873 32.1512 69.7791 31.2595 69.6384 30.3678C69.6853 30.227 69.8729 30.0863 70.0137 29.8985ZM114.64 137.745C87.0479 137.745 59.4084 137.745 31.8159 137.745C30.1735 137.745 28.5311 137.745 26.8887 137.885C25.9971 137.932 25.1054 138.12 24.2608 138.402C19.3804 140.091 16.1426 144.456 15.908 149.618C15.8611 150.369 15.908 151.12 15.908 151.871C15.908 167.029 15.908 182.188 15.908 197.346C15.908 198.379 15.908 199.458 16.0018 200.491C16.4242 205.278 20.3659 210.111 25.5747 211.144C27.6395 211.566 29.7512 211.566 31.8629 211.566C86.7664 211.566 141.717 211.566 196.62 211.566C197.512 211.566 198.403 211.613 199.342 211.566C200.515 211.472 201.735 211.332 202.908 211.191C207.179 210.674 212.2 206.216 212.669 200.772C212.763 199.411 212.857 198.097 212.904 196.736C212.904 182.047 212.904 167.311 212.904 152.622C212.904 151.261 212.81 149.947 212.716 148.586C212.294 143.235 207.179 138.12 201.688 137.932C200.046 137.885 198.403 137.839 196.761 137.839C169.215 137.745 141.951 137.745 114.64 137.745Z" fill="#EF3B23"/>
<path d="M114.639 137.744C141.95 137.744 169.261 137.744 196.572 137.744C198.214 137.744 199.857 137.791 201.499 137.838C206.99 138.026 212.104 143.141 212.527 148.491C212.621 149.852 212.714 151.166 212.714 152.527C212.714 167.217 212.714 181.953 212.714 196.642C212.714 198.003 212.621 199.317 212.48 200.678C212.011 206.169 206.989 210.58 202.719 211.096C201.546 211.237 200.326 211.378 199.153 211.472C198.261 211.519 197.37 211.472 196.431 211.472C141.528 211.472 86.5771 211.472 31.6736 211.472C29.5619 211.472 27.4972 211.472 25.3856 211.05C20.1768 209.97 16.2349 205.183 15.8126 200.396C15.7187 199.364 15.7188 198.284 15.7188 197.252C15.7188 182.093 15.7188 166.935 15.7188 151.776C15.7188 151.026 15.7188 150.275 15.7188 149.524C15.9534 144.408 19.1913 140.044 24.0716 138.307C24.9163 138.026 25.8079 137.838 26.6995 137.791C28.3419 137.697 29.9843 137.65 31.6268 137.65C59.407 137.744 86.9995 137.744 114.639 137.744ZM96.9947 188.054C96.9947 190.729 96.9947 193.451 96.9947 196.126C96.9947 196.736 97.0416 197.346 97.1355 197.909C97.1824 198.144 97.464 198.519 97.6517 198.566C100.139 199.223 101.453 198.848 101.406 196.548C101.359 194.765 101.406 192.934 101.406 191.151C101.406 190.119 101.406 189.039 101.453 188.007C101.453 187.772 101.687 187.49 101.875 187.35C102.157 187.162 102.391 187.303 102.626 187.584C104.644 190.4 106.615 193.169 108.632 195.985C109.149 196.689 109.665 197.44 110.275 198.097C110.556 198.378 111.026 198.66 111.448 198.707C112.199 198.801 112.95 198.801 113.7 198.754C114.404 198.707 114.967 198.003 114.967 197.205C114.967 191.527 114.967 185.848 114.967 180.122C114.967 179.841 114.921 179.512 114.78 179.278C114.639 179.043 114.404 178.715 114.17 178.715C113.278 178.621 112.387 178.621 111.495 178.668C110.979 178.668 110.744 179.184 110.697 179.559C110.603 180.451 110.603 181.343 110.603 182.234C110.556 184.628 110.556 187.021 110.509 189.415C110.509 189.508 110.369 189.649 110.275 189.696C109.993 189.931 109.712 189.931 109.524 189.602C107.647 187.068 105.817 184.534 103.94 182.047C103.236 181.108 102.532 180.122 101.781 179.184C101.594 178.949 101.359 178.715 101.077 178.668C99.9042 178.386 98.5903 178.198 97.5579 178.761C96.7132 179.184 97.0417 180.404 97.0417 181.249C96.9947 183.548 96.9947 185.801 96.9947 188.054ZM74.2825 187.631C73.0624 187.678 71.8893 187.678 70.6692 187.678C70.5285 187.678 70.3407 187.678 70.2468 187.725C70.0122 187.866 69.6368 188.007 69.5429 188.241C69.2614 189.086 69.1676 190.025 69.5899 190.869C69.8715 191.433 70.5285 191.573 71.1385 191.573C71.6078 191.62 72.03 191.667 72.4993 191.667C73.0155 191.714 73.344 191.996 73.391 192.418C73.4379 192.653 73.2501 193.028 73.0624 193.216C72.3585 194.014 71.4669 194.53 70.3876 194.671C67.5251 195.093 65.2258 193.169 64.2404 191.104C62.7857 188.007 64.3811 184.158 67.5721 182.938C69.4491 182.187 71.0916 182.563 72.6871 183.548C73.2971 183.924 73.8601 184.487 74.4702 184.862C74.6579 185.003 75.0803 184.956 75.268 184.815C75.8781 184.393 76.4412 183.924 76.9104 183.314C77.0981 183.032 77.1451 182.375 76.9104 182.093C74.1887 178.386 68.9329 177.166 64.8973 179.231C57.8584 182.844 57.5299 191.761 62.3164 196.313C65.4604 199.27 69.1207 199.974 73.1094 198.284C76.7696 196.736 78.5997 193.779 78.8343 189.884C78.9282 188.241 78.8813 187.678 76.9573 187.631C76.0657 187.631 75.1741 187.631 74.2825 187.631ZM57.2015 159.708C57.2015 160.036 57.2483 160.505 57.2483 160.928C57.483 165.48 61.5655 169.751 66.3989 169.657C67.7598 169.61 69.0737 169.469 70.3876 169.328C71.1854 169.235 71.8424 169.422 72.4055 169.985C72.734 170.314 73.0625 170.596 73.391 170.877C73.8133 171.206 74.2356 171.065 74.611 170.877C74.8925 170.736 75.1272 170.596 75.3618 170.408C76.0188 169.985 76.2534 169.375 75.8311 168.953C74.3295 167.545 74.4702 166.278 75.6433 164.682C76.3003 163.791 76.6288 162.477 76.8165 161.35C77.4265 157.314 76.1595 153.935 72.8278 151.495C69.496 149.101 65.7889 148.914 62.2694 150.791C58.8907 152.621 57.1545 155.672 57.2015 159.708ZM118.862 188.335H118.815C118.815 191.057 118.815 193.732 118.815 196.454C118.815 198.191 118.956 198.848 121.162 198.895C123.555 198.942 125.948 198.988 128.341 198.519C131.345 197.909 133.456 196.126 134.77 193.357C135.896 190.963 136.037 188.429 135.427 185.848C134.348 181.39 130.969 178.714 126.324 178.574C124.212 178.527 122.147 178.621 120.035 178.621C119.472 178.621 118.909 179.184 118.909 179.794C118.862 182.657 118.862 185.472 118.862 188.335ZM154.245 188.523C154.198 188.523 154.198 188.523 154.151 188.523C154.151 190.776 154.151 193.028 154.151 195.234C154.151 195.985 154.198 196.736 154.198 197.487C154.245 198.191 154.855 198.754 155.699 198.801C156.122 198.848 156.591 198.848 157.06 198.801C157.952 198.754 158.515 198.238 158.562 197.487C158.609 195.985 158.656 194.483 158.749 193.028C158.749 192.794 159.031 192.465 159.219 192.371C159.406 192.277 159.876 192.371 159.97 192.559C161.096 194.108 162.269 195.703 163.301 197.346C164.052 198.519 165.038 198.942 166.305 198.895C166.915 198.848 167.478 198.848 168.088 198.801C168.51 198.754 168.839 198.191 168.604 197.815C167.384 195.938 166.164 194.061 164.944 192.184C164.052 190.823 164.005 190.635 165.178 189.555C167.055 187.913 167.572 185.848 167.384 183.501C167.243 181.906 166.445 180.686 165.178 179.747C164.193 179.043 163.067 178.574 161.847 178.574C159.735 178.574 157.67 178.574 155.558 178.574C155.418 178.574 155.277 178.668 155.136 178.668C154.62 178.715 154.291 179.184 154.245 179.559C154.245 182.563 154.245 185.519 154.245 188.523ZM80.5706 157.173C80.5236 158.675 80.5237 160.177 80.5237 161.679C80.5237 162.43 80.5707 163.181 80.6645 163.931C81.0399 167.029 83.4801 169.422 86.6241 169.657C87.7973 169.751 89.0173 169.751 90.1904 169.563C92.3959 169.235 94.0854 168.014 94.977 165.949C95.4462 164.87 95.7746 163.65 95.8215 162.477C95.9154 158.722 95.8215 154.968 95.8215 151.26C95.8215 150.462 95.2115 149.899 94.4138 149.899C92.2082 149.852 91.5982 149.758 91.5982 152.199C91.5982 154.733 91.5982 157.314 91.5982 159.848C91.5982 160.74 91.5982 161.632 91.5044 162.524C91.3636 164.26 90.0028 165.48 88.1727 165.527C86.4834 165.621 84.9347 164.354 84.7001 162.664C84.5593 161.773 84.5593 160.881 84.5593 159.989C84.5593 157.455 84.5593 154.874 84.5593 152.34C84.5593 151.73 84.4654 151.119 84.3247 150.556C84.2777 150.322 83.9493 150.04 83.6677 149.993C83.2454 149.899 82.7761 149.899 82.3538 149.899C81.1337 149.899 80.5706 150.322 80.5706 151.354C80.5706 153.278 80.5706 155.202 80.5706 157.173ZM115.718 169.516C115.531 169.516 115.859 169.516 116.141 169.469C116.61 169.422 116.985 169 116.891 168.624C116.751 168.061 116.61 167.451 116.422 166.935C114.733 162.805 113.043 158.628 111.354 154.498C110.838 153.278 110.322 152.011 109.759 150.791C109.665 150.556 109.43 150.322 109.242 150.134C108.492 149.383 106.192 149.899 105.77 150.979C103.471 156.657 101.218 162.336 98.9657 168.014C98.9188 168.155 98.9187 168.296 98.8717 168.437C98.684 169 99.1064 169.516 99.8572 169.516C100.326 169.516 100.749 169.516 101.218 169.563C102.016 169.563 102.673 169.281 103.001 168.531C103.189 168.108 103.33 167.686 103.517 167.31C103.893 166.419 104.55 165.856 105.582 165.856C106.943 165.856 108.257 165.856 109.618 165.809C110.932 165.762 111.964 166.137 112.433 167.498C112.574 167.92 112.809 168.296 112.997 168.718C113.325 169.281 113.841 169.563 114.451 169.563C114.686 169.516 114.967 169.516 115.718 169.516ZM82.0253 188.382C82.0723 191.386 82.0254 194.342 82.0723 197.346C82.0723 198.097 82.7293 198.754 83.4801 198.801C86.2956 198.848 89.1581 198.848 91.9736 198.801C93.0529 198.801 93.4283 198.284 93.4752 197.017C93.4752 196.595 93.4753 196.126 93.3814 195.703C93.3345 195.469 93.0999 195.14 92.8653 195.046C92.443 194.905 92.0205 194.812 91.5982 194.812C90.2373 194.765 88.9235 194.765 87.5626 194.718C86.9057 194.718 86.4833 194.248 86.4833 193.545C86.4833 192.794 86.5302 192.043 86.671 191.339C86.7179 191.104 87.0464 190.823 87.281 190.729C87.7034 190.588 88.1726 190.541 88.595 190.541C89.9558 190.494 91.2698 190.447 92.6307 190.353C92.8653 190.353 93.1937 190.072 93.2876 189.837C93.6161 188.992 93.616 188.101 93.2406 187.256C93.1468 187.021 92.7714 186.833 92.5367 186.787C91.7859 186.693 91.0352 186.693 90.2844 186.646C89.252 186.599 88.2196 186.552 87.1872 186.458C86.9526 186.411 86.671 186.13 86.6241 185.848C86.3425 184.956 86.3425 184.065 86.7179 183.22C86.8118 182.985 87.0933 182.751 87.3749 182.657C87.7972 182.516 88.2665 182.469 88.6888 182.469C89.862 182.422 91.0821 182.422 92.2552 182.375C93.0061 182.328 93.4752 181.812 93.4752 180.826C93.4752 180.545 93.4752 180.216 93.4752 179.935C93.4283 179.09 92.9591 178.574 92.0675 178.574C89.2519 178.527 86.3895 178.527 83.5739 178.574C82.5885 178.574 82.0253 179.184 82.0253 180.31C81.9784 183.032 82.0253 185.707 82.0253 188.382ZM139.181 188.148C139.181 190.823 139.181 193.545 139.181 196.22C139.181 196.83 139.275 197.393 139.416 197.956C139.463 198.191 139.791 198.519 140.026 198.566C143.17 198.942 146.267 198.848 149.411 198.613C149.74 198.566 150.256 198.097 150.303 197.768C150.444 197.064 150.397 196.313 150.35 195.563C150.35 195.328 150.021 195.046 149.787 194.952C149.364 194.812 148.895 194.812 148.473 194.765C147.159 194.718 145.798 194.671 144.484 194.577C144.249 194.577 143.921 194.248 143.874 194.061C143.639 193.169 143.592 192.324 143.874 191.433C144.015 190.916 144.437 190.682 144.859 190.635C145.892 190.541 146.971 190.541 148.003 190.494C148.473 190.494 148.895 190.447 149.364 190.4C149.974 190.353 150.49 189.884 150.537 189.274C150.584 188.851 150.584 188.382 150.584 187.913C150.537 187.162 150.162 186.693 149.552 186.693C147.91 186.599 146.267 186.599 144.625 186.458C144.202 186.411 143.827 186.036 143.827 185.519C143.78 184.909 143.78 184.346 143.78 183.736C143.78 183.267 144.484 182.516 144.906 182.516C146.549 182.422 148.191 182.375 149.834 182.234C150.068 182.234 150.397 181.906 150.444 181.624C150.584 181.202 150.584 180.733 150.584 180.31C150.584 178.996 150.209 178.574 149.13 178.527C146.736 178.48 144.343 178.527 141.95 178.48C139.369 178.433 139.322 178.902 139.322 180.92C139.181 183.361 139.181 185.754 139.181 188.148ZM157.295 149.805C157.013 149.805 156.685 149.805 156.403 149.805C155.324 149.852 154.995 150.275 155.465 151.119C156.826 153.466 158.092 155.812 159.547 158.065C160.58 159.661 161.002 161.256 160.908 163.134C160.814 164.776 160.908 166.419 160.955 168.061C160.955 168.953 161.471 169.422 162.316 169.469C164.709 169.563 165.225 169.422 165.178 166.794C165.178 166.184 165.178 165.574 165.178 165.011C165.178 159.051 164.897 160.881 167.572 156.188C168.51 154.498 169.543 152.856 170.528 151.166C170.997 150.369 170.575 149.852 169.542 149.852C168.932 149.852 168.322 149.852 167.759 149.852C167.149 149.852 166.586 150.087 166.258 150.603C165.366 151.964 164.474 153.372 163.583 154.733C163.395 155.062 162.644 155.062 162.457 154.733C161.659 153.466 160.814 152.246 160.063 150.979C159.547 150.134 158.749 149.805 157.811 149.852C157.623 149.852 157.482 149.805 157.295 149.805ZM146.549 169.563C146.643 169.563 146.783 169.563 146.924 169.563C148.426 169.563 148.895 169.141 148.942 167.827C148.989 166.325 148.989 164.823 148.989 163.321C148.989 161.069 148.989 158.816 148.989 156.61C148.989 154.639 149.176 154.17 151.194 154.123C151.617 154.123 152.133 154.123 152.508 153.982C152.837 153.794 153.212 153.419 153.306 153.044C153.447 152.48 153.447 151.87 153.447 151.26C153.4 150.415 152.884 149.852 152.039 149.852C148.613 149.852 145.188 149.852 141.715 149.852C141.434 149.852 141.105 149.946 140.871 150.087C140.636 150.228 140.354 150.462 140.354 150.697C140.308 151.589 140.307 152.48 140.401 153.372C140.401 153.607 140.73 153.935 140.965 153.982C141.668 154.123 142.419 154.123 143.17 154.217C144.109 154.311 144.578 154.78 144.578 155.578C144.625 158.722 144.625 161.866 144.625 165.011C144.625 166.184 144.625 167.404 144.719 168.578C144.766 169 145 169.422 145.516 169.469C145.892 169.516 146.173 169.516 146.549 169.563ZM120.552 159.708C120.505 162.383 120.505 165.105 120.505 167.78C120.505 168.953 120.974 169.516 122.006 169.516C124.4 169.516 126.793 169.516 129.186 169.469C129.984 169.469 130.406 168.906 130.406 167.967C130.406 167.498 130.406 167.076 130.406 166.606C130.359 165.809 129.843 165.245 128.998 165.199C128.529 165.152 128.107 165.152 127.637 165.152C124.963 165.105 124.728 165.152 124.775 162.007C124.775 159.004 124.775 156 124.775 152.997C124.775 152.246 124.775 151.495 124.634 150.744C124.54 150.369 124.353 149.899 123.79 149.852C123.179 149.805 122.616 149.758 122.006 149.758C121.115 149.758 120.552 150.275 120.552 151.072C120.552 153.982 120.552 156.845 120.552 159.708ZM137.492 159.989C137.539 159.989 137.539 159.989 137.586 159.989C137.586 157.455 137.586 154.921 137.586 152.387C137.586 151.776 137.539 151.213 137.398 150.65C137.351 150.415 137.023 150.228 136.835 150.04C136.741 149.946 136.553 149.946 136.413 149.946C135.99 149.899 135.521 149.899 135.052 149.899C133.879 149.946 133.316 150.369 133.316 151.448C133.316 156.986 133.316 162.477 133.316 168.014C133.316 168.296 133.362 168.624 133.503 168.859C133.644 169.094 133.879 169.375 134.113 169.422C134.864 169.516 135.568 169.563 136.319 169.563C137.023 169.563 137.539 169.094 137.539 168.531C137.492 165.621 137.492 162.805 137.492 159.989Z" fill="#FEFEFE"/>
<path d="M69.4939 30.3679C69.6347 31.2596 69.7285 32.1513 69.9632 32.996C72.2156 40.7865 74.468 48.5769 76.7205 56.3204C76.9082 57.0244 77.0959 57.7753 77.4713 58.4323C77.659 58.7608 78.1283 59.0424 78.5037 59.1362C78.926 59.2301 79.3953 59.1362 79.8176 59.0893C88.6867 58.1038 96.3826 60.7319 102.952 66.7859C103.375 67.2083 103.797 67.6307 104.266 68.0061C104.735 68.4285 105.298 68.5223 105.908 68.2407C106.425 67.9592 107.035 67.7714 107.551 67.5368C120.315 62.4214 135.566 67.2552 142.699 80.3488C143.074 81.0058 143.356 81.7098 143.731 82.3668C144.106 83.1177 144.716 83.3523 145.608 83.1177C146.171 82.9769 146.781 82.883 147.344 82.6953C152.084 81.2874 156.823 79.9264 161.563 78.5185C162.548 78.2369 163.534 77.8145 164.519 77.4391C164.707 77.3452 164.941 76.9698 164.941 76.7821C164.801 75.8904 164.66 74.9987 164.425 74.154C163.768 71.8544 163.064 69.5548 162.408 67.2552C162.22 66.692 162.079 66.0819 161.985 65.5188C161.75 64.2517 162.924 62.8437 164.238 62.656C164.941 62.5622 166.162 63.1253 166.537 63.8293C166.819 64.3455 167.053 64.9087 167.241 65.4718C168.179 68.6162 169.118 71.8075 170.057 74.9518C170.244 75.515 170.901 75.8435 171.511 75.7027C173.951 74.9987 176.392 74.2948 178.832 73.5439C179.582 73.3092 180.333 73.3562 180.99 73.7785C181.788 74.2948 182.351 74.9518 182.398 75.9373C182.398 76.8759 181.647 78.0492 180.662 78.3777C178.362 79.0817 176.063 79.7387 173.764 80.4427C173.341 80.5834 172.919 80.7712 172.59 81.0528C172.356 81.1935 172.121 81.569 172.168 81.8036C172.356 82.8361 172.591 83.8686 172.872 84.8541C173.529 87.1537 174.233 89.4533 174.937 91.7529C175.078 92.1753 175.171 92.6446 175.218 93.0669C175.359 94.0055 174.608 95.2257 173.67 95.6012C172.497 96.0705 171.042 95.6012 170.526 94.5687C170.291 94.0525 170.056 93.4893 169.869 92.9261C168.977 90.0634 168.132 87.1537 167.288 84.291C166.865 82.9769 166.349 82.6953 164.895 83.0708C162.736 83.6339 160.577 84.291 158.419 84.9011C154.524 86.0274 150.676 87.2006 146.781 88.3739C145.843 88.6555 145.608 89.0779 145.655 90.0165C145.843 92.1283 145.843 94.1933 145.702 96.3051C145.045 106.02 137.584 118.128 123.506 120.991C114.121 122.868 106.002 120.38 98.8696 114.186C98.1657 113.576 97.6026 112.872 96.8987 112.355C96.6171 112.121 96.0071 112.074 95.6317 112.168C94.787 112.402 93.9893 112.872 93.1446 113.153C77.0489 119.066 58.7478 109.586 55.6976 91.4244C53.5859 78.894 59.874 68.5693 68.5084 63.1723C69.6346 62.4683 70.8548 61.8113 71.981 61.1073C72.1687 60.9665 72.3094 60.5911 72.2625 60.3095C72.1217 59.5586 71.934 58.8547 71.6994 58.1507C69.2592 49.6563 66.7722 41.1619 64.332 32.6675C64.1912 32.2451 63.9566 31.8697 63.722 31.4942C63.4873 31.1657 63.1588 31.1657 62.9711 31.4473C62.3141 32.4328 61.7041 33.4653 61.0941 34.4978C57.9969 40.1764 54.9468 45.8549 51.8966 51.5335C51.3804 52.4721 50.8642 53.3638 50.2072 54.1616C49.5972 55.0064 48.2364 55.1941 47.3448 54.6779C46.2186 54.0208 45.6554 52.7068 46.0777 51.6274C46.4062 50.7826 46.8285 49.9848 47.2509 49.187C51.8027 40.7395 56.4015 32.292 60.9534 23.8446C62.7835 20.4187 64.0035 20.3717 67.0068 22.0143C75.5473 26.7073 84.1348 31.3065 92.7223 35.9995C93.52 36.4219 94.2709 36.9382 94.9748 37.5013C95.7725 38.1583 95.8663 39.4724 95.2563 40.3641C94.6462 41.3496 93.52 41.9128 92.5815 41.5843C91.7368 41.3027 90.8922 40.9272 90.1414 40.5049C84.1818 37.3136 78.269 34.0754 72.3563 30.8841C71.5586 30.4618 70.8548 29.8047 69.8693 29.8986C69.6816 29.7109 69.5408 29.5701 69.3531 29.3824C69.2592 29.617 69.1654 29.8517 69.1185 30.0863C69.2592 30.1802 69.4 30.274 69.4939 30.3679ZM117.734 116.485C120.925 116.485 123.177 116.016 126.087 114.937C136.363 111.182 142.464 99.9657 140.399 89.3125C137.724 75.515 122.99 66.8328 109.334 72.4645C108.583 72.793 108.255 73.5439 108.536 74.2478C108.912 75.2334 109.334 76.172 109.71 77.1575C112.572 84.901 112.056 92.4568 108.396 99.8249C107.269 102.125 105.768 104.189 104.031 106.067C103.421 106.724 102.764 107.334 102.108 107.991C101.451 108.695 101.404 109.352 101.967 109.915C106.331 114.186 111.634 116.251 117.734 116.485ZM83.5247 64.1109C81.4131 64.017 79.3483 64.3925 77.3305 64.9556C64.4728 68.5223 57.0584 82.5545 62.5018 95.742C65.6459 103.345 71.5116 107.85 79.6299 109.446C83.7594 110.243 87.6543 109.68 91.5492 108.319C91.8307 108.225 92.1122 108.085 92.3469 107.944C92.91 107.709 93.2385 107.005 93.0508 106.489C92.6284 105.504 92.2061 104.565 91.8776 103.579C90.8922 100.764 90.0944 97.8538 90.0006 94.8034C89.7659 87.1068 92.253 80.3957 97.3679 74.6233C98.0718 73.8255 98.8226 73.1215 99.5734 72.3706C100.137 71.8075 100.09 71.0566 99.4328 70.4465C99.3389 70.3526 99.198 70.2588 99.1042 70.118C94.5993 66.2227 89.4374 64.1578 83.5247 64.1109ZM106.284 86.1212C106.237 85.605 106.19 84.4317 106.049 83.2116C105.721 80.9589 105.111 78.8001 103.891 76.8759C103.797 76.6882 103.328 76.6413 103.093 76.6413C102.811 76.6882 102.53 76.829 102.295 77.0637C96.4294 82.6953 94.3177 89.5941 95.4909 97.5253C95.8194 99.5903 96.3825 101.608 97.5087 103.439C97.6964 103.767 98.4003 104.002 98.6819 103.814C99.0573 103.532 99.4327 103.345 99.7612 103.016C104.078 98.5109 106.378 93.1608 106.284 86.1212Z" fill="#FEFEFE"/>
<path d="M96.9964 188.054C96.9964 185.802 96.9964 183.549 96.9964 181.296C96.9964 180.405 96.668 179.231 97.5127 178.809C98.5451 178.246 99.859 178.434 101.032 178.715C101.314 178.762 101.548 178.997 101.736 179.231C102.487 180.17 103.191 181.156 103.895 182.094C105.772 184.628 107.602 187.163 109.479 189.65C109.713 189.978 109.948 189.978 110.23 189.744C110.324 189.65 110.464 189.556 110.464 189.462C110.511 187.069 110.558 184.675 110.558 182.282C110.558 181.39 110.558 180.499 110.652 179.607C110.699 179.184 110.934 178.715 111.45 178.715C112.341 178.668 113.233 178.668 114.124 178.762C114.359 178.762 114.594 179.091 114.735 179.325C114.875 179.56 114.922 179.888 114.922 180.17C114.922 185.849 114.922 191.527 114.922 197.253C114.922 198.097 114.359 198.754 113.655 198.801C112.904 198.848 112.154 198.848 111.403 198.754C110.981 198.708 110.511 198.473 110.23 198.144C109.62 197.487 109.103 196.736 108.587 196.032C106.569 193.264 104.552 190.448 102.581 187.632C102.346 187.35 102.111 187.163 101.83 187.397C101.642 187.538 101.408 187.82 101.408 188.054C101.361 189.087 101.361 190.166 101.361 191.199C101.361 192.982 101.314 194.812 101.361 196.596C101.408 198.895 100.141 199.271 97.6065 198.614C97.3719 198.567 97.1373 198.191 97.0904 197.957C96.9965 197.393 96.9496 196.783 96.9496 196.173C96.9965 193.451 96.9964 190.729 96.9964 188.054Z" fill="#EF3B23"/>
<path d="M74.2871 187.632C75.1787 187.632 76.0702 187.632 76.9618 187.632C78.8858 187.679 78.9327 188.242 78.8389 189.884C78.6042 193.78 76.7741 196.736 73.1139 198.285C69.1252 199.974 65.465 199.271 62.3209 196.314C57.5344 191.762 57.8629 182.798 64.9018 179.231C68.9844 177.166 74.1932 178.386 76.915 182.094C77.1027 182.376 77.1027 183.033 76.915 183.314C76.4926 183.877 75.8826 184.347 75.2726 184.816C75.0848 184.957 74.6624 185.004 74.4747 184.863C73.8647 184.487 73.3017 183.924 72.6916 183.549C71.0961 182.563 69.4067 182.188 67.5766 182.939C64.3856 184.206 62.8371 188.054 64.2449 191.105C65.2304 193.17 67.5297 195.094 70.3922 194.671C71.4715 194.531 72.363 194.014 73.0669 193.216C73.2546 193.029 73.3955 192.653 73.3955 192.419C73.3017 191.949 72.9731 191.668 72.5038 191.668C72.0346 191.621 71.6123 191.574 71.143 191.574C70.533 191.527 69.876 191.386 69.5944 190.87C69.1721 190.025 69.2659 189.087 69.5475 188.242C69.6413 188.007 69.9698 187.866 70.2514 187.726C70.3921 187.679 70.533 187.679 70.6738 187.679C71.8938 187.679 73.067 187.679 74.2871 187.632Z" fill="#EF3B23"/>
<path d="M57.2041 159.708C57.1571 155.672 58.8933 152.622 62.3189 150.791C65.8853 148.914 69.5925 149.102 72.8773 151.495C76.2091 153.889 77.4761 157.315 76.866 161.351C76.6783 162.524 76.3498 163.791 75.6929 164.683C74.5197 166.278 74.3789 167.546 75.8805 168.953C76.3498 169.376 76.0682 169.986 75.4113 170.408C75.1766 170.549 74.8952 170.737 74.6605 170.878C74.2382 171.065 73.8158 171.253 73.4404 170.878C73.1119 170.596 72.7835 170.314 72.455 169.986C71.8919 169.423 71.2349 169.235 70.4372 169.329C69.1233 169.47 67.7624 169.611 66.4485 169.657C61.662 169.798 57.5325 165.481 57.2979 160.928C57.251 160.506 57.251 160.037 57.2041 159.708ZM72.4081 161.116C72.6896 158.817 72.3142 157.502 71.6572 156.329C70.6248 154.452 68.9355 153.513 66.8708 153.607C64.6183 153.654 62.4597 155.484 61.9435 157.549C61.615 159.051 61.6151 160.506 61.9905 162.008C62.4597 163.885 64.7122 166.232 67.387 165.762C67.5747 165.715 67.8562 165.387 67.8562 165.152C67.9032 164.871 67.7154 164.589 67.5746 164.354C67.0585 162.993 67.1055 162.899 68.2317 162.195C68.9356 161.726 69.5925 161.632 70.2026 162.289C70.2964 162.383 70.4372 162.477 70.531 162.571C71.2818 163.087 71.8918 162.853 72.1265 162.008C72.3611 161.398 72.455 160.788 72.4081 161.116Z" fill="#EF3B23"/>
<path d="M118.865 188.336C118.865 185.473 118.865 182.61 118.865 179.795C118.865 179.231 119.428 178.668 119.991 178.621C122.103 178.574 124.214 178.48 126.279 178.574C130.925 178.715 134.303 181.39 135.383 185.849C135.993 188.383 135.852 190.917 134.726 193.357C133.459 196.126 131.3 197.863 128.297 198.52C125.904 199.036 123.51 198.942 121.117 198.895C118.912 198.848 118.771 198.191 118.771 196.455C118.724 193.733 118.771 191.058 118.771 188.336C118.818 188.336 118.865 188.336 118.865 188.336ZM123.276 188.477H123.323C123.323 190.26 123.323 192.043 123.323 193.827C123.323 194.155 123.839 194.671 124.167 194.718C124.59 194.765 125.059 194.812 125.481 194.812C129.048 194.671 130.972 192.278 131.112 189.181C131.206 187.632 130.925 186.224 130.174 184.91C129.705 184.112 129.095 183.502 128.25 183.174C127.687 182.939 127.124 182.704 126.561 182.563C123.698 181.906 123.229 182.47 123.229 184.957C123.276 186.13 123.276 187.303 123.276 188.477Z" fill="#EF3B23"/>
<path d="M154.246 188.523C154.246 185.52 154.199 182.563 154.293 179.56C154.293 179.184 154.621 178.715 155.185 178.668C155.325 178.668 155.466 178.574 155.607 178.574C157.719 178.574 159.783 178.574 161.895 178.574C163.115 178.574 164.241 178.997 165.227 179.747C166.494 180.686 167.292 181.906 167.432 183.502C167.62 185.848 167.057 187.913 165.227 189.556C164.054 190.635 164.101 190.823 164.992 192.184C166.212 194.061 167.432 195.938 168.652 197.816C168.887 198.191 168.559 198.754 168.136 198.801C167.526 198.848 166.963 198.895 166.353 198.895C165.039 198.942 164.054 198.52 163.35 197.346C162.317 195.704 161.144 194.155 160.018 192.559C159.877 192.372 159.455 192.278 159.267 192.372C159.033 192.466 158.798 192.794 158.798 193.029C158.704 194.531 158.704 196.032 158.61 197.487C158.563 198.285 158 198.754 157.109 198.801C156.639 198.801 156.217 198.801 155.748 198.801C154.903 198.754 154.246 198.191 154.246 197.487C154.199 196.736 154.199 195.985 154.199 195.235C154.199 192.982 154.199 190.729 154.199 188.523C154.199 188.523 154.199 188.523 154.246 188.523ZM158.563 184.816C158.61 185.332 158.61 185.755 158.657 186.224C158.751 187.162 159.596 187.679 160.581 187.303C161.003 187.162 161.426 186.975 161.801 186.74C163.115 185.942 163.209 183.924 162.083 182.939C161.379 182.329 160.534 182.141 159.643 182.282C159.173 182.376 158.845 182.704 158.751 183.126C158.563 183.69 158.61 184.3 158.563 184.816Z" fill="#EF3B23"/>
<path d="M80.5703 157.174C80.5703 155.203 80.5703 153.279 80.5703 151.308C80.5703 150.275 81.1334 149.853 82.3535 149.853C82.8228 149.853 83.2451 149.853 83.6675 149.947C83.9021 149.994 84.2305 150.275 84.3244 150.51C84.4652 151.073 84.559 151.683 84.559 152.293C84.6059 154.827 84.559 157.409 84.559 159.943C84.559 160.834 84.606 161.726 84.6998 162.618C84.9344 164.354 86.4831 165.574 88.1724 165.481C90.0025 165.387 91.3633 164.213 91.5041 162.477C91.5979 161.585 91.5979 160.694 91.5979 159.802C91.5979 157.268 91.5979 154.687 91.5979 152.152C91.5979 149.712 92.208 149.806 94.4135 149.853C95.2582 149.853 95.8213 150.416 95.8213 151.214C95.8682 154.968 95.9151 158.723 95.8213 162.43C95.7743 163.603 95.446 164.824 94.9767 165.903C94.0851 167.968 92.3487 169.188 90.1901 169.517C89.017 169.704 87.797 169.704 86.6238 169.61C83.4798 169.376 81.0396 166.982 80.6642 163.885C80.5704 163.134 80.5704 162.383 80.5234 161.632C80.5234 160.177 80.5234 158.676 80.5703 157.174Z" fill="#EF3B23"/>
<path d="M115.719 169.517C114.968 169.517 114.64 169.517 114.358 169.517C113.701 169.517 113.232 169.235 112.904 168.672C112.669 168.297 112.434 167.874 112.34 167.452C111.871 166.091 110.886 165.716 109.525 165.762C108.164 165.809 106.85 165.809 105.489 165.809C104.457 165.809 103.847 166.373 103.425 167.264C103.237 167.687 103.096 168.109 102.908 168.484C102.533 169.235 101.923 169.564 101.125 169.517C100.656 169.517 100.234 169.517 99.7643 169.47C99.0134 169.423 98.5911 168.954 98.7788 168.391C98.8257 168.25 98.8257 168.109 98.8726 167.968C101.125 162.29 103.424 156.611 105.677 150.932C106.099 149.9 108.352 149.384 109.149 150.088C109.337 150.275 109.572 150.51 109.666 150.745C110.229 151.965 110.745 153.185 111.261 154.452C112.95 158.582 114.64 162.759 116.329 166.889C116.564 167.452 116.658 168.015 116.798 168.578C116.892 168.954 116.517 169.376 116.048 169.423C115.86 169.517 115.578 169.564 115.719 169.517ZM107.742 162.149C108.211 162.102 108.539 162.102 108.821 162.055C109.196 162.008 109.713 161.445 109.619 161.116C109.196 160.037 108.821 158.911 108.352 157.831C108.258 157.644 107.648 157.55 107.601 157.597C106.85 158.723 106.24 159.849 106.193 161.257C106.193 161.492 106.428 161.82 106.662 161.914C107.038 162.102 107.46 162.102 107.742 162.149Z" fill="#EF3B23"/>
<path d="M82.0312 188.383C82.0312 185.708 82.0312 182.986 82.0312 180.311C82.0312 179.184 82.5944 178.574 83.5798 178.574C86.3954 178.574 89.2578 178.574 92.0734 178.574C92.965 178.574 93.4342 179.09 93.4812 179.935C93.4812 180.217 93.4812 180.545 93.4812 180.827C93.4342 181.765 93.012 182.329 92.2612 182.376C91.088 182.423 89.8679 182.423 88.6947 182.469C88.2724 182.469 87.8031 182.516 87.3808 182.657C87.1461 182.751 86.8646 182.986 86.7239 183.22C86.3484 184.065 86.3485 184.957 86.63 185.848C86.7239 186.083 87.0054 186.412 87.1931 186.459C88.2255 186.552 89.2579 186.599 90.2903 186.646C91.0411 186.693 91.7918 186.693 92.5426 186.787C92.8242 186.834 93.1527 187.022 93.2465 187.256C93.6219 188.101 93.5751 188.993 93.2935 189.838C93.1997 190.072 92.8712 190.354 92.6366 190.354C91.3227 190.448 89.9618 190.448 88.6009 190.541C88.1786 190.541 87.7093 190.588 87.2869 190.729C87.0523 190.823 86.7238 191.105 86.6769 191.339C86.5361 192.043 86.4892 192.794 86.4892 193.545C86.4892 194.202 86.9585 194.671 87.5686 194.718C88.9294 194.765 90.2433 194.765 91.6041 194.812C92.0265 194.812 92.4958 194.906 92.8712 195.047C93.1059 195.141 93.2935 195.422 93.3873 195.704C93.4812 196.126 93.4812 196.596 93.4812 197.018C93.4342 198.285 93.0589 198.801 91.9796 198.801C89.164 198.801 86.3016 198.801 83.486 198.801C82.7352 198.801 82.0782 198.097 82.0782 197.346C82.0313 194.343 82.0312 191.386 82.0312 188.383Z" fill="#EF3B23"/>
<path d="M139.184 188.148C139.184 185.755 139.184 183.361 139.184 180.968C139.184 178.95 139.278 178.481 141.812 178.528C144.205 178.574 146.598 178.528 148.991 178.574C150.071 178.574 150.446 179.044 150.446 180.358C150.446 180.78 150.446 181.249 150.305 181.672C150.211 181.907 149.93 182.235 149.695 182.282C148.053 182.423 146.41 182.47 144.768 182.564C144.346 182.564 143.642 183.314 143.642 183.784C143.642 184.394 143.642 184.957 143.689 185.567C143.736 186.083 144.064 186.459 144.486 186.506C146.129 186.646 147.771 186.646 149.414 186.74C150.024 186.787 150.399 187.257 150.446 187.961C150.446 188.383 150.446 188.852 150.399 189.322C150.352 189.885 149.836 190.401 149.226 190.448C148.757 190.495 148.334 190.495 147.865 190.542C146.833 190.589 145.753 190.542 144.721 190.683C144.299 190.729 143.923 191.011 143.736 191.48C143.454 192.372 143.501 193.264 143.736 194.108C143.783 194.343 144.111 194.625 144.346 194.625C145.66 194.719 147.02 194.765 148.334 194.812C148.757 194.812 149.226 194.859 149.648 195C149.883 195.094 150.211 195.376 150.211 195.61C150.258 196.361 150.305 197.112 150.164 197.816C150.118 198.144 149.601 198.614 149.273 198.661C146.129 198.942 143.032 198.989 139.888 198.614C139.653 198.567 139.371 198.238 139.278 198.004C139.137 197.44 139.043 196.83 139.043 196.267C139.184 193.545 139.184 190.823 139.184 188.148Z" fill="#EF3B23"/>
<path d="M157.296 149.806C157.437 149.806 157.578 149.806 157.765 149.806C158.751 149.759 159.502 150.087 160.018 150.932C160.816 152.199 161.613 153.466 162.411 154.686C162.599 155.015 163.35 155.015 163.537 154.686C164.429 153.326 165.321 151.918 166.212 150.557C166.588 149.993 167.104 149.806 167.714 149.806C168.324 149.806 168.934 149.806 169.497 149.806C170.576 149.806 170.952 150.322 170.482 151.12C169.497 152.809 168.512 154.452 167.526 156.141C164.851 160.881 165.133 159.004 165.133 164.964C165.133 165.574 165.133 166.184 165.133 166.748C165.18 169.376 164.664 169.516 162.27 169.423C161.426 169.376 160.91 168.906 160.91 168.015C160.863 166.372 160.816 164.73 160.863 163.087C160.956 161.21 160.534 159.614 159.502 158.019C158.047 155.766 156.733 153.372 155.419 151.073C154.95 150.228 155.278 149.759 156.358 149.759C156.733 149.853 157.015 149.853 157.296 149.806Z" fill="#EF3B23"/>
<path d="M146.553 169.564C146.178 169.517 145.896 169.517 145.615 169.47C145.098 169.376 144.817 169 144.817 168.578C144.723 167.405 144.723 166.185 144.723 165.011C144.676 161.867 144.676 158.723 144.676 155.578C144.676 154.734 144.207 154.311 143.268 154.217C142.517 154.123 141.767 154.123 141.063 153.983C140.828 153.936 140.5 153.607 140.5 153.373C140.406 152.481 140.406 151.589 140.453 150.698C140.453 150.463 140.734 150.228 140.969 150.087C141.204 149.947 141.532 149.853 141.813 149.853C145.239 149.853 148.665 149.853 152.137 149.853C152.935 149.853 153.498 150.416 153.545 151.261C153.545 151.871 153.592 152.481 153.404 153.044C153.31 153.419 152.935 153.795 152.606 153.983C152.231 154.17 151.715 154.123 151.293 154.123C149.322 154.17 149.087 154.593 149.087 156.611C149.087 158.863 149.087 161.116 149.087 163.322C149.087 164.824 149.087 166.325 149.04 167.827C148.993 169.141 148.524 169.517 147.022 169.564C146.788 169.564 146.647 169.564 146.553 169.564Z" fill="#EF3B23"/>
<path d="M120.555 159.708C120.555 156.845 120.555 154.03 120.555 151.167C120.555 150.369 121.165 149.853 122.009 149.853C122.619 149.853 123.183 149.9 123.793 149.947C124.356 149.994 124.59 150.463 124.637 150.838C124.778 151.589 124.778 152.34 124.778 153.091C124.778 156.095 124.778 159.098 124.778 162.102C124.778 165.246 124.966 165.199 127.641 165.246C128.11 165.246 128.532 165.246 129.001 165.293C129.846 165.34 130.362 165.856 130.409 166.701C130.456 167.17 130.456 167.592 130.409 168.062C130.362 169 129.987 169.564 129.189 169.564C126.796 169.61 124.403 169.61 122.009 169.61C120.977 169.61 120.508 169.047 120.508 167.874C120.508 165.105 120.508 162.383 120.555 159.708Z" fill="#EF3B23"/>
<path d="M137.493 159.99C137.493 162.806 137.493 165.668 137.493 168.484C137.493 169.094 136.977 169.517 136.273 169.517C135.522 169.517 134.771 169.47 134.067 169.376C133.833 169.329 133.598 169.047 133.457 168.813C133.317 168.578 133.27 168.249 133.27 167.968C133.27 162.43 133.27 156.939 133.27 151.401C133.27 150.322 133.786 149.9 135.006 149.853C135.428 149.853 135.897 149.853 136.367 149.9C136.507 149.9 136.695 149.9 136.789 149.994C137.024 150.181 137.305 150.369 137.352 150.604C137.493 151.167 137.54 151.777 137.54 152.34C137.54 154.874 137.54 157.409 137.54 159.943C137.54 159.99 137.54 159.99 137.493 159.99Z" fill="#EF3B23"/>
<path d="M117.736 116.485C111.636 116.297 106.333 114.185 101.969 109.915C101.406 109.351 101.406 108.694 102.109 107.99C102.72 107.333 103.376 106.723 104.033 106.066C105.77 104.189 107.271 102.124 108.398 99.8245C112.058 92.4565 112.574 84.9007 109.711 77.1571C109.336 76.1716 108.914 75.233 108.538 74.2475C108.257 73.5435 108.585 72.7926 109.336 72.4641C122.992 66.8794 137.726 75.5615 140.401 89.3121C142.466 99.9653 136.365 111.182 126.089 114.936C123.179 116.016 120.927 116.438 117.736 116.485Z" fill="#EF3B23"/>
<path d="M83.5321 64.1104C89.4917 64.1104 94.6536 66.1753 99.0647 70.1644C99.1585 70.2583 99.2993 70.3521 99.3931 70.4929C100.05 71.15 100.097 71.8539 99.5339 72.4171C98.7831 73.168 98.0323 73.8719 97.3284 74.6697C92.2604 80.4422 89.7263 87.1532 89.9609 94.8498C90.0548 97.8534 90.8056 100.763 91.838 103.626C92.1665 104.611 92.6357 105.55 93.0111 106.535C93.1988 107.005 92.8704 107.756 92.3072 107.99C92.0257 108.131 91.7911 108.225 91.5095 108.366C87.6147 109.727 83.7198 110.29 79.5903 109.492C71.4721 107.896 65.6064 103.391 62.4623 95.7884C57.0189 82.601 64.4332 68.5688 77.2909 65.0021C79.3556 64.4389 81.3735 64.0635 83.5321 64.1104Z" fill="#EF3B23"/>
<path d="M106.284 86.1208C106.378 93.1603 104.126 98.5573 99.7146 103.063C99.4331 103.391 99.0107 103.579 98.6353 103.86C98.3538 104.048 97.6968 103.86 97.4622 103.485C96.3359 101.655 95.726 99.6367 95.4444 97.5718C94.2713 89.6405 96.3829 82.7418 102.249 77.1101C102.436 76.9224 102.765 76.7347 103.046 76.6877C103.328 76.6408 103.75 76.7347 103.844 76.9224C105.064 78.8465 105.674 81.0053 106.003 83.258C106.191 84.4313 106.237 85.6045 106.284 86.1208Z" fill="#EF3B23"/>
<path d="M69.498 30.3678C69.4041 30.2739 69.2632 30.1331 69.3101 30.0392C69.3571 29.8044 69.4509 29.5697 69.5448 29.335C69.7326 29.5228 69.8735 29.6636 70.0613 29.8514C69.8735 30.0861 69.6858 30.227 69.498 30.3678Z" fill="#EF3B23"/>
<path d="M72.4084 161.116C72.5022 160.788 72.3615 161.398 72.2207 161.961C71.9861 162.852 71.376 163.04 70.6251 162.524C70.4844 162.43 70.3905 162.336 70.2967 162.242C69.6866 161.538 69.0297 161.679 68.3258 162.149C67.1996 162.852 67.1526 162.946 67.6688 164.307C67.7626 164.589 67.9504 164.871 67.9504 165.105C67.9034 165.34 67.6688 165.668 67.4811 165.715C64.8063 166.185 62.5539 163.838 62.0846 161.961C61.7092 160.506 61.7092 159.004 62.0376 157.502C62.5069 155.437 64.6655 153.607 66.9649 153.56C69.0766 153.513 70.7191 154.452 71.7514 156.282C72.3145 157.502 72.6899 158.816 72.4084 161.116Z" fill="#FEFEFE"/>
<path d="M123.273 188.477C123.273 187.304 123.273 186.083 123.273 184.91C123.273 182.423 123.696 181.86 126.605 182.517C127.168 182.657 127.732 182.892 128.295 183.127C129.186 183.455 129.796 184.112 130.219 184.863C131.016 186.177 131.251 187.632 131.157 189.134C131.016 192.231 129.092 194.625 125.526 194.766C125.104 194.766 124.634 194.719 124.212 194.672C123.883 194.672 123.367 194.108 123.367 193.78C123.367 191.997 123.367 190.213 123.367 188.43C123.32 188.477 123.273 188.477 123.273 188.477Z" fill="#FEFEFE"/>
<path d="M158.562 184.816C158.609 184.3 158.562 183.69 158.703 183.127C158.797 182.704 159.126 182.376 159.595 182.282C160.533 182.141 161.331 182.376 162.035 182.939C163.208 183.925 163.067 185.896 161.753 186.74C161.378 186.975 160.956 187.163 160.533 187.304C159.548 187.679 158.656 187.163 158.609 186.224C158.609 185.755 158.609 185.333 158.562 184.816Z" fill="#FEFEFE"/>
<path d="M107.744 162.148C107.509 162.101 107.04 162.101 106.618 161.914C106.383 161.82 106.148 161.491 106.148 161.257C106.195 159.896 106.805 158.722 107.556 157.596C107.603 157.549 108.213 157.643 108.307 157.831C108.776 158.91 109.199 159.989 109.574 161.116C109.668 161.444 109.199 162.007 108.776 162.054C108.495 162.148 108.213 162.148 107.744 162.148Z" fill="#FEFEFE"/>
</svg>
