<svg width="229" height="229" viewBox="0 0 229 229" fill="none" xmlns="http://www.w3.org/2000/svg">
<path d="M228.698 114.363C228.698 144.681 228.698 175.045 228.698 205.362C228.698 208.084 228.651 210.759 227.806 213.387C225.412 220.802 220.484 225.636 213.02 227.794C211.002 228.404 208.937 228.686 206.778 228.592C205.557 228.545 204.384 228.592 203.164 228.592C143.835 228.592 84.5063 228.592 25.1776 228.592C23.8165 228.592 22.4553 228.592 21.1411 228.592C12.974 228.451 4.05591 223.336 1.1458 213.246C0.58255 211.228 0.488665 209.116 0.253978 207.004C0.160104 205.972 0.207053 204.892 0.207053 203.86C0.207053 144.258 0.207053 84.6096 0.207053 25.008C0.207053 22.7553 0.34783 20.5026 0.582516 18.25C1.33351 10.788 7.67005 2.15283 17.9024 0.557195C20.1554 0.228682 22.3614 0.0878906 24.6144 0.0878906C42.6383 0.0878906 60.6622 0.0878906 78.6861 0.0878906C120.272 0.0878906 161.906 0.0878906 203.492 0.0878906C205.886 0.0878906 208.28 0.0879021 210.674 0.510276C219.31 2.01205 224.943 7.08052 227.712 15.3403C228.369 17.3583 228.698 19.4232 228.651 21.5351C228.604 22.8961 228.651 24.2571 228.651 25.5711C228.744 55.1842 228.698 84.7504 228.698 114.363ZM114.593 211.65C142.051 211.65 169.51 211.65 197.015 211.65C198.376 211.65 199.737 211.603 201.051 211.65C206.215 211.744 212.035 207.333 212.739 201.138C212.88 199.824 213.02 198.463 213.02 197.102C213.02 182.225 213.02 167.395 213.02 152.518C213.02 151.016 212.927 149.514 212.645 148.06C211.659 143.038 208.608 139.847 203.68 138.392C201.756 137.829 199.831 137.829 197.86 137.829C142.192 137.829 86.4777 137.829 30.8101 137.829C29.9183 137.829 29.0265 137.782 28.0877 137.876C21.0471 138.392 16.1657 143.507 15.978 150.5C15.978 151.251 15.978 152.002 15.978 152.753C15.978 167.442 15.978 182.178 15.978 196.867C15.978 197.9 15.931 198.979 16.0249 200.011C16.4943 207.192 22.5961 211.65 27.6653 211.603C29.1673 211.603 30.6693 211.65 32.1713 211.65C59.6765 211.65 87.1348 211.65 114.593 211.65ZM162.141 52.1807C155.71 52.1807 149.233 52.2276 142.802 52.1807C139.376 52.1807 138.062 53.964 137.968 56.7799C137.921 57.6715 137.968 58.5632 137.968 59.5018C137.968 62.9747 137.968 66.4006 137.968 69.8734C137.968 71.6568 137.968 73.4871 137.968 75.2704C138.015 77.9924 140.972 79.635 143.084 78.3209C143.6 77.9924 144.07 77.6639 144.586 77.3823C144.915 77.1946 145.572 77.57 145.572 77.9455C145.619 78.9779 145.666 80.0573 145.666 81.0898C145.666 88.1294 145.666 95.1689 145.666 102.255C145.666 103.476 145.666 104.649 145.853 105.822C146.182 108.403 148.904 111.031 151.908 110.656C154.208 110.374 155.71 109.06 156.649 106.995C157.212 105.728 157.306 104.414 157.306 103.053C157.259 99.7681 157.306 96.4361 157.306 93.1509C157.306 91.9307 157.306 90.7575 157.353 89.5373C157.4 88.6925 157.916 88.0824 158.667 88.0824C160.639 88.0355 162.563 88.0355 164.534 88.0355C164.816 88.0355 165.144 88.0825 165.379 88.2232C165.614 88.364 165.942 88.5517 165.989 88.7864C166.13 89.5373 166.224 90.2882 166.224 90.9921C166.271 94.7466 166.224 98.501 166.271 102.255C166.271 103.616 166.365 104.977 166.6 106.291C167.022 108.45 169.134 110.327 171.246 110.656C174.016 111.031 176.222 109.342 177.113 107.371C177.536 106.432 177.771 105.353 177.865 104.32C178.005 103.288 177.911 102.208 177.911 101.176C177.911 90.1004 177.958 78.9779 177.958 67.9024C177.958 66.5414 178.052 65.2273 178.146 63.8663C178.146 63.7256 178.475 63.5848 178.709 63.4909C178.709 63.4909 178.944 63.7256 178.944 63.8194C179.038 65.3212 179.085 66.776 179.132 68.2778C179.179 70.8121 179.132 73.3932 179.226 75.9275C179.273 77.9924 182.042 79.3064 183.544 78.6494C184.952 78.0393 185.703 77.1007 185.891 75.6459C185.938 75.0358 185.985 74.4726 185.985 73.8625C185.985 68.7471 186.032 63.6786 185.985 58.5632C185.985 57.3899 185.844 56.1697 185.609 54.9965C185.374 53.6824 184.154 52.5561 182.793 52.4153C181.76 52.2745 180.681 52.2745 179.648 52.2745C173.828 52.1807 167.961 52.1807 162.141 52.1807ZM82.8635 84.5157C82.8635 78.3678 82.8635 72.22 82.8635 66.0721C82.8635 65.1804 83.0043 64.2887 83.0982 63.397C83.1451 62.7869 82.9574 63.6317 83.4268 63.2563C83.5206 63.2093 83.8023 63.2093 83.8492 63.3032C83.99 63.6786 84.2247 64.101 84.2247 64.5234C84.2717 67.3861 84.2716 70.2019 84.2716 73.0647C84.2716 74.0972 84.2716 75.1766 84.4124 76.209C84.5532 77.1476 85.1634 77.7578 85.9614 78.274C88.0266 79.588 90.8898 77.8047 90.8898 75.5989C90.8898 75.1296 90.9367 74.7073 90.9367 74.238C90.9367 68.7002 90.9367 63.1624 90.9367 57.5777C90.9367 56.8268 90.8898 56.0759 90.7959 55.325C90.6082 53.8232 89.3878 52.5092 87.8858 52.2745C87.1348 52.1807 86.3838 52.1337 85.6328 52.1337C73.1945 52.1337 60.7561 52.1337 48.2707 52.1337C47.5197 52.1337 46.7688 52.1807 46.0178 52.2745C44.5627 52.5092 43.2954 53.8232 43.1076 55.325C43.0138 56.0759 43.0138 56.8268 43.0138 57.5777C43.0138 63.1154 43.0138 68.6532 43.0138 74.238C43.0138 74.8481 43.0138 75.4582 43.1076 76.0213C43.3423 77.8516 45.8769 79.4003 47.5667 78.4148C48.3177 77.9924 49.0218 77.4292 49.7728 76.9599C49.8666 76.913 50.1952 76.9599 50.1952 77.0069C50.2891 77.57 50.4768 78.1801 50.4768 78.7433C50.4768 86.1114 50.4768 93.4325 50.4768 100.801C50.4768 101.833 50.3829 102.912 50.5238 103.945C50.6646 104.977 50.8054 106.057 51.2278 106.995C52.1666 109.013 53.7155 110.327 56.0154 110.515C58.6908 110.75 61.554 108.544 61.9765 105.494C62.1173 104.461 62.1172 103.382 62.1172 102.349C62.1172 98.7356 62.1642 95.1689 62.1172 91.5553C62.1172 87.7539 62.2111 87.8008 65.8253 87.8478C67.3273 87.8478 68.8293 87.9417 70.3313 88.0355C70.5659 88.0355 70.8945 88.364 70.9415 88.5987C71.0823 89.3496 71.1292 90.1005 71.1292 90.8044C71.1292 94.9812 71.1762 99.205 71.1292 103.382C71.1292 104.743 71.3639 106.104 72.021 107.277C73.0067 109.06 74.4617 110.234 76.6208 110.468C79.3432 110.75 82.1595 108.544 82.6288 105.541C82.8166 104.367 82.7696 103.147 82.7696 101.974C82.8635 96.2014 82.8635 90.382 82.8635 84.5157ZM115.109 56.686C112.246 56.686 109.43 56.686 106.567 56.686C105.346 56.686 104.173 56.9676 103.14 57.6246C101.31 58.704 100.465 61.1444 101.263 63.1155C102.061 65.1335 103.657 66.2598 105.769 66.3067C111.636 66.4006 117.456 66.3537 123.323 66.3067C124.027 66.3067 124.778 66.0252 125.436 65.6966C127.219 64.805 128.017 63.3032 127.923 61.2852C127.829 59.4549 126.938 58.1878 125.342 57.343C124.403 56.8268 123.37 56.686 122.291 56.686C119.897 56.686 117.503 56.686 115.109 56.686ZM114.124 77.8986C116.799 77.8986 119.521 77.9455 122.197 77.8986C123.089 77.8986 123.981 77.7108 124.825 77.4292C126.515 76.8661 127.548 75.599 127.782 73.8156C128.064 71.8445 127.36 70.2958 125.67 69.2164C124.778 68.6063 123.793 68.3717 122.713 68.3717C117.175 68.3717 111.636 68.3717 106.097 68.3717C105.628 68.3717 105.206 68.4186 104.783 68.5125C101.826 69.4041 100.183 72.5015 101.685 75.2235C102.296 76.3498 103.093 77.1477 104.314 77.4762C105.159 77.7108 106.05 77.8516 106.942 77.8986C109.289 77.9455 111.73 77.8986 114.124 77.8986ZM161.953 33.0331C157.822 32.7515 153.645 36.0366 153.598 41.1051C153.551 45.5165 157.165 49.1771 161.53 49.271C166.083 49.3649 170.073 45.5635 169.932 41.1051C169.697 35.6612 165.379 32.8923 161.953 33.0331ZM66.5293 33.0331C62.8213 32.8923 58.6439 36.1774 58.5969 41.1051C58.55 45.6104 62.4927 49.3649 66.9987 49.271C71.4108 49.1771 74.7903 45.6104 74.8842 41.1051C74.9311 36.5059 70.9884 32.7045 66.5293 33.0331Z" fill="#EB1367"/>
<path d="M114.592 211.651C87.1334 211.651 59.6751 211.651 32.1699 211.651C30.6679 211.651 29.1659 211.604 27.6639 211.604C22.5947 211.604 16.4929 207.192 16.0235 200.012C15.9766 198.979 15.9766 197.9 15.9766 196.868C15.9766 182.178 15.9766 167.442 15.9766 152.753C15.9766 152.002 15.9766 151.251 15.9766 150.5C16.1643 143.461 21.0458 138.392 28.0863 137.876C28.9781 137.829 29.87 137.829 30.8087 137.829C86.4763 137.829 142.191 137.829 197.858 137.829C199.83 137.829 201.754 137.829 203.679 138.392C208.56 139.894 211.611 143.038 212.644 148.06C212.925 149.515 213.019 151.017 213.019 152.518C213.066 167.395 213.066 182.225 213.019 197.102C213.019 198.463 212.878 199.777 212.738 201.138C211.987 207.286 206.213 211.698 201.05 211.651C199.689 211.651 198.328 211.651 197.014 211.651C169.555 211.651 142.097 211.651 114.592 211.651ZM79.1541 183.492C79.1071 185.417 79.6704 187.247 81.0316 188.749C83.0968 191.095 85.6784 191.94 88.7293 191.142C89.9027 190.86 90.7476 191.048 91.5455 191.893C91.7333 192.081 92.0618 192.268 92.2965 192.268C92.7189 192.221 93.0945 192.034 93.423 191.752C93.6108 191.611 93.7516 191.189 93.7046 191.001C93.0944 189.734 92.8128 188.514 93.7985 187.294C93.9862 187.059 94.1271 186.778 94.174 186.496C94.7842 184.431 94.9719 182.319 94.1271 180.348C92.5312 176.594 88.917 175.045 85.3498 175.655C81.7356 176.265 79.1071 179.597 79.1541 183.492ZM51.3203 183.117C51.2733 183.117 51.2734 183.117 51.2264 183.117C51.2264 184.9 51.2264 186.731 51.2264 188.514C51.2264 189.124 51.2734 189.734 51.3673 190.297C51.4142 190.579 51.6489 190.814 51.8836 191.001C52.2591 191.33 53.6672 191.33 54.0427 190.954C54.3243 190.673 54.6059 190.203 54.6529 189.828C54.7467 188.045 54.6998 186.214 54.7467 184.431C54.7467 184.009 54.8406 183.539 54.9814 183.117C54.9814 183.023 55.31 182.929 55.4038 182.976C55.7793 183.164 56.2018 183.399 56.4364 183.68C58.0323 185.839 59.5812 188.045 61.1771 190.25C61.6465 190.907 62.3506 191.142 63.1485 191.189C64.2281 191.283 64.9321 190.767 64.9321 189.734C64.9321 185.557 64.9321 181.334 64.9321 177.157C64.9321 177.016 64.8852 176.875 64.8852 176.734C64.7913 175.984 64.228 175.608 63.2423 175.655C62.5852 175.702 61.9281 176.171 61.9281 176.641C61.8812 177.532 61.8342 178.424 61.7873 179.316C61.7404 180.489 61.6934 181.709 61.5995 182.882C61.5995 183.07 61.271 183.305 61.0363 183.399C60.7547 183.586 60.4731 183.445 60.2853 183.164C59.5813 182.225 58.8302 181.287 58.1262 180.301C57.2344 179.081 56.3895 177.861 55.4977 176.641C54.7936 175.655 53.8079 175.467 52.7284 175.608C52.1651 175.655 51.555 176.171 51.555 176.734C51.3203 178.893 51.3203 181.005 51.3203 183.117ZM152.282 169.179V169.132C153.315 169.132 154.394 169.273 155.427 169.085C158.337 168.662 160.402 167.161 161.388 164.298C162.139 162.233 162.092 160.168 161.247 158.15C160.215 155.569 158.243 154.067 155.474 153.832C153.831 153.692 152.188 153.785 150.546 153.785C149.654 153.785 149.091 154.302 149.091 155.146C149.044 159.182 149.044 163.265 149.044 167.301C149.044 168.756 149.466 169.132 150.921 169.179C151.344 169.179 151.813 169.179 152.282 169.179ZM92.719 161.529H92.7659C92.7659 163.641 92.7659 165.706 92.7659 167.818C92.7659 167.958 92.7659 168.146 92.8128 168.24C92.9536 168.475 93.1414 168.897 93.3761 168.897C95.6291 169.272 97.882 169.413 100.088 168.803C103.796 167.818 105.345 165.002 105.439 162.374C105.439 161.623 105.439 160.872 105.439 160.121C105.298 156.648 102.153 153.739 99.0555 153.692C98.5861 153.692 98.1637 153.645 97.6943 153.645C92.3435 153.645 92.719 153.082 92.719 158.291C92.719 159.464 92.719 160.496 92.719 161.529ZM109.616 181.756H109.569C109.569 180.113 109.569 178.471 109.569 176.828C109.569 176.547 109.335 176.265 109.194 176.03C108.912 175.655 107.692 175.467 107.082 175.843C106.753 176.03 106.378 176.5 106.378 176.875C106.284 179.128 106.284 181.334 106.237 183.586C106.19 184.478 106.143 185.37 106.002 186.261C105.861 187.153 104.688 187.951 103.655 188.045C102.623 188.092 101.402 187.388 101.168 186.543C100.98 185.98 100.839 185.37 100.839 184.806C100.792 182.554 100.839 180.301 100.792 178.095C100.792 177.532 100.651 176.922 100.464 176.359C100.417 176.124 100.041 175.937 99.8065 175.843C98.2575 175.467 97.4127 176.03 97.4127 177.532C97.3657 179.175 97.3657 180.817 97.4127 182.46C97.4127 183.633 97.3657 184.853 97.4596 186.027C97.6474 188.326 98.9616 190.72 102.106 191.377C105.439 192.081 109.335 190.438 109.663 185.839C109.71 184.478 109.616 183.117 109.616 181.756ZM68.1708 183.539H68.1238C68.1238 185.604 68.1238 187.716 68.1238 189.781C68.1238 190.626 68.6871 191.236 69.485 191.236C71.4095 191.283 73.3808 191.283 75.3053 191.283C76.2909 191.283 76.8072 190.626 76.8072 189.453C76.8072 188.749 76.3848 188.232 75.8215 188.185C74.7889 188.139 73.7563 188.092 72.6767 188.045C71.8788 187.998 71.5033 187.388 71.5972 186.449C71.6441 185.792 72.1135 185.276 72.6298 185.229C73.6624 185.135 74.695 185.088 75.7276 184.947C76.3378 184.9 76.8072 184.056 76.7603 183.164C76.7134 182.507 76.2909 181.944 75.7276 181.897C74.5542 181.803 73.3808 181.709 72.2073 181.568C72.0196 181.521 71.738 181.193 71.6441 180.958C71.2686 180.02 71.8319 179.034 72.7706 178.987C73.6624 178.94 74.5542 178.893 75.446 178.846C76.244 178.799 76.7134 178.236 76.7134 177.345C76.7603 176.453 76.244 175.702 75.5869 175.702C73.5216 175.702 71.4094 175.702 69.3442 175.702C68.8279 175.702 68.1708 176.312 68.1708 176.828C68.1708 179.034 68.1708 181.287 68.1708 183.539ZM108.114 159.464C108.114 160.966 108.114 162.468 108.114 163.969C108.114 164.11 108.114 164.251 108.161 164.439C108.443 166.551 110.133 168.709 111.916 169.085C114.498 169.601 117.032 169.648 118.957 167.395C119.239 167.067 119.52 166.644 119.661 166.269C119.943 165.424 120.318 164.533 120.318 163.688C120.365 160.825 120.318 158.009 120.318 155.146C120.318 154.349 119.755 153.879 118.816 153.879C117.408 153.832 117.126 154.255 117.079 155.381C117.032 157.493 117.032 159.558 117.032 161.67C117.032 162.421 116.986 163.172 116.892 163.922C116.751 164.908 115.812 165.753 114.733 165.94C113.09 166.222 111.682 165.19 111.635 163.547C111.541 161.294 111.588 159.042 111.541 156.789C111.541 156.038 111.447 155.334 111.306 154.583C111.259 154.349 110.931 154.114 110.696 154.02C108.771 153.551 108.255 154.208 108.208 155.475C108.067 156.742 108.114 158.103 108.114 159.464ZM125.997 190.579C125.951 190.203 125.997 189.734 125.857 189.312C124.308 185.417 122.712 181.568 121.116 177.72C120.881 177.157 120.647 176.594 120.224 176.171C119.943 175.89 119.473 175.702 119.051 175.702C118.253 175.608 117.596 176.03 117.267 176.781C115.483 181.193 113.7 185.651 111.916 190.063C111.729 190.579 112.292 191.189 112.902 191.236C113.841 191.33 114.686 191.142 115.155 190.203C115.343 189.828 115.577 189.406 115.765 189.03C116.094 188.467 116.563 188.185 117.22 188.185C118.394 188.185 119.614 188.185 120.787 188.232C121.445 188.232 121.867 188.608 122.196 189.171C122.477 189.687 122.759 190.25 123.134 190.673C123.651 191.33 124.449 191.33 125.2 191.189C125.528 191.095 125.716 190.814 125.997 190.579ZM163.219 183.586H163.266C163.266 185.37 163.266 187.2 163.266 188.983C163.266 189.406 163.266 189.922 163.453 190.297C163.641 190.626 164.017 191.095 164.392 191.142C166.598 191.471 168.851 191.424 171.104 191.142C171.339 191.095 171.62 190.86 171.761 190.626C172.418 189.64 171.902 188.279 170.823 188.232C169.79 188.139 168.71 188.139 167.678 188.045C167.396 187.998 167.068 187.81 166.974 187.622C166.786 187.247 166.786 186.778 166.739 186.355C166.692 185.839 167.068 185.417 167.49 185.37C168.663 185.182 169.884 185.135 171.057 184.947C171.292 184.9 171.62 184.666 171.761 184.431C172.09 183.915 172.09 183.305 171.902 182.695C171.761 182.225 171.339 181.991 170.916 181.944C169.743 181.803 168.523 181.756 167.349 181.615C167.161 181.568 166.927 181.24 166.833 180.958C166.504 179.973 167.068 179.081 168.006 178.987C169.039 178.893 170.118 178.893 171.151 178.752C171.386 178.706 171.667 178.471 171.855 178.236C172.465 177.345 171.902 175.749 170.963 175.702C168.851 175.655 166.786 175.655 164.674 175.702C164.11 175.702 163.5 176.265 163.5 176.828C163.359 179.081 163.266 181.334 163.219 183.586ZM67.3259 161.247C67.279 161.247 67.2789 161.247 67.232 161.247C67.232 162.139 67.232 163.031 67.232 163.922C67.232 165.283 67.279 166.597 67.3259 167.958C67.3729 168.709 67.9361 169.179 68.8748 169.132C69.8605 169.085 70.283 168.756 70.4238 167.912C70.5646 166.879 70.236 165.8 70.7992 164.861C70.8931 164.72 71.3625 164.579 71.5033 164.673C72.6767 165.424 73.1931 166.738 73.9441 167.818C74.6012 168.756 75.3991 169.272 76.5725 169.132C76.8542 169.085 77.1827 169.085 77.4644 169.038C77.9337 168.991 78.2153 168.428 77.9807 168.052C77.1827 166.785 76.3848 165.565 75.5869 164.298C74.8828 163.172 74.9297 163.031 75.6338 161.951C76.1501 161.2 76.7133 160.497 77.0419 159.699C78.0745 156.977 76.2909 154.02 73.3808 153.832C71.738 153.692 70.0952 153.785 68.4524 153.785C67.8891 153.785 67.3259 154.349 67.3259 154.912C67.3259 157.071 67.3259 159.136 67.3259 161.247ZM143.036 169.179C143.364 169.132 144.538 169.085 145.711 168.897C145.899 168.85 146.134 168.522 146.18 168.24C146.462 166.879 145.946 166.175 144.678 166.081C143.787 165.987 142.895 165.987 142.003 165.847C141.768 165.8 141.487 165.565 141.299 165.377C140.877 164.861 140.97 164.251 141.111 163.688C141.252 163.265 141.628 162.984 142.097 162.984C143.27 162.89 144.444 162.796 145.617 162.655C145.805 162.608 146.04 162.233 146.087 161.998C146.321 160.872 145.852 160.074 144.96 159.98C143.927 159.886 142.895 159.793 141.862 159.699C141.346 159.652 141.158 159.182 141.064 158.76C140.83 157.728 141.346 156.883 142.285 156.789C143.317 156.695 144.35 156.648 145.383 156.554C145.852 156.507 146.227 155.757 146.18 155.146C146.134 154.442 145.711 153.879 145.148 153.879C142.895 153.879 140.689 153.832 138.436 153.926C138.154 153.926 137.638 154.489 137.638 154.818C137.544 158.103 137.497 161.388 137.497 164.673C137.638 169.648 137.215 169.132 143.036 169.179ZM81.2193 161.482C81.2193 162.233 81.2193 162.984 81.2193 163.735C81.2663 170.023 80.5622 169.085 86.711 169.179C87.462 169.179 88.213 169.132 88.964 169.085C89.668 169.038 90.0435 168.381 89.9496 167.442C89.9027 166.785 89.4803 166.222 88.9171 166.175C88.0252 166.081 87.1334 166.081 86.2416 165.987C85.162 165.893 84.6458 165.283 84.6927 164.251C84.7396 163.406 85.1621 162.984 86.1008 162.937C87.1334 162.89 88.213 162.89 89.1987 162.749C89.5742 162.702 89.8558 162.233 89.9027 161.717C89.9497 160.778 89.5741 160.121 88.8701 160.027C87.8374 159.933 86.8048 159.886 85.7722 159.793C85.0682 159.746 84.6458 159.089 84.6927 158.103C84.6927 157.446 85.1621 156.836 85.6784 156.789C86.8518 156.695 88.0722 156.601 89.2456 156.507C89.6211 156.461 90.0435 155.663 89.9496 155.006C89.9027 154.583 89.8558 154.114 89.3394 153.926C88.917 153.785 88.4946 153.692 88.0252 153.692C80.2337 153.785 81.3132 152.424 81.2193 160.074C81.2193 160.59 81.2193 161.013 81.2193 161.482ZM130.644 169.366C131.677 169.179 132.71 169.085 133.742 168.85C134.728 168.662 135.15 167.724 134.962 166.316C134.869 165.565 134.399 165.377 133.226 165.565C132.475 165.706 131.771 165.894 131.02 165.94C128.673 166.034 126.936 164.533 126.748 162.28C126.702 161.529 126.748 160.778 126.842 160.027C127.171 157.868 129.33 156.414 131.489 156.836C132.381 157.024 133.226 157.258 134.071 157.493C134.446 157.587 134.916 157.211 134.962 156.742C135.009 156.461 135.056 156.132 135.009 155.85C134.962 154.724 134.493 154.067 133.554 153.879C132.663 153.692 131.771 153.504 130.879 153.457C128.673 153.41 126.795 154.114 125.246 155.757C123.557 157.493 123.087 159.605 123.087 161.951C123.134 165.847 126.514 169.601 130.644 169.366ZM179.224 175.514C176.126 175.561 174.202 177.673 174.531 180.77C174.671 182.038 175.235 183.023 176.408 183.633C177.441 184.196 178.52 184.713 179.553 185.276C180.022 185.557 180.257 186.308 180.069 186.871C179.834 187.575 178.99 188.139 178.286 187.904C177.722 187.716 177.159 187.482 176.643 187.247C175.986 186.965 175.469 187.247 175.047 187.669C174.718 187.951 174.484 188.373 174.343 188.796C174.249 189.03 174.296 189.453 174.484 189.593C177.394 192.315 180.116 191.611 182.181 190.016C184.481 188.232 184.528 184.337 181.806 182.742C180.773 182.131 179.741 181.568 178.708 180.958C178.239 180.677 178.004 179.879 178.286 179.363C178.473 178.987 178.802 178.612 179.318 178.706C179.928 178.799 180.492 178.94 181.102 178.94C181.947 178.987 182.838 178.095 182.885 177.251C182.932 176.781 182.463 176.312 181.806 175.984C181.008 175.608 180.163 175.514 179.224 175.514ZM150.029 175.655V175.702C148.527 175.702 147.025 175.702 145.523 175.702C145.007 175.702 144.491 176.265 144.397 176.922C144.209 178.048 144.632 178.752 145.57 178.94C145.711 178.987 145.852 178.987 145.993 178.987C146.415 179.081 146.978 178.987 147.307 179.269C147.776 179.644 147.823 180.301 147.823 180.911C147.823 183.774 147.823 186.59 147.87 189.453C147.87 190.72 148.621 191.33 149.888 191.189C150.593 191.142 151.109 190.673 151.156 190.157C151.203 189.124 151.25 188.045 151.25 187.012C151.297 184.76 151.297 182.507 151.297 180.254C151.297 179.597 151.672 179.222 152.376 179.081C152.939 178.987 153.55 178.94 154.113 178.799C154.348 178.752 154.582 178.424 154.629 178.142C155.052 176.688 154.441 175.655 153.08 175.608C152.141 175.655 151.062 175.655 150.029 175.655ZM128.954 183.023C128.908 185.135 128.908 187.2 128.908 189.312C128.908 190.532 129.189 191.236 130.785 191.236C132.287 191.283 133.789 191.236 135.291 191.189C135.573 191.189 135.901 191.095 136.136 190.954C136.793 190.673 136.793 190.016 136.84 189.453C136.887 188.796 136.464 188.092 136.042 188.045C135.15 187.951 134.258 187.904 133.367 187.716C133.038 187.622 132.616 187.153 132.522 186.824C132.381 185.933 132.381 185.041 132.334 184.149C132.287 181.756 132.287 179.363 132.24 176.969C132.24 176.171 131.63 175.702 130.738 175.702C129.424 175.702 129.001 176.124 128.954 177.204C128.908 179.128 128.954 181.099 128.954 183.023ZM142.285 183.211C142.238 181.146 142.285 179.034 142.238 176.969C142.238 176.171 141.628 175.702 140.736 175.749C139.797 175.749 139.14 176.171 139.093 176.875C139.046 177.298 138.999 177.767 138.999 178.189C138.999 181.756 138.999 185.323 138.999 188.936C138.999 189.359 138.999 189.828 139.14 190.25C139.187 190.532 139.422 190.767 139.609 191.001C139.938 191.33 141.393 191.424 141.721 191.095C142.003 190.814 142.285 190.344 142.285 189.969C142.332 187.669 142.285 185.417 142.285 183.211ZM160.168 183.305C160.215 183.305 160.215 183.305 160.262 183.305C160.262 181.662 160.262 180.02 160.262 178.377C160.262 177.767 160.215 177.157 160.121 176.594C160.074 176.359 159.839 176.077 159.605 175.89C159.229 175.608 157.68 175.608 157.445 175.937C157.211 176.265 156.929 176.734 156.929 177.11C156.882 181.146 156.882 185.182 156.882 189.218C156.882 189.499 156.882 189.828 156.976 190.11C157.07 190.391 157.211 190.673 157.398 190.86C158.056 191.377 158.807 191.377 159.511 191.048C159.933 190.86 160.215 190.532 160.215 190.016C160.168 187.81 160.168 185.557 160.168 183.305ZM48.3633 183.727C48.3633 181.474 48.3633 179.222 48.3163 177.016C48.3163 176.641 47.9878 176.171 47.7061 175.937C47.2368 175.561 45.8286 175.655 45.594 175.984C45.3593 176.312 45.0777 176.781 45.0777 177.204C45.0307 181.381 45.0307 185.604 45.0307 189.781C45.0307 190.063 45.1246 190.344 45.2654 190.626C45.3124 190.767 45.4532 190.86 45.547 190.954C46.2041 191.424 46.9551 191.424 47.6592 191.095C48.0347 190.907 48.3633 190.579 48.3633 190.063C48.3633 187.904 48.3633 185.839 48.3633 183.727Z" fill="#FEFEFE"/>
<path d="M162.141 52.1807C168.009 52.1807 173.829 52.1807 179.696 52.1807C180.728 52.1807 181.808 52.1807 182.841 52.3215C184.155 52.4623 185.422 53.5886 185.657 54.9026C185.845 56.0759 186.032 57.2961 186.032 58.4693C186.079 63.5848 186.032 68.6532 186.032 73.7686C186.032 74.3787 186.032 74.9889 185.939 75.552C185.751 77.0069 185 77.9455 183.592 78.5556C182.043 79.2126 179.32 77.8985 179.273 75.8336C179.18 73.2994 179.227 70.7182 179.18 68.1839C179.133 66.6822 179.086 65.2273 178.992 63.7256C178.992 63.5848 178.757 63.3501 178.757 63.397C178.569 63.4909 178.241 63.6317 178.194 63.7725C178.1 65.1335 178.006 66.4475 178.006 67.8085C177.959 78.8841 177.959 90.0066 177.959 101.082C177.959 102.115 178.053 103.194 177.912 104.227C177.771 105.259 177.584 106.338 177.161 107.277C176.269 109.248 174.11 110.938 171.294 110.562C169.182 110.281 167.07 108.403 166.647 106.198C166.413 104.884 166.319 103.523 166.319 102.162C166.272 98.4071 166.319 94.6527 166.272 90.8983C166.272 90.1474 166.178 89.3965 166.037 88.6925C165.99 88.4579 165.662 88.2702 165.427 88.1294C165.192 87.9886 164.864 87.9416 164.582 87.9416C162.611 87.9416 160.686 87.9417 158.715 87.9886C157.964 87.9886 157.401 88.5987 157.401 89.4434C157.354 90.6636 157.354 91.8369 157.354 93.0571C157.354 96.3422 157.307 99.6742 157.354 102.959C157.354 104.32 157.26 105.681 156.697 106.902C155.805 108.966 154.303 110.281 151.956 110.562C148.905 110.938 146.183 108.309 145.901 105.728C145.76 104.555 145.713 103.335 145.713 102.162C145.713 95.122 145.713 88.0824 145.713 80.9959C145.713 79.9635 145.666 78.8841 145.619 77.8516C145.619 77.4762 144.962 77.1007 144.634 77.2884C144.117 77.6169 143.648 77.9455 143.132 78.227C141.02 79.5411 138.063 77.8985 138.016 75.1766C138.016 73.3932 138.016 71.5629 138.016 69.7796C138.016 66.3067 138.016 62.8808 138.016 59.408C138.016 58.5163 138.016 57.6246 138.016 56.686C138.109 53.8702 139.424 52.0399 142.85 52.0868C149.234 52.2276 155.664 52.1807 162.141 52.1807Z" fill="#FEFEFE"/>
<path d="M82.8652 84.5157C82.8652 90.382 82.8652 96.2013 82.8652 102.068C82.8652 103.288 82.9122 104.461 82.7244 105.634C82.255 108.638 79.3919 110.844 76.7165 110.562C74.5574 110.327 73.1023 109.154 72.1166 107.371C71.4595 106.151 71.2248 104.837 71.2248 103.476C71.2717 99.2988 71.2248 95.075 71.2248 90.8982C71.2248 90.1473 71.1778 89.3964 71.037 88.6925C70.9901 88.4578 70.6616 88.1293 70.4269 88.1293C68.9249 88.0354 67.4229 87.9416 65.9209 87.9416C62.2598 87.8946 62.1659 87.8947 62.2129 91.6491C62.2129 95.2627 62.2129 98.8294 62.2129 102.443C62.2129 103.476 62.2128 104.555 62.072 105.587C61.6496 108.638 58.7864 110.844 56.111 110.609C53.7642 110.374 52.2152 109.107 51.3234 107.089C50.901 106.151 50.7132 105.071 50.6193 104.039C50.4785 103.006 50.5724 101.927 50.5724 100.894C50.5724 93.5263 50.5724 86.2052 50.5724 78.8371C50.5724 78.2739 50.4316 77.6638 50.2908 77.1007C50.2908 77.0537 49.9622 76.9599 49.8683 77.0537C49.1174 77.523 48.4603 78.0862 47.6623 78.5086C45.9256 79.4472 43.391 77.9454 43.2033 76.1151C43.1094 75.505 43.1094 74.9419 43.1094 74.3318C43.1094 68.794 43.1094 63.2562 43.1094 57.6715C43.1094 56.9206 43.1563 56.1697 43.2033 55.4188C43.3441 53.917 44.6114 52.603 46.1134 52.3683C46.8644 52.2745 47.6154 52.2275 48.3664 52.2275C60.8047 52.2275 73.2431 52.2275 85.7284 52.2275C86.4794 52.2275 87.2304 52.2275 87.9814 52.3683C89.4365 52.603 90.7038 53.917 90.8915 55.4188C90.9854 56.1697 91.0323 56.9206 91.0323 57.6715C91.0323 63.2092 91.0323 68.747 91.0323 74.3318C91.0323 74.8011 90.9854 75.2234 90.9854 75.6927C90.9854 77.9454 88.1222 79.6818 86.0569 78.3678C85.259 77.8516 84.6019 77.2414 84.5081 76.3028C84.3672 75.2704 84.3672 74.191 84.3672 73.1585C84.3203 70.2957 84.3672 67.4799 84.3203 64.6172C84.3203 64.1948 84.0856 63.7724 83.9448 63.397C83.8978 63.35 83.6163 63.3031 83.5224 63.3501C83.053 63.6786 83.2407 62.8807 83.1938 63.4908C83.0999 64.3825 83.006 65.2742 82.9591 66.1659C82.8652 72.2199 82.8652 78.3678 82.8652 84.5157Z" fill="#FEFEFE"/>
<path d="M115.108 56.6855C117.502 56.6855 119.896 56.6855 122.29 56.6855C123.369 56.6855 124.402 56.8263 125.341 57.3426C126.936 58.1873 127.828 59.4544 127.922 61.2847C128.016 63.2558 127.218 64.8045 125.434 65.6962C124.777 66.0247 124.026 66.3063 123.322 66.3063C117.455 66.3532 111.635 66.4001 105.768 66.3063C103.656 66.2594 102.107 65.133 101.262 63.115C100.464 61.1909 101.309 58.7036 103.139 57.6242C104.172 57.0141 105.345 56.6855 106.566 56.6855C109.429 56.7325 112.292 56.6855 115.108 56.6855Z" fill="#FEFEFE"/>
<path d="M114.125 77.899C111.731 77.899 109.337 77.9459 106.944 77.899C106.052 77.899 105.16 77.7112 104.315 77.4766C103.095 77.1481 102.25 76.3033 101.687 75.2239C100.232 72.502 101.827 69.3576 104.784 68.5129C105.207 68.3721 105.676 68.3721 106.099 68.3721C111.637 68.3721 117.176 68.3721 122.715 68.3721C123.794 68.3721 124.78 68.6537 125.672 69.2168C127.314 70.3432 128.065 71.8919 127.784 73.816C127.549 75.5994 126.516 76.8665 124.827 77.4297C123.982 77.7112 123.09 77.852 122.198 77.899C119.476 77.9459 116.8 77.899 114.125 77.899Z" fill="#FEFEFE"/>
<path d="M161.953 33.0326C165.379 32.8918 169.744 35.6607 169.932 41.1047C170.073 45.5631 166.083 49.3644 161.531 49.2706C157.165 49.1767 153.551 45.5161 153.598 41.1047C153.645 35.9892 157.776 32.751 161.953 33.0326Z" fill="#FEFEFE"/>
<path d="M66.5266 33.0335C70.9857 32.705 74.9284 36.5063 74.8345 41.1055C74.7407 45.6108 71.4081 49.1776 66.9491 49.2714C62.4431 49.4122 58.5004 45.6108 58.5473 41.1055C58.6412 36.1778 62.8186 32.8458 66.5266 33.0335Z" fill="#FEFEFE"/>
<path d="M79.1578 183.492C79.1578 179.597 81.7393 176.312 85.3535 175.655C88.9677 174.998 92.5349 176.593 94.1308 180.348C94.9757 182.319 94.8348 184.431 94.1777 186.496C94.0839 186.777 93.99 187.059 93.8022 187.293C92.7696 188.514 93.0982 189.734 93.7084 191.001C93.8022 191.189 93.6145 191.611 93.4267 191.752C93.0982 191.987 92.6757 192.174 92.3002 192.268C92.0656 192.315 91.737 192.127 91.5493 191.893C90.7513 191.001 89.9065 190.813 88.733 191.142C85.6821 191.94 83.1005 191.095 81.0353 188.748C79.6741 187.2 79.0639 185.416 79.1578 183.492ZM91.1268 183.68C91.0329 183.07 91.0329 182.319 90.8452 181.615C90.4228 180.301 89.5779 179.268 88.1228 178.94C86.5739 178.611 85.1658 178.752 83.9924 179.925C82.3965 181.615 82.2087 184.618 83.6168 186.496C84.227 187.34 85.025 188.044 86.1984 188.044C86.6208 188.044 87.0433 187.857 87.4188 187.669C87.5126 187.622 87.3718 187.2 87.3718 186.918C87.3718 186.777 87.3249 186.636 87.3249 186.496C87.3249 185.792 88.0759 185.088 88.7799 185.229C89.2024 185.322 89.6248 185.557 90.0472 185.698C90.4697 185.839 90.939 185.557 90.986 185.135C90.986 184.712 91.0329 184.243 91.1268 183.68Z" fill="#EB1367"/>
<path d="M51.3207 183.116C51.3207 181.005 51.3207 178.94 51.3207 176.828C51.3207 176.265 51.9309 175.795 52.4942 175.701C53.6207 175.561 54.5594 175.795 55.2635 176.734C56.1553 177.954 57.0001 179.174 57.8919 180.395C58.596 181.333 59.347 182.272 60.0511 183.257C60.2858 183.539 60.5205 183.68 60.8021 183.492C61.0368 183.351 61.3653 183.163 61.3653 182.976C61.4592 181.802 61.5061 180.582 61.5531 179.409C61.6 178.517 61.647 177.626 61.6939 176.734C61.7408 176.265 62.3979 175.795 63.0081 175.748C63.9938 175.655 64.604 176.03 64.6509 176.828C64.6509 176.969 64.6978 177.109 64.6978 177.25C64.6978 181.427 64.6978 185.651 64.6978 189.828C64.6978 190.86 63.9938 191.376 62.9143 191.282C62.1633 191.235 61.4122 191.001 60.9429 190.344C59.347 188.185 57.7981 185.932 56.2022 183.774C55.9675 183.445 55.5451 183.257 55.1696 183.07C55.0757 183.023 54.7941 183.116 54.7472 183.21C54.6533 183.633 54.5125 184.055 54.5125 184.524C54.4655 186.308 54.5125 188.138 54.4186 189.921C54.4186 190.297 54.137 190.766 53.8084 191.048C53.4329 191.423 52.0718 191.376 51.6493 191.095C51.4146 190.907 51.18 190.625 51.133 190.391C51.0391 189.828 50.9922 189.217 50.9922 188.607C50.9922 186.824 50.9922 184.994 50.9922 183.21C51.2738 183.116 51.3207 183.116 51.3207 183.116Z" fill="#EB1367"/>
<path d="M152.286 169.178C151.816 169.178 151.394 169.178 150.924 169.178C149.469 169.131 149.047 168.755 149.047 167.301C149.047 163.265 149.047 159.182 149.094 155.146C149.094 154.301 149.657 153.785 150.549 153.785C152.192 153.785 153.834 153.691 155.477 153.831C158.247 154.066 160.218 155.568 161.251 158.149C162.095 160.167 162.095 162.232 161.391 164.297C160.359 167.113 158.294 168.662 155.43 169.084C154.398 169.225 153.318 169.131 152.286 169.131C152.286 169.131 152.286 169.131 152.286 169.178ZM152.379 161.34C152.332 161.34 152.332 161.34 152.286 161.34C152.379 162.654 152.379 163.968 152.567 165.282C152.614 165.611 153.177 166.08 153.506 166.08C154.21 166.08 154.961 165.893 155.665 165.705C157.261 165.236 158.059 164.062 158.34 162.467C158.434 161.904 158.481 161.293 158.387 160.683C158.2 158.712 157.167 157.398 155.289 156.788C153.365 156.131 152.426 156.694 152.379 158.618C152.332 159.604 152.379 160.449 152.379 161.34Z" fill="#EB1367"/>
<path d="M92.7166 161.529C92.7166 160.496 92.7166 159.417 92.7166 158.385C92.7166 153.175 92.3411 153.739 97.692 153.739C98.1613 153.739 98.5838 153.785 99.0532 153.785C102.104 153.832 105.296 156.742 105.437 160.215C105.484 160.966 105.484 161.717 105.437 162.468C105.343 165.096 103.794 167.911 100.086 168.897C97.9266 169.46 95.6267 169.319 93.3738 168.991C93.1391 168.944 92.9982 168.569 92.8105 168.334C92.7166 168.24 92.7636 168.052 92.7636 167.911C92.7636 165.8 92.7636 163.735 92.7636 161.623C92.7636 161.529 92.7636 161.529 92.7166 161.529ZM96.2838 161.154C96.2369 161.154 96.143 161.154 96.0961 161.154C96.2369 162.608 96.3308 164.11 96.5185 165.565C96.5655 165.94 96.8471 166.034 97.1757 166.081C98.1144 166.222 98.9593 165.893 99.7572 165.565C101.165 165.002 101.822 163.922 101.963 162.468C102.151 160.637 102.104 158.854 100.508 157.587C100.414 157.493 100.273 157.399 100.133 157.352C99.3347 156.883 98.4899 156.648 97.5981 156.648C97.0349 156.648 96.3308 157.117 96.3308 157.587C96.2838 158.807 96.2838 159.98 96.2838 161.154Z" fill="#EB1367"/>
<path d="M109.618 181.756C109.618 183.117 109.712 184.431 109.618 185.792C109.336 190.391 105.393 192.033 102.061 191.329C98.9161 190.672 97.6488 188.279 97.4141 185.979C97.3203 184.806 97.3672 183.586 97.3672 182.413C97.3672 180.77 97.3672 179.128 97.3672 177.485C97.4141 176.03 98.2121 175.42 99.761 175.795C99.9957 175.842 100.324 176.077 100.418 176.312C100.606 176.875 100.7 177.438 100.747 178.048C100.794 180.301 100.747 182.553 100.794 184.759C100.794 185.322 100.934 185.932 101.122 186.496C101.404 187.34 102.624 188.091 103.61 187.997C104.642 187.95 105.816 187.106 105.957 186.214C106.098 185.322 106.191 184.431 106.191 183.539C106.238 181.286 106.238 179.081 106.332 176.828C106.332 176.452 106.708 176.03 107.036 175.795C107.646 175.42 108.867 175.608 109.148 175.983C109.336 176.218 109.524 176.499 109.524 176.781C109.571 178.424 109.524 180.066 109.524 181.709C109.571 181.756 109.618 181.756 109.618 181.756Z" fill="#EB1367"/>
<path d="M68.1719 183.539C68.1719 181.286 68.1719 179.08 68.1719 176.828C68.1719 176.311 68.829 175.701 69.3454 175.701C71.4106 175.701 73.5228 175.701 75.588 175.701C76.2452 175.701 76.7145 176.452 76.7145 177.344C76.6676 178.235 76.1982 178.799 75.4472 178.846C74.5554 178.892 73.6636 178.892 72.7718 178.986C71.88 179.033 71.3167 180.019 71.6453 180.957C71.7392 181.192 71.9738 181.567 72.2085 181.567C73.3819 181.708 74.5554 181.802 75.7288 181.896C76.2921 181.943 76.7145 182.506 76.7615 183.163C76.8084 184.055 76.339 184.853 75.7288 184.946C74.6962 185.04 73.6636 185.134 72.631 185.228C72.0677 185.275 71.6453 185.838 71.5984 186.448C71.5045 187.387 71.9269 187.997 72.6779 188.044C73.7105 188.091 74.7432 188.138 75.8227 188.185C76.386 188.232 76.7615 188.748 76.8084 189.452C76.8084 190.578 76.2921 191.235 75.3064 191.282C73.382 191.282 71.4106 191.282 69.4862 191.235C68.6883 191.235 68.125 190.625 68.125 189.78C68.125 187.715 68.125 185.603 68.125 183.539H68.1719Z" fill="#EB1367"/>
<path d="M108.117 159.464C108.117 158.103 108.07 156.789 108.117 155.428C108.164 154.161 108.727 153.504 110.605 153.973C110.84 154.02 111.168 154.302 111.215 154.536C111.356 155.24 111.45 155.991 111.45 156.742C111.497 158.995 111.45 161.247 111.544 163.5C111.591 165.189 112.999 166.222 114.642 165.893C115.721 165.706 116.66 164.814 116.801 163.875C116.895 163.124 116.942 162.374 116.942 161.623C116.988 159.511 116.942 157.446 116.988 155.334C117.035 154.255 117.317 153.785 118.725 153.832C119.664 153.879 120.227 154.348 120.227 155.099C120.274 157.962 120.321 160.778 120.227 163.641C120.227 164.532 119.852 165.377 119.57 166.222C119.429 166.644 119.148 167.02 118.866 167.348C116.942 169.601 114.407 169.554 111.825 169.038C110.042 168.662 108.352 166.503 108.07 164.392C108.07 164.251 108.023 164.11 108.023 163.922C108.117 162.467 108.117 160.966 108.117 159.464Z" fill="#EB1367"/>
<path d="M126.003 190.578C125.721 190.813 125.533 191.095 125.252 191.142C124.501 191.329 123.75 191.282 123.186 190.625C122.811 190.156 122.529 189.64 122.248 189.124C121.919 188.56 121.497 188.232 120.839 188.185C119.666 188.138 118.446 188.138 117.272 188.138C116.615 188.138 116.146 188.42 115.817 188.983C115.582 189.358 115.395 189.781 115.207 190.156C114.691 191.095 113.893 191.235 112.954 191.189C112.297 191.142 111.734 190.531 111.968 190.015C113.752 185.604 115.489 181.145 117.319 176.734C117.601 175.983 118.258 175.561 119.103 175.655C119.525 175.701 120.042 175.842 120.276 176.124C120.652 176.546 120.933 177.109 121.168 177.673C122.764 181.521 124.36 185.416 125.909 189.264C126.003 189.734 125.956 190.203 126.003 190.578ZM118.023 185.275C119.103 185.275 119.384 185.275 119.666 185.275C120.135 185.228 120.511 184.759 120.37 184.384C120.088 183.727 119.807 183.07 119.478 182.413C119.291 182.037 119.056 182.084 118.774 182.319C118.117 182.835 117.976 183.539 117.835 184.243C117.648 184.9 118.023 185.275 118.023 185.275Z" fill="#EB1367"/>
<path d="M163.219 183.585C163.266 181.333 163.313 179.08 163.407 176.874C163.407 176.311 164.017 175.748 164.58 175.748C166.692 175.748 168.757 175.748 170.87 175.748C171.808 175.748 172.372 177.344 171.761 178.282C171.621 178.517 171.339 178.752 171.057 178.799C170.025 178.939 168.992 178.939 167.913 179.033C166.974 179.127 166.411 180.019 166.739 181.004C166.833 181.239 167.068 181.614 167.255 181.661C168.429 181.802 169.649 181.849 170.823 181.99C171.292 182.037 171.667 182.271 171.808 182.741C171.996 183.351 171.996 183.914 171.668 184.477C171.527 184.712 171.245 184.946 170.964 184.993C169.79 185.134 168.57 185.181 167.396 185.416C166.974 185.463 166.645 185.885 166.645 186.401C166.645 186.824 166.692 187.293 166.88 187.668C166.974 187.903 167.349 188.091 167.584 188.091C168.617 188.185 169.696 188.232 170.729 188.278C171.761 188.372 172.278 189.686 171.668 190.672C171.527 190.907 171.245 191.141 171.01 191.188C168.757 191.47 166.551 191.517 164.298 191.188C163.97 191.141 163.547 190.719 163.36 190.343C163.172 189.968 163.172 189.452 163.172 189.029C163.172 187.246 163.172 185.416 163.172 183.632C163.266 183.585 163.266 183.585 163.219 183.585Z" fill="#EB1367"/>
<path d="M67.3283 161.247C67.3283 159.136 67.3283 157.071 67.3283 154.959C67.3283 154.396 67.8915 153.832 68.4547 153.832C70.0975 153.832 71.7403 153.739 73.3831 153.879C76.2933 154.114 78.0769 157.024 77.0443 159.746C76.7157 160.543 76.1525 161.294 75.6362 161.998C74.8852 163.078 74.8852 163.218 75.5892 164.345C76.3872 165.612 77.1851 166.879 77.983 168.099C78.2177 168.475 77.9361 169.038 77.4667 169.085C77.1851 169.132 76.8565 169.132 76.5749 169.179C75.4015 169.319 74.6035 168.803 73.9464 167.865C73.1954 166.785 72.6791 165.471 71.5057 164.72C71.3648 164.626 70.8955 164.767 70.8016 164.908C70.2383 165.847 70.5669 166.926 70.4261 167.958C70.3323 168.756 69.8629 169.132 68.8772 169.179C67.9384 169.226 67.3752 168.756 67.3283 168.005C67.2813 166.644 67.2813 165.33 67.2344 163.969C67.2344 163.078 67.2344 162.186 67.2344 161.294C67.2813 161.247 67.2813 161.247 67.3283 161.247ZM70.4731 158.197C70.4731 158.385 70.4731 158.525 70.4731 158.666C70.52 159.276 70.6138 159.84 71.271 160.074C71.8812 160.309 72.4444 160.168 72.9608 159.84C73.7117 159.37 73.8995 158.244 73.4301 157.493C72.9608 156.742 71.8812 156.32 71.1302 156.742C70.8955 156.883 70.6608 157.118 70.5669 157.352C70.473 157.634 70.52 157.962 70.4731 158.197Z" fill="#EB1367"/>
<path d="M143.037 169.178C137.217 169.131 137.64 169.648 137.64 164.626C137.64 161.341 137.687 158.056 137.78 154.771C137.78 154.442 138.297 153.926 138.578 153.879C140.831 153.785 143.037 153.832 145.29 153.832C145.854 153.832 146.276 154.395 146.323 155.099C146.37 155.756 145.948 156.46 145.525 156.507C144.492 156.601 143.46 156.648 142.427 156.742C141.535 156.836 140.972 157.68 141.207 158.713C141.301 159.135 141.488 159.604 142.005 159.651C143.037 159.745 144.07 159.839 145.103 159.933C145.994 160.027 146.511 160.825 146.229 161.951C146.182 162.186 145.948 162.561 145.76 162.608C144.586 162.749 143.413 162.843 142.239 162.937C141.723 162.983 141.348 163.265 141.254 163.64C141.066 164.204 141.019 164.814 141.442 165.33C141.629 165.565 141.864 165.799 142.146 165.799C143.037 165.94 143.929 165.94 144.821 166.034C146.088 166.175 146.605 166.879 146.323 168.193C146.276 168.427 146.041 168.803 145.854 168.85C144.586 169.084 143.413 169.131 143.037 169.178Z" fill="#EB1367"/>
<path d="M81.2235 161.482C81.2235 161.013 81.2235 160.59 81.2235 160.121C81.3174 152.471 80.2379 153.832 88.0294 153.738C88.4519 153.738 88.9212 153.832 89.3437 153.973C89.86 154.114 89.9069 154.583 89.9539 155.052C90.0477 155.709 89.6253 156.507 89.2498 156.554C88.0764 156.648 86.856 156.742 85.6826 156.836C85.1663 156.883 84.7439 157.493 84.6969 158.15C84.65 159.135 85.0724 159.745 85.7764 159.839C86.8091 159.933 87.8417 159.98 88.8743 160.074C89.5783 160.121 89.9539 160.778 89.9069 161.763C89.86 162.28 89.6253 162.702 89.2029 162.796C88.1703 162.937 87.1377 162.937 86.105 162.984C85.1663 163.031 84.6969 163.453 84.6969 164.298C84.65 165.33 85.1663 165.94 86.2458 166.034C87.1376 166.128 88.0295 166.128 88.9213 166.222C89.4376 166.269 89.86 166.832 89.9539 167.489C90.0477 168.475 89.6723 169.132 88.9682 169.132C88.2172 169.178 87.4662 169.225 86.7152 169.225C80.5664 169.132 81.2705 170.07 81.2235 163.781C81.2235 162.984 81.2235 162.233 81.2235 161.482Z" fill="#EB1367"/>
<path d="M130.647 169.366C126.516 169.6 123.137 165.846 123.09 161.998C123.09 159.651 123.559 157.586 125.249 155.803C126.798 154.16 128.675 153.456 130.881 153.503C131.773 153.55 132.665 153.738 133.557 153.926C134.496 154.113 134.965 154.723 135.012 155.897C135.012 156.178 134.965 156.507 134.965 156.788C134.918 157.211 134.449 157.633 134.073 157.539C133.228 157.305 132.336 157.07 131.492 156.882C129.333 156.46 127.22 157.868 126.845 160.073C126.751 160.824 126.704 161.575 126.751 162.326C126.939 164.626 128.675 166.127 131.022 165.987C131.773 165.94 132.477 165.705 133.228 165.611C134.402 165.423 134.871 165.611 134.965 166.362C135.153 167.77 134.73 168.709 133.745 168.896C132.712 169.084 131.679 169.225 130.647 169.366Z" fill="#EB1367"/>
<path d="M179.224 175.514C180.116 175.514 181.008 175.608 181.852 176.03C182.51 176.359 182.979 176.828 182.932 177.297C182.838 178.142 181.946 179.034 181.148 178.987C180.538 178.94 179.975 178.799 179.365 178.752C178.848 178.705 178.52 179.034 178.332 179.409C178.051 179.925 178.285 180.723 178.755 181.005C179.787 181.615 180.82 182.178 181.852 182.788C184.575 184.384 184.528 188.232 182.228 190.062C180.21 191.658 177.44 192.315 174.53 189.64C174.389 189.499 174.295 189.077 174.389 188.842C174.53 188.42 174.812 188.044 175.093 187.716C175.516 187.293 176.032 186.965 176.689 187.293C177.253 187.528 177.769 187.81 178.332 187.95C179.036 188.138 179.834 187.622 180.116 186.918C180.304 186.355 180.069 185.604 179.599 185.322C178.567 184.759 177.487 184.196 176.455 183.68C175.281 183.07 174.718 182.084 174.577 180.817C174.202 177.673 176.126 175.561 179.224 175.514Z" fill="#EB1367"/>
<path d="M150.032 175.655C151.064 175.655 152.144 175.608 153.176 175.655C154.537 175.702 155.148 176.734 154.725 178.189C154.631 178.424 154.397 178.752 154.209 178.846C153.646 179.034 153.035 179.034 152.472 179.127C151.768 179.268 151.393 179.644 151.393 180.301C151.346 182.553 151.346 184.806 151.346 187.059C151.346 188.091 151.299 189.171 151.252 190.203C151.205 190.766 150.689 191.189 149.985 191.236C148.67 191.376 147.966 190.766 147.966 189.499C147.919 186.636 147.919 183.821 147.919 180.958C147.919 180.348 147.872 179.691 147.403 179.315C147.074 179.081 146.558 179.128 146.089 179.034C145.948 178.987 145.807 178.987 145.666 178.987C144.728 178.799 144.305 178.095 144.493 176.969C144.587 176.312 145.103 175.749 145.619 175.749C147.121 175.749 148.623 175.749 150.125 175.749C150.031 175.702 150.032 175.702 150.032 175.655Z" fill="#EB1367"/>
<path d="M128.957 183.022C128.957 181.051 128.91 179.127 128.957 177.156C129.004 176.077 129.426 175.654 130.741 175.654C131.633 175.654 132.243 176.171 132.243 176.921C132.29 179.315 132.29 181.708 132.337 184.102C132.337 184.993 132.337 185.885 132.524 186.777C132.571 187.105 133.041 187.575 133.369 187.668C134.214 187.903 135.153 187.903 136.045 187.997C136.467 188.044 136.889 188.748 136.843 189.405C136.843 190.015 136.796 190.625 136.139 190.907C135.857 191.047 135.575 191.141 135.294 191.141C133.792 191.188 132.29 191.188 130.788 191.188C129.192 191.141 128.957 190.437 128.91 189.264C128.91 187.246 128.91 185.134 128.957 183.022Z" fill="#EB1367"/>
<path d="M142.285 183.21C142.285 185.463 142.332 187.668 142.238 189.921C142.238 190.297 141.956 190.766 141.675 191.047C141.346 191.376 139.892 191.282 139.563 190.954C139.375 190.766 139.141 190.484 139.094 190.203C139 189.78 138.953 189.311 138.953 188.889C138.953 185.322 138.953 181.755 138.953 178.142C138.953 177.719 139 177.25 139.047 176.828C139.094 176.124 139.751 175.701 140.689 175.701C141.581 175.701 142.191 176.17 142.191 176.921C142.285 179.033 142.285 181.098 142.285 183.21Z" fill="#EB1367"/>
<path d="M160.168 183.304C160.168 185.557 160.168 187.81 160.168 190.015C160.168 190.532 159.839 190.86 159.464 191.048C158.76 191.376 158.009 191.376 157.352 190.86C157.164 190.672 157.024 190.391 156.93 190.109C156.836 189.828 156.836 189.499 156.836 189.217C156.836 185.181 156.836 181.145 156.883 177.109C156.883 176.734 157.164 176.265 157.399 175.936C157.634 175.608 159.182 175.608 159.558 175.889C159.792 176.077 160.027 176.312 160.074 176.593C160.168 177.156 160.215 177.766 160.215 178.377C160.215 180.019 160.215 181.662 160.215 183.304C160.215 183.304 160.215 183.304 160.168 183.304Z" fill="#EB1367"/>
<path d="M48.363 183.727C48.363 185.839 48.363 187.904 48.363 190.016C48.363 190.532 48.0345 190.86 47.6591 191.048C46.9552 191.377 46.2044 191.377 45.5474 190.907C45.4066 190.813 45.3128 190.72 45.2659 190.579C45.172 190.297 45.0313 190.016 45.0313 189.734C45.0313 185.557 45.0312 181.334 45.0782 177.157C45.0782 176.734 45.3597 176.312 45.5943 175.937C45.829 175.608 47.2837 175.514 47.706 175.89C48.0345 176.124 48.3161 176.594 48.3161 176.969C48.363 179.222 48.363 181.474 48.363 183.727Z" fill="#EB1367"/>
<path d="M91.1272 183.679C91.0333 184.243 90.9394 184.712 90.8925 185.134C90.8455 185.557 90.3762 185.838 89.9537 185.697C89.5313 185.557 89.1558 185.322 88.6865 185.228C87.9824 185.087 87.2314 185.791 87.2314 186.495C87.2314 186.636 87.2783 186.777 87.2783 186.918C87.3253 187.199 87.4191 187.622 87.3253 187.668C86.9498 187.856 86.5273 188.044 86.1049 188.044C84.9784 188.044 84.1805 187.387 83.5234 186.495C82.1622 184.618 82.303 181.614 83.8988 179.925C85.0253 178.705 86.4804 178.564 88.0293 178.939C89.4844 179.268 90.3292 180.253 90.7516 181.614C91.0333 182.318 91.0333 183.069 91.1272 183.679Z" fill="#FEFEFE"/>
<path d="M152.379 161.341C152.379 160.45 152.379 159.558 152.379 158.666C152.426 156.742 153.365 156.179 155.289 156.836C157.167 157.446 158.199 158.76 158.387 160.731C158.434 161.294 158.434 161.904 158.34 162.514C158.058 164.063 157.26 165.236 155.665 165.753C154.961 165.94 154.21 166.128 153.506 166.128C153.177 166.128 152.614 165.659 152.567 165.33C152.379 164.016 152.379 162.702 152.285 161.388C152.332 161.341 152.332 161.341 152.379 161.341Z" fill="#FEFEFE"/>
<path d="M96.2894 161.153C96.2894 159.98 96.2894 158.759 96.2894 157.586C96.2894 157.07 96.9934 156.647 97.5567 156.647C98.4954 156.647 99.2933 156.929 100.091 157.351C100.232 157.445 100.373 157.492 100.467 157.586C102.063 158.9 102.11 160.637 101.922 162.467C101.781 163.922 101.124 165.001 99.7158 165.564C98.8709 165.893 98.073 166.221 97.1343 166.08C96.8057 166.034 96.5241 165.94 96.4771 165.564C96.3363 164.109 96.1955 162.608 96.0547 161.153C96.1486 161.153 96.1955 161.153 96.2894 161.153Z" fill="#FEFEFE"/>
<path d="M118.016 185.276C118.016 185.276 117.641 184.9 117.782 184.243C117.922 183.539 118.063 182.788 118.72 182.319C119.049 182.084 119.283 182.037 119.424 182.413C119.752 183.07 120.034 183.727 120.316 184.384C120.456 184.759 120.128 185.229 119.612 185.276C119.377 185.322 119.096 185.276 118.016 185.276Z" fill="#FEFEFE"/>
<path d="M70.4727 158.197C70.5196 157.962 70.4726 157.634 70.5665 157.352C70.6603 157.117 70.895 156.836 71.1296 156.742C71.8805 156.367 72.9598 156.742 73.429 157.493C73.8983 158.244 73.7106 159.417 72.9598 159.839C72.4436 160.168 71.8804 160.309 71.2704 160.074C70.6134 159.792 70.5196 159.229 70.4727 158.666C70.4727 158.525 70.4727 158.385 70.4727 158.197Z" fill="#FEFEFE"/>
</svg>
