<svg width="229" height="229" viewBox="0 0 229 229" fill="none" xmlns="http://www.w3.org/2000/svg">
<path d="M114.688 228.592C84.9299 228.592 55.2186 228.592 25.4604 228.592C24.0992 228.592 22.7381 228.592 21.4239 228.592C10.4406 228.451 2.17954 220.145 0.818358 211.181C0.583672 209.726 0.44286 208.224 0.348986 206.723C0.302049 205.831 0.348986 204.939 0.348986 204.001C0.348986 144.211 0.348986 84.4688 0.348986 24.6795C0.348986 21.9575 0.442929 19.2825 1.00618 16.6074C2.69592 8.77007 9.40787 1.91823 17.9505 0.51032C20.4851 0.0879461 23.0197 0.0410156 25.6012 0.0410156C60.0062 0.0410156 94.4113 0.0410156 128.769 0.0410156C153.834 0.0410156 178.945 0.0410156 204.01 0.0410156C206.404 0.0410156 208.797 0.134876 211.191 0.51032C219.311 1.77744 226.211 8.01919 228.182 15.9974C228.699 18.0623 229.074 20.1272 228.933 22.2391C228.886 22.8492 228.933 23.4593 228.933 24.0224C228.933 84.2342 228.933 144.446 228.933 204.658C228.933 207.051 228.933 209.445 228.323 211.838C226.446 219.628 221.658 224.791 214.195 227.466C212.083 228.217 209.877 228.686 207.577 228.545C206.216 228.498 204.855 228.545 203.54 228.545C173.876 228.592 144.259 228.592 114.688 228.592ZM114.36 211.65C141.818 211.65 169.276 211.65 196.734 211.65C198.236 211.65 199.738 211.65 201.24 211.603C202.132 211.556 203.071 211.509 203.916 211.275C208.985 209.867 212.552 205.409 212.928 200.152C212.975 199.261 212.975 198.369 212.975 197.43C212.975 182.413 212.975 167.442 212.975 152.424C212.975 151.532 212.975 150.641 212.928 149.702C212.599 144.164 208.985 139.8 203.634 138.345C201.569 137.782 199.457 137.829 197.392 137.829C142.146 137.829 86.9482 137.829 31.7031 137.829C30.8113 137.829 29.9194 137.829 28.9807 137.829C27.291 137.782 25.6481 138.157 24.1461 138.767C19.4524 140.691 16.6832 144.164 16.2138 149.327C16.1199 150.359 16.1668 151.439 16.1668 152.471C16.1668 167.348 16.1668 182.178 16.1668 197.055C16.1668 198.275 16.1669 199.448 16.2608 200.669C16.7302 206.91 22.3626 211.51 27.4787 211.65C28.9807 211.697 30.4828 211.697 31.9848 211.697C59.443 211.65 86.9013 211.65 114.36 211.65ZM119.757 87.1439V87.0969C123.935 87.0969 128.159 87.0969 132.336 87.0969C133.792 87.0969 134.965 86.4399 135.81 85.3136C136.514 84.375 137.124 83.2956 137.64 82.2162C140.222 76.96 142.71 71.7038 145.244 66.4006C145.432 65.9783 145.62 65.6028 145.808 65.1804C146.183 64.1949 145.901 63.0216 145.057 62.3177C144.212 61.6607 143.32 61.0975 142.24 61.0506C141.02 61.0036 139.847 61.0036 138.626 61.0036C125.578 61.0036 112.529 61.0506 99.4804 61.0036C93.9418 61.0036 95.1153 61.8014 92.8154 56.4044C90.6562 51.289 91.7828 51.993 86.0564 51.8991C84.2728 51.8991 82.4423 51.8991 80.6587 51.946C79.4852 51.993 78.5934 52.9316 78.6873 53.9641C78.7812 54.8558 79.579 55.6536 80.4708 55.6536C81.9728 55.7005 83.4749 55.7474 84.9769 55.7474C88.1217 55.7944 88.1216 55.7944 89.2951 58.5633C89.6236 59.408 89.9522 60.2527 90.2808 61.0506C94.6929 72.0323 99.058 83.014 103.47 94.0426C103.752 94.7466 104.033 95.4505 104.409 96.0606C104.644 96.3892 105.066 96.7177 105.488 96.7646C106.192 96.9054 106.99 96.8585 107.741 96.9054C108.352 96.9523 108.868 97.187 109.103 97.844C109.384 98.548 109.619 99.2988 110.135 99.8151C112.107 102.115 114.735 101.645 116.331 99.7212C116.613 99.3927 116.894 98.9704 116.988 98.548C117.27 97.3278 117.974 96.7646 119.194 96.8585C120.227 96.9054 121.306 96.8585 122.339 96.9054C122.996 96.9054 123.465 97.2339 123.747 97.7971C124.076 98.4541 124.357 99.205 124.78 99.7682C126.469 101.974 129.708 101.833 131.257 99.4396C131.351 99.2989 131.445 99.205 131.445 99.0642C131.679 97.4686 132.618 96.7646 134.214 96.7177C134.636 96.7177 135.012 96.3892 135.387 96.1545C136.091 95.7321 136.326 94.4181 135.763 93.7611C135.387 93.3387 134.871 92.9163 134.355 92.7755C133.651 92.5878 132.853 92.5878 132.149 92.5878C125.39 92.5878 118.631 92.5878 111.919 92.5878C110.698 92.5878 109.525 92.5878 108.305 92.4939C107.648 92.447 107.178 92.0246 106.944 91.4615C106.521 90.5229 106.146 89.5373 105.77 88.5518C105.442 87.707 105.864 87.0031 106.709 87.0031C111.074 87.1439 115.439 87.1439 119.757 87.1439ZM115.298 26.6975C118.443 26.4628 122.339 26.9791 126.094 28.0585C139.565 31.766 149.469 39.8849 155.758 52.3684C156.04 52.8847 156.228 53.4478 156.368 54.0579C156.415 54.2926 156.228 54.668 156.04 54.8088C155.289 55.3251 154.491 55.7474 153.74 56.2167C153.317 56.4514 153.177 57.1084 153.458 57.343C155.946 59.5018 158.668 61.3321 161.438 63.1624C161.766 63.3971 162.329 63.0686 162.423 62.5993C163.127 59.3611 163.127 56.076 163.315 52.7908C163.315 52.4154 162.752 52.1807 162.236 52.3215C161.532 52.5092 160.781 52.9785 160.123 52.8847C159.138 52.7439 158.95 51.6645 158.527 50.8667C158.011 49.928 157.542 49.0364 157.026 48.0978C147.122 30.405 126.235 19.8926 104.925 24.3979C88.9196 27.7769 77.42 37.1161 70.2386 51.8522C69.957 52.3684 69.8162 52.9785 69.6284 53.5417C69.4407 54.1049 70.0039 55.0435 70.708 55.325C71.1774 55.5128 72.0222 55.2781 72.3038 54.7619C72.9609 53.5886 73.5711 52.3684 74.1813 51.1952C82.5831 35.4735 98.5418 26.5098 115.298 26.6975ZM112.951 121.028C115.064 120.887 117.129 120.746 119.241 120.605C126.422 120.136 133.041 117.883 139.236 114.317C148.061 109.201 154.632 101.974 158.95 92.7286C159.279 92.0716 159.466 91.3207 159.654 90.6167C159.795 90.1005 159.372 89.3965 158.809 89.1619C158.34 88.9742 157.354 89.115 157.119 89.4435C156.885 89.8189 156.603 90.1944 156.368 90.5698C155.664 91.8839 155.054 93.2918 154.303 94.5589C144.869 111.313 125.061 121.168 104.784 116.522C90.6562 113.284 80.2832 104.977 73.7589 91.9777C73.5712 91.6023 73.3834 91.1799 73.2895 90.7106C73.2426 90.4759 73.3833 90.0536 73.5711 89.9597C74.369 89.5373 75.1669 89.1619 76.0118 88.7864C76.3873 88.5987 76.4812 88.0355 76.1526 87.707C73.8527 85.5952 71.5059 83.4364 69.159 81.3245C68.6427 80.8552 67.8917 81.0429 67.7509 81.653C67.1407 84.2811 66.5305 86.9092 65.9673 89.5373C65.8734 89.9597 65.8734 90.429 65.8734 90.8983C65.8265 91.4145 66.2019 91.8369 66.6244 91.79C67.0468 91.7431 67.5162 91.6492 67.9386 91.5553C69.6284 91.3207 69.8162 91.4146 70.4733 92.6817C70.9427 93.6203 71.412 94.5589 71.9283 95.4506C77.4669 105.353 85.3993 112.533 95.8663 116.992C101.358 119.432 107.037 120.652 112.951 121.028Z" fill="#BD8A2D"/>
<path d="M114.361 211.651C86.9025 211.651 59.4442 211.651 31.9859 211.651C30.4839 211.651 28.9819 211.651 27.4799 211.604C22.3168 211.463 16.7313 206.864 16.2619 200.622C16.1681 199.449 16.168 198.229 16.168 197.008C16.168 182.131 16.168 167.302 16.168 152.425C16.168 151.392 16.1211 150.313 16.2149 149.28C16.7313 144.165 19.5005 140.692 24.1473 138.721C25.6493 138.111 27.2921 137.735 28.9819 137.782C29.8737 137.782 30.7655 137.782 31.7042 137.782C86.9494 137.782 142.148 137.782 197.393 137.782C199.505 137.782 201.57 137.735 203.635 138.298C208.986 139.753 212.6 144.118 212.929 149.656C212.976 150.547 212.976 151.439 212.976 152.378C212.976 167.395 212.976 182.366 212.976 197.384C212.976 198.276 212.976 199.167 212.929 200.106C212.6 205.409 208.986 209.867 203.917 211.228C203.072 211.463 202.133 211.51 201.242 211.557C199.74 211.604 198.238 211.604 196.736 211.604C169.324 211.651 141.819 211.651 114.361 211.651ZM126.33 185.604C126.236 184.478 126.142 183.258 125.954 182.085C125.766 180.771 125.532 179.41 125.25 178.096C125.203 177.814 124.969 177.532 124.734 177.392C123.654 176.735 121.824 177.392 121.401 178.565C120.885 179.973 120.463 181.428 119.946 182.835C119.852 183.07 119.571 183.352 119.383 183.352C119.148 183.305 118.773 183.07 118.679 182.882C118.116 181.334 117.552 179.785 117.036 178.236C116.801 177.579 116.238 177.345 115.628 177.251C115.206 177.204 114.736 177.251 114.267 177.251C113.704 177.298 113.046 177.861 113 178.33C112.671 180.864 112.296 183.399 112.014 185.933C111.873 187.294 111.826 188.608 111.779 189.969C111.779 190.25 112.389 190.72 112.765 190.72C113.751 190.814 114.314 190.438 114.455 189.687C114.548 189.265 114.595 188.796 114.642 188.373C114.877 186.871 115.112 185.417 115.393 183.915C115.44 183.539 115.675 183.399 115.91 183.493C116.05 183.586 116.191 183.633 116.238 183.774C116.989 185.886 117.693 187.998 118.491 190.11C118.585 190.297 118.961 190.532 119.195 190.532C119.43 190.532 119.805 190.438 119.946 190.25C120.228 189.922 120.416 189.5 120.556 189.077C121.026 187.669 121.448 186.214 121.918 184.807C122.011 184.525 122.246 184.337 122.481 184.15C122.575 184.103 122.809 184.103 122.903 184.15C123.091 184.337 123.326 184.525 123.373 184.76C123.701 186.543 123.513 188.373 124.171 190.063C124.358 190.485 124.969 190.814 125.673 190.767C126.33 190.72 126.893 190.204 126.846 189.687C126.705 188.373 126.518 187.012 126.33 185.604ZM112.812 161.435C113 157.915 110.465 155.428 108.353 154.724C105.161 153.692 102.016 154.818 100.326 157.118C99.2938 158.526 99.0592 160.121 99.153 161.811C99.2469 164.626 100.561 166.738 103.143 167.771C105.818 168.85 108.447 168.569 110.653 166.504C112.155 165.096 112.953 163.406 112.812 161.435ZM127.175 161.388H127.128C127.128 159.464 127.128 157.493 127.128 155.569C127.128 155.1 126.377 154.63 125.766 154.724C125.062 154.771 124.593 155.193 124.546 155.757C124.499 156.93 124.499 158.15 124.452 159.37C124.452 159.98 124.405 160.544 124.358 161.154C124.358 161.247 124.217 161.388 124.124 161.435C123.842 161.67 123.56 161.67 123.326 161.388C122.152 159.84 120.979 158.291 119.805 156.742C119.336 156.132 118.914 155.522 118.35 155.053C117.74 154.489 116.989 154.583 116.238 154.771C115.628 154.912 115.393 155.24 115.393 156.179C115.393 159.605 115.393 163.078 115.393 166.504C115.393 166.785 115.44 167.114 115.534 167.395C115.722 167.771 116.004 168.099 116.52 168.146C117.177 168.193 118.022 167.865 118.022 167.489C118.116 166.738 118.163 165.987 118.21 165.237C118.257 163.876 118.303 162.562 118.35 161.201C118.35 161.107 118.538 161.013 118.632 160.966C118.773 160.919 118.961 160.872 119.054 160.919C119.383 161.201 119.712 161.529 119.993 161.905C121.12 163.5 122.246 165.096 123.42 166.644C123.748 167.114 124.218 167.536 124.64 167.912C125.015 168.24 126.471 168.334 126.752 167.959C127.034 167.63 127.222 167.208 127.269 166.785C127.222 165.002 127.175 163.172 127.175 161.388ZM184.016 184.243C184.016 182.601 184.063 180.958 184.016 179.316C184.016 178.893 183.922 178.424 183.875 178.002C183.828 177.579 183.124 177.251 182.42 177.298C181.903 177.298 181.481 177.626 181.387 178.002C181.246 178.893 181.246 179.785 181.199 180.677C181.152 181.85 181.105 183.07 181.059 184.243C181.059 184.29 180.824 184.431 180.73 184.384C180.448 184.29 180.167 184.196 179.979 184.009C178.43 181.991 176.975 179.926 175.426 177.908C174.91 177.251 174.206 177.157 173.408 177.204C172.798 177.251 172.14 177.72 172.14 178.236C172.14 182.132 172.141 185.98 172.187 189.875C172.187 190.016 172.328 190.11 172.422 190.25C172.516 190.391 172.61 190.579 172.704 190.579C173.126 190.626 173.642 190.767 174.018 190.626C174.347 190.485 174.816 190.063 174.816 189.734C174.91 188.092 174.91 186.449 174.957 184.807C174.957 184.384 175.098 183.962 175.191 183.539C175.191 183.492 175.52 183.399 175.614 183.446C176.036 183.821 176.506 184.196 176.834 184.666C178.195 186.449 179.463 188.279 180.824 190.063C181.434 190.861 182.373 190.861 183.265 190.579C184.016 190.344 183.969 189.687 183.969 189.124C184.062 187.529 184.016 185.886 184.016 184.243ZM169.606 183.821C169.606 183.868 169.606 183.586 169.606 183.305C169.277 177.908 163.41 175.655 159.28 177.955C156.839 179.316 155.853 181.521 155.9 184.337C155.947 187.153 157.214 189.312 159.749 190.391C162.19 191.424 164.724 191.33 166.977 189.64C168.808 188.279 169.653 186.402 169.606 183.821ZM73.7601 184.15C73.7131 184.15 73.713 184.15 73.6661 184.15C73.713 186.074 73.76 188.045 73.9008 189.969C73.9008 190.204 74.1824 190.485 74.4171 190.626C75.1212 191.095 76.4824 190.485 76.5293 189.687C76.5762 188.796 76.5762 187.904 76.6232 187.012C76.717 185.886 76.2946 184.666 76.9517 183.586C77.2333 183.117 77.6089 183.493 79.6272 186.308C80.519 187.529 81.3638 188.749 82.2556 189.922C82.4434 190.157 82.6781 190.391 82.9128 190.485C83.6169 190.861 84.3209 190.861 85.0719 190.579C85.5412 190.391 85.6351 189.922 85.6821 189.5C85.6821 185.745 85.682 182.038 85.6351 178.283C85.6351 177.767 85.025 177.251 84.4148 177.251C83.8046 177.204 83.1005 177.673 83.0535 178.142C83.0066 178.753 82.9598 179.316 82.9128 179.926C82.8659 181.287 82.8658 182.601 82.8658 183.962C82.8658 184.384 82.725 184.572 82.3495 184.525C82.2087 184.525 82.021 184.478 81.9741 184.384C81.0823 183.211 80.1904 182.038 79.2517 180.864C78.4538 179.785 77.6558 178.706 76.764 177.72C76.2007 177.11 75.4028 177.204 74.6518 177.392C74.0886 177.532 73.8069 177.861 73.8069 178.799C73.76 180.536 73.7601 182.319 73.7601 184.15ZM71.3192 184.103C71.3662 181.428 70.2867 179.456 68.1276 178.002C66.8133 177.11 65.3113 177.063 63.8093 177.11C61.6971 177.157 60.1482 178.142 58.8809 179.738C57.1911 181.897 57.2381 186.355 59.0687 188.561C61.1808 191.048 65.2174 191.752 68.0336 190.016C70.2397 188.655 71.3192 186.637 71.3192 184.103ZM145.762 161.107C145.715 161.107 145.668 161.107 145.668 161.107C145.668 161.998 145.668 162.89 145.668 163.782C145.715 164.814 145.762 165.847 145.809 166.926C145.856 167.442 146.466 168.146 146.935 168.146C148.296 168.193 149.611 168.193 150.972 168.193C151.911 168.193 152.708 167.818 153.506 167.395C154.492 166.832 155.055 165.987 155.196 164.908C155.337 163.688 155.149 162.515 154.21 161.623C153.413 160.872 153.366 160.168 153.835 159.229C154.023 158.854 154.07 158.385 154.117 157.915C154.164 156.461 152.896 154.865 151.488 154.724C149.986 154.63 148.531 154.63 147.029 154.63C146.513 154.63 145.809 155.287 145.809 155.757C145.715 157.54 145.762 159.323 145.762 161.107ZM59.3502 154.583C58.3176 154.583 57.8483 154.583 57.4259 154.583C57.2851 154.583 57.1442 154.583 56.9565 154.63C55.83 154.677 55.2198 155.193 55.2198 156.226C55.2198 159.793 55.2198 163.406 55.2198 166.973C55.2198 167.114 55.3137 167.255 55.3137 167.395C55.4076 167.912 55.8769 168.099 56.2993 168.146C57.6605 168.287 57.9891 167.959 58.2238 166.832C58.3646 166.128 58.4115 165.377 58.5523 164.626C58.5523 164.486 58.6932 164.345 58.834 164.298C58.9279 164.251 59.1625 164.298 59.2564 164.392C60.1012 165.424 60.8992 166.504 61.7441 167.536C62.1196 168.005 62.7297 168.24 63.3399 168.193C63.7623 168.146 64.2787 168.146 64.6073 167.865C64.9358 167.583 64.748 167.067 64.5133 166.691C64.0439 165.941 63.5746 165.143 63.0583 164.439C62.3073 163.359 61.9788 162.421 63.1992 161.294C64.2318 160.309 64.3257 158.901 64.1379 157.54C63.9502 156.273 62.7767 155.006 61.5094 154.771C60.5706 154.63 59.6318 154.583 59.3502 154.583ZM109.245 182.742C109.291 182.742 109.291 182.742 109.338 182.742C109.338 181.521 109.385 180.348 109.338 179.128C109.338 178.706 109.198 178.236 109.057 177.861C108.869 177.345 108.4 177.298 107.977 177.298C107.555 177.298 107.039 177.298 106.851 177.814C106.71 178.236 106.569 178.659 106.522 179.081C106.475 181.005 106.522 182.976 106.475 184.9C106.475 185.464 106.335 186.074 106.147 186.637C105.959 187.341 104.832 187.998 103.988 187.951C103.096 187.904 102.11 187.247 102.016 186.449C101.875 185.557 101.782 184.666 101.782 183.774C101.735 181.991 101.735 180.16 101.688 178.377C101.688 177.673 100.89 177.157 100.045 177.204C99.3878 177.251 98.7776 177.72 98.7306 178.236C98.7306 178.377 98.6837 178.518 98.6837 178.706C98.6837 181.099 98.5898 183.492 98.6837 185.886C98.8245 188.983 100.843 190.861 103.847 190.908C104.316 190.908 104.739 190.907 105.208 190.861C107.414 190.673 109.104 189.03 109.292 186.778C109.338 185.417 109.245 184.056 109.245 182.742ZM71.5539 168.24C71.5539 168.193 71.5539 168.146 71.5539 168.146C72.4457 168.146 73.3376 168.146 74.2294 168.146C74.8396 168.146 75.309 167.677 75.4029 167.02C75.5437 166.222 75.0273 165.659 74.1355 165.518C73.2436 165.377 72.3519 165.33 71.507 165.143C71.2724 165.096 71.0846 164.767 70.9907 164.486C70.7091 163.688 71.1315 162.937 71.9294 162.843C72.8212 162.749 73.713 162.655 74.6048 162.562C75.0742 162.515 75.4498 161.764 75.4029 161.107C75.3559 160.544 75.0273 160.262 74.6048 160.168C73.6191 159.933 72.5396 159.84 71.5539 159.605C71.0376 159.511 70.9908 158.948 70.9438 158.526C70.8969 158.056 71.1785 157.587 71.6009 157.493C72.6335 157.305 73.6662 157.211 74.6988 157.071C75.1212 157.024 75.4497 156.132 75.3559 155.569C75.3089 155.006 74.8865 154.724 74.4641 154.724C72.6805 154.63 70.8499 154.63 69.0663 154.63C68.2684 154.63 67.7051 155.24 67.7051 156.085C67.7051 159.699 67.7051 163.265 67.7051 166.879C67.7051 167.489 68.2683 168.052 68.7847 168.099C69.7703 168.146 70.6621 168.193 71.5539 168.24ZM171.296 154.583C169.653 154.583 168.902 154.583 168.151 154.583C166.743 154.63 166.179 155.147 166.132 156.414C166.086 158.666 166.086 160.919 166.086 163.172C166.086 168.897 165.757 168.146 171.202 168.193C171.812 168.193 172.422 168.146 172.985 168.052C173.267 168.005 173.502 167.771 173.689 167.536C174.065 167.067 173.689 165.706 173.126 165.612C172.845 165.565 172.516 165.518 172.234 165.471C171.155 165.283 169.653 165.941 169.324 164.157C169.136 163.219 169.794 162.89 171.953 162.655C172.234 162.608 172.563 162.608 172.845 162.562C173.361 162.468 173.783 161.858 173.783 161.201C173.783 160.684 173.502 160.262 173.079 160.168C172.187 159.98 171.296 160.027 170.404 159.84C170.028 159.746 169.653 159.417 169.418 159.089C168.996 158.385 169.465 157.493 170.216 157.399C171.108 157.305 172 157.258 172.891 157.118C173.361 157.071 173.736 156.32 173.689 155.71C173.642 155.193 173.314 154.818 172.938 154.724C172.234 154.583 171.342 154.583 171.296 154.583ZM85.8698 163.876C85.8698 162.608 85.3535 161.576 84.2739 160.872C83.5229 160.403 82.7251 160.027 81.9741 159.511C81.4578 159.183 81.0353 158.807 81.0822 158.103C81.1291 157.493 81.4107 157.258 82.8188 157.305C83.6168 157.352 84.2739 157.211 84.8372 156.601C85.2127 156.179 85.2127 155.24 84.7903 155.053C83.2883 154.302 81.7394 153.926 80.0966 154.63C78.7354 155.193 77.9374 156.132 77.7027 157.587C77.468 159.229 77.9844 160.544 79.3925 161.435C80.1435 161.905 80.9884 162.233 81.7394 162.702C82.5373 163.172 82.772 163.923 82.3965 164.533C82.021 165.143 81.5985 165.33 80.8945 165.143C80.4721 165.049 80.0496 164.814 79.6272 164.72C78.8293 164.533 77.7497 165.19 77.515 165.941C77.4212 166.363 77.8435 167.02 78.3598 167.395C79.5332 168.24 80.8006 168.428 82.2088 168.24C84.3209 167.912 85.9167 166.081 85.8698 163.876ZM52.4505 190.861C52.5913 190.861 53.624 190.767 54.6096 190.485C55.2198 190.344 55.5484 189.781 55.6892 189.171C55.9708 188.045 55.3606 187.294 54.3749 187.482C53.4831 187.669 52.6382 187.951 51.7464 187.998C50.2444 188.092 48.8832 186.871 48.4608 185.464C48.1792 184.431 48.1792 183.399 48.5078 182.366C48.9772 180.771 50.2444 179.832 51.8872 179.973C52.9199 180.067 53.9056 180.395 54.9382 180.536C55.1259 180.583 55.5483 180.301 55.5952 180.067C56.0646 178.706 55.4075 177.485 54.1871 177.298C53.2953 177.157 52.4035 177.016 51.5117 177.016C49.2587 177.016 47.522 178.095 46.2078 179.926C45.1282 181.474 44.9405 183.258 45.0814 185.088C45.363 187.763 47.9445 191.095 52.4505 190.861ZM133.323 168.287C135.06 168.287 136.233 167.677 137.266 166.316C138.486 164.72 138.205 162.233 136.609 161.06C135.764 160.45 134.778 160.027 133.934 159.464C133.558 159.229 133.323 158.854 133.042 158.526C132.807 158.244 133.089 157.54 133.417 157.399C134.168 157.024 134.872 157.399 135.623 157.352C136.327 157.352 137.078 156.601 137.125 155.944C137.172 155.428 136.75 154.912 136.046 154.677C135.623 154.536 135.201 154.396 134.731 154.302C133.323 154.02 132.056 154.443 130.977 155.334C129.803 156.273 129.662 157.634 129.803 159.042C129.897 159.98 130.319 160.778 131.117 161.294C131.728 161.67 132.479 161.951 133.136 162.327C133.511 162.562 133.981 162.796 134.168 163.125C134.403 163.453 134.497 163.969 134.403 164.392C134.309 164.814 133.934 165.19 133.417 165.143C132.854 165.096 132.291 164.861 131.681 164.767C130.836 164.626 129.615 165.283 129.615 165.987C129.568 166.598 129.944 167.067 130.507 167.442C131.352 168.052 132.338 168.334 133.323 168.287ZM92.0186 190.908C92.1594 190.908 92.6288 190.907 93.0512 190.814C94.7879 190.391 95.9613 189.312 96.4306 187.575C96.9 185.98 96.1491 184.384 94.6001 183.399C94.0838 183.07 93.5206 182.882 93.0512 182.554C92.5349 182.225 92.0655 181.897 91.6431 181.521C91.4553 181.334 91.4084 180.958 91.4554 180.724C91.5023 180.489 91.737 180.114 91.9247 180.114C92.488 180.02 93.0982 180.067 93.6614 180.02C94.0838 179.973 94.5533 179.926 94.8818 179.691C95.2104 179.456 95.5389 178.987 95.5389 178.659C95.5389 178.283 95.2104 177.767 94.8818 177.626C93.6614 177.016 92.3472 176.875 90.986 177.251C89.5309 177.626 88.4513 178.799 88.2166 180.395C87.9819 181.991 88.5922 183.492 89.9064 184.243C90.4227 184.525 90.9859 184.713 91.5022 184.994C91.8777 185.182 92.2533 185.464 92.6288 185.698C93.0512 185.98 93.239 186.778 92.9573 187.294C92.6757 187.857 92.0655 188.139 91.5022 187.951C91.0798 187.81 90.7044 187.622 90.2819 187.482C89.484 187.247 88.9208 187.482 88.4044 188.186C88.029 188.702 88.0759 189.406 88.4983 189.781C89.3901 190.532 90.4697 190.954 92.0186 190.908ZM129.193 183.727C129.146 185.37 129.146 187.012 129.146 188.655C129.146 189.077 129.24 189.547 129.334 189.969C129.428 190.485 129.897 190.673 130.319 190.72C131.446 190.907 132.15 190.391 132.244 189.406C132.338 188.373 132.385 187.341 132.525 186.308C132.572 186.074 132.807 185.698 133.042 185.651C133.605 185.464 134.215 185.464 134.778 185.276C137.172 184.572 138.158 183.07 138.017 180.583C137.923 178.893 136.609 177.392 134.919 177.251C133.605 177.157 132.244 177.157 130.883 177.157C129.756 177.157 129.193 177.72 129.146 178.753C129.146 180.442 129.193 182.085 129.193 183.727ZM88.3575 161.201C88.3105 161.201 88.3106 161.201 88.2636 161.201C88.2636 162.843 88.2636 164.486 88.2636 166.128C88.2636 166.551 88.3105 167.02 88.4513 167.442C88.5921 167.865 88.9677 168.099 89.437 168.146C90.2819 168.193 90.9859 167.771 91.0329 167.02C91.1267 165.987 91.1268 164.955 91.2207 163.923C91.2676 163.5 91.5023 163.125 92.0186 163.031C92.7696 162.89 93.4737 162.796 94.1777 162.562C95.6797 161.998 96.6185 160.872 96.994 159.323C97.5103 157.258 95.9143 154.912 93.8491 154.724C92.394 154.63 90.8921 154.677 89.3901 154.724C88.8268 154.724 88.3106 155.287 88.3106 155.897C88.3575 157.634 88.3575 159.417 88.3575 161.201ZM157.121 161.06H157.074C157.074 161.811 157.074 162.562 157.074 163.265C157.074 168.85 156.792 168.193 162.19 168.193C162.471 168.193 162.8 168.193 163.082 168.099C163.504 167.959 163.926 167.865 164.02 167.302C164.208 166.316 163.973 165.565 163.41 165.377C163.129 165.283 162.847 165.19 162.565 165.143C160.641 164.908 160.312 164.58 160.265 162.608C160.265 160.825 160.265 159.042 160.265 157.258C160.265 156.648 160.265 156.085 160.125 155.475C160.078 155.24 159.843 154.912 159.608 154.771C159.092 154.443 158.482 154.396 157.918 154.677C157.543 154.865 157.168 155.147 157.168 155.663C157.121 157.493 157.121 159.276 157.121 161.06ZM144.166 177.204C144.166 177.157 144.166 177.157 144.166 177.11C142.992 177.157 141.772 177.157 140.599 177.298C140.223 177.345 139.848 177.72 139.801 178.236C139.707 179.222 139.895 179.785 140.786 179.926C142.054 180.113 142.664 180.63 142.664 181.897C142.664 184.009 142.664 186.074 142.664 188.186C142.664 188.796 142.758 189.359 142.852 189.969C142.946 190.485 143.415 190.673 143.837 190.72C144.964 190.907 145.715 190.391 145.715 189.406C145.762 187.294 145.762 185.229 145.809 183.117C145.809 182.366 145.856 181.615 145.996 180.864C146.043 180.63 146.278 180.348 146.513 180.207C146.747 180.067 147.076 180.067 147.358 179.973C148.578 179.55 148.86 179.175 148.625 178.096C148.531 177.532 148.062 177.204 147.264 177.204C146.278 177.204 145.199 177.204 144.166 177.204ZM139.988 161.107H139.942C139.942 161.858 139.942 162.608 139.942 163.312C139.989 164.626 139.988 165.987 140.129 167.302C140.176 167.583 140.693 167.959 141.068 168.099C142.101 168.381 142.992 167.818 142.992 166.926C143.039 163.219 143.039 159.511 143.039 155.804C143.039 155.053 142.382 154.536 141.537 154.536C140.693 154.536 139.988 155.053 139.988 155.757C139.988 157.54 139.988 159.323 139.988 161.107ZM153.413 184.15H153.459C153.459 182.648 153.459 181.146 153.459 179.691C153.459 179.222 153.412 178.799 153.366 178.33C153.319 177.767 152.802 177.345 152.145 177.298C151.3 177.251 150.643 177.767 150.643 178.518C150.596 182.085 150.596 185.698 150.596 189.265C150.596 189.547 150.69 189.875 150.831 190.11C150.972 190.344 151.207 190.579 151.441 190.626C152.427 191.001 153.366 190.438 153.366 189.5C153.459 187.716 153.413 185.933 153.413 184.15Z" fill="#FEFEFE"/>
<path d="M119.757 87.1439C115.391 87.1439 111.073 87.1439 106.708 87.1439C105.863 87.1439 105.441 87.8479 105.769 88.6926C106.145 89.6782 106.52 90.6637 106.943 91.6023C107.177 92.1654 107.694 92.5878 108.304 92.6348C109.477 92.6817 110.698 92.7286 111.918 92.7286C118.677 92.7286 125.436 92.7286 132.148 92.7286C132.899 92.7286 133.65 92.6817 134.354 92.9164C134.87 93.0571 135.387 93.4795 135.762 93.9019C136.325 94.5589 136.091 95.873 135.387 96.2953C135.011 96.53 134.589 96.8585 134.213 96.8585C132.617 96.9054 131.679 97.6094 131.444 99.205C131.444 99.3458 131.303 99.4866 131.256 99.5805C129.707 101.927 126.469 102.115 124.779 99.909C124.356 99.2989 124.075 98.5949 123.746 97.9379C123.465 97.3747 122.948 97.0462 122.338 97.0462C121.305 97.0462 120.226 97.0462 119.193 96.9993C117.973 96.9524 117.222 97.4686 116.987 98.6888C116.893 99.1112 116.612 99.4866 116.33 99.8621C114.781 101.786 112.106 102.256 110.134 99.9559C109.665 99.3928 109.383 98.6419 109.102 97.9848C108.867 97.3278 108.351 97.0932 107.741 97.0462C106.99 96.9524 106.239 97.0462 105.488 96.9054C105.112 96.8116 104.643 96.53 104.408 96.2015C104.032 95.5914 103.751 94.8874 103.469 94.1835C99.0571 83.2017 94.692 72.22 90.2799 61.1914C89.9514 60.3466 89.6228 59.5019 89.2942 58.7041C88.1208 55.9352 88.1208 55.9352 84.976 55.8882C83.474 55.8882 81.972 55.8413 80.47 55.7944C79.5782 55.7474 78.7803 54.9496 78.6865 54.1049C78.5926 53.1194 79.4844 52.1338 80.6578 52.0869C82.4414 52.04 84.272 51.993 86.0556 52.0399C91.7819 52.0869 90.6554 51.3829 92.8145 56.5453C95.0675 61.9423 93.894 61.1445 99.4796 61.1445C112.528 61.1914 125.577 61.1445 138.625 61.1445C139.846 61.1445 141.019 61.1444 142.239 61.1914C143.319 61.2383 144.258 61.8015 145.056 62.4585C145.901 63.1625 146.229 64.3357 145.807 65.3212C145.619 65.7436 145.431 66.166 145.243 66.5415C142.709 71.7977 140.174 77.1008 137.64 82.357C137.123 83.4364 136.513 84.4689 135.809 85.4544C134.964 86.5807 133.791 87.2378 132.336 87.2378C128.158 87.2378 123.934 87.2378 119.757 87.2378C119.757 87.097 119.757 87.097 119.757 87.1439Z" fill="#FEFEFE"/>
<path d="M115.3 26.698C98.4965 26.5102 82.5378 35.5209 74.3238 51.1487C73.7136 52.322 73.1034 53.5422 72.4463 54.7154C72.1647 55.1847 71.3666 55.4663 70.8503 55.2786C70.1463 54.997 69.5831 54.0584 69.7709 53.4952C69.9586 52.9321 70.1463 52.3689 70.381 51.8057C77.5154 37.0696 89.0621 27.7304 105.068 24.3514C126.377 19.8461 147.217 30.4055 157.168 48.0513C157.684 48.9899 158.201 49.8816 158.67 50.8202C159.092 51.5711 159.28 52.6974 160.266 52.8382C160.923 52.9321 161.674 52.4628 162.378 52.275C162.894 52.1342 163.458 52.3689 163.458 52.7443C163.27 56.0295 163.27 59.3146 162.566 62.5528C162.472 63.0221 161.909 63.3037 161.58 63.116C158.811 61.3326 156.088 59.5023 153.601 57.2966C153.319 57.0619 153.46 56.4518 153.882 56.1703C154.633 55.701 155.431 55.2786 156.182 54.7623C156.37 54.6216 156.558 54.2461 156.511 54.0115C156.37 53.4483 156.135 52.8852 155.901 52.322C149.611 39.8385 139.707 31.7195 126.236 28.012C122.34 26.9795 118.492 26.4633 115.3 26.698Z" fill="#FEFEFE"/>
<path d="M112.949 121.028C107.035 120.605 101.356 119.432 95.911 117.085C85.444 112.627 77.5116 105.447 71.973 95.5444C71.4567 94.6058 70.9873 93.6671 70.5179 92.7755C69.8608 91.5083 69.6731 91.4145 67.9833 91.6492C67.5609 91.6961 67.0915 91.7899 66.6691 91.8838C66.2466 91.9307 65.8711 91.5084 65.918 90.9921C65.965 90.5228 65.9181 90.1005 66.012 89.6312C66.5753 87.003 67.1853 84.3749 67.7955 81.7468C67.9363 81.1367 68.6873 80.996 69.2036 81.4183C71.5505 83.5302 73.8505 85.6421 76.1974 87.8009C76.5259 88.1294 76.479 88.6925 76.0565 88.8802C75.2586 89.2557 74.4138 89.5842 73.6158 90.0535C73.4281 90.1474 73.2872 90.5698 73.3341 90.8044C73.428 91.2268 73.6158 91.6491 73.8035 92.0715C80.3747 105.071 90.701 113.378 104.829 116.616C125.106 121.262 144.913 111.407 154.348 94.6527C155.099 93.3386 155.709 91.9776 156.413 90.6636C156.601 90.2882 156.882 89.9127 157.164 89.5373C157.399 89.2088 158.384 89.068 158.854 89.2557C159.37 89.4903 159.839 90.1943 159.699 90.7105C159.511 91.4145 159.323 92.1654 158.995 92.8224C154.676 102.068 148.105 109.295 139.281 114.41C133.085 117.977 126.467 120.23 119.286 120.699C117.127 120.793 115.014 120.934 112.949 121.028Z" fill="#FEFEFE"/>
<path d="M126.332 185.604C126.52 187.012 126.707 188.326 126.848 189.687C126.895 190.203 126.332 190.72 125.675 190.767C124.971 190.813 124.313 190.485 124.173 190.063C123.516 188.326 123.75 186.496 123.375 184.759C123.328 184.525 123.093 184.337 122.905 184.149C122.811 184.055 122.577 184.055 122.483 184.149C122.248 184.337 122.013 184.572 121.92 184.806C121.45 186.214 121.028 187.669 120.558 189.077C120.418 189.499 120.23 189.922 119.948 190.25C119.807 190.438 119.432 190.579 119.197 190.532C118.963 190.532 118.587 190.297 118.493 190.11C117.695 187.998 116.991 185.886 116.24 183.774C116.193 183.633 116.052 183.586 115.912 183.492C115.677 183.352 115.442 183.492 115.395 183.915C115.114 185.37 114.879 186.871 114.644 188.373C114.55 188.795 114.504 189.265 114.457 189.687C114.316 190.485 113.753 190.813 112.767 190.72C112.391 190.673 111.781 190.203 111.781 189.969C111.828 188.608 111.875 187.247 112.016 185.933C112.298 183.398 112.673 180.864 113.002 178.33C113.048 177.814 113.706 177.251 114.269 177.251C114.738 177.204 115.161 177.204 115.63 177.251C116.24 177.344 116.804 177.579 117.038 178.236C117.601 179.785 118.118 181.334 118.681 182.882C118.775 183.117 119.103 183.352 119.385 183.352C119.573 183.352 119.854 183.07 119.948 182.835C120.465 181.427 120.887 179.973 121.403 178.565C121.826 177.391 123.703 176.734 124.736 177.391C124.971 177.532 125.205 177.814 125.252 178.095C125.534 179.409 125.769 180.723 125.956 182.084C126.144 183.305 126.238 184.478 126.332 185.604Z" fill="#BD8A2D"/>
<path d="M112.814 161.434C112.955 163.405 112.157 165.095 110.655 166.503C108.449 168.568 105.82 168.849 103.145 167.77C100.563 166.738 99.2019 164.673 99.155 161.81C99.108 160.12 99.2958 158.525 100.328 157.117C102.018 154.817 105.163 153.644 108.355 154.723C110.467 155.427 112.955 157.915 112.814 161.434ZM105.867 157.211C104.928 157.258 104.083 157.445 103.426 158.149C101.783 159.933 101.737 162.467 103.285 164.297C104.694 165.987 107.51 165.94 108.777 164.109C109.293 163.405 109.622 162.514 109.763 161.669C110.044 159.182 108.261 157.211 105.867 157.211Z" fill="#BD8A2D"/>
<path d="M127.172 161.388C127.172 163.171 127.219 165.001 127.172 166.785C127.172 167.16 126.937 167.629 126.656 167.958C126.327 168.333 124.872 168.286 124.543 167.911C124.121 167.488 123.652 167.113 123.323 166.644C122.15 165.095 121.07 163.452 119.897 161.904C119.615 161.528 119.286 161.247 118.958 160.918C118.864 160.871 118.676 160.918 118.535 160.965C118.442 161.012 118.254 161.106 118.254 161.2C118.207 162.561 118.16 163.875 118.113 165.236C118.066 165.987 118.019 166.738 117.925 167.488C117.878 167.864 117.034 168.192 116.423 168.146C115.907 168.099 115.625 167.77 115.438 167.395C115.297 167.16 115.297 166.831 115.297 166.503C115.297 163.077 115.297 159.604 115.297 156.178C115.297 155.24 115.531 154.911 116.142 154.77C116.893 154.583 117.644 154.489 118.254 155.052C118.817 155.568 119.24 156.178 119.709 156.741C120.882 158.29 122.056 159.839 123.229 161.388C123.464 161.669 123.746 161.669 124.027 161.434C124.121 161.341 124.262 161.247 124.262 161.153C124.309 160.543 124.356 159.98 124.356 159.37C124.403 158.196 124.403 156.976 124.45 155.756C124.497 155.193 124.966 154.77 125.67 154.723C126.28 154.676 127.031 155.099 127.031 155.568C127.031 157.492 127.031 159.463 127.031 161.388C127.125 161.388 127.172 161.388 127.172 161.388Z" fill="#BD8A2D"/>
<path d="M184.016 184.243C184.016 185.886 184.063 187.528 184.016 189.171C184.016 189.734 184.016 190.391 183.312 190.626C182.42 190.907 181.481 190.907 180.871 190.109C179.51 188.326 178.242 186.496 176.881 184.712C176.553 184.243 176.083 183.868 175.661 183.492C175.614 183.445 175.285 183.539 175.238 183.586C175.145 184.008 175.004 184.431 175.004 184.853C174.957 186.496 174.957 188.138 174.863 189.781C174.863 190.109 174.394 190.532 174.065 190.673C173.689 190.813 173.173 190.72 172.751 190.626C172.657 190.626 172.563 190.391 172.469 190.297C172.375 190.156 172.234 190.063 172.234 189.922C172.234 186.026 172.188 182.178 172.188 178.283C172.188 177.767 172.845 177.297 173.455 177.251C174.253 177.204 175.004 177.297 175.473 177.954C177.022 179.972 178.477 182.037 180.026 184.055C180.167 184.243 180.495 184.337 180.777 184.431C180.871 184.478 181.106 184.337 181.106 184.29C181.153 183.117 181.199 181.897 181.246 180.723C181.293 179.832 181.246 178.94 181.434 178.048C181.481 177.673 181.95 177.344 182.467 177.344C183.171 177.297 183.875 177.626 183.922 178.048C183.969 178.471 184.063 178.94 184.063 179.362C184.063 180.958 184.016 182.601 184.016 184.243Z" fill="#BD8A2D"/>
<path d="M169.606 183.82C169.7 186.448 168.808 188.279 167.024 189.64C164.771 191.282 162.236 191.423 159.796 190.391C157.261 189.311 155.994 187.152 155.947 184.337C155.9 181.568 156.886 179.362 159.326 177.954C163.457 175.654 169.324 177.907 169.653 183.304C169.606 183.539 169.606 183.867 169.606 183.82ZM162.753 179.878C162.049 179.878 161.157 179.972 160.453 180.629C158.482 182.506 158.528 185.604 160.547 187.387C161.861 188.513 164.349 188.373 165.428 187.012C166.649 185.463 166.977 183.82 166.132 181.99C165.475 180.676 164.443 179.925 162.753 179.878Z" fill="#BD8A2D"/>
<path d="M73.758 184.149C73.758 182.365 73.758 180.582 73.758 178.752C73.758 177.86 74.0396 177.485 74.6028 177.344C75.3538 177.156 76.1517 177.062 76.715 177.672C77.6068 178.658 78.4047 179.737 79.2027 180.817C80.0945 181.99 80.9863 183.163 81.9251 184.336C82.0189 184.43 82.1598 184.43 82.3006 184.477C82.723 184.524 82.8168 184.336 82.8168 183.914C82.8168 182.553 82.8169 181.239 82.8638 179.878C82.8638 179.268 82.9577 178.705 83.0046 178.095C83.0516 177.625 83.7556 177.203 84.3658 177.203C84.976 177.25 85.5862 177.719 85.5862 178.235C85.5862 181.99 85.6331 185.697 85.6331 189.452C85.6331 189.874 85.5393 190.344 85.023 190.531C84.3189 190.813 83.5679 190.813 82.8638 190.437C82.6291 190.297 82.3945 190.109 82.2067 189.874C81.3149 188.654 80.47 187.434 79.5782 186.261C77.5599 183.492 77.1844 183.069 76.9028 183.539C76.2457 184.618 76.6681 185.838 76.5743 186.965C76.4804 187.856 76.5272 188.748 76.4803 189.64C76.4334 190.437 75.0722 191.047 74.3681 190.578C74.1334 190.437 73.8519 190.156 73.8519 189.921C73.758 187.997 73.7111 186.026 73.6172 184.102C73.7111 184.149 73.7111 184.149 73.758 184.149Z" fill="#BD8A2D"/>
<path d="M71.3145 184.102C71.3145 186.636 70.2819 188.654 68.0289 190.015C65.2126 191.752 61.1761 191.048 59.0639 188.56C57.1864 186.355 57.1394 181.896 58.8761 179.738C60.1434 178.142 61.7393 177.109 63.8045 177.109C65.3065 177.063 66.7617 177.156 68.1228 178.001C70.282 179.456 71.3145 181.427 71.3145 184.102ZM64.6026 188.138C65.729 188.091 66.8085 187.575 67.3248 186.777C68.4513 184.947 68.5452 183.117 67.3718 181.286C67.1371 180.911 66.7616 180.582 66.4331 180.348C64.7433 179.315 62.3026 179.925 61.3169 181.615C60.519 183.023 60.4251 184.431 61.0823 185.932C61.6924 187.434 62.9128 188.185 64.6026 188.138Z" fill="#BD8A2D"/>
<path d="M145.762 161.106C145.762 159.323 145.762 157.54 145.762 155.756C145.762 155.287 146.466 154.63 146.982 154.63C148.484 154.63 149.986 154.63 151.441 154.724C152.849 154.818 154.117 156.413 154.07 157.915C154.07 158.337 154.023 158.854 153.788 159.229C153.319 160.121 153.366 160.872 154.164 161.622C155.102 162.514 155.29 163.687 155.149 164.908C155.009 166.034 154.445 166.879 153.46 167.395C152.662 167.864 151.864 168.193 150.925 168.193C149.564 168.193 148.25 168.193 146.888 168.146C146.419 168.146 145.809 167.489 145.762 166.926C145.715 165.893 145.668 164.861 145.621 163.781C145.621 162.89 145.621 161.998 145.621 161.106C145.668 161.106 145.715 161.106 145.762 161.106ZM148.766 163.734C148.766 164.016 148.813 164.344 148.813 164.626C148.86 165.236 149.329 165.659 149.986 165.659C150.972 165.659 151.864 165.095 152.051 164.298C152.239 163.547 151.629 162.608 150.69 162.28C150.409 162.186 150.127 162.186 149.845 162.139C149.329 162.139 149.048 162.467 148.907 162.843C148.766 163.124 148.813 163.453 148.766 163.734ZM150.925 158.337C151.019 157.68 150.55 157.164 149.611 156.929C149.47 156.883 149.282 156.883 149.188 156.976C148.672 157.352 148.578 158.76 149.095 159.323C149.235 159.464 149.611 159.558 149.845 159.511C150.503 159.37 150.784 158.947 150.925 158.337Z" fill="#BD8A2D"/>
<path d="M59.3506 154.583C59.6791 154.63 60.5709 154.63 61.4627 154.818C62.7301 155.005 63.9035 156.273 64.0913 157.587C64.279 158.994 64.1852 160.402 63.1525 161.341C61.9791 162.467 62.2607 163.406 63.0117 164.485C63.528 165.236 63.9974 165.987 64.4668 166.738C64.7015 167.113 64.9362 167.63 64.5607 167.911C64.279 168.146 63.7158 168.193 63.2934 168.24C62.6832 168.287 62.0729 168.099 61.6974 167.583C60.8526 166.55 60.0547 165.471 59.2099 164.438C59.116 164.345 58.9282 164.298 58.7873 164.345C58.6935 164.391 58.5527 164.579 58.5058 164.673C58.365 165.377 58.318 166.128 58.1771 166.879C57.9425 168.005 57.614 168.334 56.2528 168.193C55.8303 168.146 55.3609 167.958 55.2671 167.442C55.2201 167.301 55.1732 167.16 55.1732 167.02C55.1732 163.453 55.1263 159.839 55.1732 156.273C55.1732 155.24 55.7834 154.724 56.9099 154.677C57.0507 154.677 57.1915 154.63 57.3792 154.63C57.8486 154.583 58.318 154.583 59.3506 154.583ZM59.1629 160.215C60.0547 160.215 60.7587 159.698 60.9934 158.994C61.1342 158.525 60.8527 157.821 60.3833 157.446C59.7731 156.976 59.1159 156.883 58.7873 157.117C58.271 157.493 58.1302 158.056 58.1771 158.666C58.2241 158.948 58.1772 159.323 58.365 159.511C58.5527 159.839 58.9282 160.027 59.1629 160.215Z" fill="#BD8A2D"/>
<path d="M109.243 182.741C109.243 184.102 109.337 185.463 109.243 186.777C109.055 189.03 107.366 190.672 105.16 190.86C104.69 190.907 104.268 190.907 103.799 190.907C100.795 190.86 98.7293 188.983 98.6355 185.885C98.5416 183.492 98.6355 181.098 98.6355 178.705C98.6355 178.564 98.6823 178.423 98.6823 178.236C98.7293 177.766 99.3395 177.25 99.9966 177.203C100.841 177.156 101.592 177.672 101.639 178.376C101.686 180.16 101.686 181.99 101.733 183.773C101.78 184.665 101.827 185.557 101.968 186.448C102.109 187.246 103.047 187.95 103.939 187.95C104.784 187.997 105.911 187.34 106.098 186.636C106.239 186.073 106.38 185.463 106.427 184.9C106.474 182.976 106.427 181.005 106.474 179.08C106.474 178.658 106.615 178.236 106.803 177.813C106.99 177.297 107.507 177.297 107.929 177.297C108.351 177.297 108.868 177.344 109.009 177.86C109.149 178.283 109.243 178.705 109.29 179.127C109.337 180.347 109.29 181.521 109.29 182.741H109.243Z" fill="#BD8A2D"/>
<path d="M71.5493 168.24C70.6575 168.193 69.7657 168.146 68.8739 168.099C68.3576 168.052 67.7943 167.489 67.7943 166.879C67.7943 163.265 67.7474 159.698 67.7943 156.085C67.7943 155.24 68.3576 154.63 69.1555 154.63C70.9392 154.63 72.7697 154.63 74.5533 154.724C74.9758 154.724 75.3512 155.052 75.4451 155.568C75.492 156.132 75.1635 157.023 74.788 157.07C73.7554 157.211 72.7227 157.305 71.6901 157.493C71.2677 157.586 70.9861 158.056 71.033 158.525C71.08 158.947 71.1269 159.511 71.6432 159.604C72.6289 159.839 73.7085 159.933 74.6942 160.168C75.1166 160.262 75.4921 160.543 75.4921 161.106C75.539 161.716 75.1635 162.514 74.6942 162.561C73.8024 162.655 72.9105 162.749 72.0187 162.843C71.2207 162.937 70.7983 163.687 71.0799 164.485C71.1738 164.72 71.3616 165.095 71.5963 165.142C72.4411 165.33 73.333 165.424 74.2248 165.518C75.1166 165.659 75.6329 166.222 75.4921 167.019C75.3982 167.677 74.9288 168.099 74.3186 168.146C73.4268 168.146 72.5351 168.146 71.6432 168.146C71.5494 168.193 71.5493 168.24 71.5493 168.24Z" fill="#BD8A2D"/>
<path d="M171.296 154.583C171.343 154.583 172.234 154.583 173.126 154.771C173.549 154.865 173.877 155.193 173.877 155.756C173.924 156.413 173.549 157.117 173.079 157.164C172.187 157.258 171.296 157.305 170.404 157.446C169.653 157.54 169.183 158.478 169.606 159.135C169.794 159.464 170.216 159.839 170.592 159.886C171.483 160.074 172.375 160.027 173.267 160.215C173.643 160.309 173.924 160.731 173.971 161.247C173.971 161.904 173.596 162.514 173.032 162.608C172.751 162.655 172.422 162.702 172.14 162.702C169.981 162.937 169.324 163.265 169.512 164.204C169.841 165.987 171.343 165.283 172.422 165.518C172.704 165.565 173.032 165.612 173.314 165.659C173.83 165.752 174.253 167.113 173.877 167.583C173.689 167.817 173.455 168.052 173.173 168.099C172.61 168.193 172 168.24 171.39 168.24C165.945 168.193 166.273 168.897 166.273 163.218C166.273 160.966 166.273 158.713 166.32 156.46C166.32 155.193 166.931 154.677 168.339 154.63C168.902 154.536 169.653 154.583 171.296 154.583Z" fill="#BD8A2D"/>
<path d="M85.8669 163.875C85.8669 166.034 84.2711 167.911 82.1589 168.239C80.7978 168.427 79.4835 168.239 78.3101 167.395C77.8407 167.066 77.3713 166.362 77.4652 165.94C77.653 165.142 78.7325 164.485 79.5774 164.72C79.9998 164.814 80.4222 165.048 80.8447 165.142C81.5487 165.33 81.9711 165.142 82.3466 164.532C82.7221 163.922 82.4875 163.124 81.6896 162.702C80.9386 162.279 80.0937 161.904 79.3427 161.435C77.9346 160.543 77.4182 159.229 77.6529 157.586C77.8407 156.131 78.6856 155.193 80.0468 154.63C81.6896 153.926 83.2385 154.301 84.7405 155.052C85.1629 155.287 85.2099 156.178 84.7875 156.601C84.2242 157.211 83.5671 157.305 82.7691 157.305C81.361 157.258 81.0794 157.492 81.0325 158.102C80.9855 158.806 81.4079 159.182 81.9242 159.51C82.6752 159.98 83.4731 160.355 84.2241 160.871C85.3506 161.575 85.8669 162.608 85.8669 163.875Z" fill="#BD8A2D"/>
<path d="M52.4453 190.86C47.9863 191.048 45.3578 187.763 45.1701 185.088C45.0292 183.257 45.1701 181.474 46.2966 179.925C47.5639 178.095 49.3005 177.016 51.6004 177.016C52.4922 177.016 53.3841 177.156 54.2759 177.297C55.5433 177.485 56.1534 178.705 55.6841 180.066C55.5902 180.301 55.2146 180.535 55.0269 180.535C53.9943 180.395 53.0086 180.066 51.976 179.972C50.3331 179.831 49.1128 180.77 48.5965 182.366C48.2679 183.398 48.221 184.431 48.5495 185.463C48.9719 186.918 50.3801 188.091 51.8351 187.997C52.7269 187.95 53.5718 187.669 54.4636 187.481C55.4024 187.293 56.0126 188.044 55.7779 189.171C55.6371 189.781 55.2616 190.344 54.6983 190.485C53.6188 190.766 52.5392 190.86 52.4453 190.86Z" fill="#BD8A2D"/>
<path d="M133.321 168.287C132.336 168.334 131.35 168.052 130.458 167.395C129.942 167.019 129.566 166.55 129.566 165.94C129.613 165.236 130.834 164.532 131.632 164.72C132.195 164.814 132.758 165.048 133.368 165.095C133.885 165.142 134.26 164.767 134.354 164.344C134.448 163.969 134.354 163.453 134.119 163.077C133.885 162.702 133.462 162.467 133.087 162.28C132.43 161.904 131.725 161.669 131.068 161.247C130.27 160.731 129.848 159.933 129.754 158.994C129.613 157.586 129.754 156.272 130.928 155.287C132.007 154.395 133.274 153.973 134.683 154.254C135.105 154.348 135.527 154.489 135.997 154.63C136.701 154.865 137.123 155.381 137.076 155.897C136.982 156.554 136.278 157.305 135.574 157.305C134.823 157.305 134.119 156.976 133.368 157.352C133.04 157.493 132.758 158.197 132.993 158.478C133.274 158.807 133.556 159.182 133.885 159.417C134.776 159.98 135.715 160.402 136.56 161.012C138.156 162.186 138.438 164.673 137.217 166.269C136.232 167.677 135.011 168.287 133.321 168.287Z" fill="#BD8A2D"/>
<path d="M92.0208 190.908C90.4719 190.954 89.3923 190.532 88.4536 189.734C88.0311 189.359 87.9373 188.655 88.3597 188.139C88.923 187.388 89.4393 187.153 90.2372 187.435C90.6596 187.575 91.0352 187.81 91.4576 187.904C92.0678 188.092 92.631 187.763 92.9126 187.247C93.1942 186.731 93.0065 185.933 92.5841 185.651C92.2086 185.417 91.8331 185.135 91.4576 184.947C90.9413 184.666 90.378 184.478 89.8617 184.196C88.5474 183.446 87.9373 181.944 88.172 180.348C88.4067 178.753 89.4862 177.579 90.9413 177.204C92.3024 176.875 93.6167 177.016 94.8371 177.579C95.1656 177.72 95.4942 178.236 95.4942 178.612C95.4942 178.987 95.1656 179.41 94.8371 179.644C94.5085 179.879 94.0391 179.926 93.6167 179.973C93.0534 180.02 92.4433 179.973 91.88 180.067C91.6923 180.114 91.4576 180.442 91.4106 180.677C91.3637 180.911 91.4107 181.334 91.5985 181.474C92.0209 181.897 92.5372 182.225 93.0066 182.507C93.5229 182.835 94.086 183.023 94.5554 183.352C96.1043 184.337 96.8085 185.933 96.386 187.529C95.9167 189.218 94.7432 190.297 93.0066 190.767C92.5841 190.908 92.1617 190.908 92.0208 190.908Z" fill="#BD8A2D"/>
<path d="M129.191 183.726C129.191 182.084 129.191 180.441 129.191 178.799C129.191 177.766 129.802 177.203 130.928 177.203C132.289 177.203 133.604 177.203 134.965 177.297C136.654 177.438 137.969 178.893 138.063 180.629C138.203 183.116 137.171 184.618 134.824 185.322C134.261 185.51 133.651 185.51 133.087 185.698C132.853 185.791 132.618 186.12 132.571 186.355C132.43 187.387 132.383 188.419 132.289 189.452C132.195 190.437 131.491 190.954 130.365 190.766C129.942 190.672 129.473 190.531 129.379 190.015C129.285 189.593 129.191 189.123 129.191 188.701C129.145 187.012 129.145 185.369 129.191 183.726ZM133.04 182.882C133.604 182.929 134.214 182.694 134.636 182.319C135.012 181.896 135.153 181.192 134.871 180.676C134.542 180.066 133.744 179.644 133.04 179.737C132.571 179.784 132.149 180.347 132.149 181.098C132.149 181.521 132.195 181.99 132.383 182.365C132.43 182.6 132.806 182.741 133.04 182.882Z" fill="#BD8A2D"/>
<path d="M88.3555 161.2C88.3555 159.416 88.3555 157.633 88.3555 155.85C88.3555 155.24 88.9187 154.676 89.435 154.676C90.937 154.676 92.3921 154.583 93.8941 154.676C95.9593 154.817 97.5082 157.211 97.0389 159.276C96.6634 160.824 95.7246 161.951 94.2226 162.514C93.5186 162.749 92.7676 162.889 92.0636 162.983C91.5003 163.077 91.3125 163.499 91.2655 163.875C91.1247 164.907 91.1248 165.94 91.0778 166.972C91.0309 167.723 90.3738 168.192 89.482 168.099C88.9657 168.052 88.6371 167.817 88.4963 167.395C88.3555 166.972 88.3086 166.503 88.3086 166.081C88.3086 164.438 88.3086 162.795 88.3086 161.153C88.3086 161.2 88.3085 161.2 88.3555 161.2ZM91.9227 157.117C91.6881 157.305 91.3595 157.445 91.3125 157.633C91.2187 158.196 91.1717 158.806 91.2187 159.37C91.2656 159.886 91.9696 160.261 92.5798 160.12C93.3777 159.933 93.8471 159.323 93.7532 158.525C93.7063 157.68 92.8145 156.929 91.9227 157.117Z" fill="#BD8A2D"/>
<path d="M157.12 161.06C157.12 159.276 157.12 157.493 157.12 155.71C157.12 155.193 157.495 154.912 157.871 154.724C158.434 154.442 159.044 154.489 159.561 154.818C159.795 154.959 160.03 155.24 160.077 155.522C160.171 156.085 160.171 156.695 160.218 157.305C160.218 159.088 160.218 160.872 160.218 162.655C160.218 164.626 160.593 164.955 162.518 165.189C162.799 165.236 163.081 165.33 163.362 165.424C163.926 165.612 164.16 166.363 163.973 167.348C163.879 167.911 163.456 168.005 163.034 168.146C162.752 168.24 162.471 168.24 162.142 168.24C156.744 168.24 157.026 168.897 157.026 163.312C157.026 162.561 157.026 161.81 157.026 161.107C157.073 161.06 157.12 161.06 157.12 161.06Z" fill="#BD8A2D"/>
<path d="M144.164 177.203C145.197 177.203 146.276 177.203 147.309 177.203C148.107 177.203 148.529 177.532 148.67 178.095C148.905 179.174 148.623 179.597 147.403 179.972C147.121 180.066 146.793 180.019 146.558 180.207C146.323 180.348 146.042 180.629 146.042 180.864C145.901 181.615 145.854 182.366 145.854 183.116C145.807 185.228 145.807 187.293 145.76 189.405C145.76 190.391 144.962 190.907 143.883 190.719C143.46 190.625 142.991 190.485 142.897 189.968C142.803 189.405 142.709 188.795 142.709 188.185C142.662 186.073 142.662 184.008 142.709 181.896C142.709 180.582 142.099 180.066 140.832 179.925C139.94 179.784 139.752 179.221 139.846 178.236C139.893 177.719 140.269 177.344 140.644 177.297C141.817 177.156 143.038 177.156 144.211 177.109C144.164 177.156 144.164 177.203 144.164 177.203Z" fill="#BD8A2D"/>
<path d="M139.984 161.106C139.984 159.323 139.984 157.539 139.984 155.756C139.984 155.052 140.641 154.536 141.533 154.536C142.378 154.536 143.035 155.052 143.035 155.803C143.035 159.511 143.035 163.218 142.988 166.926C142.988 167.817 142.049 168.38 141.064 168.099C140.688 168.005 140.172 167.629 140.125 167.301C139.984 165.987 139.938 164.673 139.938 163.312C139.938 162.561 139.938 161.81 139.938 161.106C139.984 161.106 139.984 161.106 139.984 161.106Z" fill="#BD8A2D"/>
<path d="M153.409 184.149C153.409 185.932 153.409 187.715 153.409 189.546C153.409 190.484 152.471 191.047 151.485 190.672C151.251 190.578 150.969 190.343 150.875 190.156C150.734 189.921 150.641 189.593 150.641 189.311C150.641 185.744 150.641 182.131 150.688 178.564C150.688 177.813 151.345 177.297 152.189 177.344C152.846 177.391 153.362 177.813 153.409 178.376C153.456 178.799 153.503 179.268 153.503 179.737C153.503 181.239 153.503 182.741 153.503 184.196C153.456 184.149 153.456 184.149 153.409 184.149Z" fill="#BD8A2D"/>
<path d="M105.864 157.211C108.258 157.164 110.041 159.182 109.713 161.669C109.619 162.514 109.244 163.406 108.727 164.11C107.46 165.94 104.644 165.94 103.236 164.297C101.687 162.467 101.78 159.933 103.376 158.149C104.08 157.445 104.925 157.258 105.864 157.211Z" fill="#FEFEFE"/>
<path d="M162.75 179.879C164.486 179.926 165.472 180.63 166.129 181.991C166.974 183.821 166.692 185.511 165.425 187.012C164.345 188.326 161.858 188.514 160.544 187.388C158.525 185.604 158.478 182.507 160.45 180.63C161.154 179.973 162.045 179.879 162.75 179.879Z" fill="#FEFEFE"/>
<path d="M64.6041 188.138C62.9143 188.185 61.7409 187.434 61.0368 185.932C60.3797 184.477 60.4736 183.023 61.2715 181.615C62.2572 179.925 64.6979 179.315 66.3876 180.348C66.7631 180.582 67.0917 180.911 67.3264 181.286C68.4998 183.116 68.406 184.947 67.2795 186.777C66.7632 187.622 65.7306 188.091 64.6041 188.138Z" fill="#FEFEFE"/>
<path d="M148.766 163.735C148.813 163.453 148.766 163.125 148.906 162.89C149.047 162.468 149.376 162.139 149.845 162.186C150.127 162.186 150.455 162.186 150.69 162.327C151.628 162.655 152.191 163.594 152.05 164.345C151.863 165.096 151.018 165.659 149.986 165.706C149.329 165.706 148.86 165.33 148.813 164.673C148.766 164.345 148.766 164.016 148.766 163.735Z" fill="#FEFEFE"/>
<path d="M150.923 158.338C150.783 158.948 150.501 159.371 149.844 159.512C149.61 159.559 149.234 159.512 149.093 159.324C148.577 158.76 148.671 157.352 149.187 156.976C149.281 156.883 149.469 156.929 149.61 156.929C150.548 157.164 151.017 157.681 150.923 158.338Z" fill="#FEFEFE"/>
<path d="M59.1619 160.215C58.9273 160.027 58.5518 159.839 58.3172 159.511C58.1764 159.323 58.1765 158.947 58.1296 158.666C58.0826 158.056 58.2234 157.493 58.7396 157.117C59.115 156.836 59.7719 156.976 60.3351 157.446C60.8043 157.821 61.0859 158.478 60.9451 158.994C60.7574 159.651 60.0535 160.168 59.1619 160.215Z" fill="#FEFEFE"/>
<path d="M133.044 182.882C132.809 182.694 132.481 182.6 132.387 182.366C132.246 181.99 132.152 181.521 132.152 181.099C132.152 180.395 132.575 179.832 133.044 179.738C133.748 179.644 134.546 180.066 134.874 180.676C135.109 181.146 135.015 181.896 134.639 182.319C134.217 182.741 133.56 182.976 133.044 182.882Z" fill="#FEFEFE"/>
<path d="M91.9195 157.118C92.7641 156.977 93.7026 157.681 93.7495 158.572C93.7965 159.37 93.3741 159.98 92.5764 160.168C91.9663 160.309 91.2625 159.933 91.2156 159.417C91.1686 158.854 91.1686 158.244 91.3094 157.681C91.3563 157.446 91.7318 157.258 91.9195 157.118Z" fill="#FEFEFE"/>
</svg>
