<svg width="229" height="229" viewBox="0 0 229 229" fill="none" xmlns="http://www.w3.org/2000/svg">
<path d="M113.998 228.592C83.8172 228.592 53.6365 228.592 23.4089 228.592C20.8274 228.592 18.2927 228.545 15.852 227.747C7.54411 225.072 2.42797 219.581 0.738229 210.946C0.409668 209.163 0.221919 207.38 0.268856 205.596C0.315793 204.564 0.268856 203.484 0.268856 202.452C0.268856 143.273 0.268856 84.0933 0.268856 24.961C0.268856 22.239 0.315816 19.564 0.879063 16.889C2.9443 7.36213 10.8298 1.54273 18.0581 0.557195C20.1234 0.275612 22.2355 0.0878906 24.3477 0.0878906C84.4274 0.0878906 144.507 0.0878906 204.587 0.0878906C206.699 0.0878906 208.764 0.275624 210.876 0.510276C218.762 1.54275 226.131 7.87835 228.102 16.232C228.572 18.1561 228.853 20.0333 228.806 22.0044C228.759 23.0369 228.806 24.1163 228.806 25.1487C228.806 84.6096 228.806 144.07 228.806 203.578C228.806 204.939 228.853 206.3 228.806 207.614C228.525 217.047 222.611 224.321 215.195 227.09C212.942 227.935 210.642 228.545 208.201 228.545C206.84 228.545 205.479 228.545 204.164 228.545C174.078 228.592 144.038 228.592 113.998 228.592ZM134.322 23.1777C134.228 23.8816 134.603 24.1163 135.213 24.0694C135.166 24.7264 135.683 25.1018 136.058 25.5242C136.199 26.4628 136.903 26.7913 137.748 26.979C137.842 29.1848 137.936 31.3905 138.03 33.5962C137.748 34.1125 137.607 34.7695 137.232 35.1449C136.152 36.1774 135.824 37.3976 135.917 38.8055C135.917 38.9463 135.917 39.0871 135.917 39.2748C135.917 53.307 135.917 67.3861 135.917 81.4183C135.917 82.1692 136.011 82.9201 136.058 83.624C136.105 84.1403 136.575 84.328 136.95 84.5157L136.856 84.4219C137.138 85.032 136.997 85.5482 136.622 86.0175C135.12 87.9886 133.618 89.9597 132.069 91.8838C131.224 92.9163 131.13 93.9957 131.834 95.122C132.116 95.6382 131.787 95.9198 131.552 96.2483C130.097 95.3097 129.628 94.6996 128.595 92.6816C129.112 92.4939 129.487 92.1654 129.675 91.6022C129.628 85.7359 129.581 79.8696 129.581 74.0502C129.534 57.5307 129.534 41.0112 129.534 24.4917C129.534 23.4592 129.628 22.4268 129.722 21.3474C129.769 20.8312 130.238 20.6904 130.661 20.4557C130.707 21.0189 131.036 21.3005 131.552 21.3943C131.74 21.582 131.881 21.8636 132.116 21.9105C132.35 22.0044 132.444 21.7228 132.209 21.582C132.022 21.4413 131.74 21.4882 131.505 21.4412C131.646 20.6903 131.271 20.5026 130.614 20.5026C130.097 19.564 129.534 19.3294 129.065 19.8925C126.999 22.3798 124.934 24.8672 122.963 27.4014C122.634 27.8238 122.493 28.4808 122.4 29.044C122.306 29.7479 122.353 30.4988 122.306 31.2497C122.259 31.9067 122.024 32.0475 120.71 32.2352C120.334 31.4843 119.771 31.1089 118.879 31.3436C119.114 30.6396 118.645 30.2172 118.175 29.8887C117.753 29.6071 117.283 29.7949 117.002 30.1703C115.03 32.6107 113.059 35.0511 111.088 37.4914C110.384 38.3362 110.149 39.3217 110.196 40.4011C110.243 41.4336 110.196 42.513 110.196 43.5455C110.196 53.2601 110.196 62.9277 110.196 72.6423C110.196 74.1441 110.102 75.599 110.008 77.1007C109.914 77.9455 110.055 78.6964 110.947 79.0718C110.337 80.6205 109.163 81.7938 108.037 82.967C107.943 83.0609 107.802 83.1078 107.661 83.0609C107.239 83.0609 107.192 82.8262 107.239 82.4977C107.333 80.9959 107.427 79.5411 107.427 78.0393C107.427 71.4691 107.427 64.8988 107.427 58.3286C107.427 57.2961 107.427 56.2167 107.427 55.1842C107.427 54.2456 107.098 53.4478 106.347 52.8377C104 50.7728 101.653 48.7078 99.2596 46.6429C98.6024 46.0328 97.8514 45.9858 97.2412 46.549C96.1148 47.5345 95.0821 48.567 94.0025 49.5995C93.4393 49.928 92.8761 50.2565 92.6414 50.9136C91.9373 51.1013 91.3271 51.3359 90.623 50.6789C88.5578 48.7548 86.4457 46.9245 84.3335 45.0473C83.6764 44.4372 82.9723 43.874 82.3152 43.3108C81.705 42.7946 81.0479 42.8415 80.2969 43.4985C79.7336 43.9678 79.2642 44.531 78.7479 45.0942C76.6827 46.8306 74.6175 48.567 72.5522 50.3034C71.8482 50.9135 71.3788 51.6644 71.4258 52.65C71.4727 53.2601 71.4258 53.8702 71.4258 54.4333C71.4258 64.4764 71.4258 74.5196 71.4258 84.6096C71.4258 85.3605 71.4257 86.1114 71.4726 86.8623C71.5196 87.8947 72.3176 87.9417 73.0686 87.9886C73.1624 89.1618 72.3175 89.9127 71.7073 90.7105C66.1218 97.9378 60.4894 105.118 54.8569 112.299C53.9181 113.472 53.0263 114.645 52.0407 115.818C51.5243 116.428 50.8672 116.71 50.0693 116.71C46.7837 116.71 43.4981 116.71 40.1655 116.757C39.5553 116.757 38.9451 116.804 38.5227 117.273C38.3819 117.414 38.3819 117.977 38.5227 118.071C38.8513 118.306 39.3206 118.54 39.6961 118.54C42.7001 118.587 45.7042 118.587 48.6612 118.587C52.6978 118.54 51.806 119.01 54.9039 115.959C63.1648 107.887 71.3788 99.815 79.6398 91.7899C80.6255 90.8513 81.5642 89.9127 82.5499 88.9741C83.8172 87.8009 84.1458 87.8008 85.5069 89.1149C87.6661 91.1798 89.7782 93.2917 91.9373 95.4036C92.5944 96.0137 93.2046 96.7176 93.9087 97.2339C94.378 97.5624 94.9882 97.6562 95.5515 97.8909C95.5984 98.1725 95.8331 98.5479 95.6923 98.6887C93.674 101.551 91.7027 104.508 89.1681 106.948C88.8395 106.902 88.4639 106.855 88.1354 106.855C86.8211 106.526 85.507 106.432 84.2397 106.948C83.8642 106.948 83.4417 106.995 83.0662 106.995C81.8459 106.151 80.5785 106.385 79.2643 106.667C79.0296 106.714 78.701 106.995 78.6541 107.23C78.3724 108.685 78.3255 110.14 78.701 111.548C78.748 111.782 79.0766 112.064 79.3112 112.111C80.4847 112.205 81.6581 112.205 82.8315 112.252C83.5356 112.299 84.2396 112.345 84.9906 112.345C84.2865 114.035 82.9254 115.255 81.8928 116.71C81.6581 117.085 81.4233 117.461 81.3295 117.883C81.2825 118.024 81.6581 118.399 81.8458 118.399C82.2682 118.399 82.7845 118.353 83.1131 118.118C84.8028 116.616 86.3987 115.067 88.0415 113.519C96.0678 105.681 104.094 97.844 112.12 89.9596C112.777 89.3495 113.435 88.7395 114.139 88.1763C114.326 88.0355 114.796 88.0355 114.984 88.1763C115.688 88.7395 116.392 89.3026 117.002 89.9127C124.183 96.9054 131.365 103.945 138.499 110.938C140.752 113.143 143.005 115.302 145.305 117.461C145.727 117.836 146.291 118.118 146.807 118.353C146.995 118.446 147.417 118.306 147.605 118.118C147.746 117.977 147.793 117.555 147.652 117.367C146.431 115.678 145.164 113.988 143.897 112.299C143.709 112.064 143.568 111.735 143.662 111.454C143.709 111.219 144.038 110.984 144.319 110.938C144.648 110.844 144.883 110.703 144.883 110.374C144.883 109.342 144.929 108.309 144.836 107.277C144.789 106.808 144.366 106.526 143.897 106.432C142.864 106.198 141.879 106.151 140.893 106.808C140.236 107.23 139.766 107.089 139.391 106.62C137.091 103.663 134.791 100.707 132.538 97.7501C132.397 97.5624 132.491 97.187 132.491 96.9054C132.913 96.7646 133.336 96.6707 133.711 96.9992C134.228 97.4216 134.791 97.5624 135.354 97.14C136.058 96.5769 136.715 95.9667 137.373 95.3566C139.766 93.0571 142.113 90.7575 144.507 88.5048C144.976 88.0355 145.727 87.9886 146.15 88.364C146.478 88.6456 146.807 88.9741 147.136 89.3026C151.548 93.6202 155.913 97.8909 160.325 102.209C165.582 107.324 170.839 112.439 176.096 117.602C176.753 118.259 177.504 118.634 178.49 118.587C181.916 118.54 185.389 118.587 188.816 118.587C189.238 118.587 189.708 118.493 190.13 118.446C190.271 118.446 190.412 118.306 190.506 118.212C190.599 118.118 190.74 117.977 190.693 117.883C190.646 117.602 190.646 117.273 190.459 117.132C189.52 116.522 188.44 116.757 187.408 116.71C184.685 116.663 182.01 116.663 179.288 116.71C178.302 116.71 177.598 116.241 176.988 115.537C176.612 115.067 176.283 114.598 175.908 114.129C168.82 105.024 161.686 95.9668 154.599 86.8153C153.754 85.7829 153.097 84.6096 152.299 83.5302C153.237 82.0754 153.237 80.4328 153.237 78.7433C153.237 65.9782 153.237 53.2131 153.237 40.495C153.237 39.8849 153.237 39.2748 153.237 38.7117C153.19 36.8814 152.721 36.4121 150.609 35.6612C150.327 35.3796 150.046 35.098 149.717 34.7695C149.389 34.441 149.107 34.1594 148.778 33.8309C148.638 33.737 148.45 33.5962 148.309 33.5024C148.403 33.6431 148.544 33.8309 148.638 33.9717C148.966 34.3002 149.248 34.5818 149.576 34.9103C149.858 35.1919 150.139 35.4734 150.468 35.802C151.36 37.116 151.454 38.5708 151.454 40.0726C151.454 52.9315 151.454 65.7905 151.454 78.6494C151.454 79.2595 151.501 79.8696 151.36 80.4328C151.266 80.8551 150.984 81.2306 150.797 81.606C149.858 80.4797 148.872 79.4003 147.933 78.274C147.276 77.4762 146.619 76.6783 145.962 75.8805C145.587 75.4112 145.164 75.6459 144.789 75.8336C144.507 75.9744 144.272 76.1621 144.038 76.3029C143.803 76.3029 143.521 76.3029 143.287 76.3029C143.24 72.7362 143.146 69.1225 143.146 65.5558C143.146 55.5596 143.146 45.5165 143.146 35.5204C143.146 34.1594 143.146 32.8453 143.24 31.4844C143.287 30.8273 143.662 30.4519 144.366 30.4519C144.648 30.4519 144.929 30.3111 145.211 30.2172C145.117 31.015 145.117 31.0151 146.056 31.2028C146.103 31.4374 146.103 31.6251 146.15 31.8598C146.291 31.7659 146.431 31.719 146.572 31.6251C146.384 31.4843 146.15 31.3905 145.962 31.2497C145.68 30.9212 145.399 30.5927 145.117 30.2642C144.789 29.9826 144.507 29.6071 144.132 29.3725C143.474 28.9501 143.052 28.9501 142.536 29.4664C141.879 30.0295 141.174 30.6396 140.517 31.2028C140.283 30.8273 139.907 30.4988 139.813 30.1234C139.672 29.5602 139.672 28.9501 139.672 28.387C139.626 27.3076 139.015 26.8382 138.03 26.6036C137.889 25.7588 137.513 25.0549 136.575 24.9141C136.105 24.6325 135.636 24.3509 135.12 24.0694C135.12 23.4593 134.791 23.2246 134.228 23.1777C134.04 22.9899 133.946 22.7084 133.711 22.6145C133.477 22.5206 133.383 22.7084 133.571 22.99C133.758 23.2715 133.993 23.3185 134.322 23.1777ZM115.359 102.537C114.749 102.537 114.139 102.537 113.528 102.537C112.073 102.537 110.618 102.537 109.163 102.537C108.647 102.537 108.225 102.912 108.178 103.241C108.084 105.118 108.084 107.042 108.178 108.92C108.178 109.248 108.6 109.67 109.116 109.67C110.571 109.67 112.026 109.67 113.481 109.67C114.092 109.67 114.702 109.67 115.359 109.67C116.814 109.67 118.269 109.67 119.771 109.67C120.334 109.67 120.804 109.107 120.851 108.497C120.851 106.902 120.851 105.259 120.851 103.663C120.851 103.053 120.334 102.537 119.771 102.537C118.269 102.49 116.814 102.537 115.359 102.537ZM114.279 211.65C141.879 211.65 169.525 211.65 197.124 211.65C198.626 211.65 200.128 211.697 201.63 211.603C207.309 211.275 212.144 206.723 212.801 201.091C212.942 199.777 212.942 198.416 212.942 197.055C212.942 182.178 212.942 167.348 212.942 152.471C212.942 151.251 212.895 150.078 212.801 148.857C212.66 146.511 211.721 144.493 210.266 142.709C207.778 139.565 204.446 138.063 200.503 137.829C199.283 137.782 198.109 137.829 196.889 137.829C141.972 137.829 87.0089 137.829 32.0923 137.829C31.2005 137.829 30.3087 137.876 29.3699 137.829C27.868 137.782 26.366 138.063 24.9579 138.486C19.2785 140.034 16.0398 145.572 16.0398 149.702C16.0398 150.735 16.0398 151.814 16.0398 152.846C16.0398 167.536 16.0398 182.272 16.0398 196.961C16.0398 197.993 16.0397 199.073 16.0867 200.105C16.3214 206.347 21.907 211.556 27.7741 211.603C29.2761 211.603 30.778 211.65 32.28 211.65C59.6444 211.65 86.962 211.65 114.279 211.65ZM121.085 115.208C120.992 114.504 120.898 113.472 120.757 112.486C120.71 112.252 120.428 111.97 120.194 111.923C118.879 111.595 117.565 111.595 116.251 111.876C115.922 111.97 115.641 112.439 115.453 112.768C115.312 113.003 115.312 113.331 115.312 113.613C115.312 115.067 115.359 116.569 115.406 118.024C115.406 118.587 116.016 119.103 116.579 119.15C117.612 119.197 118.645 119.197 119.677 119.197C120.241 119.197 120.898 118.634 120.945 118.165C120.945 117.273 120.992 116.381 121.085 115.208ZM107.943 115.49C107.99 115.49 107.99 115.49 108.037 115.49C108.037 116.241 108.037 116.992 108.037 117.742C108.084 118.54 108.647 119.15 109.398 119.197C110.29 119.244 111.182 119.244 112.073 119.197C112.918 119.15 113.575 118.634 113.575 117.836C113.575 116.194 113.575 114.551 113.528 112.956C113.528 112.345 112.965 111.782 112.402 111.782C111.369 111.735 110.337 111.735 109.304 111.782C108.741 111.782 108.131 112.345 108.131 112.862C108.084 113.753 108.037 114.645 107.943 115.49ZM88.7456 102.866C88.7456 101.88 88.7456 101.411 88.7456 100.988C88.7456 100.848 88.7456 100.707 88.6987 100.566C88.6518 99.7681 88.0884 99.205 87.3374 99.158C84.4743 98.9703 84.0049 99.3927 84.0518 102.302C84.0518 102.584 84.0519 102.912 84.0988 103.194C84.1927 104.508 84.7089 105.024 86.0232 105.071C86.5864 105.071 87.1967 105.024 87.7599 104.977C88.2763 104.93 88.5109 104.508 88.6517 104.133C88.7456 103.476 88.7456 102.912 88.7456 102.866ZM144.976 102.631C144.929 101.88 144.929 101.129 144.883 100.425C144.836 99.862 144.319 99.2519 143.803 99.2049C142.911 99.158 142.066 99.205 141.174 99.2519C140.94 99.2519 140.658 99.5804 140.564 99.7681C140.048 101.176 140.142 102.678 140.47 104.086C140.564 104.414 141.034 104.79 141.362 104.884C142.066 105.024 142.817 104.977 143.568 104.93C144.132 104.93 144.742 104.367 144.789 103.851C144.883 103.476 144.929 103.053 144.976 102.631ZM150.515 109.577C150.468 108.873 150.468 108.122 150.28 107.418C150.186 107.089 149.717 106.667 149.388 106.62C148.684 106.479 147.933 106.526 147.182 106.573C146.619 106.62 146.056 107.183 146.056 107.699C146.056 108.873 146.056 110.046 146.056 111.219C146.056 111.782 146.619 112.252 147.276 112.252C148.027 112.252 148.778 112.299 149.482 112.158C149.811 112.111 150.233 111.688 150.327 111.313C150.515 110.797 150.468 110.187 150.515 109.577ZM83.0192 101.645C82.9723 101.176 82.9254 100.566 82.7846 100.003C82.6437 99.5804 82.3621 99.2519 81.8458 99.2049C81.2356 99.158 80.6724 99.1111 80.0622 99.158C79.2173 99.158 78.5602 99.7212 78.5602 100.425C78.5133 101.458 78.5132 102.49 78.5132 103.523C78.5132 104.508 79.1234 104.977 80.2969 105.024C80.7193 105.024 81.1887 105.024 81.6111 104.977C82.2682 104.93 82.7846 104.461 82.8315 103.945C82.9254 103.194 82.9723 102.49 83.0192 101.645ZM150.515 102.162C150.468 101.458 150.421 100.894 150.374 100.284C150.374 100.144 150.327 99.9558 150.28 99.862C150.093 99.6273 149.905 99.2988 149.67 99.2988C146.666 98.8295 145.915 99.1111 146.009 101.88C146.009 102.631 146.009 103.382 146.197 104.086C146.291 104.414 146.76 104.884 147.089 104.93C147.933 105.024 148.825 104.977 149.717 104.884C149.952 104.884 150.28 104.508 150.327 104.273C150.421 103.523 150.468 102.772 150.515 102.162Z" fill="#FA8E15"/>
<path d="M114.279 211.65C86.9613 211.65 59.6437 211.65 32.3263 211.65C30.8243 211.65 29.3222 211.65 27.8202 211.603C21.9531 211.556 16.3676 206.347 16.1329 200.105C16.086 199.073 16.0859 197.993 16.0859 196.961C16.0859 182.272 16.0859 167.535 16.0859 152.846C16.0859 151.814 16.1329 150.734 16.0859 149.702C16.0859 145.572 19.2777 140.034 25.004 138.486C26.4591 138.063 27.9142 137.782 29.4162 137.828C30.308 137.875 31.1998 137.828 32.1386 137.828C87.0551 137.828 142.019 137.828 196.935 137.828C198.156 137.828 199.329 137.782 200.549 137.828C204.492 138.063 207.825 139.565 210.312 142.709C211.767 144.493 212.706 146.511 212.847 148.857C212.941 150.077 212.988 151.251 212.988 152.471C212.988 167.348 212.988 182.178 212.988 197.055C212.988 198.416 212.988 199.777 212.847 201.091C212.19 206.722 207.355 211.275 201.676 211.603C200.174 211.697 198.672 211.65 197.17 211.65C169.524 211.65 141.925 211.65 114.279 211.65ZM118.268 164.203H118.221C118.221 165.705 118.221 167.207 118.221 168.709C118.221 169.741 118.221 170.821 118.362 171.853C118.409 172.228 118.785 172.651 119.301 172.698C119.442 172.698 119.583 172.792 119.723 172.792C121.038 172.839 121.836 172.698 121.836 171.196C121.836 169.225 121.836 167.301 121.883 165.33C121.883 164.907 122.023 164.438 122.211 164.063C122.305 163.922 122.774 163.734 122.915 163.828C123.385 164.156 123.854 164.532 124.182 165.001C125.778 167.207 127.327 169.413 128.876 171.618C129.58 172.604 130.519 172.839 131.646 172.745C131.786 172.745 131.927 172.745 132.115 172.698C132.725 172.651 133.288 172.182 133.288 171.571C133.288 166.785 133.288 161.951 133.288 157.164C133.288 157.023 133.241 156.882 133.241 156.695C133.194 156.178 132.584 155.709 131.974 155.662C131.833 155.662 131.692 155.662 131.505 155.662C130.284 155.662 129.768 156.084 129.768 157.164C129.721 159.276 129.721 161.388 129.721 163.453C129.721 163.875 129.674 164.344 129.58 164.767C129.58 164.86 129.299 164.954 129.158 164.907C128.876 164.86 128.548 164.767 128.407 164.579C126.529 162.045 124.652 159.51 122.868 156.929C122.07 155.756 121.038 155.521 119.77 155.615C118.832 155.709 118.268 156.084 118.268 156.882C118.221 159.37 118.268 161.81 118.268 164.203ZM158.822 172.839C158.822 172.792 158.822 172.745 158.822 172.698C159.855 172.698 160.934 172.792 161.967 172.651C162.812 172.51 163.704 172.228 164.455 171.806C166.801 170.492 167.459 167.442 165.957 165.236C165.628 164.767 165.159 164.344 164.736 163.922C164.22 163.406 164.267 162.936 164.595 162.326C165.206 161.247 165.299 160.074 165.018 158.853C164.783 157.774 164.22 156.929 163.234 156.413C162.718 156.131 162.155 155.803 161.591 155.803C159.667 155.709 157.743 155.756 155.818 155.803C155.584 155.803 155.302 156.131 155.161 156.366C155.02 156.601 154.973 156.929 154.973 157.211C154.973 161.81 154.973 166.456 154.973 171.055C154.973 171.337 154.973 171.665 155.114 171.947C155.255 172.182 155.49 172.51 155.724 172.557C156.71 172.745 157.743 172.792 158.822 172.839ZM53.0725 161.81C53.1194 163.781 53.0256 165.705 53.1195 167.676C53.3072 170.492 55.5602 172.698 58.4234 172.886C59.3152 172.932 60.207 172.932 61.0988 172.839C63.3987 172.557 64.9946 171.29 65.7456 169.131C66.0741 168.146 66.3088 167.113 66.3088 166.081C66.4027 163.218 66.3088 160.355 66.3088 157.539C66.3088 157.258 66.3089 156.882 66.1681 156.695C65.9334 156.366 65.6048 156.084 65.2293 155.85C64.9946 155.709 64.666 155.756 64.3374 155.756C63.1171 155.756 62.6008 156.178 62.6008 157.305C62.5539 159.557 62.6007 161.81 62.5538 164.063C62.5538 165.095 62.4599 166.174 62.3191 167.207C62.0844 168.568 60.8641 169.366 59.3152 169.272C58.0479 169.178 56.9214 168.286 56.8275 167.066C56.7336 165.705 56.6867 164.391 56.6867 163.03C56.6397 160.918 56.6398 158.806 56.5459 156.741C56.5459 156.366 56.2173 155.897 55.6541 155.897C55.3724 155.897 55.0439 155.803 54.7623 155.803C53.5889 155.803 53.1194 156.225 53.0725 157.352C53.0256 158.806 53.0725 160.308 53.0725 161.81ZM107.05 172.745C107.332 172.698 107.661 172.698 107.942 172.651C108.412 172.604 108.693 172.135 108.505 171.712C106.487 166.691 104.469 161.716 102.404 156.695C102.028 155.803 100.667 155.427 99.6812 155.803C99.071 156.038 98.7895 156.601 98.5548 157.164C96.6773 161.763 94.8467 166.362 93.0161 170.961C92.9223 171.243 92.8753 171.525 92.8283 171.853C92.7345 172.228 93.11 172.651 93.5794 172.745C95.0344 172.932 96.2548 172.745 96.7711 171.055C97.0997 169.976 97.9445 169.366 99.1649 169.413C100.197 169.46 101.277 169.413 102.31 169.413C103.342 169.413 103.999 169.929 104.375 170.868C104.516 171.149 104.61 171.431 104.75 171.665C105.267 172.604 106.112 172.839 107.05 172.745ZM150.514 172.745C150.796 172.698 151.078 172.698 151.359 172.651C151.782 172.604 152.063 172.088 151.922 171.665C149.904 166.691 147.886 161.716 145.867 156.788C145.539 155.991 144.882 155.709 144.084 155.709C143.286 155.709 142.582 155.85 142.253 156.695C140.235 161.669 138.264 166.644 136.245 171.618C136.198 171.759 136.151 171.947 136.245 172.041C136.386 172.275 136.574 172.604 136.762 172.651C138.686 173.026 139.343 172.839 140.047 171.29C140.704 169.882 141.643 169.225 143.145 169.366C144.178 169.46 145.21 169.366 146.243 169.507C146.618 169.553 147.088 169.835 147.369 170.164C147.745 170.633 147.98 171.196 148.214 171.712C148.731 172.698 149.576 172.792 150.514 172.745ZM124.417 187.716C124.464 187.716 124.464 187.716 124.511 187.716C124.511 190.109 124.511 192.502 124.511 194.896C124.511 195.459 125.121 196.022 125.684 196.022C127.937 196.069 130.19 196.116 132.443 196.069C133.711 196.069 134.18 195.412 134.086 193.957C134.039 193.253 133.617 192.737 133.054 192.69C131.88 192.643 130.66 192.596 129.486 192.502C128.641 192.455 128.125 191.939 128.125 191.095C128.125 189.64 128.548 189.123 129.909 189.076C130.941 189.03 132.021 188.983 133.054 188.889C133.335 188.842 133.711 188.654 133.805 188.466C133.945 187.903 134.039 187.34 134.039 186.777C133.992 186.214 133.429 185.791 132.772 185.744C131.599 185.651 130.378 185.604 129.205 185.463C128.97 185.416 128.688 185.181 128.501 184.994C128.078 184.477 128.125 183.82 128.313 183.304C128.454 182.976 128.97 182.647 129.346 182.6C130.519 182.459 131.739 182.459 132.913 182.365C133.476 182.319 133.992 181.849 134.086 181.192C134.133 180.77 134.133 180.301 134.039 179.878C133.992 179.643 133.711 179.315 133.523 179.268C132.819 179.127 132.068 178.986 131.317 178.986C123.291 179.127 124.652 177.672 124.511 185.838C124.417 186.542 124.417 187.105 124.417 187.716ZM180.366 164.016C180.366 166.409 180.366 168.803 180.366 171.196C180.366 172.088 180.883 172.698 181.681 172.698C184.074 172.698 186.468 172.698 188.862 172.698C189.613 172.698 190.035 172.135 189.988 171.102C189.988 169.929 189.519 169.366 188.486 169.319C187.313 169.225 186.093 169.225 184.919 169.084C184.685 169.037 184.356 168.803 184.215 168.568C183.605 167.582 184.45 165.94 185.576 165.846C186.75 165.752 187.97 165.752 189.144 165.564C189.472 165.517 189.848 165.001 189.942 164.673C190.223 163.64 189.66 162.749 188.721 162.702C187.689 162.655 186.609 162.655 185.576 162.561C184.591 162.514 184.121 161.904 184.074 160.731C184.027 160.074 184.45 159.416 184.919 159.37C186.093 159.276 187.313 159.276 188.486 159.182C189.566 159.135 189.988 158.572 189.988 157.398C189.988 156.413 189.613 155.803 188.815 155.803C186.421 155.756 184.027 155.756 181.634 155.803C180.883 155.803 180.366 156.413 180.366 157.305C180.319 159.51 180.366 161.763 180.366 164.016ZM90.9978 178.893C89.2611 178.94 87.9 178.986 86.6796 179.643C82.3145 182.084 81.141 186.401 82.3614 190.344C83.8634 195.084 88.5102 197.759 94.3304 195.412C94.9406 195.177 95.1752 194.614 95.2222 194.004C95.2222 193.863 95.2222 193.723 95.2222 193.535C95.2222 191.986 94.7528 191.47 93.3917 191.986C92.2652 192.409 91.0917 192.643 89.9182 192.596C88.6509 192.502 87.6183 191.892 86.8673 190.954C85.8347 189.593 85.4592 187.997 85.9286 186.261C86.6326 183.539 88.4632 182.272 91.2325 182.647C92.2651 182.788 93.2508 183.163 94.2364 183.445C94.565 183.539 95.1283 183.069 95.1752 182.647C95.2221 182.225 95.2691 181.755 95.2222 181.286C95.1752 180.347 94.5181 179.503 93.6732 179.315C92.6875 179.127 91.608 178.986 90.9978 178.893ZM45.1402 155.568C44.8116 155.568 44.3891 155.568 43.9197 155.615C41.0096 155.944 38.9914 159.182 39.9771 161.998C40.3526 163.03 40.9157 163.875 41.9014 164.391C42.981 164.954 44.0606 165.424 45.1402 165.987C46.032 166.456 46.3605 167.535 45.9381 168.286C45.4687 169.084 44.6238 169.366 43.5912 169.037C43.1688 168.896 42.7932 168.615 42.3708 168.474C41.5729 168.146 41.0566 168.286 40.3995 168.99C40.1178 169.319 39.8832 169.741 39.6485 170.117C39.4608 170.398 39.5077 170.68 39.7424 170.961C41.1505 172.557 42.9341 173.026 44.9993 172.932C46.8768 172.886 49.2237 171.431 50.0686 169.037C50.6318 167.395 50.0686 165.236 48.6605 164.156C48.0972 163.687 47.4401 163.312 46.783 162.936C45.985 162.467 45.1402 162.138 44.4361 161.622C43.9667 161.294 43.7321 160.684 43.8729 160.027C43.9668 159.51 44.5768 158.994 45.187 159.041C45.7972 159.088 46.3605 159.229 46.9707 159.276C47.2523 159.276 47.5809 159.229 47.8625 159.135C48.5666 158.806 49.036 158.29 49.2707 157.539C49.4115 157.117 48.9421 156.601 48.2849 156.225C47.3462 155.662 46.3136 155.615 45.1402 155.568ZM74.429 155.568C72.8331 155.521 71.3781 156.084 70.2516 157.492C68.5149 159.745 69.1251 163.171 71.5658 164.485C72.5046 165.001 73.4903 165.33 74.3821 165.846C74.7576 166.034 75.0391 166.409 75.3677 166.738C75.6963 167.066 75.6963 167.958 75.3677 168.427C74.9453 168.99 74.0535 169.366 73.3964 169.178C72.6923 168.943 72.0352 168.568 71.3312 168.38C71.0965 168.286 70.721 168.427 70.4863 168.568C69.8291 168.943 69.3598 169.553 69.172 170.304C69.1251 170.539 69.2189 170.914 69.3597 171.055C69.923 171.525 70.4862 172.088 71.1433 172.369C73.5371 173.496 76.3534 173.026 78.1839 171.196C80.5777 168.849 80.2492 165.377 77.386 163.546C76.8697 163.218 76.3534 162.983 75.7902 162.702C75.2739 162.42 74.7106 162.185 74.1943 161.857C73.8188 161.622 73.5371 161.247 73.2555 160.918C72.8331 160.402 73.3494 159.182 74.0066 159.182C74.7576 159.182 75.4616 159.229 76.2126 159.323C77.2452 159.463 77.9024 158.9 78.4656 158.149C78.888 157.586 78.7941 156.976 78.3248 156.601C77.2921 155.709 75.9779 155.568 74.429 155.568ZM141.972 178.893C140.376 178.893 139.437 179.221 138.545 179.878C135.964 181.708 135.823 186.542 139.39 188.044C140.094 188.326 140.751 188.654 141.455 188.983C141.831 189.17 142.206 189.452 142.582 189.734C143.333 190.297 143.333 191.423 142.488 192.033C142.159 192.268 141.69 192.502 141.268 192.455C140.704 192.409 140.141 192.174 139.578 191.892C138.217 191.188 137.7 191.752 136.902 192.69C136.715 192.925 136.621 193.206 136.48 193.488C136.292 193.816 136.339 194.051 136.668 194.286C137.278 194.708 137.841 195.224 138.498 195.553C141.174 196.867 143.802 196.351 145.821 194.145C147.745 192.08 147.416 188.607 145.07 187.012C144.225 186.448 143.239 186.026 142.3 185.51C141.784 185.228 141.268 184.9 140.892 184.43C140.657 184.149 140.564 183.539 140.704 183.21C140.845 182.882 141.268 182.459 141.643 182.412C142.206 182.319 142.817 182.459 143.38 182.6C144.412 182.788 145.116 182.365 145.68 181.568C146.196 180.864 146.055 180.16 145.351 179.69C144.319 178.986 143.145 178.94 141.972 178.893ZM87.149 155.756C85.647 155.709 84.145 155.709 82.643 155.709C81.6573 155.709 81.2349 156.319 81.2349 157.539C81.2349 158.525 81.5635 158.994 82.3614 159.182C85.0368 159.792 85.0367 159.792 85.0837 162.232C85.0837 163.593 85.0837 164.907 85.0837 166.268C85.0837 168.052 85.1307 169.882 85.1777 171.665C85.1777 172.182 85.7878 172.651 86.4449 172.698C86.5857 172.698 86.7266 172.698 86.9143 172.745C88.3694 172.792 88.9326 172.322 88.9326 171.008C88.9796 168.333 88.9326 165.611 88.9795 162.936C88.9795 162.045 89.0265 161.153 89.1673 160.261C89.2142 159.839 89.5428 159.463 90.0591 159.416C90.6693 159.37 91.2325 159.276 91.8427 159.182C92.406 159.088 92.7345 158.572 92.7345 157.821C92.7345 157.539 92.7345 157.211 92.6876 156.929C92.6407 156.272 92.2182 155.756 91.608 155.756C90.153 155.756 88.651 155.756 87.149 155.756ZM109.397 179.033V179.08C107.895 179.08 106.393 179.08 104.891 179.08C104.093 179.08 103.718 179.643 103.671 180.629C103.671 180.911 103.718 181.239 103.718 181.521C103.718 182.084 104.093 182.365 104.516 182.506C105.079 182.694 105.689 182.647 106.299 182.741C106.957 182.835 107.379 183.304 107.379 183.914C107.426 184.524 107.473 185.087 107.473 185.698C107.473 188.56 107.473 191.376 107.52 194.239C107.52 195.6 108.083 196.069 109.444 196.116C110.665 196.116 111.228 195.694 111.275 194.661C111.322 193.3 111.322 191.986 111.322 190.625C111.322 188.513 111.322 186.448 111.369 184.337C111.369 183.257 111.744 182.929 113.058 182.694C113.34 182.647 113.668 182.647 113.95 182.6C114.842 182.412 115.171 181.99 115.171 181.051C115.217 179.597 114.795 179.08 113.434 179.08C112.12 179.033 110.758 179.033 109.397 179.033ZM169.054 164.203C169.008 164.954 169.008 165.705 169.054 166.456C169.148 174.012 168.069 172.651 175.532 172.745C175.954 172.745 176.424 172.745 176.846 172.604C177.268 172.463 177.597 172.135 177.597 171.618C177.597 171.149 177.597 170.727 177.597 170.257C177.597 169.741 177.268 169.46 176.893 169.225C176.658 169.084 176.33 169.084 176.001 169.084C172.716 169.178 172.856 168.568 172.856 165.705C172.856 164.485 172.856 163.312 172.856 162.092C172.856 160.308 172.809 158.478 172.762 156.695C172.762 156.225 172.105 155.709 171.495 155.662C171.354 155.662 171.214 155.662 171.026 155.662C169.571 155.615 169.101 156.038 169.101 157.445C169.054 159.698 169.054 161.951 169.054 164.203ZM115.124 164.485C115.17 162.561 115.171 160.59 115.171 158.666C115.171 158.055 115.124 157.492 115.124 156.882C115.077 156.319 114.56 155.756 113.997 155.709C113.575 155.662 113.105 155.662 112.636 155.709C112.026 155.756 111.463 156.225 111.463 156.788C111.463 157.07 111.416 157.398 111.416 157.68C111.416 161.998 111.416 166.315 111.416 170.633C111.416 170.914 111.463 171.243 111.463 171.525C111.509 172.275 112.026 172.698 113.011 172.745C113.152 172.745 113.293 172.745 113.481 172.745C114.795 172.651 115.124 172.416 115.171 171.196C115.171 168.943 115.124 166.738 115.124 164.485ZM101.559 187.622C101.559 186.73 101.606 185.838 101.559 184.947C101.512 183.304 101.512 181.661 101.418 180.019C101.418 179.784 101.136 179.456 100.948 179.315C100.104 178.893 99.2118 178.893 98.3669 179.268C98.1323 179.362 97.9446 179.69 97.8507 179.925C97.7099 180.347 97.6629 180.817 97.6629 181.239C97.6629 185.416 97.6629 189.593 97.6629 193.77C97.6629 194.192 97.6629 194.708 97.8037 195.084C97.9445 195.459 98.32 195.881 98.6955 195.975C100.808 196.398 101.559 195.881 101.559 193.863C101.559 191.798 101.559 189.687 101.559 187.622ZM120.944 187.575C120.897 185.181 120.944 182.788 120.897 180.441C120.897 179.597 120.334 179.127 119.489 179.08C117.799 179.033 117.283 179.456 117.283 181.051C117.283 185.51 117.283 189.968 117.33 194.473C117.33 195.553 117.846 196.022 118.972 196.116C120.334 196.163 120.897 195.694 120.897 194.333C120.991 192.08 120.944 189.827 120.944 187.575Z" fill="#FEFEFE"/>
<path d="M94.0013 49.6465C95.0808 48.614 96.1605 47.5816 97.24 46.596C97.8502 46.0329 98.5543 46.0798 99.2583 46.6899C101.605 48.7548 103.952 50.8198 106.346 52.8847C107.097 53.5417 107.425 54.2926 107.425 55.2312C107.425 56.2637 107.425 57.3431 107.425 58.3756C107.425 64.9458 107.425 71.5161 107.425 78.0863C107.425 79.5881 107.332 81.0899 107.238 82.5447C107.238 82.9202 107.238 83.1079 107.66 83.1079C107.801 83.1079 107.942 83.061 108.036 83.014C109.162 81.8408 110.335 80.6675 110.946 79.1188C111.697 78.6964 112.166 78.1802 111.744 77.2416L111.697 77.3355C112.589 77.3824 112.588 77.3824 112.682 76.3499L112.588 76.4438C113.339 76.5376 113.527 76.1153 113.574 75.4582L113.48 75.5521C114.09 75.5521 114.748 75.5521 115.358 75.5521L115.264 75.4582C115.311 76.0683 115.546 76.4907 116.25 76.4438L116.156 76.3969C116.203 76.6784 116.109 77.0539 116.25 77.2416C118.033 79.7758 119.77 82.357 122.023 84.5158C122.258 84.8443 122.445 85.2198 122.727 85.5013C122.868 85.5952 123.196 85.4544 123.431 85.4544L123.384 85.3606C123.055 86.2992 123.525 86.8623 124.323 87.2847L124.276 87.1909C124.37 87.754 124.604 88.1764 125.262 88.1764L125.168 88.0825C125.215 88.6926 125.449 89.115 126.153 89.0681L126.059 88.9742C126.153 89.9597 126.153 89.9597 127.045 89.9597L126.998 89.8659C126.623 90.8514 127.045 91.4146 127.937 91.79L127.89 91.6962C127.89 92.2124 128.078 92.5409 128.594 92.6817C129.627 94.6997 130.096 95.3098 131.551 96.2484L131.504 96.1545C131.504 96.8116 131.739 97.234 132.49 97.1401L132.396 97.0932C132.396 97.3747 132.302 97.7502 132.443 97.9379C134.696 100.895 136.996 103.851 139.296 106.808C139.671 107.324 140.141 107.465 140.798 106.995C141.783 106.385 142.769 106.385 143.802 106.62C144.271 106.714 144.694 106.995 144.74 107.465C144.787 108.497 144.787 109.53 144.787 110.562C144.787 110.938 144.553 111.032 144.224 111.125C143.989 111.219 143.661 111.454 143.567 111.642C143.52 111.876 143.661 112.252 143.802 112.486C145.022 114.176 146.336 115.818 147.557 117.555C147.698 117.696 147.651 118.165 147.51 118.306C147.322 118.493 146.947 118.634 146.712 118.54C146.196 118.306 145.632 118.024 145.21 117.649C142.91 115.49 140.657 113.284 138.404 111.125C131.223 104.133 124.088 97.0932 116.907 90.1005C116.25 89.4904 115.592 88.8803 114.888 88.3641C114.701 88.2233 114.231 88.2233 114.044 88.3641C113.34 88.9273 112.682 89.4904 112.025 90.1475C103.999 97.9848 95.9727 105.869 87.9464 113.707C86.3506 115.255 84.7078 116.804 83.018 118.306C82.7364 118.54 82.1732 118.587 81.7507 118.587C81.563 118.587 81.2344 118.212 81.2344 118.071C81.3282 117.649 81.5629 117.226 81.7976 116.898C82.8302 115.443 84.1914 114.223 84.8955 112.533C85.4118 112.017 85.9751 111.548 86.3506 110.938C86.5384 110.656 86.4444 110.14 86.4913 109.717L86.3975 109.811C86.6791 109.811 87.0077 109.905 87.1485 109.764C87.9934 109.06 88.7443 108.216 89.0729 107.089C91.6075 104.649 93.5789 101.692 95.5972 98.8296C95.6911 98.6888 95.5033 98.3134 95.4564 98.0318L95.3625 98.0787C96.3482 98.1726 96.3481 98.1726 96.3481 97.0932L96.2543 97.187C97.0053 97.3278 97.24 96.8585 97.24 96.2015L97.1462 96.2953C97.8033 96.2953 98.0379 95.9199 98.1318 95.3098L98.0849 95.4037C99.1645 94.7936 99.9624 93.9958 99.9154 92.6348C100.619 92.7286 100.807 92.3532 100.807 91.7431C101.417 91.7431 101.652 91.3677 101.699 90.8045C102.497 90.4291 102.919 89.9128 102.591 89.0211C103.764 88.9273 103.999 88.6926 104.421 87.2378C105.548 86.5338 105.548 86.5338 105.266 85.3606C105.407 85.4544 105.548 85.5952 105.642 85.5952C106.393 85.3606 106.862 84.5158 106.393 84.4219C105.923 84.3281 105.642 84.6097 105.407 85.032C105.36 85.1728 105.36 85.3136 105.313 85.4544C104.515 85.8299 104.046 86.3461 104.421 87.2847C104.14 87.2847 103.811 87.1909 103.623 87.2847C103.013 87.7071 102.544 88.2233 102.544 89.0211C101.417 89.7251 101.417 89.7251 101.699 90.8514C100.901 90.7106 100.901 90.7106 100.76 91.6962C100.056 91.6023 99.8684 91.9778 99.8684 92.5878C99.2583 92.5878 98.6481 92.5878 98.0379 92.5878L98.1318 92.6817C98.0848 89.9598 98.4604 87.1908 97.8502 84.5158C97.8972 83.3426 98.0379 82.1224 98.0379 80.9491C98.0379 73.0179 98.0379 65.0397 98.0379 57.1084C98.0379 54.8558 98.1318 52.6031 98.1318 50.3505C98.1318 49.9281 98.0379 49.4119 97.8032 49.1772C97.1461 48.614 96.7706 49.4119 96.3013 49.6934C95.785 49.975 95.3156 50.3505 94.7993 50.679C94.6116 50.2566 94.3298 49.975 94.0013 49.6465Z" fill="#FEFEFE"/>
<path d="M78.702 45.1412C79.2183 44.6249 79.6877 44.0618 80.251 43.5456C81.0019 42.8885 81.659 42.8885 82.2692 43.3578C82.9732 43.921 83.6304 44.4842 84.2875 45.0943C86.3997 46.9715 88.5588 48.8018 90.5771 50.7259C91.2812 51.3829 91.8913 51.1483 92.5954 50.9606C92.877 51.2421 93.1587 51.5237 93.4872 51.8522C93.1117 52.3685 92.7362 52.8847 92.3607 53.354C91.9382 53.7294 91.5159 54.1049 91.1404 54.5742C91.0465 54.715 91.2342 55.0904 91.3751 55.372C91.3751 55.372 91.6567 55.372 91.7506 55.2782C92.2199 54.9027 92.6423 54.5273 93.0647 54.1518C93.4872 54.011 93.9565 53.9172 94.2382 53.6825C94.9422 53.1193 95.5055 52.4154 96.1626 51.8522C96.3504 51.7115 96.7259 51.6645 96.9137 51.7584C97.1014 51.8522 97.3361 52.1807 97.3361 52.4154C97.3361 59.408 97.2422 66.4007 97.2422 73.3464C97.2422 77.0539 97.383 80.8083 97.4299 84.5158C96.8667 84.9382 96.2565 85.2667 95.7402 85.736C95.1301 86.2992 94.4729 86.1584 93.8158 86.1115C93.675 85.8768 93.5342 85.6421 93.3934 85.4544C93.3464 85.3606 93.1117 85.3136 93.0179 85.3605C92.6893 85.5013 92.5954 85.736 92.7362 86.0176C92.877 86.2522 93.1117 86.44 93.2525 86.6277C94.379 88.8803 95.928 90.7575 97.7116 92.5409C97.8055 92.6348 97.9932 92.6348 98.134 92.6817L98.0401 92.5878C97.9932 93.151 97.9932 93.7142 97.8524 94.2304C97.7116 94.6997 97.8994 95.0282 98.0871 95.3567L98.134 95.2629C97.1014 95.0752 97.1014 95.0751 97.1484 96.2484L97.2422 96.1545C96.3035 96.1076 96.3034 96.1076 96.2565 97.1401L96.3503 97.0462C95.5993 96.9524 95.3647 97.3747 95.3647 98.0318L95.4586 97.9848C94.8953 97.7971 94.2851 97.7032 93.8158 97.3278C93.1117 96.8116 92.5015 96.1076 91.8444 95.4975C89.6853 93.3857 87.5732 91.3207 85.414 89.2088C84.0529 87.8948 83.7243 87.8948 82.457 89.0681C81.4713 90.0067 80.5326 90.9453 79.5469 91.8839C71.2859 99.9559 63.0718 108.028 54.8109 116.053C51.713 119.057 52.6049 118.634 48.5683 118.681C45.5643 118.681 42.5603 118.681 39.6033 118.634C39.1808 118.634 38.7584 118.4 38.4298 118.165C38.289 118.071 38.289 117.555 38.4298 117.367C38.8523 116.898 39.4624 116.851 40.0726 116.851C43.3582 116.851 46.6439 116.804 49.9764 116.804C50.7744 116.804 51.4315 116.475 51.9478 115.912C52.8865 114.786 53.8253 113.566 54.764 112.392C60.3965 105.212 66.0289 97.9848 71.6144 90.8045C72.2246 90.0067 73.0696 89.2558 72.9757 88.0825L72.8817 88.1764C73.1633 88.1294 73.492 88.1295 73.6797 87.9887C75.1348 86.44 76.5898 84.8443 77.5286 82.8732C78.3265 82.0285 79.1244 81.1837 79.8754 80.339C81.0019 79.0249 82.0814 77.617 83.2079 76.303C83.6303 75.8337 84.1936 75.7868 84.7569 76.1622C84.9915 76.303 85.3201 76.303 85.6018 76.3969C85.6018 77.0069 85.8364 77.4293 86.5405 77.2885C86.5874 77.5232 86.5874 77.8048 86.6343 78.0394C86.7752 77.9456 86.9629 77.8517 87.1037 77.7578C86.916 77.617 86.6813 77.4762 86.4935 77.3355C86.4935 76.7254 86.2589 76.3499 85.6018 76.4438C85.6956 75.7867 85.3671 75.3174 85.0385 74.8012C84.5222 74.0972 83.912 74.0034 83.1141 74.285C82.2692 74.6135 81.8938 74.3319 81.8938 73.6749C81.8468 72.5016 81.7998 71.2814 81.7998 70.1082C81.7998 63.0686 81.7998 56.029 81.7998 48.9895C81.7998 48.0978 81.7529 47.2061 81.6121 46.3144C81.5652 46.1267 81.1897 45.8451 80.955 45.8451C80.5326 45.8451 80.1101 46.0798 79.6876 46.1736C79.3121 45.7982 79.0306 45.4697 78.702 45.1412ZM88.2772 80.0105C88.2772 79.7758 88.2303 79.4942 88.2303 79.2596C88.0895 79.3535 87.9017 79.4473 87.7609 79.4942C87.9487 79.635 88.1833 79.7758 88.371 79.9166C88.7934 81.3715 88.9813 81.6061 90.2016 81.7C89.7792 82.9671 90.7179 83.5772 91.5628 84.2342C91.7505 84.375 91.8913 84.2342 91.8913 83.9057C91.8913 82.7325 91.4689 81.8877 90.2016 81.7469C89.8731 80.7614 89.5914 79.8697 88.2772 80.0105Z" fill="#FEFEFE"/>
<path d="M140.521 31.2966C141.178 30.7334 141.882 30.1233 142.539 29.5602C143.102 29.0908 143.478 29.0439 144.135 29.4663C144.51 29.7009 144.792 30.0294 145.121 30.3579L145.214 30.311C144.933 30.4049 144.651 30.5457 144.37 30.5457C143.619 30.5457 143.29 30.9681 143.243 31.5782C143.149 32.9391 143.149 34.2532 143.149 35.6142C143.149 45.6103 143.149 55.6534 143.149 65.6496C143.149 69.2163 143.243 72.83 143.29 76.3967C142.539 76.7721 142.164 77.3353 142.445 78.227C141.694 78.0862 141.506 78.5086 141.553 79.1187C140.896 79.0717 140.662 79.4472 140.662 80.0104C139.582 80.7143 139.582 80.7143 139.817 81.8406C139.394 81.4652 139.066 81.6529 138.784 81.9814C138.643 82.1691 138.69 82.4977 138.643 82.7323C138.878 82.6385 139.207 82.6385 139.347 82.4977C139.535 82.3099 139.582 82.0283 139.676 81.7468C140.474 81.3713 140.896 80.8082 140.568 79.9165C141.366 79.8696 141.366 79.8695 141.506 79.0248C142.164 79.0717 142.398 78.6963 142.398 78.1331C143.337 77.9454 143.759 77.1945 144.041 76.3498C144.276 76.209 144.51 76.0212 144.792 75.8805C145.168 75.6927 145.59 75.4581 145.966 75.9274C146.623 76.7252 147.28 77.523 147.937 78.3208C148.876 79.4472 149.861 80.5735 150.8 81.6529C151.082 82.4507 151.551 83.1547 152.349 83.5301C153.1 84.6565 153.804 85.7828 154.649 86.8153C161.736 95.9198 168.871 105.024 175.958 114.129C176.334 114.598 176.662 115.114 177.038 115.537C177.648 116.241 178.352 116.71 179.338 116.71C182.06 116.71 184.736 116.71 187.458 116.71C188.491 116.71 189.57 116.522 190.509 117.132C190.697 117.226 190.697 117.602 190.744 117.883C190.744 117.977 190.65 118.118 190.556 118.212C190.462 118.306 190.321 118.399 190.18 118.446C189.758 118.54 189.289 118.587 188.866 118.587C185.44 118.587 181.966 118.587 178.54 118.587C177.554 118.587 176.803 118.212 176.146 117.602C170.889 112.486 165.632 107.371 160.375 102.208C155.963 97.9378 151.598 93.6202 147.186 89.3026C146.857 88.9741 146.529 88.6925 146.2 88.364C145.778 87.9885 145.074 88.0354 144.557 88.5047C142.164 90.8043 139.817 93.1039 137.423 95.3566C136.766 95.9667 136.109 96.5768 135.405 97.14C134.888 97.5623 134.278 97.4215 133.762 96.9991C133.339 96.6706 132.964 96.7645 132.541 96.9053L132.635 96.9522C132.87 95.6851 132.823 95.6382 131.65 95.9667L131.697 96.0605C131.931 95.732 132.307 95.4505 131.978 94.9342C131.321 93.8079 131.368 92.7754 132.213 91.696C133.762 89.7719 135.264 87.8008 136.766 85.8297C137.141 85.3604 137.282 84.7973 137 84.2341C137.282 84.5157 137.564 84.5157 137.658 84.2341C137.704 84.0933 137.564 83.8586 137.47 83.6709C137.329 83.9056 137.188 84.0933 137.047 84.3279C136.672 84.0933 136.203 83.9056 136.156 83.4363C136.062 82.6854 136.015 81.9345 136.015 81.2305C136.015 67.1983 136.015 53.1192 136.015 39.087C136.015 38.9462 136.015 38.8054 136.015 38.6177C135.921 37.2098 136.249 35.9896 137.329 34.9571C137.705 34.5817 137.892 33.9247 138.127 33.4084C138.784 32.8922 139.488 32.376 140.098 31.8128C140.239 31.8128 140.38 31.5312 140.521 31.2966Z" fill="#FEFEFE"/>
<path d="M120.754 32.2349C122.021 32.0472 122.303 31.9064 122.35 31.2494C122.397 30.4985 122.35 29.7946 122.444 29.0437C122.538 28.4805 122.678 27.8235 123.007 27.4011C125.025 24.8669 127.044 22.3796 129.109 19.8923C129.578 19.3291 130.141 19.5637 130.658 20.5023L130.705 20.4085C130.329 20.5962 129.813 20.7839 129.766 21.3002C129.672 22.3326 129.578 23.3651 129.578 24.4445C129.578 40.964 129.578 57.4835 129.625 74.003C129.625 79.8693 129.672 85.7356 129.719 91.555C129.109 91.555 128.546 91.6019 127.935 91.6019L127.982 91.6958C128.217 90.8041 127.748 90.241 127.044 89.7717L127.09 89.8655C126.95 89.3493 126.715 88.9738 126.105 88.88L126.199 88.9738C126.152 88.3637 125.87 87.9883 125.213 87.9883L125.307 88.0822C125.307 87.4251 125.072 87.0028 124.321 87.0966L124.368 87.1905C124.65 86.2519 124.227 85.6887 123.429 85.2663L123.476 85.3602C123.335 84.7032 122.96 84.3747 122.256 84.4685C122.585 82.6852 122.35 80.9018 122.35 79.1185C122.397 65.3678 122.303 51.6642 122.397 37.9135C122.397 35.8955 122.115 34.1122 120.801 32.5635C120.707 32.4696 120.754 32.2819 120.754 32.1411C120.754 32.188 120.754 32.2349 120.754 32.2349Z" fill="#FEFEFE"/>
<path d="M110.055 77.1005C110.102 75.5987 110.242 74.1439 110.242 72.6421C110.242 62.9275 110.242 53.2599 110.242 43.5453C110.242 42.5128 110.289 41.4334 110.242 40.4009C110.195 39.3215 110.477 38.336 111.134 37.4912C113.106 35.0509 115.077 32.6105 117.048 30.1701C117.33 29.7947 117.799 29.6069 118.222 29.8885C118.691 30.217 119.16 30.6394 118.926 31.3434L118.973 31.2495C118.128 31.2495 117.518 31.5311 117.471 32.4697C117.424 33.8307 117.424 35.1447 117.424 36.5057C117.424 48.0037 117.424 59.5016 117.424 70.9996C117.424 72.3605 117.377 73.6746 117.33 75.0356C117.283 75.6926 116.814 76.068 116.25 76.3027L116.344 76.3496C116.297 75.7395 116.063 75.3172 115.359 75.3641L115.452 75.458C115.593 74.9887 115.405 74.6132 115.124 74.2378C114.748 73.8623 114.279 73.8154 113.997 74.2378C113.763 74.5663 113.716 75.0356 113.622 75.411L113.716 75.3172C113.012 75.2702 112.777 75.6926 112.73 76.3027L112.824 76.2088C112.214 76.2558 111.979 76.6312 111.838 77.1944L111.885 77.1005C111.181 77.1944 110.618 77.1475 110.055 77.1005Z" fill="#FEFEFE"/>
<path d="M152.248 83.577C151.45 83.2015 151.028 82.4976 150.7 81.6998C150.887 81.3243 151.169 80.9489 151.263 80.5265C151.356 79.9633 151.357 79.3533 151.357 78.7432C151.357 65.8842 151.357 53.0253 151.357 40.1664C151.357 38.6646 151.263 37.1628 150.371 35.8957L150.512 35.7549C152.67 36.4588 153.093 36.9751 153.14 38.8054C153.14 39.4155 153.14 40.0256 153.14 40.5887C153.14 53.3538 153.14 66.1189 153.14 78.837C153.234 80.4796 153.187 82.1222 152.248 83.577Z" fill="#EFA915"/>
<path d="M73.021 88.035C72.27 87.9881 71.4721 87.9412 71.4252 86.9087C71.3783 86.1578 71.3782 85.4069 71.3782 84.656C71.3782 74.6129 71.3782 64.5698 71.3782 54.4798C71.3782 53.8697 71.4252 53.2596 71.3782 52.6964C71.3313 51.7109 71.8007 50.96 72.5048 50.3499C74.57 48.6135 76.6352 46.8771 78.7005 45.1406C79.029 45.4691 79.3107 45.7977 79.6392 46.1262C78.9352 46.8301 78.278 47.5341 77.5739 48.238C77.2454 48.5666 77.1985 48.942 77.4332 49.3644L77.4801 49.2705C77.1046 49.0359 76.7291 49.0359 76.3536 49.2705C75.6965 49.7398 74.9924 50.2091 74.7108 51.0539C74.1945 51.1008 73.8659 51.3824 73.7721 51.9455C73.3966 52.1802 73.068 52.4149 73.068 52.9311C73.068 61.8009 73.068 70.6708 73.068 79.5406C73.068 80.2915 73.2557 80.9955 73.3496 81.7463C73.2088 82.5911 72.9741 83.3889 72.9272 84.2337C72.8333 85.5008 72.8802 86.7679 72.8802 88.035C72.9271 88.1289 73.021 88.035 73.021 88.035Z" fill="#FEFEFE"/>
<path d="M121.086 115.209C120.992 116.429 120.945 117.274 120.898 118.165C120.851 118.635 120.194 119.198 119.631 119.198C118.598 119.198 117.566 119.198 116.533 119.151C115.97 119.151 115.359 118.588 115.359 118.024C115.313 116.57 115.313 115.068 115.266 113.613C115.266 113.331 115.266 113.003 115.406 112.768C115.594 112.393 115.876 111.923 116.204 111.877C117.519 111.595 118.833 111.595 120.147 111.923C120.382 111.97 120.663 112.252 120.71 112.487C120.898 113.472 120.992 114.505 121.086 115.209Z" fill="#FEFEFE"/>
<path d="M107.941 115.49C107.988 114.598 108.035 113.706 108.129 112.815C108.176 112.252 108.739 111.735 109.303 111.735C110.335 111.735 111.368 111.735 112.4 111.735C112.964 111.735 113.48 112.345 113.527 112.909C113.574 114.551 113.574 116.194 113.574 117.789C113.574 118.54 112.917 119.103 112.072 119.15C111.18 119.197 110.288 119.15 109.396 119.15C108.645 119.103 108.035 118.493 108.035 117.696C107.988 116.945 108.035 116.194 108.035 115.443C108.035 115.49 107.988 115.49 107.941 115.49Z" fill="#FEFEFE"/>
<path d="M113.527 109.671C112.072 109.671 110.617 109.671 109.161 109.671C108.645 109.671 108.223 109.295 108.223 108.92C108.129 107.042 108.129 105.118 108.223 103.241C108.223 102.913 108.692 102.537 109.208 102.537C110.664 102.537 112.119 102.537 113.574 102.537C113.527 104.884 113.527 107.277 113.527 109.671Z" fill="#FEFEFE"/>
<path d="M115.359 102.537C116.814 102.537 118.27 102.491 119.772 102.537C120.335 102.537 120.851 103.101 120.851 103.664C120.851 105.259 120.851 106.902 120.851 108.498C120.851 109.108 120.335 109.671 119.772 109.671C118.316 109.671 116.861 109.671 115.359 109.671C115.359 107.277 115.359 104.884 115.359 102.537Z" fill="#FEFEFE"/>
<path d="M88.7436 102.866C88.7436 102.913 88.7436 103.476 88.6028 104.039C88.5089 104.462 88.2273 104.837 87.711 104.884C87.1478 104.931 86.5376 104.978 85.9744 104.978C84.6601 104.931 84.1438 104.415 84.0499 103.101C84.0499 102.819 84.003 102.49 84.003 102.209C83.9561 99.2992 84.4255 98.8768 87.2887 99.0645C88.0396 99.1115 88.6028 99.7216 88.6498 100.472C88.6498 100.613 88.6968 100.754 88.6968 100.895C88.7437 101.411 88.7436 101.88 88.7436 102.866Z" fill="#FEFEFE"/>
<path d="M144.979 102.631C144.932 103.053 144.885 103.475 144.838 103.898C144.791 104.367 144.181 104.93 143.618 104.977C142.867 104.977 142.163 105.024 141.412 104.93C141.036 104.883 140.567 104.461 140.52 104.132C140.191 102.677 140.097 101.223 140.614 99.8147C140.708 99.58 140.989 99.2985 141.224 99.2985C142.069 99.2046 142.961 99.2046 143.852 99.2515C144.369 99.2515 144.885 99.9085 144.932 100.472C144.885 101.129 144.932 101.88 144.979 102.631Z" fill="#FEFEFE"/>
<path d="M150.518 109.577C150.471 110.187 150.518 110.797 150.33 111.36C150.236 111.688 149.814 112.111 149.485 112.205C148.781 112.345 148.03 112.299 147.279 112.299C146.622 112.299 146.106 111.782 146.059 111.266C146.012 110.093 146.012 108.92 146.059 107.746C146.059 107.183 146.622 106.62 147.185 106.62C147.936 106.573 148.687 106.526 149.391 106.667C149.72 106.714 150.189 107.136 150.283 107.465C150.471 108.122 150.471 108.873 150.518 109.577Z" fill="#FEFEFE"/>
<path d="M83.0216 101.646C82.9747 102.49 82.9278 103.241 82.8339 103.945C82.787 104.461 82.2237 104.931 81.6135 104.978C81.1911 105.024 80.7217 105.025 80.2993 105.025C79.1258 104.978 78.5626 104.508 78.5156 103.523C78.5156 102.49 78.5157 101.458 78.5626 100.425C78.6095 99.7214 79.2197 99.1582 80.0646 99.1582C80.6748 99.1582 81.238 99.2051 81.8482 99.2051C82.3645 99.2521 82.6931 99.5806 82.787 100.003C82.9278 100.566 82.9747 101.129 83.0216 101.646Z" fill="#FEFEFE"/>
<path d="M82.7815 112.345C81.6081 112.299 80.4347 112.299 79.2612 112.205C79.0265 112.205 78.698 111.876 78.651 111.641C78.3225 110.187 78.3225 108.732 78.6042 107.324C78.6511 107.089 78.9796 106.808 79.2143 106.761C80.4816 106.432 81.7958 106.244 83.0162 107.089C82.9693 108.779 82.8754 110.562 82.7815 112.345Z" fill="#FEFEFE"/>
<path d="M150.514 102.161C150.42 102.818 150.42 103.522 150.279 104.273C150.232 104.508 149.903 104.836 149.669 104.883C148.777 104.977 147.885 105.024 147.04 104.93C146.712 104.883 146.242 104.461 146.148 104.085C145.961 103.381 145.961 102.631 145.961 101.88C145.867 99.1107 146.618 98.8291 149.622 99.2984C149.856 99.3454 150.044 99.6739 150.232 99.8616C150.326 99.9555 150.326 100.143 150.326 100.284C150.42 100.894 150.467 101.457 150.514 102.161Z" fill="#FEFEFE"/>
<path d="M82.7812 112.345C82.8751 110.562 82.969 108.825 83.0629 107.042C83.4383 107.042 83.8606 106.995 84.236 106.995C84.2829 107.887 84.3298 108.778 84.4237 109.67C84.4706 110.233 85.0337 110.421 85.7376 110.046C86.0192 109.905 86.2538 109.811 86.5353 109.67C86.4884 110.093 86.5822 110.609 86.3945 110.89C86.0191 111.5 85.4092 111.97 84.9399 112.486C84.236 112.392 83.4851 112.345 82.7812 112.345Z" fill="#EFA915"/>
<path d="M115.358 102.537C115.358 104.931 115.358 107.277 115.358 109.671C114.748 109.671 114.138 109.671 113.48 109.671C113.48 107.277 113.48 104.931 113.48 102.537C114.138 102.537 114.748 102.537 115.358 102.537Z" fill="#EFA915"/>
<path d="M140.519 31.2967C140.378 31.5314 140.237 31.813 140.049 31.9538C139.392 32.5169 138.735 33.0332 138.078 33.5494C137.985 31.3437 137.891 29.1379 137.797 26.9322L138.078 26.6506C139.017 26.8853 139.674 27.4015 139.721 28.434C139.721 29.0441 139.721 29.6542 139.862 30.1704C139.909 30.6397 140.284 30.9213 140.519 31.2967Z" fill="#EFA915"/>
<path d="M86.5376 109.624C86.2561 109.765 86.0214 109.859 85.7399 109.999C85.036 110.328 84.4729 110.187 84.4259 109.624C84.3321 108.732 84.2852 107.841 84.2383 106.949C85.5522 106.433 86.8661 106.573 88.1331 106.855C87.5699 107.794 86.6315 108.498 86.4438 109.671L86.5376 109.624Z" fill="#FEFEFE"/>
<path d="M86.4453 109.717C86.5861 108.544 87.5245 107.793 88.1346 106.902C88.4631 106.949 88.8386 106.995 89.167 106.995C88.7916 108.075 88.0877 108.92 87.243 109.67C87.0553 109.811 86.7269 109.717 86.4453 109.717Z" fill="#EFA915"/>
<path d="M137.749 26.9328C136.904 26.745 136.199 26.4163 136.059 25.4774C136.34 25.3835 136.481 25.2426 136.575 24.9609C137.561 25.1018 137.89 25.806 138.03 26.6511C138.03 26.698 137.749 26.9328 137.749 26.9328Z" fill="#EFA915"/>
<path d="M110.056 77.1008C110.62 77.1478 111.23 77.1947 111.793 77.2417C112.216 78.1806 111.699 78.6971 110.995 79.1196C110.103 78.6971 109.962 77.9459 110.056 77.1008Z" fill="#EFA915"/>
<path d="M143.99 76.3965C143.709 77.2416 143.286 77.9458 142.347 78.1806L142.394 78.2275C142.113 77.3355 142.488 76.7721 143.239 76.3965C143.521 76.3496 143.756 76.3496 143.99 76.3965Z" fill="#EFA915"/>
<path d="M92.6406 50.961C92.8753 50.3037 93.4383 49.9751 94.0014 49.6465C94.283 49.9751 94.6115 50.2568 94.8931 50.5854C94.4238 51.008 93.9546 51.4305 93.4853 51.8061C93.2038 51.5244 92.9222 51.2427 92.6406 50.961Z" fill="#FEFEFE"/>
<path d="M118.883 31.3436C119.775 31.062 120.338 31.4845 120.714 32.2356L120.761 32.1887C119.916 32.3765 119.352 32.0478 118.93 31.2967L118.883 31.3436Z" fill="#FEFEFE"/>
<path d="M127.939 91.6495C128.55 91.6495 129.113 91.6025 129.724 91.6025C129.536 92.1659 129.16 92.4946 128.644 92.6824C128.127 92.4946 127.893 92.1659 127.939 91.6495Z" fill="#EFA915"/>
<path d="M131.508 21.4412C131.743 21.4882 132.071 21.4412 132.212 21.5821C132.447 21.7699 132.353 22.0046 132.118 21.9107C131.883 21.8168 131.742 21.5821 131.555 21.3943C131.602 21.3943 131.508 21.4412 131.508 21.4412Z" fill="#FEFEFE"/>
<path d="M130.613 20.5494C131.271 20.5024 131.646 20.7372 131.505 21.4883L131.599 21.4414C131.083 21.3475 130.754 21.0658 130.707 20.5024C130.707 20.4555 130.613 20.5494 130.613 20.5494Z" fill="#FEFEFE"/>
<path d="M148.735 33.9248C149.063 34.2534 149.345 34.5351 149.674 34.8638L149.533 35.0046C149.204 34.676 148.922 34.3943 148.594 34.0656L148.735 33.9248Z" fill="#EFA915"/>
<path d="M148.59 34.0662C148.496 33.9253 148.356 33.7375 148.262 33.5967C148.403 33.6906 148.59 33.8314 148.731 33.9253L148.59 34.0662Z" fill="#EFA915"/>
<path d="M145.961 31.3433C146.149 31.4842 146.383 31.578 146.571 31.7189C146.43 31.8128 146.29 31.8597 146.149 31.9536C146.102 31.7189 146.102 31.5311 146.055 31.2963C146.008 31.2494 145.961 31.3433 145.961 31.3433Z" fill="#FEFEFE"/>
<path d="M145.117 30.3585C145.399 30.6871 145.681 31.0157 145.962 31.3444L146.009 31.2974C145.07 31.1096 145.07 31.1096 145.164 30.3115C145.211 30.3115 145.117 30.3585 145.117 30.3585Z" fill="#FEFEFE"/>
<path d="M136.06 25.4779C135.684 25.0553 135.168 24.7267 135.215 24.0225L135.168 24.1164C135.637 24.398 136.107 24.6797 136.576 24.9614C136.483 25.2431 136.342 25.4309 136.06 25.4779Z" fill="#FEFEFE"/>
<path d="M149.672 34.8633C149.954 35.145 150.235 35.4266 150.564 35.7553L150.423 35.8961C150.142 35.6145 149.86 35.3328 149.531 35.0041L149.672 34.8633Z" fill="#EFA915"/>
<path d="M134.32 23.1782C134.038 23.366 133.756 23.3191 133.569 23.0374C133.381 22.8027 133.475 22.5679 133.71 22.6618C133.944 22.7557 134.038 23.0374 134.226 23.2252L134.32 23.1782Z" fill="#FEFEFE"/>
<path d="M134.227 23.2248C134.79 23.2717 135.119 23.5534 135.119 24.1168L135.166 24.0229C134.508 24.0698 134.18 23.8351 134.273 23.1309C134.32 23.1778 134.227 23.2248 134.227 23.2248Z" fill="#FEFEFE"/>
<path d="M118.266 164.204C118.266 161.81 118.266 159.417 118.266 157.023C118.266 156.178 118.782 155.803 119.768 155.756C121.035 155.662 122.068 155.944 122.865 157.07C124.649 159.651 126.527 162.186 128.404 164.72C128.545 164.907 128.874 164.954 129.155 165.048C129.296 165.095 129.531 164.954 129.578 164.907C129.671 164.485 129.718 164.016 129.718 163.593C129.765 161.482 129.718 159.37 129.765 157.305C129.765 156.225 130.282 155.803 131.502 155.803C131.643 155.803 131.784 155.803 131.971 155.803C132.582 155.85 133.192 156.319 133.239 156.835C133.239 156.976 133.286 157.117 133.286 157.305C133.286 162.092 133.286 166.925 133.286 171.712C133.286 172.322 132.769 172.792 132.112 172.839C131.971 172.839 131.831 172.839 131.643 172.886C130.516 172.979 129.578 172.745 128.873 171.759C127.325 169.554 125.776 167.348 124.18 165.142C123.851 164.673 123.382 164.297 122.912 163.969C122.772 163.875 122.302 164.016 122.208 164.204C122.021 164.579 121.927 165.048 121.88 165.471C121.833 167.442 121.833 169.366 121.833 171.337C121.833 172.792 121.035 172.98 119.721 172.933C119.58 172.933 119.439 172.886 119.298 172.839C118.782 172.792 118.407 172.416 118.36 171.994C118.219 170.962 118.219 169.882 118.219 168.85C118.219 167.348 118.219 165.846 118.219 164.344C118.219 164.204 118.219 164.204 118.266 164.204Z" fill="#FA8E15"/>
<path d="M158.821 172.839C157.789 172.745 156.756 172.745 155.724 172.604C155.489 172.557 155.254 172.229 155.113 171.994C154.973 171.76 154.973 171.431 154.973 171.102C154.973 166.503 154.973 161.857 154.973 157.258C154.973 156.976 155.02 156.648 155.16 156.413C155.301 156.179 155.583 155.85 155.818 155.85C157.742 155.803 159.666 155.756 161.591 155.85C162.154 155.85 162.717 156.179 163.234 156.46C164.219 156.976 164.782 157.821 165.017 158.901C165.252 160.121 165.158 161.294 164.595 162.373C164.266 162.937 164.219 163.453 164.736 163.969C165.158 164.391 165.627 164.814 165.956 165.283C167.505 167.489 166.801 170.539 164.454 171.853C163.703 172.276 162.811 172.557 161.966 172.698C160.934 172.839 159.901 172.745 158.821 172.745C158.821 172.745 158.821 172.792 158.821 172.839ZM158.587 167.442C158.634 168.005 158.634 168.615 158.821 169.131C158.962 169.46 159.432 169.788 159.807 169.835C160.746 169.976 161.544 169.648 162.248 169.038C162.905 168.474 163.046 167.442 162.576 166.597C161.966 165.565 160.887 165.189 159.479 165.518C159.244 165.565 158.962 165.846 158.868 166.081C158.681 166.503 158.634 166.926 158.587 167.442ZM158.634 160.262C158.681 160.59 158.681 161.059 158.821 161.435C158.915 161.669 159.244 161.857 159.479 161.951C160.136 162.186 160.652 161.857 161.028 161.388C161.403 160.919 161.497 160.308 161.215 159.745C160.934 159.135 160.042 158.619 159.432 158.76C159.197 158.807 158.962 159.041 158.821 159.276C158.681 159.558 158.681 159.886 158.634 160.262Z" fill="#FA8E15"/>
<path d="M53.0736 161.81C53.0736 160.308 53.0736 158.806 53.0736 157.304C53.0736 156.178 53.5899 155.756 54.7634 155.756C55.045 155.756 55.3735 155.849 55.6551 155.849C56.2184 155.896 56.5001 156.366 56.547 156.694C56.6409 158.806 56.6408 160.871 56.6877 162.983C56.7347 164.344 56.7347 165.705 56.8286 167.019C56.9224 168.192 58.049 169.131 59.3163 169.225C60.8652 169.318 62.1325 168.521 62.3202 167.16C62.461 166.127 62.5549 165.095 62.5549 164.015C62.6018 161.763 62.6019 159.51 62.6019 157.257C62.6019 156.131 63.1182 155.756 64.3385 155.709C64.6202 155.709 64.9957 155.662 65.2304 155.803C65.6059 155.99 65.9345 156.319 66.1692 156.647C66.31 156.882 66.3099 157.21 66.3099 157.492C66.3099 160.355 66.3568 163.218 66.3099 166.033C66.2629 167.066 66.0752 168.145 65.7466 169.084C64.9957 171.243 63.3529 172.51 61.0999 172.791C60.2081 172.885 59.3163 172.885 58.4245 172.838C55.6083 172.651 53.3083 170.445 53.1206 167.629C52.9798 165.705 53.0736 163.734 53.0736 161.81Z" fill="#FA8E15"/>
<path d="M107.096 172.745C106.11 172.792 105.312 172.605 104.843 171.619C104.702 171.337 104.608 171.056 104.467 170.821C104.092 169.93 103.388 169.413 102.402 169.366C101.369 169.366 100.29 169.366 99.2573 169.366C98.0369 169.319 97.192 169.93 96.8634 171.009C96.3471 172.745 95.1737 172.886 93.6717 172.698C93.2023 172.652 92.8269 172.182 92.9207 171.807C93.0146 171.525 93.0146 171.197 93.1084 170.915C94.939 166.316 96.7696 161.717 98.6471 157.118C98.8817 156.601 99.1164 156.038 99.7735 155.757C100.759 155.334 102.12 155.757 102.496 156.648C104.561 161.67 106.579 166.644 108.598 171.666C108.785 172.088 108.457 172.558 108.035 172.605C107.659 172.698 107.377 172.745 107.096 172.745ZM102.027 165.283C101.886 164.392 101.698 163.547 101.088 162.843C100.994 162.749 100.853 162.562 100.759 162.608C100.525 162.655 100.196 162.749 100.102 162.937C99.7735 163.735 99.4919 164.58 99.2103 165.377C99.1164 165.706 99.5389 166.222 99.9613 166.269C100.384 166.316 100.853 166.269 101.275 166.222C101.698 166.222 102.073 165.659 102.027 165.283Z" fill="#FA8E15"/>
<path d="M150.515 172.745C149.576 172.792 148.684 172.651 148.262 171.665C148.027 171.102 147.793 170.539 147.417 170.117C147.182 169.788 146.713 169.507 146.291 169.46C145.258 169.366 144.225 169.413 143.193 169.319C141.691 169.225 140.705 169.835 140.095 171.243C139.391 172.792 138.734 172.933 136.809 172.604C136.622 172.557 136.434 172.229 136.293 171.994C136.246 171.9 136.246 171.665 136.293 171.572C138.311 166.597 140.283 161.622 142.301 156.648C142.63 155.803 143.334 155.662 144.132 155.662C144.929 155.662 145.587 155.944 145.915 156.742C147.933 161.716 149.952 166.691 151.97 171.618C152.158 172.041 151.829 172.557 151.407 172.604C151.078 172.698 150.797 172.745 150.515 172.745ZM143.944 166.315C144.225 166.315 144.554 166.268 144.836 166.268C145.352 166.221 145.727 165.799 145.54 165.424C145.211 164.626 144.882 163.828 144.46 163.077C144.366 162.889 143.756 162.749 143.709 162.842C143.099 163.64 142.536 164.532 142.583 165.564C142.583 165.799 142.864 166.081 143.099 166.175C143.334 166.362 143.662 166.315 143.944 166.315Z" fill="#FA8E15"/>
<path d="M124.419 187.715C124.419 187.105 124.419 186.495 124.419 185.932C124.56 177.719 123.199 179.221 131.225 179.08C131.976 179.08 132.727 179.174 133.431 179.362C133.666 179.409 133.901 179.737 133.948 179.972C134.042 180.394 134.042 180.864 133.995 181.286C133.948 181.943 133.431 182.412 132.821 182.459C131.648 182.553 130.427 182.553 129.254 182.694C128.878 182.741 128.362 183.069 128.221 183.398C128.034 183.914 127.94 184.571 128.409 185.087C128.597 185.275 128.878 185.557 129.113 185.557C130.287 185.697 131.507 185.744 132.68 185.838C133.338 185.885 133.901 186.307 133.948 186.871C133.995 187.434 133.901 188.044 133.713 188.56C133.666 188.748 133.244 188.936 132.962 188.982C131.929 189.076 130.85 189.076 129.817 189.17C128.503 189.264 128.034 189.733 128.034 191.188C128.034 192.033 128.503 192.549 129.395 192.596C130.568 192.643 131.789 192.69 132.962 192.784C133.525 192.831 133.948 193.347 133.995 194.051C134.089 195.506 133.619 196.116 132.352 196.163C130.099 196.163 127.846 196.116 125.593 196.116C125.03 196.116 124.419 195.553 124.419 194.99C124.419 192.596 124.419 190.203 124.419 187.809C124.513 187.715 124.466 187.715 124.419 187.715Z" fill="#FA8E15"/>
<path d="M180.365 164.016C180.365 161.763 180.365 159.51 180.365 157.258C180.365 156.366 180.881 155.756 181.632 155.756C184.026 155.756 186.42 155.756 188.813 155.756C189.564 155.756 189.987 156.366 189.987 157.352C189.987 158.572 189.564 159.088 188.485 159.135C187.311 159.182 186.091 159.229 184.918 159.323C184.448 159.37 184.026 160.027 184.073 160.684C184.12 161.857 184.589 162.467 185.575 162.514C186.607 162.561 187.687 162.561 188.719 162.655C189.658 162.702 190.222 163.593 189.94 164.626C189.846 165.001 189.471 165.47 189.142 165.517C187.969 165.705 186.748 165.705 185.575 165.799C184.448 165.893 183.603 167.535 184.214 168.521C184.354 168.756 184.683 168.99 184.918 169.037C186.091 169.131 187.311 169.178 188.485 169.272C189.564 169.319 189.987 169.882 189.987 171.055C189.987 172.041 189.611 172.651 188.86 172.651C186.466 172.698 184.073 172.698 181.679 172.651C180.881 172.651 180.365 172.041 180.365 171.149C180.318 168.803 180.365 166.409 180.365 164.016Z" fill="#FA8E15"/>
<path d="M91.0009 178.893C91.658 178.986 92.6906 179.127 93.6763 179.362C94.5212 179.55 95.1783 180.394 95.2252 181.333C95.2722 181.755 95.2252 182.225 95.1783 182.694C95.1313 183.116 94.5681 183.586 94.2395 183.492C93.2538 183.21 92.2682 182.835 91.2356 182.694C88.4663 182.319 86.5888 183.586 85.9317 186.308C85.5092 187.997 85.8378 189.593 86.8704 191.001C87.6214 191.986 88.654 192.596 89.9213 192.643C91.1417 192.69 92.2682 192.455 93.3947 192.033C94.709 191.517 95.2252 192.033 95.2252 193.582C95.2252 193.723 95.2252 193.863 95.2252 194.051C95.1783 194.708 94.9437 195.224 94.3335 195.459C88.5133 197.806 83.8665 195.131 82.3645 190.391C81.0972 186.401 82.3175 182.084 86.6827 179.69C87.9031 178.94 89.2642 178.94 91.0009 178.893Z" fill="#FA8E15"/>
<path d="M45.1387 155.568C46.3122 155.615 47.3448 155.662 48.3305 156.225C48.9876 156.601 49.41 157.117 49.3161 157.539C49.0814 158.29 48.6121 158.853 47.908 159.135C47.6264 159.229 47.3448 159.276 47.0162 159.276C46.4061 159.229 45.8428 159.088 45.2326 159.041C44.6224 158.994 44.0122 159.464 43.9183 160.027C43.8245 160.684 44.0122 161.294 44.4816 161.622C45.1856 162.139 46.0774 162.467 46.8284 162.936C47.4855 163.312 48.1427 163.687 48.7059 164.157C50.0671 165.283 50.6773 167.395 50.114 169.037C49.2692 171.431 46.9224 172.839 45.0449 172.933C42.9797 173.026 41.196 172.557 39.7878 170.962C39.5531 170.68 39.5062 170.445 39.694 170.117C39.9287 169.741 40.1634 169.366 40.445 168.99C41.0552 168.286 41.6184 168.146 42.4164 168.474C42.8388 168.662 43.2143 168.897 43.6368 169.037C44.6694 169.366 45.4673 169.084 45.9836 168.286C46.4061 167.583 46.0774 166.456 45.1856 165.987C44.1061 165.424 43.0266 164.954 41.947 164.391C40.9613 163.875 40.398 163.03 40.0225 161.998C39.0368 159.182 41.0552 155.944 43.9653 155.615C44.3878 155.568 44.8102 155.568 45.1387 155.568Z" fill="#FA8E15"/>
<path d="M74.43 155.568C75.9789 155.568 77.2932 155.709 78.4197 156.554C78.8891 156.929 78.983 157.539 78.5605 158.102C77.9973 158.853 77.3401 159.369 76.3075 159.276C75.5565 159.182 74.8525 159.135 74.1015 159.135C73.4444 159.135 72.928 160.355 73.3504 160.871C73.6321 161.2 73.9137 161.575 74.2892 161.81C74.7586 162.138 75.3219 162.373 75.8851 162.655C76.4014 162.936 76.9646 163.171 77.4809 163.499C80.3441 165.283 80.7196 168.756 78.2788 171.149C76.4483 172.932 73.6321 173.449 71.2383 172.322C70.5811 171.994 70.018 171.478 69.4547 171.008C69.267 170.867 69.22 170.492 69.2669 170.257C69.4547 169.506 69.9241 168.943 70.5812 168.521C70.8159 168.38 71.1914 168.286 71.4261 168.333C72.1301 168.568 72.7872 168.896 73.4913 169.131C74.1484 169.319 75.0402 168.943 75.4626 168.38C75.7912 167.911 75.7912 167.066 75.4626 166.691C75.1341 166.362 74.8525 166.034 74.477 165.799C73.5383 165.33 72.5526 164.954 71.6608 164.438C69.22 163.124 68.6098 159.698 70.3465 157.445C71.3791 156.084 72.8341 155.521 74.43 155.568Z" fill="#FA8E15"/>
<path d="M141.975 178.893C143.101 178.94 144.322 178.986 145.354 179.69C146.058 180.16 146.199 180.817 145.683 181.568C145.12 182.365 144.416 182.788 143.383 182.6C142.82 182.506 142.209 182.318 141.646 182.412C141.271 182.459 140.848 182.882 140.707 183.21C140.567 183.586 140.661 184.149 140.895 184.43C141.271 184.9 141.787 185.228 142.303 185.51C143.195 186.026 144.181 186.448 145.073 187.012C147.373 188.56 147.701 192.033 145.824 194.145C143.805 196.351 141.177 196.867 138.501 195.553C137.844 195.224 137.281 194.708 136.671 194.286C136.389 194.051 136.342 193.816 136.483 193.488C136.624 193.206 136.718 192.925 136.906 192.69C137.704 191.752 138.22 191.235 139.581 191.892C140.097 192.174 140.661 192.409 141.271 192.455C141.646 192.502 142.163 192.268 142.491 192.033C143.336 191.423 143.336 190.297 142.585 189.734C142.209 189.452 141.881 189.17 141.459 188.983C140.801 188.654 140.097 188.373 139.393 188.044C135.826 186.495 135.967 181.708 138.548 179.878C139.44 179.221 140.379 178.893 141.975 178.893Z" fill="#FA8E15"/>
<path d="M87.1484 155.756C88.6504 155.756 90.1523 155.756 91.6543 155.756C92.2645 155.756 92.687 156.272 92.7339 156.929C92.7808 157.211 92.7809 157.539 92.7809 157.821C92.7339 158.525 92.4053 159.041 91.889 159.182C91.3258 159.276 90.7157 159.37 90.1055 159.416C89.5892 159.463 89.2605 159.839 89.2136 160.261C89.0728 161.153 89.0259 162.045 89.0259 162.936C88.979 165.611 89.0258 168.333 88.9789 171.008C88.9789 172.322 88.4156 172.745 86.9606 172.745C86.8198 172.745 86.679 172.745 86.4912 172.698C85.8341 172.651 85.2239 172.182 85.2239 171.665C85.177 169.882 85.1301 168.052 85.1301 166.268C85.1301 164.907 85.1301 163.593 85.1301 162.232C85.0831 159.792 85.0831 159.792 82.4077 159.182C81.6098 158.994 81.2812 158.525 81.2812 157.539C81.2812 156.272 81.6567 155.709 82.6894 155.709C84.1444 155.709 85.6464 155.756 87.1484 155.756Z" fill="#FA8E15"/>
<path d="M109.398 179.034C110.759 179.034 112.074 179.034 113.435 179.034C114.749 179.08 115.218 179.597 115.171 181.005C115.125 181.943 114.796 182.366 113.951 182.553C113.669 182.6 113.341 182.6 113.059 182.647C111.792 182.882 111.416 183.21 111.37 184.29C111.323 186.402 111.323 188.467 111.323 190.578C111.323 191.939 111.323 193.253 111.276 194.614C111.229 195.647 110.666 196.069 109.445 196.069C108.037 196.069 107.521 195.6 107.521 194.192C107.474 191.329 107.521 188.513 107.474 185.651C107.474 185.041 107.427 184.477 107.38 183.867C107.333 183.257 106.958 182.788 106.3 182.694C105.69 182.6 105.08 182.6 104.517 182.459C104.141 182.319 103.719 182.037 103.719 181.474C103.719 181.192 103.672 180.864 103.672 180.582C103.672 179.597 104.094 179.08 104.892 179.034C106.394 178.987 107.896 179.034 109.398 179.034C109.398 179.08 109.398 179.08 109.398 179.034Z" fill="#FA8E15"/>
<path d="M169.054 164.204C169.054 161.951 169.054 159.699 169.054 157.446C169.054 156.038 169.57 155.616 170.978 155.663C171.119 155.663 171.26 155.663 171.448 155.663C172.058 155.71 172.715 156.226 172.715 156.695C172.762 158.478 172.809 160.309 172.809 162.092C172.809 163.312 172.809 164.486 172.809 165.706C172.809 168.569 172.668 169.179 175.954 169.085C176.235 169.085 176.611 169.085 176.845 169.226C177.221 169.46 177.596 169.742 177.549 170.258C177.549 170.727 177.549 171.15 177.549 171.619C177.549 172.135 177.221 172.464 176.799 172.605C176.376 172.745 175.907 172.745 175.484 172.745C168.021 172.605 169.101 174.012 169.007 166.457C169.007 165.706 169.054 164.955 169.054 164.204Z" fill="#FA8E15"/>
<path d="M115.125 164.485C115.125 166.738 115.172 168.943 115.125 171.196C115.078 172.463 114.75 172.651 113.436 172.745C113.295 172.745 113.154 172.745 112.967 172.745C111.981 172.698 111.465 172.322 111.418 171.525C111.418 171.243 111.371 170.914 111.371 170.633C111.371 166.315 111.371 161.998 111.371 157.68C111.371 157.398 111.418 157.07 111.418 156.788C111.465 156.225 111.981 155.709 112.591 155.709C113.014 155.709 113.483 155.709 113.952 155.709C114.515 155.756 115.078 156.319 115.078 156.882C115.125 157.492 115.125 158.055 115.125 158.666C115.172 160.637 115.125 162.561 115.125 164.485Z" fill="#FA8E15"/>
<path d="M101.556 187.622C101.556 189.686 101.556 191.798 101.556 193.863C101.556 195.881 100.805 196.398 98.6938 195.975C98.3653 195.928 97.99 195.459 97.8023 195.083C97.6146 194.708 97.6615 194.192 97.6615 193.769C97.6615 189.593 97.6615 185.416 97.6615 181.239C97.6615 180.817 97.7085 180.347 97.8492 179.925C97.9431 179.69 98.1307 179.362 98.3653 179.268C99.21 178.846 100.102 178.892 100.946 179.315C101.181 179.409 101.416 179.737 101.416 180.019C101.509 181.661 101.556 183.304 101.556 184.946C101.603 185.838 101.556 186.73 101.556 187.622Z" fill="#EFA915"/>
<path d="M120.941 187.575C120.941 189.828 120.941 192.034 120.941 194.286C120.941 195.647 120.331 196.117 119.017 196.07C117.891 196.023 117.375 195.553 117.375 194.427C117.328 189.969 117.328 185.51 117.328 181.005C117.328 179.409 117.844 178.94 119.534 179.034C120.378 179.081 120.894 179.55 120.941 180.395C120.941 182.835 120.894 185.229 120.941 187.575Z" fill="#FA8E15"/>
<path d="M118.972 31.25C119.348 32.0009 119.911 32.3763 120.803 32.1417C120.803 32.2825 120.756 32.4702 120.85 32.564C122.117 34.1127 122.445 35.8961 122.445 37.9141C122.352 51.6647 122.398 65.3684 122.398 79.119C122.398 80.9024 122.633 82.6858 122.305 84.4691L122.117 84.4222C119.864 82.2634 118.127 79.6822 116.344 77.1479C116.203 76.9602 116.25 76.5848 116.25 76.3032C116.86 76.0686 117.329 75.6931 117.329 75.0361C117.423 73.6751 117.423 72.3611 117.423 71.0001C117.423 59.5021 117.423 48.0042 117.423 36.5062C117.423 35.1452 117.423 33.8312 117.47 32.4702C117.47 31.5316 118.127 31.2969 118.972 31.25Z" fill="#FA8E15"/>
<path d="M93.5326 51.805C94.002 51.3826 94.4713 50.9603 94.9407 50.5848C95.457 50.2563 95.9265 49.8808 96.4428 49.5993C96.9122 49.3177 97.2876 48.5668 97.9448 49.083C98.2264 49.3177 98.2733 49.8809 98.2733 50.2563C98.2733 52.509 98.1794 54.7616 98.1794 57.0143C98.1794 64.9455 98.1794 72.9237 98.1794 80.8549C98.1794 82.0282 98.0386 83.2484 97.9916 84.4216C97.8508 84.4686 97.6631 84.4686 97.5223 84.4686C97.4284 80.7611 97.3346 77.0066 97.3346 73.2991C97.3346 66.3065 97.4284 59.3139 97.4284 52.3682C97.4284 52.1335 97.2407 51.805 97.006 51.7111C96.8183 51.6173 96.3958 51.6642 96.255 51.805C95.5979 52.3682 94.9877 53.0721 94.3306 53.6353C94.0021 53.9169 93.5327 53.9638 93.1572 54.1046C92.9225 53.87 92.6878 53.5884 92.4531 53.3537C92.7347 52.8375 93.1102 52.3212 93.5326 51.805Z" fill="#EFA915"/>
<path d="M97.521 84.4688C97.6618 84.4688 97.8496 84.4688 97.9904 84.4219C98.6006 87.1438 98.2251 89.8658 98.2721 92.5878C98.1312 92.5408 97.9435 92.5409 97.8497 92.447C96.113 90.6636 94.5171 88.7864 93.3906 86.5337C93.5784 86.346 93.7191 86.2052 93.9069 86.0175C94.564 86.0645 95.2212 86.2052 95.8313 85.6421C96.3476 85.2197 96.9578 84.8912 97.521 84.4688Z" fill="#FA8E15"/>
<path d="M98.1784 95.3568C97.9907 94.9813 97.8029 94.6998 97.9437 94.2305C98.0845 93.7142 98.0845 93.1511 98.1315 92.5879C98.7418 92.5879 99.3522 92.5879 99.9625 92.5879C100.056 93.9019 99.2582 94.6997 98.1784 95.3568Z" fill="#FA8E15"/>
<path d="M104.519 87.1436C104.096 88.5989 103.908 88.8337 102.688 88.9276L102.734 88.9745C102.734 88.1764 103.204 87.613 103.814 87.2375C104.002 87.0966 104.331 87.2375 104.612 87.2375C104.565 87.1905 104.519 87.1436 104.519 87.1436Z" fill="#EFA915"/>
<path d="M113.48 75.5057C113.621 75.0832 113.668 74.6607 113.856 74.332C114.138 73.9095 114.654 73.9564 114.983 74.332C115.312 74.6607 115.452 75.0832 115.312 75.5527C114.748 75.5057 114.138 75.5057 113.48 75.5057Z" fill="#EFA915"/>
<path d="M127.047 89.8193C127.752 90.2419 128.221 90.8053 127.986 91.7442C127.094 91.3686 126.672 90.8052 127.047 89.8193Z" fill="#EFA915"/>
<path d="M102.685 88.9746C103.014 89.8666 102.592 90.43 101.793 90.7586L101.84 90.8525C101.606 89.7258 101.606 89.6788 102.685 88.9746Z" fill="#EFA915"/>
<path d="M123.434 85.3135C124.232 85.6891 124.655 86.2994 124.373 87.2383C123.575 86.8158 123.106 86.2524 123.434 85.3135Z" fill="#EFA915"/>
<path d="M105.362 85.3135C105.597 86.4402 105.597 86.4402 104.517 87.1914L104.564 87.2383C104.188 86.2994 104.611 85.783 105.456 85.4074L105.362 85.3135Z" fill="#EFA915"/>
<path d="M122.117 84.4688L122.305 84.5157C123.009 84.3748 123.385 84.7504 123.526 85.4077C123.291 85.4547 122.962 85.5485 122.821 85.4546C122.493 85.173 122.305 84.7974 122.117 84.4688Z" fill="#EFA915"/>
<path d="M105.455 85.3606C105.502 85.2197 105.502 85.0789 105.549 84.9381C105.736 84.5625 106.065 84.2338 106.534 84.3277C107.004 84.4216 106.534 85.2667 105.783 85.5014C105.689 85.5484 105.549 85.3606 105.408 85.2667C105.361 85.3136 105.455 85.3606 105.455 85.3606Z" fill="#EFA915"/>
<path d="M100.008 92.588C100.008 91.9777 100.196 91.6021 100.9 91.696C100.947 92.2593 100.712 92.6819 100.008 92.588Z" fill="#EFA915"/>
<path d="M97.2885 96.2488C97.2415 95.0751 97.2416 95.0751 98.2744 95.2629C98.1805 95.8263 97.9458 96.2488 97.2885 96.2488Z" fill="#FA8E15"/>
<path d="M115.312 75.4108C116.017 75.3638 116.251 75.7864 116.298 76.3967C115.594 76.4437 115.359 76.0211 115.312 75.4108Z" fill="#FA8E15"/>
<path d="M96.3984 97.1404C96.4454 96.1075 96.4454 96.1075 97.3844 96.1545C97.3374 96.8117 97.1496 97.2343 96.3984 97.1404Z" fill="#FA8E15"/>
<path d="M131.508 96.1548C132.682 95.8262 132.728 95.8732 132.494 97.1408C131.742 97.2347 131.555 96.8121 131.508 96.1548Z" fill="#FA8E15"/>
<path d="M112.59 76.3967C112.637 75.7864 112.872 75.3638 113.576 75.4108C113.576 76.0681 113.341 76.4906 112.59 76.3967Z" fill="#EFA915"/>
<path d="M95.457 98.0321C95.457 97.3749 95.6918 96.9523 96.443 97.0462C96.443 98.126 96.4429 98.126 95.457 98.0321Z" fill="#FA8E15"/>
<path d="M126.105 88.9268C126.716 88.9737 126.95 89.3493 127.091 89.9127C126.199 89.9127 126.199 89.9127 126.105 88.9268Z" fill="#EFA915"/>
<path d="M111.699 77.2889C111.793 76.7724 112.075 76.3499 112.685 76.303C112.591 77.3358 112.591 77.3358 111.699 77.2889Z" fill="#EFA915"/>
<path d="M124.324 87.1442C125.075 87.0034 125.31 87.4729 125.31 88.1301C124.653 88.1301 124.371 87.7076 124.324 87.1442Z" fill="#EFA915"/>
<path d="M125.215 88.0358C125.872 87.9888 126.154 88.4114 126.201 89.0217C125.497 89.0686 125.262 88.6461 125.215 88.0358Z" fill="#EFA915"/>
<path d="M101.794 90.7578C101.747 91.3212 101.513 91.6498 100.902 91.6968C101.043 90.7109 101.043 90.7109 101.841 90.8517C101.888 90.8517 101.794 90.7578 101.794 90.7578Z" fill="#EFA915"/>
<path d="M77.4334 49.3646C77.1987 48.9422 77.2456 48.5668 77.5741 48.2382C78.2313 47.5343 78.9354 46.8303 79.6395 46.1264C80.0619 45.9856 80.4843 45.7979 80.9067 45.7979C81.1414 45.7979 81.5638 46.0794 81.5638 46.2672C81.6577 47.1588 81.7516 48.0505 81.7516 48.9422C81.7516 55.9818 81.7516 63.0213 81.7516 70.0609C81.7516 71.2341 81.7985 72.4543 81.8455 73.6276C81.8455 74.3315 82.221 74.5662 83.0659 74.2377C83.9108 73.9561 84.4739 74.003 84.9903 74.7539C85.3658 75.2702 85.6474 75.7395 85.5535 76.3965L85.6005 76.3495C85.3188 76.2557 84.9903 76.2557 84.7556 76.1149C84.1923 75.7394 83.6291 75.7864 83.2066 76.2557C82.0801 77.5698 81.0006 78.9307 79.8741 80.2917C79.1231 81.1834 78.3252 81.9812 77.5273 82.826C77.1048 81.9812 76.3538 81.7935 75.509 81.6996C75.7906 81.3711 76.0722 80.9957 76.3069 80.6671C76.8232 79.8693 77.0109 79.0246 76.4477 78.1798C76.213 77.8044 76.0253 77.5228 76.3538 77.0535C76.6355 76.5842 76.8232 75.9272 76.7762 75.364C76.6354 73.8622 77.0109 72.3605 76.7762 70.9056C76.5416 69.4039 77.011 67.949 76.7294 66.4472C76.5416 65.4617 76.8701 64.3354 76.6354 63.3498C76.4477 62.6459 76.0722 62.1296 76.4947 61.4257C76.7294 61.0502 76.8232 60.5809 76.8232 60.1585C76.8232 57.4835 76.7763 54.8554 76.6824 52.1804C76.6824 51.6172 76.1192 51.6641 75.6498 51.7111C75.509 51.7111 75.3681 51.805 75.2273 51.8519C75.0395 51.6172 74.8518 51.3826 74.6641 51.1948C74.9457 50.3501 75.6497 49.9277 76.3069 49.4115C76.6824 49.1299 77.0579 49.1768 77.4334 49.4115C77.762 50.397 76.8232 51.4764 77.8088 52.3681C78.0905 52.6028 78.0905 52.8374 77.9497 53.119C77.2925 54.1984 77.0579 55.3247 77.2926 56.5449C77.3865 56.9673 77.3395 57.4366 77.2926 57.9059C77.2926 60.7217 77.2925 63.5375 77.2456 66.3534C77.2456 67.0104 77.668 67.4328 78.0435 67.9021C76.7762 69.8262 77.3864 71.985 77.2456 74.003C77.1517 75.4579 77.3396 76.9597 77.4334 78.4145C77.4334 78.743 78.2313 79.1185 78.5129 78.9777C79.7802 78.3206 80.7189 77.3351 80.6251 75.8333C80.4373 73.1583 80.5781 70.5302 80.6251 67.8551C80.672 66.2126 80.3435 64.57 80.5312 62.9744C80.719 61.191 80.4843 59.4546 80.5782 57.6712C80.719 54.8554 80.5313 52.0396 80.4843 49.2238C80.4843 48.9422 79.7802 48.4729 79.4986 48.6137C78.8415 48.8953 78.2314 49.4115 77.4334 49.3646Z" fill="#EFA915"/>
<path d="M75.5582 81.7002C76.4031 81.7941 77.154 81.9818 77.5764 82.8265C76.5907 84.7507 75.1826 86.3463 73.7276 87.9419C73.5868 88.1297 73.2113 88.0827 72.9297 88.1297C72.9297 86.8625 72.8828 85.5954 72.9767 84.3283C73.0236 83.4835 73.2582 82.6857 73.3991 81.841C74.15 82.1695 74.8542 81.841 75.5582 81.7002Z" fill="#FA8E15"/>
<path d="M90.1088 81.7939C91.3764 81.9348 91.7988 82.7798 91.7988 83.9535C91.7988 84.2822 91.7049 84.423 91.4702 84.2822C90.6721 83.6249 89.7332 83.0146 90.1088 81.7939Z" fill="#EFA915"/>
<path d="M90.1553 81.7479C88.9816 81.654 88.7469 81.4193 88.3243 79.9639L88.2305 80.0108C89.592 79.87 89.8736 80.762 90.1553 81.7479Z" fill="#EFA915"/>
<path d="M93.0637 54.1048C92.6412 54.4803 92.2188 54.8559 91.7493 55.2315C91.6554 55.3254 91.3737 55.3254 91.3737 55.3254C91.2798 55.0437 91.045 54.6681 91.1389 54.5273C91.4676 54.0578 91.937 53.7292 92.3595 53.3066C92.5943 53.5883 92.829 53.87 93.0637 54.1048Z" fill="#EFA915"/>
<path d="M86.5406 77.2416C85.8364 77.3825 85.6017 77.0069 85.6017 76.3496L85.5547 76.3966C86.212 76.3496 86.4468 76.6782 86.4468 77.2886L86.5406 77.2416Z" fill="#EFA915"/>
<path d="M88.3213 79.9639C88.1335 79.823 87.8987 79.6822 87.7109 79.5414C87.8518 79.4475 88.0396 79.3536 88.1804 79.3066C88.1804 79.5414 88.2274 79.8231 88.2274 80.0578C88.2744 80.0108 88.3213 79.9639 88.3213 79.9639Z" fill="#EFA915"/>
<path d="M93.3896 86.5809C93.2018 86.3931 93.014 86.2053 92.8732 85.9706C92.6854 85.6889 92.8263 85.4542 93.1549 85.3133C93.2488 85.2664 93.4365 85.3133 93.5304 85.4072C93.7182 85.595 93.8121 85.8298 93.953 86.0645C93.7182 86.2523 93.5774 86.4401 93.3896 86.5809Z" fill="#FA8E15"/>
<path d="M86.4922 77.2881C86.68 77.429 86.9147 77.5698 87.1025 77.7107C86.9617 77.8046 86.7739 77.8985 86.6331 77.9924C86.5861 77.7576 86.5861 77.476 86.5392 77.2412L86.4922 77.2881Z" fill="#EFA915"/>
<path d="M139.673 81.7472C139.58 81.9819 139.486 82.3106 139.345 82.4983C139.204 82.6392 138.875 82.6861 138.641 82.7331C138.688 82.4983 138.641 82.1697 138.781 81.9819C139.016 81.6063 139.392 81.4655 139.814 81.8411L139.673 81.7472Z" fill="#EFA915"/>
<path d="M139.719 81.8418C139.485 80.715 139.485 80.715 140.564 80.0108L140.517 79.9639C140.846 80.8559 140.424 81.4193 139.625 81.7948C139.672 81.7479 139.719 81.8418 139.719 81.8418Z" fill="#EFA915"/>
<path d="M141.505 79.0718C141.505 78.4614 141.693 78.0389 142.397 78.1797L142.35 78.1328C142.35 78.7431 142.116 79.1187 141.505 79.0718Z" fill="#EFA915"/>
<path d="M136.998 84.5157C137.138 84.2809 137.279 84.0931 137.42 83.8584C137.467 84.0462 137.655 84.2809 137.608 84.4218C137.467 84.7035 137.185 84.7035 136.951 84.4218C136.904 84.4218 136.998 84.5157 136.998 84.5157Z" fill="#FA8E15"/>
<path d="M140.609 79.9643C140.609 79.4009 140.844 79.0254 141.501 79.0723C141.361 79.9174 141.361 79.9174 140.562 79.9643C140.562 79.9174 140.609 79.9643 140.609 79.9643Z" fill="#EFA915"/>
<path d="M73.395 81.7937C73.3011 81.0898 73.1602 80.3389 73.1133 79.588C73.1133 70.7182 73.1133 61.8483 73.1133 52.9784C73.1133 52.4622 73.4889 52.2276 73.8175 51.9929C74.0053 52.1806 74.1931 52.3684 74.4278 52.5561C73.9584 53.1662 73.7236 53.8232 73.7236 54.621C73.7706 57.5776 73.8175 60.5343 73.8175 63.4909C73.8175 64.3826 73.8175 65.2742 73.8175 66.119C73.8175 66.5413 74.4748 66.6821 74.1931 67.2453C73.6767 68.1839 73.6298 69.2164 73.6767 70.2958C73.7706 71.9383 74.0053 73.5809 73.8175 75.1765C73.5358 77.3823 74.1931 79.6349 73.395 81.7937Z" fill="#EFA915"/>
<path d="M73.8203 51.9467C73.9142 51.3833 74.1959 51.1486 74.7593 51.0547C74.9471 51.2894 75.1349 51.4772 75.3227 51.7119C75.041 51.9467 74.7123 52.2284 74.4307 52.4631C74.1959 52.3223 74.0081 52.1345 73.8203 51.9467Z" fill="#EFA915"/>
<path d="M158.586 167.442C158.68 166.972 158.68 166.503 158.868 166.128C158.961 165.893 159.243 165.658 159.478 165.565C160.886 165.189 161.965 165.611 162.576 166.644C163.092 167.442 162.951 168.474 162.247 169.084C161.543 169.694 160.698 170.023 159.806 169.882C159.431 169.835 158.961 169.507 158.821 169.178C158.586 168.615 158.633 167.958 158.586 167.442Z" fill="#FEFEFE"/>
<path d="M158.633 160.261C158.68 159.886 158.68 159.557 158.82 159.323C158.961 159.088 159.196 158.854 159.431 158.807C160.041 158.619 160.932 159.135 161.214 159.792C161.495 160.355 161.401 160.965 161.026 161.435C160.651 161.904 160.087 162.186 159.477 161.998C159.243 161.904 158.914 161.716 158.82 161.482C158.68 161.059 158.68 160.59 158.633 160.261Z" fill="#FEFEFE"/>
<path d="M102.028 165.283C102.075 165.659 101.7 166.175 101.325 166.222C100.902 166.269 100.433 166.269 100.011 166.269C99.5883 166.222 99.1191 165.753 99.2599 165.377C99.5414 164.533 99.8229 163.735 100.151 162.937C100.245 162.749 100.574 162.655 100.808 162.608C100.902 162.608 101.043 162.749 101.137 162.843C101.7 163.547 101.888 164.439 102.028 165.283Z" fill="#FEFEFE"/>
<path d="M143.942 166.315C143.66 166.268 143.331 166.315 143.097 166.174C142.862 166.081 142.628 165.752 142.581 165.564C142.487 164.485 143.05 163.64 143.707 162.842C143.754 162.749 144.364 162.889 144.458 163.077C144.88 163.828 145.208 164.626 145.537 165.424C145.678 165.799 145.302 166.221 144.833 166.268C144.552 166.315 144.27 166.315 143.942 166.315Z" fill="#FEFEFE"/>
<path d="M74.4307 52.5095C74.7122 52.2748 75.0408 51.9933 75.3224 51.7586C75.4631 51.7117 75.6039 51.6178 75.7446 51.6178C76.167 51.5709 76.7301 51.524 76.777 52.0871C76.8708 54.7622 76.9178 57.3903 76.9178 60.0653C76.9178 60.4877 76.824 61.0039 76.5893 61.3324C76.1201 62.0833 76.5424 62.5995 76.7301 63.2566C76.9648 64.2421 76.6832 65.3215 76.824 66.354C77.1055 67.8557 76.6362 69.3106 76.8708 70.8124C77.1055 72.2672 76.73 73.769 76.8708 75.2707C76.9178 75.8339 76.777 76.491 76.4485 76.9603C76.1201 77.4765 76.3077 77.7581 76.5424 78.0866C77.1055 78.9782 76.9178 79.7761 76.4016 80.5739C76.1669 80.9493 75.8385 81.2778 75.6038 81.6063C74.9 81.7941 74.1961 82.0757 73.4453 81.7002C74.2431 79.5414 73.586 77.2888 73.8676 75.0361C74.0553 73.4405 73.8676 71.7979 73.7268 70.1553C73.6329 69.0759 73.6799 68.0435 74.243 67.1049C74.5246 66.5417 73.8676 66.4009 73.8676 65.9785C73.8676 65.0868 73.8676 64.1952 73.8676 63.3504C73.8207 60.3938 73.8207 57.4372 73.7738 54.4806C73.7268 53.8235 73.9145 53.1196 74.4307 52.5095Z" fill="#FEFEFE"/>
<path d="M77.4327 49.3646C78.2304 49.4115 78.7935 48.8953 79.4974 48.5668C79.7789 48.426 80.4829 48.8953 80.4829 49.1769C80.5298 51.9927 80.7175 54.8085 80.5767 57.6243C80.4828 59.4077 80.7174 61.1441 80.5297 62.9275C80.3889 64.5231 80.6705 66.1657 80.6235 67.8082C80.5766 70.4833 80.4358 73.1114 80.6235 75.7864C80.7174 77.2882 79.7789 78.2737 78.5119 78.9307C78.2303 79.0715 77.4796 78.6961 77.4327 78.3676C77.3388 76.9127 77.151 75.411 77.2449 73.9561C77.3857 71.8912 76.7756 69.7324 78.0426 67.8552C77.6672 67.3859 77.2449 66.9635 77.2449 66.3065C77.2918 63.4906 77.2919 60.6748 77.2919 57.859C77.2919 57.3897 77.3388 56.9673 77.2919 56.498C77.0572 55.2778 77.2918 54.1046 77.9488 53.0721C78.1365 52.7905 78.0895 52.5559 77.808 52.3212C76.8225 51.4295 77.7611 50.3032 77.4327 49.3646Z" fill="#FEFEFE"/>
</svg>
