<svg width="229" height="229" viewBox="0 0 229 229" fill="none" xmlns="http://www.w3.org/2000/svg">
<path d="M114.124 0.0501526C143.828 0.0501526 173.58 0.0501526 203.284 0.0501526C204.785 0.0501526 206.287 0.00322219 207.789 0.0501526C216.235 0.378666 222.195 4.6024 226.09 11.9235C227.498 14.5986 228.248 17.5083 228.202 20.6057C228.155 22.1074 228.202 23.6092 228.202 25.111C228.202 84.5718 228.202 144.033 228.202 203.494C228.202 204.855 228.202 206.215 228.202 207.53C227.967 217.573 220.834 226.02 211.074 227.944C210.182 228.132 209.29 228.179 208.399 228.179C206.756 228.226 205.114 228.226 203.425 228.226C143.828 228.226 84.2323 228.226 24.6362 228.226C23.1346 228.226 21.6329 228.226 20.1313 228.179C10.6053 227.85 2.20552 220.717 0.375403 211.425C0.140773 210.252 0.0938407 209.031 0.0469146 207.858C-1.14573e-05 206.356 0 204.855 0 203.353C0 143.892 0 84.431 0 24.9702C0 23.3276 -1.14573e-05 21.6851 0.0469146 19.9956C0.140767 12.7683 4.92723 4.6024 13.8901 1.17648C15.861 0.425596 17.9258 -0.0437082 20.0374 0.00322219C21.5391 0.0501526 23.0407 0.00322219 24.5423 0.00322219C54.3873 0.0501526 84.2323 0.0501526 114.124 0.0501526ZM98.8263 51.0635C95.6823 51.439 93.2891 53.1285 91.3651 55.475C89.535 57.6807 88.221 60.1211 88.3149 63.1716C88.3149 63.547 88.6903 64.1102 89.0188 64.1571C89.4411 64.204 89.9104 64.251 90.3327 64.2979C91.3182 64.3918 92.069 64.0163 92.5852 63.1716C92.9606 62.5615 93.1013 61.7637 93.8991 61.4351C93.8522 62.0452 93.7583 62.6084 93.7114 63.2185C93.6645 63.6878 94.0399 64.1102 94.4622 64.1571C95.0722 64.204 95.6353 64.204 96.2454 64.2979C98.5448 64.5795 100.375 64.1102 101.22 61.6229C101.36 61.2005 101.642 60.8251 101.923 60.4496C108.681 50.5473 118.019 45.5257 130.079 45.8073C132.144 45.8542 134.302 46.042 136.32 46.5582C145.189 48.717 152.041 53.6916 156.733 61.5759C158.469 64.4856 157.906 64.2979 161.66 64.2979C162.27 64.2979 162.834 64.251 163.444 64.204C163.96 64.1571 164.382 63.4062 164.194 62.8431C164.054 62.4207 163.913 61.9983 163.725 61.5759C160.675 55.2403 156.311 50.0311 150.445 46.042C146.034 43.0384 141.248 40.9735 136.039 40.1287C131.018 39.284 125.903 39.2371 120.882 40.3634C119.708 40.645 118.488 40.645 117.315 40.7388C118.348 39.3778 118.348 39.0493 117.174 38.3454C110.98 34.6848 104.223 33.5115 97.2309 34.6379C89.3942 35.905 82.9184 39.8002 78.0381 46.1828C74.3309 51.1105 72.2662 56.6482 72.0315 62.8431C71.9846 63.5939 72.5947 64.204 73.4393 64.204C74.4717 64.204 75.551 64.204 76.5834 64.204C77.475 64.204 78.0381 63.7347 78.1788 62.9369C78.3196 62.186 78.4135 61.4351 78.5073 60.6843C79.8682 49.7495 89.7227 40.6919 101.032 40.5042C104.035 40.4572 107.038 40.645 109.901 41.7244C110.886 42.0998 111.825 42.5691 112.951 42.4283C112.81 42.663 112.716 42.9915 112.482 43.0853C111.121 43.8362 109.76 44.4933 108.399 45.1972C108.399 45.0564 108.399 44.9156 108.446 44.7279C108.493 44.1178 108.54 43.5077 107.789 43.32C106.475 43.0384 105.161 42.616 103.847 42.5222C97.5593 42.0998 92.022 44.024 87.3294 48.2946C83.6692 51.6267 81.4637 55.8504 80.619 60.7312C80.4782 61.6229 80.5721 62.5145 80.619 63.4062C80.619 63.6409 80.9944 63.9694 81.229 64.0163C82.7307 64.2979 84.2323 64.3448 85.687 64.0163C86.0155 63.9225 86.344 63.5001 86.5317 63.1246C86.7194 62.7492 86.6725 62.233 86.7663 61.8106C87.9864 55.0526 92.1159 50.9227 98.6386 49.1394C100.328 48.6701 102.205 48.9047 103.988 48.7639C103.378 49.374 102.768 49.9372 102.158 50.5473C101.642 51.0166 101.079 51.4859 100.328 51.5328C99.9526 50.6881 99.8587 50.6411 98.8263 51.0635ZM113.655 211.612C140.966 211.612 168.324 211.612 195.635 211.612C196.855 211.612 198.028 211.659 199.248 211.612C200.421 211.519 201.641 211.425 202.815 211.143C207.413 210.064 210.417 207.201 211.965 202.743C212.622 200.865 212.622 198.894 212.622 196.97C212.622 182.093 212.622 167.263 212.622 152.386C212.622 151.495 212.669 150.603 212.575 149.664C212.153 143.423 207.742 138.683 201.548 137.838C199.624 137.603 197.653 137.556 195.729 137.556C141.388 137.556 87.0479 137.556 32.6605 137.556C31.6282 137.556 30.5489 137.509 29.5165 137.556C28.4841 137.603 27.4048 137.65 26.3725 137.838C21.0698 138.636 17.7381 141.639 16.0487 146.661C15.4387 148.397 15.4856 150.227 15.4856 152.011C15.4856 167.029 15.4856 182.046 15.4856 197.064C15.4856 197.815 15.4856 198.566 15.4856 199.317C15.7672 205.418 19.8497 210.064 25.8093 211.284C27.5925 211.659 29.3757 211.612 31.2058 211.612C58.7045 211.612 86.2032 211.612 113.655 211.612ZM113.983 66.9729C97.4655 66.9729 80.9475 66.9729 64.4295 66.9729C61.2855 66.9729 61.0978 67.3014 61.2385 70.305C61.3324 72.0883 61.3793 73.9186 61.7078 75.702C63.9133 88.0916 69.5914 98.651 79.1643 106.911C92.679 118.549 108.305 122.351 125.762 118.831C143.875 114.232 156.592 103.297 163.584 85.9328C165.602 80.9113 166.775 75.6081 166.916 70.1642C166.916 69.5541 166.916 68.944 166.869 68.3809C166.822 67.7708 166.306 67.1607 165.79 67.1607C164.429 67.1137 163.068 67.0668 161.754 67.0668C145.799 66.9729 129.891 66.9729 113.983 66.9729ZM102.721 25.9557C101.689 26.0027 100.61 26.0027 99.5772 26.0965C98.0755 26.1904 96.5739 26.1904 95.1192 26.5189C80.4313 29.6632 70.5299 38.2984 65.415 52.4245C64.2418 55.6627 63.7726 59.1356 63.5379 62.5615C63.4441 63.547 64.101 64.204 65.1803 64.204C66.2127 64.204 67.292 64.204 68.3244 64.1571C69.0283 64.1571 69.4975 63.7347 69.5914 63.1716C70.0137 60.8251 70.2014 58.3847 70.8115 56.0851C74.894 41.0204 87.9395 32.3852 101.032 32.1975C107.32 32.1036 113.186 33.5115 118.629 36.7967C120.788 38.7208 123.322 39.2371 126.137 38.9555C126.747 38.9085 127.357 38.9555 127.92 38.9555C128.202 38.9555 128.531 38.8616 128.812 38.8616C129.188 38.8616 129.422 38.6739 129.375 38.2984C129.375 38.0169 129.375 37.6414 129.234 37.4537C127.545 35.4826 125.527 33.9339 123.416 32.526C117.174 28.3492 110.276 26.1435 102.721 25.9557ZM129.516 47.7784C127.498 47.9192 125.856 47.8253 124.213 48.1069C115.204 49.7964 108.118 54.3487 103.284 62.233C103.144 62.4676 103.05 62.7961 102.956 63.0308C102.815 63.3593 103.144 64.0632 103.472 64.0632C105.114 64.1102 106.757 64.1571 108.399 64.1571C108.822 64.1571 109.291 63.9225 109.619 63.6409C110.089 63.2654 110.417 62.7492 110.792 62.2799C116.001 56.4605 122.524 53.6916 130.361 54.0671C134.349 54.2548 138.01 55.4281 141.388 57.4461C143.828 58.9478 146.034 60.7781 147.723 63.0777C148.333 63.8755 149.084 64.204 150.023 64.204C151.243 64.204 152.416 64.204 153.636 64.204C153.777 64.204 153.918 64.204 154.105 64.1571C154.903 64.1102 155.325 63.3124 154.856 62.5615C148.943 53.0346 140.309 48.2008 129.516 47.7784ZM140.966 64.251V64.204C141.998 64.204 143.078 64.251 144.11 64.204C144.345 64.204 144.626 63.9694 144.767 63.8286C145.002 63.547 144.955 63.3124 144.673 63.0308C141.013 58.9478 136.32 56.6952 130.971 56.2259C124.354 55.6158 118.582 57.7276 113.749 62.2799C113.42 62.5615 113.139 62.9838 112.998 63.3593C112.904 63.547 113.139 64.0632 113.28 64.1102C114.781 64.204 116.236 64.251 117.738 64.2979C119.708 64.3448 121.585 64.251 123.416 63.3593C125.48 62.3738 127.733 62.2799 129.985 62.3738C131.675 62.4207 133.27 62.8431 134.772 63.5001C136.18 64.1102 137.634 64.3448 139.136 64.2979C139.793 64.251 140.356 64.251 140.966 64.251Z" fill="#EFA915"/>
<path d="M113.651 211.612C86.1994 211.612 58.7007 211.612 31.2489 211.612C29.4657 211.612 27.6825 211.659 25.8524 211.284C19.8928 210.064 15.8102 205.417 15.5287 199.316C15.4817 198.566 15.5287 197.815 15.5287 197.064C15.5287 182.046 15.5287 167.028 15.5287 152.011C15.5287 150.227 15.4817 148.444 16.0918 146.661C17.7811 141.639 21.1129 138.588 26.4155 137.838C27.4479 137.697 28.5272 137.603 29.5596 137.556C30.592 137.509 31.6713 137.556 32.7036 137.556C87.044 137.556 141.384 137.556 195.772 137.556C197.696 137.556 199.667 137.556 201.591 137.838C207.785 138.635 212.196 143.422 212.618 149.664C212.665 150.556 212.665 151.447 212.665 152.386C212.665 167.263 212.665 182.093 212.665 196.97C212.665 198.941 212.665 200.865 212.008 202.742C210.46 207.201 207.456 210.064 202.858 211.143C201.684 211.424 200.511 211.518 199.291 211.612C198.118 211.706 196.898 211.612 195.678 211.612C168.32 211.612 141.009 211.612 113.651 211.612ZM96.2415 185.894H96.1946C96.1946 188.006 96.1946 190.071 96.1946 192.183C96.1946 193.356 96.2885 194.576 96.3823 195.75C96.4293 196.266 96.8985 196.548 97.2739 196.594C98.0247 196.688 98.7755 196.641 99.5264 196.641C99.6671 196.641 99.8079 196.548 99.9487 196.548C100.512 196.454 100.746 195.984 100.793 195.609C100.887 193.075 100.887 190.54 100.934 187.959C100.934 187.208 100.934 186.458 100.981 185.707C100.981 185.003 101.263 184.533 101.544 184.721C101.779 184.862 102.107 184.909 102.248 185.143C104.266 187.912 106.284 190.728 108.255 193.544C108.865 194.389 109.475 195.234 110.179 196.031C110.46 196.313 110.929 196.594 111.305 196.594C112.196 196.688 113.088 196.688 113.98 196.594C114.402 196.548 114.824 196.313 114.918 195.797C115.012 195.374 115.106 194.905 115.106 194.483C115.106 188.945 115.106 183.407 115.106 177.869C115.106 177.4 115.106 176.931 114.965 176.555C114.777 176.18 114.402 175.804 114.073 175.664C113.51 175.476 112.9 175.476 112.29 175.476C111.211 175.523 110.507 176.086 110.507 177.071C110.46 179.606 110.507 182.187 110.46 184.721C110.46 185.472 110.319 186.176 110.226 186.927C110.226 187.021 110.038 187.115 109.897 187.161C109.756 187.208 109.522 187.302 109.475 187.255C108.959 186.692 108.442 186.176 108.02 185.566C105.908 182.656 103.797 179.746 101.732 176.79C101.075 175.851 100.183 175.429 99.0571 175.476C98.5878 175.476 98.1655 175.476 97.6963 175.523C96.8516 175.57 96.2885 176.133 96.2885 176.931C96.2415 179.934 96.2415 182.891 96.2415 185.894ZM134.111 185.003C133.219 185.003 132.328 185.003 131.389 185.003C130.92 185.003 130.498 185.05 130.028 185.097C129.512 185.143 128.949 185.754 128.949 186.317C128.949 186.927 128.949 187.49 128.996 188.1C129.043 188.71 129.512 189.179 130.169 189.226C131.061 189.32 131.952 189.414 132.797 189.555C133.125 189.602 133.266 189.93 133.079 190.212C132.75 190.681 132.422 191.244 131.952 191.573C130.075 192.793 127.354 192.699 125.617 191.385C121.347 188.147 122.286 182.328 126.556 180.31C128.011 179.606 129.371 179.512 130.873 180.122C131.858 180.544 132.703 181.154 133.501 181.811C134.252 182.468 134.768 182.421 135.472 181.811C137.396 180.216 137.49 179.7 135.566 177.916C131.671 174.209 126.227 174.396 122.379 177.306C119.001 179.887 117.687 183.407 118.156 187.584C118.86 194.013 125.664 199.457 133.219 195.937C136.973 194.154 138.616 190.916 138.663 186.833C138.663 185.66 138.522 185.003 136.739 185.003C135.894 184.956 135.002 185.003 134.111 185.003ZM151.52 158.346C151.52 157.877 151.567 157.455 151.52 156.985C151.098 150.743 144.904 146.144 138.757 147.505C132.375 148.866 128.902 154.826 130.545 161.209C132.562 169.234 141.244 170.642 146.312 167.685C149.784 165.62 151.567 162.429 151.52 158.346ZM71.0892 186.223C71.0422 183.079 71.0422 179.934 71.0422 176.79C71.0422 176.274 70.4322 175.71 69.8691 175.617C66.9128 175.194 66.5843 175.804 66.5843 178.292C66.5843 178.761 66.5843 179.183 66.5843 179.653C66.5373 183.876 66.5373 183.876 62.314 183.829C61.5632 183.829 60.8123 183.782 60.1084 183.642C59.733 183.548 59.3107 183.172 59.1699 182.844C58.9822 182.281 58.9822 181.671 58.9353 181.061C58.8884 179.559 58.8414 178.057 58.7945 176.555C58.7945 176.039 58.3722 175.757 57.9499 175.664C57.3867 175.523 56.7767 175.523 56.1667 175.57C55.0404 175.617 54.4304 176.227 54.4304 177.212C54.4304 183.219 54.4304 189.226 54.4304 195.234C54.4304 195.515 54.5243 195.844 54.665 196.078C54.8058 196.313 55.0874 196.594 55.322 196.594C56.2136 196.688 57.1052 196.735 57.9968 196.641C58.3253 196.594 58.7476 196.125 58.7945 195.75C58.9353 195.046 58.9353 194.248 58.9353 193.497C58.9822 192.277 58.9822 191.104 59.0291 189.883C59.0291 189.273 59.5453 188.616 60.0615 188.616C61.8447 188.569 63.6279 188.569 65.458 188.569C66.0211 188.569 66.5373 189.179 66.5843 189.79C66.6312 190.822 66.6312 191.901 66.6781 192.934C66.725 193.826 66.725 194.717 66.772 195.609C66.8189 196.172 67.3351 196.641 67.9921 196.688C68.6021 196.735 69.2121 196.735 69.7752 196.735C70.573 196.688 71.1361 196.078 71.183 195.28C71.0892 192.23 71.0892 189.226 71.0892 186.223ZM92.0182 183.407C92.0182 181.295 92.0182 179.23 92.0182 177.118C92.0182 176.133 91.4082 175.57 90.2819 175.523C89.8596 175.476 89.3903 175.523 88.9211 175.57C88.1233 175.664 87.5602 176.274 87.5602 177.071C87.5133 180.357 87.5602 183.689 87.5133 186.974C87.5133 187.865 87.5133 188.804 87.2787 189.649C86.9971 190.869 86.2463 191.855 84.9793 192.183C83.6184 192.558 82.2576 192.512 81.1783 191.479C80.7559 191.104 80.4274 190.494 80.2867 189.977C80.099 189.133 80.052 188.194 80.052 187.302C80.0051 184.299 80.052 181.295 80.0051 178.292C80.0051 177.682 80.0051 177.071 79.8174 176.508C79.6766 176.133 79.2543 175.804 78.8789 175.664C78.3158 175.476 77.7057 175.476 77.0957 175.476C76.0164 175.476 75.3125 176.086 75.3125 177.071C75.2656 180.967 75.2656 184.862 75.3125 188.757C75.3125 189.649 75.4533 190.54 75.6879 191.432C76.298 193.732 77.6119 195.515 79.8643 196.36C80.9906 196.782 82.2106 197.017 83.3838 197.064C85.167 197.064 86.9502 196.782 88.5457 195.75C90.7512 194.342 91.7836 192.23 91.9244 189.696C92.1121 187.631 92.0182 185.519 92.0182 183.407ZM157.855 186.27C157.902 186.27 157.902 186.27 157.855 186.27C157.902 189.273 157.902 192.23 157.902 195.234C157.902 196.078 158.466 196.641 159.263 196.688C159.873 196.735 160.436 196.688 161.046 196.688C161.844 196.641 162.36 196.125 162.36 195.234C162.407 194.201 162.36 193.122 162.407 192.089C162.407 191.338 162.454 190.587 162.454 189.837C162.454 189.508 162.689 189.32 163.064 189.367C163.205 189.367 163.393 189.461 163.44 189.555C164.894 191.62 166.349 193.685 167.804 195.797C168.179 196.313 168.695 196.641 169.305 196.688C170.338 196.735 171.37 196.641 172.403 196.594C172.778 196.594 173.013 195.937 172.778 195.562C171.417 193.403 170.009 191.291 168.695 189.133C168.273 188.476 168.273 188.053 168.883 187.537C170.432 186.223 171.37 184.627 171.699 182.609C172.215 179.277 170.103 176.133 166.771 175.851C164.237 175.617 161.703 175.757 159.169 175.757C158.606 175.757 157.996 176.367 157.949 176.884C157.902 177.306 157.855 177.775 157.855 178.245C157.855 180.873 157.855 183.548 157.855 186.27ZM112.76 158.299C112.76 160.834 112.76 163.415 112.76 165.949C112.76 166.559 112.76 167.169 112.9 167.732C112.994 168.155 113.229 168.577 113.745 168.624C114.355 168.671 114.918 168.765 115.528 168.718C116.748 168.718 117.264 168.249 117.311 167.216C117.358 165.433 117.405 163.602 117.452 161.819C117.452 161.725 117.546 161.584 117.687 161.491C118.015 161.256 118.25 161.35 118.485 161.631C119.845 163.602 121.253 165.573 122.567 167.545C123.13 168.389 123.881 168.718 124.82 168.718C125.711 168.671 126.603 168.624 127.494 168.483C127.635 168.483 127.87 167.92 127.776 167.779C126.509 165.761 125.195 163.743 123.928 161.725C123.13 160.458 123.083 160.083 124.209 159.097C126.087 157.455 126.65 155.39 126.509 153.043C126.415 151.26 125.617 149.899 124.209 148.866C123.318 148.209 122.379 147.834 121.3 147.787C118.907 147.74 116.514 147.74 114.12 147.74C113.37 147.74 112.853 148.35 112.806 149.242C112.76 149.993 112.76 150.743 112.76 151.494C112.76 153.794 112.76 156.047 112.76 158.299ZM142.088 186.035H142.041C142.041 188.288 142.041 190.54 142.041 192.793C142.041 193.685 142.088 194.576 142.135 195.468C142.182 195.984 142.792 196.641 143.308 196.641C146.452 196.641 149.596 196.641 152.741 196.641C153.022 196.641 153.304 196.454 153.585 196.36C153.726 196.313 153.914 196.219 153.914 196.078C154.242 195.046 154.289 194.013 153.82 193.028C153.773 192.934 153.585 192.84 153.444 192.793C153.022 192.652 152.6 192.512 152.177 192.465C150.817 192.371 149.503 192.371 148.142 192.324C147.391 192.277 146.922 191.667 146.875 190.775C146.875 190.634 146.875 190.494 146.875 190.306C146.875 188.898 147.344 188.382 148.658 188.288C150.16 188.241 151.661 188.194 153.163 188.053C153.538 188.006 154.008 187.678 154.054 187.161C154.101 186.551 154.148 185.988 154.148 185.378C154.148 184.533 153.585 184.017 152.741 183.97C151.098 183.923 149.456 183.923 147.813 183.782C147.438 183.736 147.016 183.407 146.969 182.891C146.969 182.281 146.875 181.718 146.922 181.107C146.969 180.31 147.532 179.7 148.329 179.653C149.972 179.559 151.614 179.559 153.257 179.371C153.632 179.324 154.101 179.043 154.101 178.479C154.101 178.01 154.195 177.588 154.148 177.118C154.101 175.804 153.491 175.476 152.506 175.429C149.503 175.382 146.499 175.382 143.543 175.429C142.839 175.429 142.182 176.133 142.182 176.931C142.041 180.028 142.088 183.032 142.088 186.035ZM96.8516 157.971H96.8985C96.8985 161.115 96.8985 164.259 96.8985 167.404C96.8985 168.014 97.4616 168.624 97.9778 168.624C101.263 168.624 104.547 168.624 107.832 168.624C108.395 168.624 108.865 168.061 108.865 167.404C108.865 166.794 108.912 166.184 108.771 165.62C108.677 165.245 108.302 164.776 107.926 164.682C107.222 164.494 106.424 164.541 105.721 164.494C104.688 164.447 103.609 164.447 102.577 164.259C102.248 164.212 101.92 163.743 101.732 163.368C101.591 163.133 101.591 162.805 101.591 162.476C101.544 161.209 101.873 160.411 103.28 160.364C104.782 160.317 106.284 160.27 107.785 160.176C108.255 160.176 108.818 159.519 108.865 158.909C108.912 158.44 108.912 158.018 108.865 157.548C108.818 156.657 108.348 156.094 107.551 156.047C105.908 156 104.266 155.953 102.623 155.859C102.154 155.859 101.638 155.155 101.591 154.592C101.591 154.31 101.544 153.982 101.544 153.7C101.591 152.292 102.107 151.682 103.327 151.635C104.688 151.588 106.049 151.588 107.363 151.541C108.395 151.494 108.818 150.931 108.818 149.711C108.818 148.021 108.348 147.458 106.8 147.411C104.078 147.364 101.403 147.364 98.6817 147.411C97.3208 147.411 96.7108 148.021 96.7108 149.289C96.8516 152.292 96.8516 155.108 96.8516 157.971ZM84.8385 168.859C84.8385 168.812 84.8385 168.812 84.8385 168.765C85.5893 168.765 86.3401 168.765 87.0909 168.765C88.5926 168.765 90.0942 168.718 91.5959 168.671C92.3936 168.671 92.8629 168.061 92.9098 167.169C93.0036 164.588 92.7221 164.306 90.1881 164.259C89.2965 164.259 88.4049 164.259 87.4664 164.259C86.5748 164.212 85.6832 164.166 84.7916 164.025C84.6508 164.025 84.4162 163.555 84.4631 163.321C84.5569 162.898 84.7446 162.476 84.9793 162.101C86.8094 158.815 88.6864 155.577 90.5635 152.339C91.1266 151.307 91.6897 150.227 92.2059 149.148C92.4875 148.632 92.0182 147.834 91.4551 147.787C87.4194 147.74 83.3369 147.693 79.3012 147.693C79.1604 147.693 78.9727 147.74 78.8789 147.834C78.5504 148.115 78.0342 148.35 77.9873 148.679C77.8465 149.382 77.8934 150.18 77.9873 150.884C78.0342 151.119 78.3158 151.447 78.5973 151.494C79.1604 151.635 79.7705 151.729 80.3805 151.776C81.8822 151.823 83.3838 151.87 84.8854 151.917C85.2608 151.917 85.6832 152.527 85.5424 152.902C85.3078 153.465 85.1201 154.029 84.7916 154.545C82.7738 158.065 80.7559 161.584 78.7381 165.104C78.2219 165.996 77.7527 166.981 77.3303 167.92C77.2834 168.061 77.5649 168.577 77.7057 168.577C80.052 168.718 82.4453 168.765 84.8385 168.859Z" fill="#FEFEFE"/>
<path d="M113.981 66.973C129.889 66.973 145.797 66.973 161.704 66.973C163.065 66.973 164.426 67.0199 165.74 67.0669C166.256 67.0669 166.819 67.7239 166.819 68.2871C166.866 68.8972 166.866 69.5073 166.866 70.0704C166.726 75.5143 165.552 80.8175 163.535 85.839C156.543 103.203 143.873 114.138 125.712 118.737C108.256 122.257 92.6293 118.456 79.1146 106.817C69.5417 98.5572 63.9106 87.9978 61.6581 75.6082C61.3296 73.8249 61.2827 72.0415 61.1889 70.2112C61.0481 67.2077 61.2358 66.8792 64.3798 66.8792C80.9447 66.973 97.4627 66.973 113.981 66.973ZM76.5806 93.3948C75.9236 93.3948 75.1259 94.4742 75.4075 95.0374C75.5952 95.4598 75.7359 95.8822 76.0175 96.2576C82.6341 105.503 91.2685 111.838 102.202 115.077C102.484 115.171 102.812 115.171 103.094 115.217C103.469 115.264 104.361 114.56 104.361 114.091C104.361 113.669 104.173 113.199 103.892 112.918C103.469 112.542 102.859 112.308 102.296 112.073C100.748 111.463 99.199 110.994 97.6504 110.337C90.4707 107.286 84.558 102.499 79.6777 96.3984C78.9269 95.4598 78.1761 94.5212 77.3784 93.6295C77.2376 93.4887 76.8622 93.4887 76.5806 93.3948ZM69.9171 76.5938C69.2132 76.453 68.4155 76.9692 68.3685 77.4385C68.3216 77.7201 68.2277 78.0486 68.3216 78.3302C69.0724 82.1785 70.2925 85.839 72.0757 89.3119C72.2634 89.6873 72.6388 90.0628 73.0142 90.2505C73.3896 90.3913 73.9527 90.3913 74.2812 90.2036C74.6097 90.0159 74.8443 89.4996 74.8443 89.1242C74.8913 88.7018 74.6566 88.2794 74.4689 87.8571C73.1081 84.7127 71.9349 81.4745 71.1841 78.0955C71.1372 77.8139 71.0433 77.4854 70.8556 77.2977C70.5271 76.9692 70.1048 76.7345 69.9171 76.5938Z" fill="#FEFEFE"/>
<path d="M102.723 25.9561C110.279 26.0968 117.177 28.3495 123.418 32.5732C125.529 33.9812 127.547 35.5299 129.237 37.5009C129.377 37.6887 129.377 38.0641 129.377 38.3457C129.377 38.7211 129.19 38.8619 128.814 38.9089C128.533 38.9089 128.204 39.0027 127.923 39.0027C127.313 39.0027 126.703 38.9558 126.139 39.0027C123.371 39.2843 120.79 38.815 118.631 36.8439C113.235 33.5588 107.369 32.1509 101.034 32.2447C87.9417 32.4325 74.8962 41.0677 70.8137 56.1323C70.2036 58.4319 69.969 60.8723 69.5936 63.2188C69.4997 63.8289 69.0305 64.2043 68.3266 64.2043C67.2942 64.2513 66.2149 64.2513 65.1825 64.2513C64.1032 64.2513 63.4463 63.5943 63.5401 62.6087C63.7748 59.1828 64.244 55.7099 65.4172 52.4717C70.5321 38.3457 80.4335 29.7105 95.1214 26.5661C96.5761 26.2376 98.0777 26.2376 99.5793 26.1438C100.659 26.0499 101.691 26.003 102.723 25.9561Z" fill="#FEFEFE"/>
<path d="M100.14 51.5794C100.891 51.5325 101.454 51.1101 101.97 50.5939C102.58 50.0307 103.19 49.4206 103.8 48.8105L103.706 48.9044C104.035 48.5759 104.363 48.2474 104.692 47.9188L104.598 48.0127C104.926 47.6842 105.255 47.3557 105.583 47.0272L105.489 47.121C106.006 46.9802 106.428 46.7456 106.475 46.1355L106.381 46.2293C107.132 46.1355 107.836 45.9478 108.305 45.2907L108.211 45.3377C109.572 44.6337 110.98 43.9767 112.294 43.2258C112.481 43.1319 112.575 42.8034 112.763 42.5688L112.669 42.6157C113.045 42.5688 113.514 42.5688 113.842 42.428C114.124 42.2872 114.312 41.9117 114.593 41.6302L114.499 41.6771C115.156 41.6302 115.86 41.6302 116.47 41.4424C116.799 41.3486 117.033 40.9731 117.315 40.6916L117.221 40.7385C118.394 40.5977 119.614 40.5977 120.787 40.363C125.855 39.2367 130.923 39.2836 135.945 40.1284C141.153 40.9731 145.987 43.085 150.351 46.0416C156.217 50.0307 160.581 55.1931 163.631 61.5756C163.819 61.998 163.959 62.4203 164.1 62.8427C164.288 63.4059 163.912 64.1568 163.349 64.2037C162.739 64.2506 162.176 64.2976 161.566 64.2976C157.812 64.2976 158.375 64.4853 156.639 61.5756C151.946 53.6913 145.095 48.7167 136.226 46.5579C134.208 46.0416 132.097 45.8539 129.985 45.807C117.925 45.5254 108.587 50.5469 101.829 60.4493C101.595 60.8247 101.266 61.2001 101.125 61.6225C100.328 64.1098 98.4506 64.5791 96.1512 64.2976C95.5412 64.2037 94.978 64.2037 94.368 64.1568C93.9926 64.1098 93.6172 63.6405 93.6172 63.2182C93.6641 62.6081 93.758 62.0449 93.8049 61.4348L93.758 61.5287C94.4619 61.1063 94.6026 60.3554 94.7434 59.6514L94.6965 59.7453C95.7758 58.7598 96.5735 57.5865 96.5735 56.0378L96.4797 56.1317C97.1366 56.1786 97.3244 55.7093 97.4651 55.1461L97.3713 55.24C97.9344 55.1461 98.169 54.7707 98.3567 54.2544L98.2629 54.3483C99.0137 53.9259 99.2014 53.222 99.2014 52.4242L99.1075 52.518C99.7176 52.4711 99.9991 52.0956 100.093 51.5325L100.14 51.5794Z" fill="#FEFEFE"/>
<path d="M112.813 42.5224C111.734 42.6163 110.748 42.1939 109.763 41.8185C106.9 40.7391 103.944 40.5514 100.894 40.5983C89.6314 40.786 79.7769 49.7966 78.3691 60.7784C78.2753 61.5292 78.1814 62.2801 78.0407 63.031C77.8999 63.8288 77.3368 64.2981 76.4452 64.2981C75.4128 64.2981 74.3335 64.3451 73.3011 64.2981C72.4095 64.2981 71.8464 63.688 71.8933 62.9372C72.1749 56.7423 74.1927 51.2046 77.8999 46.2769C82.7333 39.8474 89.2091 35.9991 97.0927 34.732C104.085 33.6057 110.842 34.8258 117.036 38.4395C118.209 39.1434 118.209 39.472 117.177 40.8329L117.271 40.786C116.239 40.8799 115.253 41.0207 114.455 41.7246L114.549 41.6777C113.845 41.8185 113.094 41.9593 112.672 42.6632L112.813 42.5224Z" fill="#FEFEFE"/>
<path d="M129.516 47.7783C140.355 48.2007 148.943 53.0815 154.809 62.6083C155.278 63.3592 154.903 64.157 154.058 64.204C153.917 64.204 153.776 64.2509 153.589 64.2509C152.369 64.2509 151.195 64.2509 149.975 64.2509C149.037 64.2509 148.239 63.9224 147.676 63.1246C145.94 60.825 143.781 58.9947 141.341 57.4929C137.962 55.428 134.302 54.3016 130.313 54.1139C122.477 53.7385 115.954 56.5074 110.745 62.3268C110.323 62.7491 110.041 63.3123 109.572 63.6877C109.243 63.9693 108.774 64.204 108.352 64.204C106.709 64.2509 105.067 64.157 103.425 64.1101C103.096 64.1101 102.768 63.4062 102.908 63.0776C103.049 62.7961 103.096 62.5145 103.237 62.2798C108.07 54.3955 115.156 49.8433 124.166 48.1538C125.808 47.8253 127.498 47.8722 129.516 47.7783Z" fill="#FEFEFE"/>
<path d="M103.803 48.8108C102.02 48.9047 100.143 48.717 98.4533 49.1863C91.9306 50.9227 87.8011 55.0995 86.581 61.8575C86.4872 62.2798 86.5341 62.7961 86.3464 63.1715C86.1587 63.547 85.8302 63.9693 85.5017 64.0632C84.047 64.4386 82.5454 64.3448 81.0438 64.0632C80.8091 64.0163 80.4807 63.6878 80.4337 63.4531C80.3868 62.5614 80.2929 61.6228 80.4337 60.7781C81.2784 55.8973 83.4839 51.6736 87.1442 48.3415C91.7898 44.0708 97.374 42.1936 103.662 42.5691C104.976 42.6629 106.29 43.0853 107.604 43.3669C108.355 43.5546 108.308 44.1647 108.261 44.7748C108.261 44.9156 108.261 45.0564 108.214 45.2441L108.308 45.1972C107.557 45.338 106.806 45.4318 106.384 46.1358L106.478 46.0419C105.962 46.1827 105.586 46.4643 105.492 47.0275L105.586 46.9336C105.07 47.0744 104.648 47.309 104.601 47.9191L104.694 47.8253C104.178 47.9661 103.756 48.2007 103.709 48.8108H103.803Z" fill="#FEFEFE"/>
<path d="M140.966 64.251C140.356 64.251 139.746 64.251 139.183 64.251C137.681 64.2979 136.273 64.0632 134.819 63.4531C133.317 62.7961 131.722 62.3737 130.032 62.3268C127.78 62.233 125.48 62.3268 123.463 63.3124C121.632 64.204 119.708 64.2979 117.785 64.251C116.283 64.204 114.781 64.1571 113.327 64.0632C113.186 64.0632 112.951 63.5001 113.045 63.3124C113.186 62.89 113.467 62.5145 113.796 62.233C118.629 57.6338 124.401 55.5219 131.018 56.1789C136.414 56.6952 141.06 58.9009 144.72 62.9838C144.955 63.2654 145.049 63.547 144.814 63.7817C144.626 63.9694 144.392 64.1571 144.157 64.1571C143.125 64.204 142.045 64.1571 141.013 64.1571C140.966 64.251 140.966 64.251 140.966 64.251Z" fill="#FEFEFE"/>
<path d="M93.8975 61.3882C93.0998 61.7167 92.959 62.5146 92.5836 63.1246C92.0674 63.9694 91.3166 64.3448 90.3311 64.251C89.9088 64.2041 89.4395 64.1571 89.0172 64.1102C88.6887 64.0633 88.3133 63.4532 88.3133 63.1246C88.2195 60.1211 89.5334 57.6338 91.3635 55.4281C93.3344 53.1285 95.7276 51.392 98.8247 51.0166C99.0124 51.2513 99.2002 51.439 99.3879 51.6736C99.4348 51.9552 99.3879 52.2368 99.2002 52.4714L99.294 52.3776C98.7778 52.8938 98.3555 53.5039 98.3555 54.3017L98.4493 54.2079C97.8393 54.2548 97.6047 54.6772 97.4639 55.1934L97.5578 55.0996C97.0416 55.2403 96.76 55.6158 96.5723 56.0851L96.6662 55.9912C95.7276 57.0706 94.883 58.197 94.7891 59.6987L94.836 59.6049C93.8975 59.9334 93.9914 60.7781 93.8506 61.4821L93.8975 61.3882Z" fill="#FEFEFE"/>
<path d="M98.8281 51.0636C99.814 50.688 99.9079 50.735 100.143 51.5801L100.19 51.5331C99.9549 51.6739 99.6732 51.7209 99.3915 51.7209C99.2037 51.4862 99.0159 51.2984 98.8281 51.0636Z" fill="#FEFEFE"/>
<path d="M96.2475 185.895C96.2475 182.891 96.2475 179.888 96.2475 176.931C96.2475 176.086 96.8106 175.57 97.6553 175.523C98.1245 175.476 98.5469 175.476 99.0161 175.476C100.142 175.429 101.034 175.852 101.691 176.79C103.756 179.747 105.867 182.657 107.979 185.566C108.401 186.176 108.918 186.693 109.434 187.256C109.481 187.303 109.715 187.209 109.856 187.162C109.997 187.115 110.138 187.021 110.185 186.927C110.278 186.176 110.419 185.472 110.419 184.721C110.466 182.187 110.419 179.606 110.466 177.072C110.466 176.086 111.17 175.523 112.249 175.476C112.859 175.476 113.469 175.476 114.032 175.664C114.408 175.805 114.783 176.18 114.924 176.556C115.112 176.931 115.065 177.447 115.065 177.87C115.065 183.407 115.065 188.945 115.065 194.483C115.065 194.905 114.971 195.375 114.877 195.797C114.783 196.313 114.314 196.595 113.939 196.595C113.047 196.689 112.155 196.689 111.264 196.595C110.842 196.548 110.372 196.313 110.138 196.032C109.434 195.234 108.824 194.389 108.214 193.544C106.196 190.729 104.225 187.96 102.207 185.144C102.066 184.956 101.738 184.862 101.503 184.721C101.222 184.581 100.94 185.003 100.94 185.707C100.94 186.458 100.94 187.209 100.893 187.96C100.846 190.494 100.846 193.028 100.752 195.609C100.752 195.985 100.471 196.454 99.9078 196.548C99.767 196.548 99.6262 196.642 99.4854 196.642C98.7346 196.642 97.9838 196.689 97.233 196.595C96.8106 196.548 96.3414 196.266 96.3414 195.75C96.2475 194.577 96.2006 193.357 96.1537 192.183C96.1067 190.072 96.1537 188.007 96.1537 185.895C96.2475 185.895 96.2475 185.895 96.2475 185.895Z" fill="#EFA915"/>
<path d="M134.117 185.002C135.009 185.002 135.9 185.002 136.839 185.002C138.575 185.049 138.763 185.659 138.763 186.833C138.716 190.916 137.073 194.154 133.319 195.937C125.764 199.504 118.96 194.06 118.256 187.584C117.787 183.36 119.101 179.887 122.479 177.306C126.327 174.396 131.771 174.208 135.666 177.916C137.59 179.699 137.449 180.216 135.572 181.811C134.821 182.421 134.352 182.468 133.601 181.811C132.803 181.154 131.958 180.544 130.973 180.122C129.471 179.512 128.064 179.605 126.656 180.309C122.386 182.374 121.4 188.147 125.717 191.385C127.454 192.699 130.222 192.793 132.052 191.573C132.522 191.291 132.85 190.728 133.179 190.212C133.413 189.883 133.272 189.602 132.897 189.555C132.005 189.414 131.114 189.32 130.269 189.226C129.612 189.132 129.143 188.71 129.096 188.1C129.049 187.49 129.049 186.927 129.049 186.317C129.049 185.706 129.612 185.096 130.128 185.096C130.598 185.049 131.02 185.002 131.489 185.002C132.287 184.956 133.225 185.002 134.117 185.002Z" fill="#EFA915"/>
<path d="M151.526 158.346C151.573 162.429 149.836 165.621 146.317 167.686C141.249 170.642 132.568 169.234 130.55 161.209C128.954 154.827 132.427 148.867 138.762 147.506C144.909 146.192 151.103 150.744 151.526 156.986C151.526 157.455 151.526 157.877 151.526 158.346ZM135.008 158.3C135.102 159.004 135.102 159.754 135.289 160.458C135.899 162.664 137.307 164.119 139.513 164.729C141.577 165.292 143.408 164.588 144.862 163.133C146.974 161.068 147.819 156.328 144.862 153.325C143.267 151.682 141.249 151.166 139.09 151.87C136.932 152.574 135.618 154.123 135.242 156.422C135.149 157.032 135.102 157.643 135.008 158.3Z" fill="#EFA915"/>
<path d="M71.0925 186.224C71.0925 189.227 71.0925 192.231 71.0925 195.234C71.0925 196.032 70.4824 196.642 69.6847 196.689C69.0746 196.736 68.4646 196.689 67.9015 196.642C67.2445 196.595 66.7283 196.126 66.6814 195.563C66.6345 194.671 66.5876 193.779 66.5876 192.888C66.5406 191.855 66.5406 190.776 66.4937 189.743C66.4468 189.133 65.9306 188.523 65.3675 188.523C63.5843 188.523 61.8011 188.523 59.971 188.57C59.4548 188.57 58.9386 189.227 58.9386 189.837C58.8917 191.057 58.8917 192.231 58.8448 193.451C58.8448 194.202 58.8447 194.953 58.704 195.703C58.6101 196.079 58.1878 196.548 57.9062 196.595C57.0146 196.689 56.123 196.642 55.2315 196.548C54.9968 196.548 54.7153 196.267 54.5745 196.032C54.4337 195.797 54.3398 195.469 54.3398 195.187C54.3398 189.18 54.3398 183.173 54.3398 177.166C54.3398 176.18 54.9499 175.617 56.0761 175.523C56.6862 175.476 57.2962 175.523 57.8593 175.617C58.2816 175.711 58.704 175.993 58.704 176.509C58.7509 178.011 58.7978 179.512 58.8448 181.014C58.8917 181.624 58.8917 182.234 59.0794 182.798C59.2202 183.126 59.6425 183.548 60.0179 183.595C60.7218 183.783 61.5195 183.783 62.2234 183.783C66.4468 183.83 66.4468 183.83 66.4937 179.606C66.4937 179.137 66.4937 178.715 66.4937 178.245C66.4937 175.805 66.8222 175.148 69.7785 175.57C70.3416 175.664 70.9517 176.227 70.9517 176.744C71.0455 179.888 71.0455 183.032 71.0925 186.224Z" fill="#EFA915"/>
<path d="M92.0233 183.407C92.0233 185.519 92.1171 187.631 92.0233 189.696C91.8825 192.23 90.8502 194.295 88.6446 195.75C87.0961 196.782 85.266 197.064 83.4828 197.064C82.3096 197.064 81.0895 196.782 79.9633 196.36C77.7109 195.515 76.3969 193.685 75.7869 191.432C75.5523 190.587 75.4115 189.649 75.4115 188.757C75.3646 184.862 75.4115 180.966 75.4115 177.071C75.4115 176.086 76.0684 175.523 77.1947 175.476C77.8047 175.476 78.4147 175.476 78.9779 175.663C79.3533 175.804 79.7756 176.133 79.9164 176.508C80.1041 177.071 80.1041 177.681 80.1041 178.291C80.1041 181.295 80.1041 184.299 80.151 187.302C80.151 188.194 80.1979 189.132 80.3856 189.977C80.5264 190.54 80.8549 191.103 81.2772 191.479C82.3565 192.511 83.7174 192.511 85.0782 192.183C86.3452 191.854 87.0961 190.869 87.3776 189.649C87.5653 188.804 87.5653 187.865 87.6123 186.974C87.6592 183.688 87.6592 180.356 87.6592 177.071C87.6592 176.273 88.2223 175.663 89.02 175.569C89.4424 175.523 89.9116 175.476 90.3809 175.523C91.4602 175.569 92.1172 176.133 92.1172 177.118C92.0233 179.23 92.0233 181.342 92.0233 183.407Z" fill="#EFA915"/>
<path d="M157.859 186.27C157.859 183.595 157.859 180.873 157.859 178.198C157.859 177.729 157.906 177.306 157.953 176.837C158 176.321 158.563 175.711 159.173 175.711C161.707 175.711 164.241 175.57 166.775 175.805C170.107 176.133 172.219 179.231 171.703 182.563C171.374 184.581 170.436 186.176 168.887 187.49C168.324 187.96 168.324 188.429 168.699 189.086C170.06 191.245 171.421 193.357 172.782 195.515C173.016 195.891 172.782 196.548 172.406 196.548C171.374 196.595 170.342 196.689 169.309 196.642C168.699 196.642 168.183 196.313 167.808 195.75C166.353 193.685 164.898 191.573 163.444 189.508C163.35 189.415 163.209 189.321 163.068 189.321C162.693 189.274 162.505 189.461 162.458 189.79C162.411 190.541 162.411 191.292 162.411 192.043C162.411 193.075 162.411 194.154 162.364 195.187C162.317 196.079 161.848 196.595 161.05 196.642C160.44 196.689 159.877 196.689 159.267 196.642C158.469 196.595 157.906 196.032 157.906 195.187C157.906 192.23 157.906 189.227 157.859 186.27C157.906 186.27 157.906 186.27 157.859 186.27ZM162.458 182.14C162.505 182.75 162.505 183.314 162.646 183.924C162.74 184.346 163.021 184.675 163.537 184.768C164.664 184.956 165.602 184.534 166.353 183.783C167.385 182.75 167.01 180.592 165.743 179.888C165.086 179.512 164.335 179.324 163.584 179.559C163.209 179.653 162.787 180.028 162.646 180.357C162.411 180.873 162.505 181.53 162.458 182.14Z" fill="#EFA915"/>
<path d="M112.762 158.3C112.762 156.047 112.762 153.794 112.762 151.542C112.762 150.791 112.762 150.04 112.809 149.289C112.856 148.397 113.372 147.787 114.123 147.787C116.516 147.787 118.909 147.787 121.302 147.834C122.382 147.881 123.32 148.256 124.212 148.913C125.619 149.993 126.417 151.354 126.511 153.09C126.652 155.437 126.042 157.502 124.212 159.144C123.085 160.13 123.132 160.552 123.93 161.772C125.197 163.79 126.511 165.808 127.778 167.826C127.872 167.967 127.637 168.483 127.497 168.53C126.605 168.671 125.713 168.718 124.822 168.765C123.883 168.812 123.132 168.483 122.569 167.592C121.255 165.574 119.848 163.65 118.487 161.679C118.252 161.35 118.017 161.303 117.689 161.538C117.595 161.585 117.501 161.725 117.454 161.866C117.407 163.65 117.36 165.48 117.314 167.263C117.267 168.296 116.75 168.765 115.53 168.765C114.92 168.765 114.357 168.718 113.747 168.671C113.231 168.624 112.996 168.202 112.902 167.779C112.762 167.216 112.762 166.606 112.762 165.996C112.762 163.368 112.762 160.834 112.762 158.3ZM117.407 153.184C117.407 154.592 117.407 155.014 117.407 155.484C117.407 155.625 117.454 155.765 117.454 155.906C117.501 156.422 118.205 156.939 118.768 156.845C119.331 156.751 119.941 156.657 120.458 156.375C121.725 155.718 122.147 154.17 121.49 152.903C120.88 151.776 119.238 151.166 118.017 151.682C117.783 151.776 117.548 152.105 117.454 152.339C117.36 152.949 117.36 153.56 117.407 153.184Z" fill="#EFA915"/>
<path d="M142.094 186.036C142.094 183.032 142.094 180.029 142.094 177.025C142.094 176.227 142.751 175.523 143.455 175.523C146.458 175.477 149.461 175.477 152.418 175.523C153.403 175.523 154.06 175.852 154.06 177.213C154.06 177.635 154.013 178.105 154.013 178.574C154.013 179.137 153.591 179.466 153.168 179.466C151.526 179.606 149.884 179.653 148.241 179.747C147.443 179.794 146.88 180.357 146.833 181.202C146.787 181.812 146.88 182.375 146.88 182.985C146.88 183.549 147.35 183.877 147.725 183.877C149.367 184.018 151.01 184.018 152.652 184.065C153.497 184.112 154.06 184.628 154.06 185.473C154.06 186.083 154.013 186.646 153.966 187.256C153.919 187.772 153.497 188.101 153.075 188.148C151.573 188.289 150.071 188.289 148.57 188.382C147.256 188.429 146.787 188.946 146.787 190.4C146.787 190.541 146.787 190.682 146.787 190.87C146.833 191.761 147.303 192.372 148.054 192.418C149.414 192.465 150.728 192.512 152.089 192.559C152.511 192.606 152.934 192.747 153.356 192.888C153.497 192.935 153.685 193.029 153.732 193.122C154.201 194.108 154.107 195.14 153.825 196.173C153.778 196.267 153.591 196.361 153.497 196.454C153.215 196.548 152.934 196.736 152.652 196.736C149.508 196.736 146.364 196.736 143.22 196.736C142.704 196.736 142.094 196.079 142.047 195.563C142 194.671 141.953 193.779 141.953 192.888C141.953 190.635 141.953 188.382 141.953 186.13C142.047 186.036 142.047 186.036 142.094 186.036Z" fill="#EFA915"/>
<path d="M96.8555 157.971C96.8555 155.109 96.8555 152.293 96.8555 149.43C96.8555 148.163 97.4655 147.553 98.8263 147.553C101.548 147.506 104.223 147.506 106.945 147.553C108.493 147.553 108.962 148.163 108.962 149.852C108.962 151.073 108.493 151.636 107.508 151.683C106.147 151.73 104.786 151.73 103.472 151.777C102.205 151.823 101.689 152.434 101.689 153.841C101.689 154.123 101.689 154.452 101.736 154.733C101.783 155.296 102.299 156 102.768 156C104.411 156.047 106.053 156.094 107.695 156.188C108.493 156.235 108.962 156.798 109.009 157.69C109.009 158.159 109.009 158.581 109.009 159.051C108.962 159.614 108.399 160.271 107.93 160.318C106.428 160.412 104.927 160.459 103.425 160.506C102.017 160.553 101.689 161.35 101.736 162.617C101.736 162.899 101.736 163.274 101.877 163.509C102.111 163.838 102.393 164.354 102.721 164.401C103.754 164.589 104.786 164.589 105.865 164.635C106.616 164.682 107.367 164.635 108.071 164.823C108.399 164.917 108.775 165.386 108.915 165.762C109.056 166.325 109.009 166.935 109.009 167.545C109.009 168.202 108.54 168.765 107.977 168.765C104.692 168.765 101.407 168.765 98.1224 168.765C97.6063 168.765 97.0432 168.155 97.0432 167.545C97.0432 164.401 97.0432 161.256 97.0432 158.112C96.9024 157.971 96.9024 157.971 96.8555 157.971Z" fill="#EFA915"/>
<path d="M84.8416 168.859C82.4483 168.765 80.0551 168.718 77.6619 168.577C77.5211 168.577 77.2395 168.061 77.2865 167.92C77.7088 166.982 78.1781 165.996 78.6942 165.105C80.7121 161.585 82.7299 158.065 84.7477 154.545C85.0292 154.029 85.2639 153.466 85.4985 152.903C85.6393 152.574 85.2639 151.964 84.8416 151.917C83.3399 151.87 81.8383 151.87 80.3367 151.776C79.7266 151.729 79.1635 151.682 78.5535 151.495C78.3188 151.401 77.9903 151.119 77.9434 150.885C77.8496 150.134 77.8026 149.383 77.9434 148.679C77.9903 148.35 78.5065 148.069 78.835 147.834C78.9289 147.74 79.1166 147.693 79.2574 147.693C83.293 147.74 87.3756 147.74 91.4112 147.787C91.9743 147.787 92.3967 148.585 92.162 149.148C91.6459 150.228 91.1297 151.307 90.5196 152.339C88.6895 155.625 86.8125 158.863 84.9354 162.101C84.7008 162.476 84.5131 162.899 84.4192 163.321C84.3723 163.556 84.6069 163.978 84.7477 164.025C85.6393 164.166 86.5309 164.213 87.4225 164.26C88.3141 164.307 89.2057 164.26 90.1442 164.26C92.6782 164.307 92.9598 164.588 92.8659 167.169C92.819 168.061 92.3497 168.624 91.552 168.671C90.0503 168.718 88.5487 168.718 87.0471 168.765C86.2963 168.765 85.5455 168.765 84.7946 168.765C84.8416 168.812 84.8416 168.859 84.8416 168.859Z" fill="#EFA915"/>
<path d="M76.5855 93.3945C76.8671 93.4884 77.2425 93.4884 77.4302 93.6761C78.2279 94.5678 78.9787 95.5064 79.7296 96.445C84.5629 102.546 90.4756 107.286 97.7022 110.383C99.2039 111.04 100.799 111.51 102.348 112.12C102.911 112.354 103.474 112.589 103.943 112.965C104.225 113.199 104.413 113.715 104.413 114.138C104.413 114.607 103.521 115.311 103.146 115.264C102.864 115.217 102.536 115.217 102.254 115.123C91.3672 111.885 82.6859 105.55 76.0693 96.3042C75.8347 95.9288 75.647 95.5064 75.4593 95.084C75.1777 94.4739 75.9285 93.4415 76.5855 93.3945Z" fill="#EFA915"/>
<path d="M69.9212 76.5942C70.1558 76.735 70.5312 76.9696 70.8128 77.2512C71.0005 77.439 71.0943 77.7675 71.1412 78.049C71.8451 81.428 73.0183 84.6662 74.4261 87.8106C74.6138 88.2329 74.8015 88.6553 74.8015 89.0777C74.7546 89.4531 74.5199 89.9694 74.2384 90.1571C73.9099 90.3448 73.3468 90.3448 72.9714 90.204C72.596 90.0632 72.2675 89.6409 72.0329 89.2654C70.2497 85.7926 69.0296 82.132 68.2788 78.2837C68.2318 78.0021 68.3257 77.6736 68.3257 77.392C68.4195 77.0166 69.1704 76.5003 69.9212 76.5942Z" fill="#EFA915"/>
<path d="M94.7422 59.6987C94.7891 58.1969 95.6811 57.0706 96.6201 55.9912C96.5732 57.5399 95.822 58.7132 94.7422 59.6987Z" fill="#EFA915"/>
<path d="M114.547 41.6304C115.345 40.9261 116.33 40.7384 117.362 40.6914C117.081 40.9261 116.846 41.3487 116.518 41.4426C115.861 41.5834 115.204 41.5834 114.547 41.6304Z" fill="#EFA915"/>
<path d="M112.715 42.5699C113.137 41.8657 113.889 41.7248 114.593 41.584C114.358 41.8657 114.17 42.1943 113.842 42.3821C113.56 42.5229 113.137 42.5229 112.715 42.5699Z" fill="#EFA915"/>
<path d="M106.43 46.1831C106.852 45.4319 107.603 45.338 108.355 45.2441C107.885 45.8545 107.181 46.0892 106.43 46.1831Z" fill="#EFA915"/>
<path d="M98.3594 54.3028C98.4063 53.5047 98.7819 52.9413 99.2983 52.3779C99.2983 53.176 99.1105 53.8803 98.3594 54.3028Z" fill="#EFA915"/>
<path d="M93.8516 61.4824C93.9924 60.7782 93.8516 59.8862 94.8375 59.6045C94.6497 60.3557 94.5558 61.0599 93.8516 61.4824Z" fill="#EFA915"/>
<path d="M96.5273 56.0855C96.7151 55.616 96.9968 55.2405 97.5132 55.0996C97.3724 55.663 97.1846 56.0855 96.5273 56.0855Z" fill="#EFA915"/>
<path d="M97.4219 55.1937C97.5627 54.6772 97.7975 54.2547 98.4078 54.2078C98.267 54.6772 97.9852 55.0998 97.4219 55.1937Z" fill="#EFA915"/>
<path d="M99.4378 51.6741C99.7195 51.6741 100.001 51.6272 100.236 51.4863C100.142 52.0497 99.8603 52.4253 99.25 52.4722C99.3908 52.2375 99.4378 51.9558 99.4378 51.6741Z" fill="#EFA915"/>
<path d="M103.75 48.9051C103.797 48.2948 104.219 48.06 104.736 47.9192C104.407 48.2478 104.079 48.5765 103.75 48.9051Z" fill="#EFA915"/>
<path d="M104.645 47.9666C104.691 47.3563 105.114 47.1216 105.63 46.9807C105.302 47.3093 104.973 47.638 104.645 47.9666Z" fill="#EFA915"/>
<path d="M105.539 47.0748C105.586 46.5114 106.009 46.2297 106.525 46.0889C106.478 46.6992 106.055 46.9339 105.539 47.0748Z" fill="#EFA915"/>
<path d="M135.008 158.3C135.055 157.643 135.102 157.033 135.195 156.469C135.571 154.17 136.885 152.621 139.043 151.917C141.202 151.213 143.22 151.73 144.815 153.372C147.772 156.376 146.927 161.163 144.815 163.181C143.361 164.635 141.531 165.339 139.466 164.776C137.26 164.166 135.806 162.758 135.242 160.506C135.102 159.755 135.102 158.957 135.008 158.3Z" fill="#FEFEFE"/>
<path d="M162.457 182.14C162.504 181.53 162.457 180.92 162.645 180.356C162.785 180.028 163.208 179.652 163.583 179.559C164.334 179.324 165.038 179.512 165.742 179.887C167.009 180.591 167.384 182.75 166.352 183.782C165.601 184.58 164.663 184.956 163.536 184.768C163.02 184.674 162.739 184.345 162.645 183.923C162.457 183.313 162.504 182.703 162.457 182.14Z" fill="#FEFEFE"/>
<path d="M117.411 153.184C117.364 153.56 117.364 152.949 117.505 152.386C117.552 152.152 117.786 151.823 118.068 151.729C119.288 151.213 120.977 151.823 121.54 152.949C122.197 154.217 121.775 155.718 120.508 156.422C119.992 156.704 119.382 156.798 118.819 156.892C118.256 156.985 117.552 156.469 117.505 155.953C117.505 155.812 117.458 155.671 117.458 155.531C117.364 155.014 117.411 154.592 117.411 153.184Z" fill="#FEFEFE"/>
</svg>
